G04*
G04 #@! TF.GenerationSoftware,Altium Limited,Altium Designer,21.2.2 (38)*
G04*
G04 Layer_Physical_Order=2*
G04 Layer_Color=5485115*
%FSLAX25Y25*%
%MOIN*%
G70*
G04*
G04 #@! TF.SameCoordinates,F28A5215-CE45-4803-9B4C-17DA2ED16A0E*
G04*
G04*
G04 #@! TF.FilePolarity,Positive*
G04*
G01*
G75*
%ADD98R,0.05906X0.05906*%
%ADD101C,0.07874*%
%ADD102C,0.12992*%
%ADD104R,0.06299X0.06299*%
%ADD106C,0.09843*%
%ADD107C,0.10433*%
%ADD109O,0.10000X0.13000*%
%ADD110R,0.07087X0.06299*%
%ADD112C,0.03150*%
%ADD113C,0.03543*%
%ADD115C,0.19685*%
%ADD116C,0.05906*%
G36*
X309842Y429134D02*
X283661D01*
X266929Y445866D01*
Y509055D01*
X267602D01*
Y506307D01*
X276689D01*
Y509055D01*
X278429D01*
Y506307D01*
X287516D01*
Y509055D01*
X289256D01*
Y506307D01*
X298342D01*
Y509055D01*
X300083D01*
Y506307D01*
X309169D01*
Y509055D01*
X309842D01*
Y429134D01*
D02*
G37*
G36*
X452756Y508858D02*
Y473228D01*
X442323Y473228D01*
X439567Y475984D01*
X427559Y475984D01*
X422638Y471063D01*
Y461811D01*
X358858Y398031D01*
Y396260D01*
X353951D01*
Y390201D01*
X340551D01*
Y390301D01*
Y396260D01*
X335630D01*
Y404724D01*
X390551Y459646D01*
X396850D01*
X404331Y467126D01*
X404331Y477756D01*
X414370Y487795D01*
X439370Y487795D01*
X445866Y494291D01*
X445866Y509055D01*
X452953D01*
X452756Y508858D01*
D02*
G37*
G36*
X528740Y408661D02*
X525394Y405315D01*
Y396850D01*
X520472D01*
Y390744D01*
X507072D01*
Y390844D01*
Y396850D01*
X502165D01*
X502165Y406496D01*
X510827Y415158D01*
Y508858D01*
X528740D01*
X528740Y408661D01*
D02*
G37*
G36*
X587402Y390595D02*
X574002D01*
Y390694D01*
Y403594D01*
X587402D01*
Y390595D01*
D02*
G37*
G36*
X550394Y464961D02*
X561221Y454134D01*
X561221Y408071D01*
X558465Y405315D01*
X558465Y397047D01*
X553543D01*
Y390595D01*
X540143D01*
Y390694D01*
Y397047D01*
X535236D01*
X535236Y405118D01*
X532283Y408071D01*
Y408465D01*
X532283Y509055D01*
X550394D01*
Y464961D01*
D02*
G37*
G36*
X507087Y416535D02*
X492323Y401772D01*
Y397047D01*
X487416D01*
Y390595D01*
X474016D01*
Y390694D01*
Y397047D01*
X469095D01*
Y410827D01*
X488976Y430709D01*
X488976Y509055D01*
X507087D01*
X507087Y416535D01*
D02*
G37*
G36*
X485236Y431496D02*
X458858Y405118D01*
Y396850D01*
X453937D01*
Y390595D01*
X440537D01*
Y390694D01*
Y396850D01*
X435630D01*
Y409252D01*
X478346Y451968D01*
X478346Y509055D01*
X485236D01*
X485236Y431496D01*
D02*
G37*
G36*
X474409Y451772D02*
X425787Y403150D01*
X425787Y396850D01*
X420880D01*
Y390595D01*
X407480D01*
Y390694D01*
Y396850D01*
X402559D01*
X402559Y404724D01*
X467323Y469488D01*
X467323Y509055D01*
X474409D01*
X474409Y451772D01*
D02*
G37*
G36*
X463779Y470276D02*
X392323Y398819D01*
Y396654D01*
X387402D01*
Y390350D01*
X374002D01*
Y390450D01*
Y396654D01*
X369094D01*
Y404724D01*
X423032Y458661D01*
X442126D01*
X456496Y473032D01*
Y509055D01*
X463779D01*
Y470276D01*
D02*
G37*
G36*
X313583Y379331D02*
X626181Y379331D01*
X626181Y300197D01*
X313583Y300197D01*
X313583Y254611D01*
Y250906D01*
X313583Y216850D01*
Y212952D01*
X313583Y206527D01*
Y199920D01*
Y187961D01*
Y185030D01*
Y176173D01*
X313583Y174690D01*
Y169547D01*
Y165454D01*
Y161280D01*
Y156397D01*
Y152137D01*
Y142421D01*
X313583Y138138D01*
Y133404D01*
X313109Y133277D01*
X312481Y132914D01*
X311968Y132401D01*
X311605Y131772D01*
X311417Y131071D01*
Y130346D01*
X311605Y129645D01*
X311968Y129016D01*
X312481Y128503D01*
X313109Y128141D01*
X313583Y128014D01*
Y121011D01*
X297835Y105263D01*
X297835Y97835D01*
X311901Y83768D01*
X311694Y83268D01*
X311251D01*
X310550Y83080D01*
X309922Y82717D01*
X309646Y82441D01*
X309369Y82717D01*
X308741Y83080D01*
X308040Y83268D01*
X307314D01*
X306613Y83080D01*
X305985Y82717D01*
X305472Y82204D01*
X305109Y81576D01*
X304921Y80875D01*
Y80149D01*
X305109Y79448D01*
X305289Y79137D01*
X305055Y78557D01*
X305039Y78552D01*
X304410Y78189D01*
X303897Y77676D01*
X303534Y77048D01*
X303346Y76347D01*
Y75621D01*
X303534Y74920D01*
X303897Y74292D01*
X304410Y73779D01*
X305039Y73416D01*
X305739Y73228D01*
X306465D01*
X307166Y73416D01*
X307794Y73779D01*
X308308Y74292D01*
X308670Y74920D01*
X308858Y75621D01*
Y76347D01*
X308670Y77048D01*
X308491Y77359D01*
X308724Y77939D01*
X308741Y77944D01*
X309369Y78307D01*
X309646Y78583D01*
X309922Y78307D01*
X310550Y77944D01*
X311251Y77756D01*
X311977D01*
X312678Y77944D01*
X313083Y78177D01*
X313583Y77908D01*
X313583Y41877D01*
Y21099D01*
X283735D01*
X276818Y28016D01*
X277170Y28866D01*
X277575Y30554D01*
X277711Y32283D01*
Y42205D01*
X277575Y43935D01*
X277170Y45622D01*
X276506Y47225D01*
X275599Y48704D01*
X274472Y50024D01*
X265299Y59197D01*
X263980Y60324D01*
X262500Y61230D01*
X260897Y61895D01*
X259210Y62300D01*
X257480Y62436D01*
X91391D01*
X70472Y83355D01*
X70472Y358268D01*
X91732Y379528D01*
X313583Y379331D01*
D02*
G37*
G36*
X684646Y11802D02*
Y1405D01*
X316929D01*
Y12760D01*
X348149D01*
X348150Y12760D01*
X349229Y12902D01*
X350234Y13318D01*
X351098Y13981D01*
X363298Y26181D01*
X364105D01*
X365284Y26416D01*
X366394Y26876D01*
X367394Y27543D01*
X368244Y28393D01*
X368912Y29393D01*
X369372Y30503D01*
X369606Y31682D01*
Y32884D01*
X369372Y34064D01*
X368912Y35174D01*
X368244Y36173D01*
X367394Y37023D01*
X366394Y37691D01*
X365284Y38151D01*
X364105Y38386D01*
X362903D01*
X361724Y38151D01*
X360613Y37691D01*
X359614Y37023D01*
X358764Y36173D01*
X358096Y35174D01*
X357636Y34064D01*
X357402Y32884D01*
Y32078D01*
X346423Y21099D01*
X316929D01*
Y31495D01*
X317429Y31544D01*
X317636Y30503D01*
X318096Y29393D01*
X318764Y28393D01*
X319614Y27543D01*
X320613Y26876D01*
X321724Y26416D01*
X322903Y26181D01*
X324105D01*
X325284Y26416D01*
X326395Y26876D01*
X327394Y27543D01*
X328244Y28393D01*
X328912Y29393D01*
X329372Y30503D01*
X329606Y31682D01*
Y32884D01*
X329372Y34064D01*
X328912Y35174D01*
X328244Y36173D01*
X327394Y37023D01*
X326395Y37691D01*
X325284Y38151D01*
X324105Y38386D01*
X322903D01*
X321724Y38151D01*
X320613Y37691D01*
X319614Y37023D01*
X318764Y36173D01*
X318096Y35174D01*
X317636Y34064D01*
X317429Y33023D01*
X316929Y33072D01*
X316929Y66401D01*
Y77153D01*
X317429Y77559D01*
X317882D01*
X318583Y77747D01*
X319212Y78110D01*
X319488Y78386D01*
X319764Y78110D01*
X320393Y77747D01*
X321094Y77559D01*
X321819D01*
X322520Y77747D01*
X323149Y78110D01*
X323662Y78623D01*
X324025Y79251D01*
X324052Y79353D01*
X324570D01*
X324597Y79251D01*
X324960Y78623D01*
X325473Y78110D01*
X326102Y77747D01*
X326802Y77559D01*
X327528D01*
X328229Y77747D01*
X328857Y78110D01*
X329134Y78386D01*
X329410Y78110D01*
X330039Y77747D01*
X330739Y77559D01*
X331465D01*
X332166Y77747D01*
X332794Y78110D01*
X333308Y78623D01*
X333670Y79251D01*
X333858Y79952D01*
Y80678D01*
X333670Y81379D01*
X333308Y82007D01*
X332794Y82520D01*
X332166Y82883D01*
X331465Y83071D01*
X330739D01*
X330039Y82883D01*
X329410Y82520D01*
X329134Y82244D01*
X328857Y82520D01*
X328229Y82883D01*
X327528Y83071D01*
X326802D01*
X326102Y82883D01*
X325473Y82520D01*
X324960Y82007D01*
X324597Y81379D01*
X324570Y81276D01*
X324052D01*
X324025Y81379D01*
X323662Y82007D01*
X323149Y82520D01*
X322520Y82883D01*
X321819Y83071D01*
X321094D01*
X320393Y82883D01*
X319764Y82520D01*
X319488Y82244D01*
X319212Y82520D01*
X318583Y82883D01*
X317882Y83071D01*
X317157D01*
X316988Y83026D01*
X316929Y83071D01*
X301378Y98850D01*
Y104724D01*
X316929Y120275D01*
Y130346D01*
X316929Y130346D01*
Y131071D01*
X316929Y131072D01*
Y137364D01*
X317429Y137430D01*
X317511Y137125D01*
X317874Y136497D01*
X318387Y135984D01*
X319015Y135621D01*
X319716Y135433D01*
X320442D01*
X321143Y135621D01*
X321771Y135984D01*
X322284Y136497D01*
X322647Y137125D01*
X322835Y137826D01*
Y138552D01*
X322647Y139253D01*
X322284Y139881D01*
X321771Y140394D01*
X321143Y140757D01*
X320442Y140945D01*
X319716D01*
X319015Y140757D01*
X318387Y140394D01*
X317874Y139881D01*
X317511Y139253D01*
X317429Y138948D01*
X316929Y139014D01*
X316929Y297244D01*
X684646Y297244D01*
X684646Y11802D01*
D02*
G37*
G36*
X78992Y43559D02*
X80312Y42432D01*
X81791Y41526D01*
X83394Y40861D01*
X85081Y40456D01*
X86811Y40320D01*
X252900D01*
X255596Y37624D01*
Y32283D01*
X255732Y30554D01*
X256137Y28866D01*
X256801Y27263D01*
X257708Y25784D01*
X258835Y24464D01*
X260154Y23338D01*
X261633Y22431D01*
X263236Y21767D01*
X264924Y21362D01*
X266653Y21226D01*
X268383Y21362D01*
X270071Y21767D01*
X270921Y22119D01*
X279060Y13981D01*
X279060Y13981D01*
X279923Y13318D01*
X280929Y12902D01*
X282008Y12760D01*
X313583D01*
Y1405D01*
X70472D01*
Y39687D01*
X70972Y39894D01*
X71339Y39527D01*
X71968Y39164D01*
X72669Y38976D01*
X73394D01*
X74095Y39164D01*
X74724Y39527D01*
X75237Y40040D01*
X75600Y40668D01*
X75787Y41370D01*
Y42095D01*
X75600Y42796D01*
X75237Y43424D01*
X74724Y43938D01*
X74095Y44300D01*
X73394Y44488D01*
X72669D01*
X71968Y44300D01*
X71339Y43938D01*
X70972Y43571D01*
X70472Y43777D01*
Y51425D01*
X70934Y51617D01*
X78992Y43559D01*
D02*
G37*
%LPC*%
G36*
X309169Y505307D02*
X300083D01*
Y501657D01*
Y500402D01*
X309169D01*
Y501657D01*
Y505307D01*
D02*
G37*
G36*
X298342D02*
X289256D01*
Y501657D01*
Y500402D01*
X298342D01*
Y501657D01*
Y505307D01*
D02*
G37*
G36*
X287516D02*
X278429D01*
Y501657D01*
Y500402D01*
X287516D01*
Y501657D01*
Y505307D01*
D02*
G37*
G36*
X276689D02*
X267602D01*
Y501657D01*
Y500402D01*
X276689D01*
Y501657D01*
Y505307D01*
D02*
G37*
G36*
X309169Y499402D02*
X300083D01*
Y495752D01*
Y494496D01*
X309169D01*
Y495752D01*
Y499402D01*
D02*
G37*
G36*
X298342D02*
X289256D01*
Y495752D01*
Y494496D01*
X298342D01*
Y495752D01*
Y499402D01*
D02*
G37*
G36*
X287516D02*
X278429D01*
Y495752D01*
Y494496D01*
X287516D01*
Y495752D01*
Y499402D01*
D02*
G37*
G36*
X276689D02*
X267602D01*
Y495752D01*
Y494496D01*
X276689D01*
Y495752D01*
Y499402D01*
D02*
G37*
G36*
X309169Y493496D02*
X300083D01*
Y489847D01*
Y488590D01*
X309169D01*
Y489847D01*
Y493496D01*
D02*
G37*
G36*
X298342D02*
X289256D01*
Y489847D01*
Y488590D01*
X298342D01*
Y489847D01*
Y493496D01*
D02*
G37*
G36*
X287516D02*
X278429D01*
Y489847D01*
Y488590D01*
X287516D01*
Y489847D01*
Y493496D01*
D02*
G37*
G36*
X276689D02*
X267602D01*
Y489847D01*
Y488590D01*
X276689D01*
Y489847D01*
Y493496D01*
D02*
G37*
G36*
X309169Y487591D02*
X300083D01*
Y483941D01*
Y482685D01*
X309169D01*
Y483941D01*
Y487591D01*
D02*
G37*
G36*
X298342D02*
X289256D01*
Y483941D01*
Y482685D01*
X298342D01*
Y483941D01*
Y487591D01*
D02*
G37*
G36*
X287516D02*
X278429D01*
Y483941D01*
Y482685D01*
X287516D01*
Y483941D01*
Y487591D01*
D02*
G37*
G36*
X276689D02*
X267602D01*
Y483941D01*
Y482685D01*
X276689D01*
Y483941D01*
Y487591D01*
D02*
G37*
G36*
X309169Y481685D02*
X300083D01*
Y478035D01*
Y476780D01*
X309169D01*
Y478035D01*
Y481685D01*
D02*
G37*
G36*
X298342D02*
X289256D01*
Y478035D01*
Y476780D01*
X298342D01*
Y478035D01*
Y481685D01*
D02*
G37*
G36*
X287516D02*
X278429D01*
Y478035D01*
Y476780D01*
X287516D01*
Y478035D01*
Y481685D01*
D02*
G37*
G36*
X276689D02*
X267602D01*
Y478035D01*
Y476780D01*
X276689D01*
Y478035D01*
Y481685D01*
D02*
G37*
G36*
X309169Y475779D02*
X305126D01*
Y472130D01*
X309169D01*
Y475779D01*
D02*
G37*
G36*
X304126D02*
X300083D01*
Y472130D01*
X304126D01*
Y475779D01*
D02*
G37*
G36*
X298342D02*
X294299D01*
Y472130D01*
X298342D01*
Y475779D01*
D02*
G37*
G36*
X293299D02*
X289256D01*
Y472130D01*
X293299D01*
Y475779D01*
D02*
G37*
G36*
X287516D02*
X283472D01*
Y472130D01*
X287516D01*
Y475779D01*
D02*
G37*
G36*
X282472D02*
X278429D01*
Y472130D01*
X282472D01*
Y475779D01*
D02*
G37*
G36*
X276689D02*
X272646D01*
Y472130D01*
X276689D01*
Y475779D01*
D02*
G37*
G36*
X271646D02*
X267602D01*
Y472130D01*
X271646D01*
Y475779D01*
D02*
G37*
G36*
X614733Y371260D02*
X614007D01*
X613306Y371072D01*
X612992Y370891D01*
X612678Y371072D01*
X611977Y371260D01*
X611251D01*
X610550Y371072D01*
X609922Y370709D01*
X609409Y370196D01*
X609046Y369568D01*
X608858Y368867D01*
Y368141D01*
X609046Y367440D01*
X609379Y366863D01*
X609046Y366287D01*
X608858Y365586D01*
Y364860D01*
X609046Y364159D01*
X609379Y363583D01*
X609046Y363006D01*
X608858Y362305D01*
Y361579D01*
X609046Y360878D01*
X609379Y360302D01*
X609046Y359725D01*
X608858Y359024D01*
Y358299D01*
X609046Y357598D01*
X609409Y356969D01*
X609922Y356456D01*
X610550Y356093D01*
X611251Y355906D01*
X611977D01*
X612678Y356093D01*
X612992Y356275D01*
X613306Y356093D01*
X614007Y355906D01*
X614733D01*
X615434Y356093D01*
X616062Y356456D01*
X616575Y356969D01*
X616938Y357598D01*
X617126Y358299D01*
Y359024D01*
X616938Y359725D01*
X616605Y360302D01*
X616938Y360878D01*
X617126Y361579D01*
Y362305D01*
X616938Y363006D01*
X616605Y363583D01*
X616938Y364159D01*
X617126Y364860D01*
Y365586D01*
X616938Y366287D01*
X616605Y366863D01*
X616938Y367440D01*
X617126Y368141D01*
Y368867D01*
X616938Y369568D01*
X616575Y370196D01*
X616062Y370709D01*
X615434Y371072D01*
X614733Y371260D01*
D02*
G37*
G36*
X520472Y351955D02*
X520404Y351948D01*
X507141D01*
X507072Y351955D01*
X505861Y351836D01*
X504696Y351482D01*
X503622Y350908D01*
X502681Y350136D01*
X501908Y349195D01*
X501334Y348121D01*
X500981Y346956D01*
X500861Y345744D01*
Y342744D01*
X500981Y341532D01*
X501334Y340367D01*
X501908Y339293D01*
X502681Y338352D01*
X503622Y337580D01*
X504696Y337006D01*
X505861Y336652D01*
X507072Y336533D01*
X507141Y336540D01*
X520404D01*
X520472Y336533D01*
X521684Y336652D01*
X522849Y337006D01*
X523923Y337580D01*
X524864Y338352D01*
X525637Y339293D01*
X526211Y340367D01*
X526564Y341532D01*
X526683Y342744D01*
Y345744D01*
X526564Y346956D01*
X526211Y348121D01*
X525637Y349195D01*
X524864Y350136D01*
X523923Y350908D01*
X522849Y351482D01*
X521684Y351836D01*
X520472Y351955D01*
D02*
G37*
G36*
X553543Y351805D02*
X553475Y351799D01*
X540212D01*
X540143Y351805D01*
X538932Y351686D01*
X537767Y351333D01*
X536693Y350759D01*
X535751Y349986D01*
X534979Y349045D01*
X534405Y347971D01*
X534052Y346806D01*
X533932Y345595D01*
Y342595D01*
X534052Y341383D01*
X534405Y340218D01*
X534979Y339144D01*
X535751Y338203D01*
X536693Y337430D01*
X537767Y336856D01*
X538932Y336503D01*
X540143Y336384D01*
X540212Y336390D01*
X553475D01*
X553543Y336384D01*
X554755Y336503D01*
X555920Y336856D01*
X556994Y337430D01*
X557935Y338203D01*
X558708Y339144D01*
X559281Y340218D01*
X559635Y341383D01*
X559754Y342595D01*
Y345595D01*
X559635Y346806D01*
X559281Y347971D01*
X558708Y349045D01*
X557935Y349986D01*
X556994Y350759D01*
X555920Y351333D01*
X554755Y351686D01*
X553543Y351805D01*
D02*
G37*
G36*
X487416D02*
X487347Y351799D01*
X474085D01*
X474016Y351805D01*
X472804Y351686D01*
X471639Y351333D01*
X470565Y350759D01*
X469624Y349986D01*
X468852Y349045D01*
X468278Y347971D01*
X467924Y346806D01*
X467805Y345595D01*
Y342595D01*
X467924Y341383D01*
X468278Y340218D01*
X468852Y339144D01*
X469624Y338203D01*
X470565Y337430D01*
X471639Y336856D01*
X472804Y336503D01*
X474016Y336384D01*
X474085Y336390D01*
X487347D01*
X487416Y336384D01*
X488627Y336503D01*
X489793Y336856D01*
X490866Y337430D01*
X491808Y338203D01*
X492580Y339144D01*
X493154Y340218D01*
X493507Y341383D01*
X493627Y342595D01*
Y345595D01*
X493507Y346806D01*
X493154Y347971D01*
X492580Y349045D01*
X491808Y349986D01*
X490866Y350759D01*
X489793Y351333D01*
X488627Y351686D01*
X487416Y351805D01*
D02*
G37*
G36*
X453937D02*
X453868Y351799D01*
X440606D01*
X440537Y351805D01*
X439325Y351686D01*
X438160Y351333D01*
X437086Y350759D01*
X436145Y349986D01*
X435373Y349045D01*
X434799Y347971D01*
X434445Y346806D01*
X434326Y345595D01*
Y342595D01*
X434445Y341383D01*
X434799Y340218D01*
X435373Y339144D01*
X436145Y338203D01*
X437086Y337430D01*
X438160Y336856D01*
X439325Y336503D01*
X440537Y336384D01*
X440606Y336390D01*
X453868D01*
X453937Y336384D01*
X455149Y336503D01*
X456314Y336856D01*
X457388Y337430D01*
X458329Y338203D01*
X459101Y339144D01*
X459675Y340218D01*
X460029Y341383D01*
X460148Y342595D01*
Y345595D01*
X460029Y346806D01*
X459675Y347971D01*
X459101Y349045D01*
X458329Y349986D01*
X457388Y350759D01*
X456314Y351333D01*
X455149Y351686D01*
X453937Y351805D01*
D02*
G37*
G36*
X420880D02*
X420812Y351799D01*
X407549D01*
X407480Y351805D01*
X406269Y351686D01*
X405103Y351333D01*
X404030Y350759D01*
X403089Y349986D01*
X402316Y349045D01*
X401742Y347971D01*
X401389Y346806D01*
X401269Y345595D01*
Y342595D01*
X401389Y341383D01*
X401742Y340218D01*
X402316Y339144D01*
X403089Y338203D01*
X404030Y337430D01*
X405103Y336856D01*
X406269Y336503D01*
X407480Y336384D01*
X407549Y336390D01*
X420812D01*
X420880Y336384D01*
X422092Y336503D01*
X423257Y336856D01*
X424331Y337430D01*
X425272Y338203D01*
X426045Y339144D01*
X426618Y340218D01*
X426972Y341383D01*
X427091Y342595D01*
Y345595D01*
X426972Y346806D01*
X426618Y347971D01*
X426045Y349045D01*
X425272Y349986D01*
X424331Y350759D01*
X423257Y351333D01*
X422092Y351686D01*
X420880Y351805D01*
D02*
G37*
G36*
X387402Y351561D02*
X387333Y351555D01*
X374070D01*
X374002Y351561D01*
X372790Y351442D01*
X371625Y351089D01*
X370551Y350515D01*
X369610Y349742D01*
X368837Y348801D01*
X368263Y347727D01*
X367910Y346562D01*
X367791Y345350D01*
Y342350D01*
X367910Y341139D01*
X368263Y339973D01*
X368837Y338900D01*
X369610Y337959D01*
X370551Y337186D01*
X371625Y336612D01*
X372790Y336259D01*
X374002Y336139D01*
X374070Y336146D01*
X387333D01*
X387402Y336139D01*
X388613Y336259D01*
X389778Y336612D01*
X390852Y337186D01*
X391793Y337959D01*
X392566Y338900D01*
X393140Y339973D01*
X393493Y341139D01*
X393613Y342350D01*
Y345350D01*
X393493Y346562D01*
X393140Y347727D01*
X392566Y348801D01*
X391793Y349742D01*
X390852Y350515D01*
X389778Y351089D01*
X388613Y351442D01*
X387402Y351561D01*
D02*
G37*
G36*
X353951Y351412D02*
X353882Y351405D01*
X340620D01*
X340551Y351412D01*
X339339Y351292D01*
X338174Y350939D01*
X337101Y350365D01*
X336159Y349593D01*
X335387Y348651D01*
X334813Y347578D01*
X334459Y346412D01*
X334340Y345201D01*
Y342201D01*
X334459Y340989D01*
X334813Y339824D01*
X335387Y338750D01*
X336159Y337809D01*
X337101Y337036D01*
X338174Y336463D01*
X339339Y336109D01*
X340551Y335990D01*
X340620Y335997D01*
X353882D01*
X353951Y335990D01*
X355163Y336109D01*
X356328Y336463D01*
X357402Y337036D01*
X358343Y337809D01*
X359116Y338750D01*
X359689Y339824D01*
X360043Y340989D01*
X360162Y342201D01*
Y345201D01*
X360043Y346412D01*
X359689Y347578D01*
X359116Y348651D01*
X358343Y349593D01*
X357402Y350365D01*
X356328Y350939D01*
X355163Y351292D01*
X353951Y351412D01*
D02*
G37*
G36*
X586902Y351574D02*
X586225Y351508D01*
X585094Y351165D01*
X584052Y350607D01*
X584036Y350594D01*
X586902D01*
Y351574D01*
D02*
G37*
G36*
X574502Y351574D02*
Y350594D01*
X577367D01*
X577351Y350607D01*
X576309Y351165D01*
X575178Y351508D01*
X574502Y351574D01*
D02*
G37*
G36*
X587902D02*
Y344595D01*
X593431D01*
Y345595D01*
X593315Y346771D01*
X592972Y347902D01*
X592415Y348944D01*
X591665Y349858D01*
X590751Y350607D01*
X589709Y351165D01*
X588578Y351508D01*
X587902Y351574D01*
D02*
G37*
G36*
X573502Y351574D02*
X572825Y351508D01*
X571694Y351165D01*
X570652Y350607D01*
X569738Y349858D01*
X568989Y348944D01*
X568432Y347902D01*
X568088Y346771D01*
X567973Y345595D01*
Y344595D01*
X573502D01*
Y351574D01*
D02*
G37*
G36*
X593431Y343595D02*
X587902D01*
Y336615D01*
X588578Y336681D01*
X589709Y337024D01*
X590751Y337581D01*
X591665Y338331D01*
X592415Y339245D01*
X592972Y340287D01*
X593315Y341418D01*
X593431Y342595D01*
Y343595D01*
D02*
G37*
G36*
X577367Y337595D02*
X574502D01*
Y336615D01*
X575178Y336681D01*
X576309Y337024D01*
X577351Y337581D01*
X577367Y337595D01*
D02*
G37*
G36*
X586902D02*
X584036D01*
X584052Y337581D01*
X585094Y337024D01*
X586225Y336681D01*
X586902Y336615D01*
Y337595D01*
D02*
G37*
G36*
X573502Y343595D02*
X567973D01*
Y342595D01*
X568088Y341418D01*
X568432Y340287D01*
X568989Y339245D01*
X569738Y338331D01*
X570652Y337581D01*
X571694Y337024D01*
X572825Y336681D01*
X573502Y336615D01*
Y343595D01*
D02*
G37*
G36*
X292016Y351614D02*
X290504D01*
X289020Y351319D01*
X287623Y350740D01*
X286366Y349900D01*
X285297Y348831D01*
X284456Y347573D01*
X283878Y346176D01*
X283583Y344693D01*
Y343181D01*
X283878Y341698D01*
X284456Y340300D01*
X285297Y339043D01*
X286366Y337974D01*
X287623Y337134D01*
X289020Y336555D01*
X290504Y336260D01*
X292016D01*
X293499Y336555D01*
X294896Y337134D01*
X296154Y337974D01*
X297223Y339043D01*
X298063Y340300D01*
X298642Y341698D01*
X298937Y343181D01*
Y344693D01*
X298642Y346176D01*
X298063Y347573D01*
X297223Y348831D01*
X296154Y349900D01*
X294896Y350740D01*
X293499Y351319D01*
X292016Y351614D01*
D02*
G37*
G36*
X170362D02*
X168850D01*
X167367Y351319D01*
X165970Y350740D01*
X164712Y349900D01*
X163643Y348831D01*
X162803Y347573D01*
X162224Y346176D01*
X161929Y344693D01*
Y343181D01*
X162224Y341698D01*
X162803Y340300D01*
X163643Y339043D01*
X164712Y337974D01*
X165970Y337134D01*
X167367Y336555D01*
X168850Y336260D01*
X170362D01*
X171846Y336555D01*
X173243Y337134D01*
X174500Y337974D01*
X175569Y339043D01*
X176410Y340300D01*
X176988Y341698D01*
X177284Y343181D01*
Y344693D01*
X176988Y346176D01*
X176410Y347573D01*
X175569Y348831D01*
X174500Y349900D01*
X173243Y350740D01*
X171846Y351319D01*
X170362Y351614D01*
D02*
G37*
G36*
X623638Y309858D02*
X620185D01*
Y306405D01*
X623638D01*
Y309858D01*
D02*
G37*
G36*
X536433D02*
X532980D01*
Y306405D01*
X536433D01*
Y309858D01*
D02*
G37*
G36*
X492831D02*
X489378D01*
Y306405D01*
X492831D01*
Y309858D01*
D02*
G37*
G36*
X449228D02*
X445776D01*
Y306405D01*
X449228D01*
Y309858D01*
D02*
G37*
G36*
X619185D02*
X615732D01*
Y306405D01*
X619185D01*
Y309858D01*
D02*
G37*
G36*
X531980D02*
X528528D01*
Y306405D01*
X531980D01*
Y309858D01*
D02*
G37*
G36*
X488378D02*
X484925D01*
Y306405D01*
X488378D01*
Y309858D01*
D02*
G37*
G36*
X444776D02*
X441323D01*
Y306405D01*
X444776D01*
Y309858D01*
D02*
G37*
G36*
X580035D02*
X576583D01*
Y306405D01*
X580035D01*
Y309858D01*
D02*
G37*
G36*
X575583D02*
X572130D01*
Y306405D01*
X575583D01*
Y309858D01*
D02*
G37*
G36*
X292016Y321614D02*
X290504D01*
X289020Y321319D01*
X287623Y320740D01*
X286366Y319900D01*
X285297Y318831D01*
X284456Y317573D01*
X283878Y316176D01*
X283583Y314693D01*
Y313181D01*
X283878Y311698D01*
X284456Y310300D01*
X285297Y309043D01*
X286366Y307974D01*
X287623Y307134D01*
X289020Y306555D01*
X290504Y306260D01*
X292016D01*
X293499Y306555D01*
X294896Y307134D01*
X296154Y307974D01*
X297223Y309043D01*
X298063Y310300D01*
X298642Y311698D01*
X298937Y313181D01*
Y314693D01*
X298642Y316176D01*
X298063Y317573D01*
X297223Y318831D01*
X296154Y319900D01*
X294896Y320740D01*
X293499Y321319D01*
X292016Y321614D01*
D02*
G37*
G36*
X170362D02*
X168850D01*
X167367Y321319D01*
X165970Y320740D01*
X164712Y319900D01*
X163643Y318831D01*
X162803Y317573D01*
X162224Y316176D01*
X161929Y314693D01*
Y313181D01*
X162224Y311698D01*
X162803Y310300D01*
X163643Y309043D01*
X164712Y307974D01*
X165970Y307134D01*
X167367Y306555D01*
X168850Y306260D01*
X170362D01*
X171846Y306555D01*
X173243Y307134D01*
X174500Y307974D01*
X175569Y309043D01*
X176410Y310300D01*
X176988Y311698D01*
X177284Y313181D01*
Y314693D01*
X176988Y316176D01*
X176410Y317573D01*
X175569Y318831D01*
X174500Y319900D01*
X173243Y320740D01*
X171846Y321319D01*
X170362Y321614D01*
D02*
G37*
G36*
X100345Y311433D02*
X100106D01*
Y304437D01*
X107102D01*
Y304675D01*
X106814Y306123D01*
X106249Y307488D01*
X105429Y308716D01*
X104385Y309760D01*
X103157Y310580D01*
X101793Y311145D01*
X100345Y311433D01*
D02*
G37*
G36*
X221998D02*
X221760D01*
Y304437D01*
X228756D01*
Y304675D01*
X228468Y306123D01*
X227903Y307488D01*
X227082Y308716D01*
X226038Y309760D01*
X224811Y310580D01*
X223446Y311145D01*
X221998Y311433D01*
D02*
G37*
G36*
X220760D02*
X220521D01*
X219073Y311145D01*
X217709Y310580D01*
X216481Y309760D01*
X215437Y308716D01*
X214617Y307488D01*
X214052Y306123D01*
X213764Y304675D01*
Y304437D01*
X220760D01*
Y311433D01*
D02*
G37*
G36*
X99106D02*
X98868D01*
X97420Y311145D01*
X96056Y310580D01*
X94828Y309760D01*
X93784Y308716D01*
X92963Y307488D01*
X92398Y306123D01*
X92110Y304675D01*
Y304437D01*
X99106D01*
Y311433D01*
D02*
G37*
G36*
X389339Y307874D02*
X388614D01*
X387913Y307686D01*
X387284Y307323D01*
X386771Y306810D01*
X386408Y306182D01*
X386221Y305481D01*
Y304755D01*
X386408Y304054D01*
X386771Y303426D01*
X387284Y302913D01*
X387913Y302550D01*
X388614Y302362D01*
X389339D01*
X390040Y302550D01*
X390669Y302913D01*
X391182Y303426D01*
X391545Y304054D01*
X391732Y304755D01*
Y305481D01*
X391545Y306182D01*
X391182Y306810D01*
X390669Y307323D01*
X390040Y307686D01*
X389339Y307874D01*
D02*
G37*
G36*
X623638Y305405D02*
X620185D01*
Y301953D01*
X623638D01*
Y305405D01*
D02*
G37*
G36*
X619185D02*
X615732D01*
Y301953D01*
X619185D01*
Y305405D01*
D02*
G37*
G36*
X580035Y305405D02*
X576583D01*
Y301953D01*
X580035D01*
Y305405D01*
D02*
G37*
G36*
X575583D02*
X572130D01*
Y301953D01*
X575583D01*
Y305405D01*
D02*
G37*
G36*
X536433Y305405D02*
X532980D01*
Y301953D01*
X536433D01*
Y305405D01*
D02*
G37*
G36*
X531980D02*
X528528D01*
Y301953D01*
X531980D01*
Y305405D01*
D02*
G37*
G36*
X492831D02*
X489378D01*
Y301953D01*
X492831D01*
Y305405D01*
D02*
G37*
G36*
X488378D02*
X484925D01*
Y301953D01*
X488378D01*
Y305405D01*
D02*
G37*
G36*
X449228D02*
X445776D01*
Y301953D01*
X449228D01*
Y305405D01*
D02*
G37*
G36*
X444776D02*
X441323D01*
Y301953D01*
X444776D01*
Y305405D01*
D02*
G37*
G36*
X228756Y303437D02*
X221760D01*
Y296441D01*
X221998D01*
X223446Y296729D01*
X224811Y297294D01*
X226038Y298114D01*
X227082Y299159D01*
X227903Y300386D01*
X228468Y301750D01*
X228756Y303199D01*
Y303437D01*
D02*
G37*
G36*
X220760D02*
X213764D01*
Y303199D01*
X214052Y301750D01*
X214617Y300386D01*
X215437Y299159D01*
X216481Y298114D01*
X217709Y297294D01*
X219073Y296729D01*
X220521Y296441D01*
X220760D01*
Y303437D01*
D02*
G37*
G36*
X107102D02*
X100106D01*
Y296441D01*
X100345D01*
X101793Y296729D01*
X103157Y297294D01*
X104385Y298114D01*
X105429Y299159D01*
X106249Y300386D01*
X106814Y301750D01*
X107102Y303199D01*
Y303437D01*
D02*
G37*
G36*
X99106D02*
X92110D01*
Y303199D01*
X92398Y301750D01*
X92963Y300386D01*
X93784Y299159D01*
X94828Y298114D01*
X96056Y297294D01*
X97420Y296729D01*
X98868Y296441D01*
X99106D01*
Y303437D01*
D02*
G37*
G36*
X142883Y266535D02*
X142157D01*
X141456Y266348D01*
X140828Y265985D01*
X140593Y265750D01*
X140256Y265513D01*
X139919Y265750D01*
X139684Y265985D01*
X139056Y266348D01*
X138355Y266535D01*
X137629D01*
X136928Y266348D01*
X136300Y265985D01*
X135787Y265472D01*
X135424Y264843D01*
X135236Y264142D01*
Y263417D01*
X135424Y262716D01*
X135787Y262087D01*
X136300Y261574D01*
X136928Y261211D01*
X137629Y261024D01*
X138355D01*
X139056Y261211D01*
X139684Y261574D01*
X139919Y261809D01*
X140256Y262046D01*
X140593Y261809D01*
X140828Y261574D01*
X141456Y261211D01*
X142157Y261024D01*
X142883D01*
X143583Y261211D01*
X144212Y261574D01*
X144725Y262087D01*
X145088Y262716D01*
X145276Y263417D01*
Y264142D01*
X145088Y264843D01*
X144725Y265472D01*
X144212Y265985D01*
X143583Y266348D01*
X142883Y266535D01*
D02*
G37*
G36*
X163945Y266732D02*
X163220D01*
X162519Y266545D01*
X161890Y266182D01*
X161377Y265669D01*
X161015Y265040D01*
X160827Y264339D01*
Y263614D01*
X161015Y262913D01*
X161377Y262284D01*
X161890Y261771D01*
X162519Y261408D01*
X163220Y261221D01*
X163945D01*
X164646Y261408D01*
X165275Y261771D01*
X165788Y262284D01*
X166151Y262913D01*
X166339Y263614D01*
Y264339D01*
X166151Y265040D01*
X165788Y265669D01*
X165275Y266182D01*
X164646Y266545D01*
X163945Y266732D01*
D02*
G37*
G36*
X148985Y266535D02*
X148259D01*
X147558Y266348D01*
X146930Y265985D01*
X146417Y265472D01*
X146054Y264843D01*
X145866Y264142D01*
Y263417D01*
X146054Y262716D01*
X146417Y262087D01*
X146930Y261574D01*
X147558Y261211D01*
X148259Y261024D01*
X148985D01*
X149686Y261211D01*
X150314Y261574D01*
X150827Y262087D01*
X151190Y262716D01*
X151378Y263417D01*
Y264142D01*
X151190Y264843D01*
X150827Y265472D01*
X150314Y265985D01*
X149686Y266348D01*
X148985Y266535D01*
D02*
G37*
G36*
X170442Y262205D02*
X169716D01*
X169015Y262017D01*
X168387Y261654D01*
X167874Y261141D01*
X167511Y260513D01*
X167323Y259812D01*
Y259086D01*
X167511Y258385D01*
X167874Y257757D01*
X168387Y257244D01*
X169015Y256881D01*
X169716Y256693D01*
X170442D01*
X171142Y256881D01*
X171771Y257244D01*
X172284Y257757D01*
X172647Y258385D01*
X172835Y259086D01*
Y259812D01*
X172647Y260513D01*
X172284Y261141D01*
X171771Y261654D01*
X171142Y262017D01*
X170442Y262205D01*
D02*
G37*
G36*
X155256Y258874D02*
X155106D01*
Y254437D01*
X159543D01*
Y254587D01*
X159207Y255843D01*
X158557Y256968D01*
X157638Y257888D01*
X156512Y258538D01*
X155256Y258874D01*
D02*
G37*
G36*
X276910D02*
X276760D01*
Y254437D01*
X281197D01*
Y254587D01*
X280860Y255843D01*
X280210Y256968D01*
X279291Y257888D01*
X278166Y258538D01*
X276910Y258874D01*
D02*
G37*
G36*
X275760D02*
X275610D01*
X274354Y258538D01*
X273229Y257888D01*
X272309Y256968D01*
X271659Y255843D01*
X271323Y254587D01*
Y254437D01*
X275760D01*
Y258874D01*
D02*
G37*
G36*
X154106D02*
X153956D01*
X152701Y258538D01*
X151575Y257888D01*
X150656Y256968D01*
X150006Y255843D01*
X149669Y254587D01*
Y254437D01*
X154106D01*
Y258874D01*
D02*
G37*
G36*
X281197Y253437D02*
X276760D01*
Y249000D01*
X276910D01*
X278166Y249337D01*
X279291Y249986D01*
X280210Y250906D01*
X280860Y252031D01*
X281197Y253287D01*
Y253437D01*
D02*
G37*
G36*
X275760D02*
X271323D01*
Y253287D01*
X271659Y252031D01*
X272309Y250906D01*
X273229Y249986D01*
X274354Y249337D01*
X275610Y249000D01*
X275760D01*
Y253437D01*
D02*
G37*
G36*
X159543D02*
X155106D01*
Y249000D01*
X155256D01*
X156512Y249337D01*
X157638Y249986D01*
X158557Y250906D01*
X159207Y252031D01*
X159543Y253287D01*
Y253437D01*
D02*
G37*
G36*
X154106D02*
X149669D01*
Y253287D01*
X150006Y252031D01*
X150656Y250906D01*
X151575Y249986D01*
X152701Y249337D01*
X153956Y249000D01*
X154106D01*
Y253437D01*
D02*
G37*
G36*
X236934Y259055D02*
X235586D01*
X234284Y258706D01*
X233117Y258032D01*
X232164Y257080D01*
X231490Y255912D01*
X231142Y254611D01*
Y253263D01*
X231490Y251961D01*
X232164Y250794D01*
X233117Y249841D01*
X234284Y249168D01*
X235586Y248819D01*
X236934D01*
X238235Y249168D01*
X239402Y249841D01*
X240355Y250794D01*
X241029Y251961D01*
X241378Y253263D01*
Y254611D01*
X241029Y255912D01*
X240355Y257080D01*
X239402Y258032D01*
X238235Y258706D01*
X236934Y259055D01*
D02*
G37*
G36*
X115280D02*
X113933D01*
X112631Y258706D01*
X111464Y258032D01*
X110511Y257080D01*
X109837Y255912D01*
X109488Y254611D01*
Y253263D01*
X109837Y251961D01*
X110511Y250794D01*
X111464Y249841D01*
X112631Y249168D01*
X113933Y248819D01*
X115280D01*
X116582Y249168D01*
X117749Y249841D01*
X118702Y250794D01*
X119376Y251961D01*
X119724Y253263D01*
Y254611D01*
X119376Y255912D01*
X118702Y257080D01*
X117749Y258032D01*
X116582Y258706D01*
X115280Y259055D01*
D02*
G37*
G36*
X259812Y217913D02*
X259086D01*
X258385Y217726D01*
X257757Y217363D01*
X257244Y216850D01*
X256881Y216221D01*
X256693Y215520D01*
Y214795D01*
X256881Y214094D01*
X257244Y213465D01*
X257757Y212952D01*
X258385Y212589D01*
X259086Y212402D01*
X259812D01*
X260513Y212589D01*
X261141Y212952D01*
X261654Y213465D01*
X262017Y214094D01*
X262205Y214795D01*
Y215520D01*
X262017Y216221D01*
X261654Y216850D01*
X261141Y217363D01*
X260513Y217726D01*
X259812Y217913D01*
D02*
G37*
G36*
X306465Y209646D02*
X305739D01*
X305039Y209458D01*
X304410Y209095D01*
X303897Y208582D01*
X303534Y207954D01*
X303346Y207253D01*
Y206527D01*
X303534Y205826D01*
X303897Y205198D01*
X304410Y204684D01*
X305039Y204322D01*
X305739Y204134D01*
X306465D01*
X307166Y204322D01*
X307794Y204684D01*
X308308Y205198D01*
X308670Y205826D01*
X308858Y206527D01*
Y207253D01*
X308670Y207954D01*
X308308Y208582D01*
X307794Y209095D01*
X307166Y209458D01*
X306465Y209646D01*
D02*
G37*
G36*
X170362Y214606D02*
X168850D01*
X167367Y214311D01*
X165970Y213733D01*
X164712Y212892D01*
X163643Y211823D01*
X162803Y210566D01*
X162224Y209169D01*
X161929Y207685D01*
Y206173D01*
X162224Y204690D01*
X162803Y203293D01*
X163643Y202035D01*
X164712Y200966D01*
X165970Y200126D01*
X167367Y199547D01*
X168850Y199252D01*
X170362D01*
X171846Y199547D01*
X173243Y200126D01*
X174500Y200966D01*
X175569Y202035D01*
X176410Y203293D01*
X176988Y204690D01*
X177284Y206173D01*
Y207685D01*
X176988Y209169D01*
X176410Y210566D01*
X175569Y211823D01*
X174500Y212892D01*
X173243Y213733D01*
X171846Y214311D01*
X170362Y214606D01*
D02*
G37*
G36*
X291308Y203740D02*
X290582D01*
X289881Y203552D01*
X289253Y203189D01*
X288740Y202676D01*
X288377Y202048D01*
X288189Y201347D01*
Y200621D01*
X288377Y199920D01*
X288740Y199292D01*
X289253Y198779D01*
X289881Y198416D01*
X290582Y198228D01*
X291308D01*
X292009Y198416D01*
X292637Y198779D01*
X293150Y199292D01*
X293513Y199920D01*
X293701Y200621D01*
Y201347D01*
X293513Y202048D01*
X293150Y202676D01*
X292637Y203189D01*
X292009Y203552D01*
X291308Y203740D01*
D02*
G37*
G36*
X263749Y190354D02*
X263023D01*
X262322Y190166D01*
X261694Y189804D01*
X261181Y189291D01*
X260818Y188662D01*
X260630Y187961D01*
Y187236D01*
X260818Y186535D01*
X261181Y185906D01*
X261694Y185393D01*
X262322Y185030D01*
X263023Y184843D01*
X263749D01*
X264450Y185030D01*
X265078Y185393D01*
X265591Y185906D01*
X265954Y186535D01*
X266142Y187236D01*
Y187961D01*
X265954Y188662D01*
X265591Y189291D01*
X265078Y189804D01*
X264450Y190166D01*
X263749Y190354D01*
D02*
G37*
G36*
X170362Y184606D02*
X168850D01*
X167367Y184311D01*
X165970Y183732D01*
X164712Y182892D01*
X163643Y181823D01*
X162803Y180566D01*
X162224Y179168D01*
X161929Y177685D01*
Y176173D01*
X162224Y174690D01*
X162803Y173293D01*
X163643Y172035D01*
X164712Y170966D01*
X165970Y170126D01*
X167367Y169547D01*
X168850Y169252D01*
X170362D01*
X171846Y169547D01*
X173243Y170126D01*
X174500Y170966D01*
X175569Y172035D01*
X176410Y173293D01*
X176988Y174690D01*
X177284Y176173D01*
Y177685D01*
X176988Y179168D01*
X176410Y180566D01*
X175569Y181823D01*
X174500Y182892D01*
X173243Y183732D01*
X171846Y184311D01*
X170362Y184606D01*
D02*
G37*
G36*
X100345Y174425D02*
X100106D01*
Y167429D01*
X107102D01*
Y167667D01*
X106814Y169116D01*
X106249Y170480D01*
X105429Y171708D01*
X104385Y172752D01*
X103157Y173572D01*
X101793Y174137D01*
X100345Y174425D01*
D02*
G37*
G36*
X99106D02*
X98868D01*
X97420Y174137D01*
X96056Y173572D01*
X94828Y172752D01*
X93784Y171708D01*
X92963Y170480D01*
X92398Y169116D01*
X92110Y167667D01*
Y167429D01*
X99106D01*
Y174425D01*
D02*
G37*
G36*
X221445Y167146D02*
X220720D01*
X220019Y166958D01*
X219391Y166595D01*
X218877Y166082D01*
X218515Y165454D01*
X218327Y164753D01*
Y164027D01*
X218515Y163326D01*
X218877Y162698D01*
X219391Y162185D01*
X220019Y161822D01*
X220720Y161634D01*
X221445D01*
X222146Y161822D01*
X222775Y162185D01*
X223288Y162698D01*
X223651Y163326D01*
X223839Y164027D01*
Y164753D01*
X223651Y165454D01*
X223288Y166082D01*
X222775Y166595D01*
X222146Y166958D01*
X221445Y167146D01*
D02*
G37*
G36*
X210973D02*
X210247D01*
X209546Y166958D01*
X208918Y166595D01*
X208405Y166082D01*
X208042Y165454D01*
X207854Y164753D01*
Y164027D01*
X208042Y163326D01*
X208405Y162698D01*
X208918Y162185D01*
X209546Y161822D01*
X210247Y161634D01*
X210973D01*
X211674Y161822D01*
X212302Y162185D01*
X212815Y162698D01*
X213178Y163326D01*
X213366Y164027D01*
Y164753D01*
X213178Y165454D01*
X212815Y166082D01*
X212302Y166595D01*
X211674Y166958D01*
X210973Y167146D01*
D02*
G37*
G36*
X107102Y166429D02*
X100106D01*
Y159433D01*
X100345D01*
X101793Y159721D01*
X103157Y160286D01*
X104385Y161107D01*
X105429Y162151D01*
X106249Y163378D01*
X106814Y164743D01*
X107102Y166191D01*
Y166429D01*
D02*
G37*
G36*
X99106D02*
X92110D01*
Y166191D01*
X92398Y164743D01*
X92963Y163378D01*
X93784Y162151D01*
X94828Y161107D01*
X96056Y160286D01*
X97420Y159721D01*
X98868Y159433D01*
X99106D01*
Y166429D01*
D02*
G37*
G36*
X260776Y161831D02*
X260051D01*
X259350Y161643D01*
X258721Y161280D01*
X258208Y160767D01*
X257845Y160139D01*
X257658Y159438D01*
Y158712D01*
X257845Y158011D01*
X258208Y157383D01*
X258721Y156869D01*
X259350Y156507D01*
X260051Y156319D01*
X260776D01*
X261477Y156507D01*
X262105Y156869D01*
X262619Y157383D01*
X262982Y158011D01*
X263169Y158712D01*
Y159438D01*
X262982Y160139D01*
X262619Y160767D01*
X262105Y161280D01*
X261477Y161643D01*
X260776Y161831D01*
D02*
G37*
G36*
X250776Y157461D02*
X250051D01*
X249350Y157273D01*
X248721Y156910D01*
X248208Y156397D01*
X247845Y155769D01*
X247657Y155068D01*
Y154342D01*
X247845Y153641D01*
X248208Y153013D01*
X248721Y152499D01*
X249350Y152137D01*
X250051Y151949D01*
X250776D01*
X251477Y152137D01*
X252105Y152499D01*
X252619Y153013D01*
X252981Y153641D01*
X253169Y154342D01*
Y155068D01*
X252981Y155769D01*
X252619Y156397D01*
X252105Y156910D01*
X251477Y157273D01*
X250776Y157461D01*
D02*
G37*
G36*
X114969Y161811D02*
X114243D01*
X113543Y161623D01*
X112914Y161260D01*
X112401Y160747D01*
X112038Y160119D01*
X111850Y159418D01*
Y158692D01*
X112038Y157991D01*
X112401Y157363D01*
X112884Y156880D01*
X112401Y156397D01*
X112038Y155769D01*
X111850Y155068D01*
Y154342D01*
X112038Y153641D01*
X112401Y153013D01*
X112914Y152499D01*
X113543Y152137D01*
X114243Y151949D01*
X114969D01*
X115670Y152137D01*
X116298Y152499D01*
X116812Y153013D01*
X117174Y153641D01*
X117362Y154342D01*
Y155068D01*
X117174Y155769D01*
X116812Y156397D01*
X116329Y156880D01*
X116812Y157363D01*
X117174Y157991D01*
X117362Y158692D01*
Y159418D01*
X117174Y160119D01*
X116812Y160747D01*
X116298Y161260D01*
X115670Y161623D01*
X114969Y161811D01*
D02*
G37*
G36*
X205973Y142421D02*
X205247D01*
X204546Y142233D01*
X203918Y141871D01*
X203405Y141358D01*
X203042Y140729D01*
X202854Y140028D01*
Y139303D01*
X203042Y138602D01*
X203405Y137973D01*
X203918Y137460D01*
X204546Y137097D01*
X205247Y136909D01*
X205973D01*
X206674Y137097D01*
X207302Y137460D01*
X207816Y137973D01*
X208178Y138602D01*
X208366Y139303D01*
Y140028D01*
X208178Y140729D01*
X207816Y141358D01*
X207302Y141871D01*
X206674Y142233D01*
X205973Y142421D01*
D02*
G37*
G36*
X306465Y140532D02*
X305739D01*
X305039Y140344D01*
X304410Y139981D01*
X303897Y139468D01*
X303534Y138839D01*
X303346Y138138D01*
Y137413D01*
X303534Y136712D01*
X303897Y136083D01*
X304410Y135570D01*
X305039Y135207D01*
X305739Y135020D01*
X306465D01*
X307166Y135207D01*
X307794Y135570D01*
X308308Y136083D01*
X308670Y136712D01*
X308858Y137413D01*
Y138138D01*
X308670Y138839D01*
X308308Y139468D01*
X307794Y139981D01*
X307166Y140344D01*
X306465Y140532D01*
D02*
G37*
G36*
X250776D02*
X250051D01*
X249350Y140344D01*
X248721Y139981D01*
X248208Y139468D01*
X247845Y138839D01*
X247657Y138138D01*
Y137413D01*
X247845Y136712D01*
X248208Y136083D01*
X248721Y135570D01*
X249350Y135207D01*
X250051Y135020D01*
X250776D01*
X251477Y135207D01*
X252105Y135570D01*
X252619Y136083D01*
X252981Y136712D01*
X253169Y137413D01*
Y138138D01*
X252981Y138839D01*
X252619Y139468D01*
X252105Y139981D01*
X251477Y140344D01*
X250776Y140532D01*
D02*
G37*
G36*
X225973Y138209D02*
X225247D01*
X224547Y138021D01*
X223918Y137658D01*
X223405Y137145D01*
X223042Y136516D01*
X222854Y135816D01*
Y135090D01*
X223042Y134389D01*
X223405Y133761D01*
X223918Y133247D01*
X224547Y132885D01*
X225247Y132697D01*
X225973D01*
X226674Y132885D01*
X227302Y133247D01*
X227816Y133761D01*
X228178Y134389D01*
X228366Y135090D01*
Y135816D01*
X228178Y136516D01*
X227816Y137145D01*
X227302Y137658D01*
X226674Y138021D01*
X225973Y138209D01*
D02*
G37*
G36*
X173768D02*
X173043D01*
X172342Y138021D01*
X171713Y137658D01*
X171200Y137145D01*
X170837Y136516D01*
X170650Y135816D01*
Y135090D01*
X170837Y134389D01*
X171200Y133761D01*
X171713Y133247D01*
X172342Y132885D01*
X173043Y132697D01*
X173768D01*
X174469Y132885D01*
X175098Y133247D01*
X175611Y133761D01*
X175974Y134389D01*
X176161Y135090D01*
Y135816D01*
X175974Y136516D01*
X175611Y137145D01*
X175098Y137658D01*
X174469Y138021D01*
X173768Y138209D01*
D02*
G37*
G36*
X260776Y135216D02*
X260051D01*
X259350Y135029D01*
X258721Y134666D01*
X258208Y134153D01*
X257845Y133524D01*
X257658Y132823D01*
Y132098D01*
X257845Y131397D01*
X258208Y130769D01*
X258721Y130255D01*
X259350Y129893D01*
X260051Y129705D01*
X260776D01*
X261477Y129893D01*
X262105Y130255D01*
X262619Y130769D01*
X262982Y131397D01*
X263169Y132098D01*
Y132823D01*
X262982Y133524D01*
X262619Y134153D01*
X262105Y134666D01*
X261477Y135029D01*
X260776Y135216D01*
D02*
G37*
G36*
X239142Y128543D02*
X238417D01*
X237716Y128356D01*
X237087Y127993D01*
X236574Y127480D01*
X236211Y126851D01*
X236024Y126150D01*
Y125425D01*
X236211Y124724D01*
X236507Y124213D01*
X236211Y123702D01*
X236024Y123001D01*
Y122275D01*
X236211Y121574D01*
X236574Y120946D01*
X237087Y120432D01*
X237716Y120070D01*
X238417Y119882D01*
X239142D01*
X239843Y120070D01*
X240472Y120432D01*
X240985Y120946D01*
X241348Y121574D01*
X241535Y122275D01*
Y123001D01*
X241348Y123702D01*
X241053Y124213D01*
X241348Y124724D01*
X241535Y125425D01*
Y126150D01*
X241348Y126851D01*
X240985Y127480D01*
X240472Y127993D01*
X239843Y128356D01*
X239142Y128543D01*
D02*
G37*
G36*
X288946Y128347D02*
X288220D01*
X287519Y128159D01*
X286891Y127796D01*
X286377Y127283D01*
X286015Y126654D01*
X285827Y125953D01*
Y125228D01*
X286015Y124527D01*
X286310Y124016D01*
X286015Y123505D01*
X285827Y122804D01*
Y122078D01*
X286015Y121377D01*
X286377Y120749D01*
X286891Y120236D01*
X287519Y119873D01*
X288220Y119685D01*
X288946D01*
X289646Y119873D01*
X290275Y120236D01*
X290788Y120749D01*
X291151Y121377D01*
X291339Y122078D01*
Y122804D01*
X291151Y123505D01*
X290856Y124016D01*
X291151Y124527D01*
X291339Y125228D01*
Y125953D01*
X291151Y126654D01*
X290788Y127283D01*
X290275Y127796D01*
X289646Y128159D01*
X288946Y128347D01*
D02*
G37*
G36*
X155256Y121866D02*
X155106D01*
Y117429D01*
X159543D01*
Y117579D01*
X159207Y118835D01*
X158557Y119960D01*
X157638Y120880D01*
X156512Y121530D01*
X155256Y121866D01*
D02*
G37*
G36*
X154106D02*
X153956D01*
X152701Y121530D01*
X151575Y120880D01*
X150656Y119960D01*
X150006Y118835D01*
X149669Y117579D01*
Y117429D01*
X154106D01*
Y121866D01*
D02*
G37*
G36*
X233630Y121260D02*
X232905D01*
X232204Y121072D01*
X231576Y120709D01*
X231062Y120196D01*
X230700Y119568D01*
X230512Y118867D01*
Y118141D01*
X230700Y117440D01*
X231062Y116812D01*
X231576Y116299D01*
X232204Y115936D01*
X232905Y115748D01*
X233630D01*
X234331Y115936D01*
X234960Y116299D01*
X235473Y116812D01*
X235836Y117440D01*
X236024Y118141D01*
Y118867D01*
X235836Y119568D01*
X235473Y120196D01*
X234960Y120709D01*
X234331Y121072D01*
X233630Y121260D01*
D02*
G37*
G36*
X205875Y117913D02*
X205149D01*
X204448Y117726D01*
X203820Y117363D01*
X203307Y116850D01*
X202944Y116221D01*
X202756Y115520D01*
Y114795D01*
X202944Y114094D01*
X203307Y113465D01*
X203820Y112952D01*
X204448Y112589D01*
X205149Y112402D01*
X205875D01*
X206576Y112589D01*
X207204Y112952D01*
X207717Y113465D01*
X208080Y114094D01*
X208268Y114795D01*
Y115520D01*
X208080Y116221D01*
X207717Y116850D01*
X207204Y117363D01*
X206576Y117726D01*
X205875Y117913D01*
D02*
G37*
G36*
X159543Y116429D02*
X155106D01*
Y111992D01*
X155256D01*
X156512Y112329D01*
X157638Y112978D01*
X158557Y113898D01*
X159207Y115024D01*
X159543Y116279D01*
Y116429D01*
D02*
G37*
G36*
X154106D02*
X149669D01*
Y116279D01*
X150006Y115024D01*
X150656Y113898D01*
X151575Y112978D01*
X152701Y112329D01*
X153956Y111992D01*
X154106D01*
Y116429D01*
D02*
G37*
G36*
X115280Y122047D02*
X113933D01*
X112631Y121698D01*
X111464Y121025D01*
X110511Y120072D01*
X109837Y118905D01*
X109488Y117603D01*
Y116255D01*
X109837Y114954D01*
X110511Y113786D01*
X111464Y112834D01*
X112631Y112160D01*
X113933Y111811D01*
X115280D01*
X116582Y112160D01*
X117749Y112834D01*
X118702Y113786D01*
X119376Y114954D01*
X119724Y116255D01*
Y117603D01*
X119376Y118905D01*
X118702Y120072D01*
X117749Y121025D01*
X116582Y121698D01*
X115280Y122047D01*
D02*
G37*
G36*
X200166Y112205D02*
X199440D01*
X198739Y112017D01*
X198111Y111654D01*
X197598Y111141D01*
X197235Y110513D01*
X197047Y109812D01*
Y109086D01*
X197235Y108385D01*
X197598Y107757D01*
X198111Y107244D01*
X198739Y106881D01*
X199440Y106693D01*
X200166D01*
X200867Y106881D01*
X201495Y107244D01*
X202008Y107757D01*
X202371Y108385D01*
X202559Y109086D01*
Y109812D01*
X202371Y110513D01*
X202008Y111141D01*
X201495Y111654D01*
X200867Y112017D01*
X200166Y112205D01*
D02*
G37*
G36*
X224575Y110236D02*
X223850D01*
X223149Y110048D01*
X222520Y109686D01*
X222007Y109172D01*
X221644Y108544D01*
X221457Y107843D01*
Y107117D01*
X221644Y106417D01*
X222007Y105788D01*
X222520Y105275D01*
X223149Y104912D01*
X223850Y104724D01*
X224575D01*
X225276Y104912D01*
X225905Y105275D01*
X226418Y105788D01*
X226781Y106417D01*
X226969Y107117D01*
Y107843D01*
X226781Y108544D01*
X226418Y109172D01*
X225905Y109686D01*
X225276Y110048D01*
X224575Y110236D01*
D02*
G37*
G36*
X237961Y103543D02*
X237236D01*
X236535Y103356D01*
X235906Y102993D01*
X235393Y102480D01*
X235030Y101851D01*
X234842Y101150D01*
Y100425D01*
X235030Y99724D01*
X235393Y99095D01*
X235906Y98582D01*
X236535Y98219D01*
X237236Y98032D01*
X237961D01*
X238662Y98219D01*
X239291Y98582D01*
X239804Y99095D01*
X240166Y99724D01*
X240354Y100425D01*
Y101150D01*
X240166Y101851D01*
X239804Y102480D01*
X239291Y102993D01*
X238662Y103356D01*
X237961Y103543D01*
D02*
G37*
G36*
X222804D02*
X222078D01*
X221377Y103356D01*
X220749Y102993D01*
X220236Y102480D01*
X219873Y101851D01*
X219685Y101150D01*
Y100425D01*
X219873Y99724D01*
X220236Y99095D01*
X220749Y98582D01*
X221377Y98219D01*
X222078Y98032D01*
X222804D01*
X223505Y98219D01*
X224133Y98582D01*
X224646Y99095D01*
X225009Y99724D01*
X225197Y100425D01*
Y101150D01*
X225009Y101851D01*
X224646Y102480D01*
X224133Y102993D01*
X223505Y103356D01*
X222804Y103543D01*
D02*
G37*
G36*
X193079Y96457D02*
X192354D01*
X191653Y96269D01*
X191024Y95906D01*
X190511Y95393D01*
X190148Y94765D01*
X189961Y94064D01*
Y93338D01*
X190148Y92637D01*
X190511Y92009D01*
X191024Y91496D01*
X191653Y91133D01*
X192354Y90945D01*
X193079D01*
X193780Y91133D01*
X194409Y91496D01*
X194922Y92009D01*
X195285Y92637D01*
X195472Y93338D01*
Y94064D01*
X195285Y94765D01*
X194922Y95393D01*
X194409Y95906D01*
X193780Y96269D01*
X193079Y96457D01*
D02*
G37*
G36*
X138355D02*
X137629D01*
X136928Y96269D01*
X136300Y95906D01*
X135787Y95393D01*
X135424Y94765D01*
X135236Y94064D01*
Y93338D01*
X135424Y92637D01*
X135787Y92009D01*
X136300Y91496D01*
X136928Y91133D01*
X137629Y90945D01*
X138355D01*
X139056Y91133D01*
X139684Y91496D01*
X140197Y92009D01*
X140560Y92637D01*
X140748Y93338D01*
Y94064D01*
X140560Y94765D01*
X140197Y95393D01*
X139684Y95906D01*
X139056Y96269D01*
X138355Y96457D01*
D02*
G37*
G36*
X207646Y95866D02*
X206921D01*
X206220Y95678D01*
X205591Y95315D01*
X205078Y94802D01*
X204715Y94174D01*
X204528Y93473D01*
Y92747D01*
X204715Y92046D01*
X205078Y91418D01*
X205591Y90905D01*
X206220Y90542D01*
X206921Y90354D01*
X207646D01*
X208347Y90542D01*
X208976Y90905D01*
X209489Y91418D01*
X209852Y92046D01*
X210039Y92747D01*
Y93473D01*
X209852Y94174D01*
X209489Y94802D01*
X208976Y95315D01*
X208347Y95678D01*
X207646Y95866D01*
D02*
G37*
G36*
X215323Y95669D02*
X214598D01*
X213897Y95481D01*
X213268Y95119D01*
X212755Y94606D01*
X212392Y93977D01*
X212205Y93276D01*
Y92551D01*
X212392Y91850D01*
X212755Y91221D01*
X213268Y90708D01*
X213897Y90345D01*
X214598Y90158D01*
X215323D01*
X216024Y90345D01*
X216653Y90708D01*
X217166Y91221D01*
X217529Y91850D01*
X217717Y92551D01*
Y93276D01*
X217529Y93977D01*
X217166Y94606D01*
X216653Y95119D01*
X216024Y95481D01*
X215323Y95669D01*
D02*
G37*
G36*
X288158Y92913D02*
X287433D01*
X286732Y92726D01*
X286103Y92363D01*
X285590Y91850D01*
X285227Y91221D01*
X285039Y90520D01*
Y89795D01*
X285227Y89094D01*
X285590Y88465D01*
X286103Y87952D01*
X286732Y87589D01*
X287433Y87402D01*
X288158D01*
X288859Y87589D01*
X289487Y87952D01*
X290001Y88465D01*
X290363Y89094D01*
X290551Y89795D01*
Y90520D01*
X290363Y91221D01*
X290001Y91850D01*
X289487Y92363D01*
X288859Y92726D01*
X288158Y92913D01*
D02*
G37*
G36*
X230481Y92126D02*
X229755D01*
X229054Y91938D01*
X228426Y91575D01*
X227913Y91062D01*
X227550Y90434D01*
X227362Y89733D01*
Y89007D01*
X227550Y88306D01*
X227913Y87678D01*
X228426Y87165D01*
X229054Y86802D01*
X229755Y86614D01*
X230481D01*
X231182Y86802D01*
X231810Y87165D01*
X232323Y87678D01*
X232686Y88306D01*
X232874Y89007D01*
Y89733D01*
X232686Y90434D01*
X232323Y91062D01*
X231810Y91575D01*
X231182Y91938D01*
X230481Y92126D01*
D02*
G37*
G36*
X295835Y91142D02*
X295110D01*
X294409Y90954D01*
X293780Y90591D01*
X293267Y90078D01*
X292904Y89450D01*
X292717Y88749D01*
Y88023D01*
X292904Y87322D01*
X293267Y86694D01*
X293780Y86181D01*
X294409Y85818D01*
X295110Y85630D01*
X295835D01*
X296536Y85818D01*
X297165Y86181D01*
X297678Y86694D01*
X298041Y87322D01*
X298228Y88023D01*
Y88749D01*
X298041Y89450D01*
X297678Y90078D01*
X297165Y90591D01*
X296536Y90954D01*
X295835Y91142D01*
D02*
G37*
G36*
X245638Y76181D02*
X244913D01*
X244212Y75993D01*
X243583Y75630D01*
X243070Y75117D01*
X242707Y74489D01*
X242520Y73788D01*
Y73062D01*
X242707Y72361D01*
X243070Y71733D01*
X243583Y71220D01*
X244212Y70857D01*
X244913Y70669D01*
X245638D01*
X246339Y70857D01*
X246968Y71220D01*
X247481Y71733D01*
X247844Y72361D01*
X248031Y73062D01*
Y73788D01*
X247844Y74489D01*
X247481Y75117D01*
X246968Y75630D01*
X246339Y75993D01*
X245638Y76181D01*
D02*
G37*
G36*
X219261D02*
X218535D01*
X217834Y75993D01*
X217206Y75630D01*
X216692Y75117D01*
X216330Y74489D01*
X216142Y73788D01*
Y73062D01*
X216330Y72361D01*
X216692Y71733D01*
X217206Y71220D01*
X217834Y70857D01*
X218535Y70669D01*
X219261D01*
X219961Y70857D01*
X220590Y71220D01*
X221103Y71733D01*
X221466Y72361D01*
X221654Y73062D01*
Y73788D01*
X221466Y74489D01*
X221103Y75117D01*
X220590Y75630D01*
X219961Y75993D01*
X219261Y76181D01*
D02*
G37*
G36*
X295835Y57480D02*
X295110D01*
X294409Y57292D01*
X293780Y56930D01*
X293267Y56417D01*
X292904Y55788D01*
X292717Y55087D01*
Y54362D01*
X292904Y53661D01*
X293267Y53032D01*
X293780Y52519D01*
X294409Y52156D01*
X295110Y51968D01*
X295835D01*
X296536Y52156D01*
X297165Y52519D01*
X297678Y53032D01*
X298041Y53661D01*
X298228Y54362D01*
Y55087D01*
X298041Y55788D01*
X297678Y56417D01*
X297165Y56930D01*
X296536Y57292D01*
X295835Y57480D01*
D02*
G37*
G36*
X304087Y38205D02*
X304004D01*
Y32783D01*
X309425D01*
Y32867D01*
X309198Y34011D01*
X308751Y35088D01*
X308103Y36058D01*
X307278Y36883D01*
X306309Y37531D01*
X305231Y37977D01*
X304087Y38205D01*
D02*
G37*
G36*
X303004D02*
X302921D01*
X301777Y37977D01*
X300699Y37531D01*
X299729Y36883D01*
X298905Y36058D01*
X298257Y35088D01*
X297810Y34011D01*
X297583Y32867D01*
Y32783D01*
X303004D01*
Y38205D01*
D02*
G37*
G36*
X309425Y31784D02*
X304004D01*
Y26362D01*
X304087D01*
X305231Y26590D01*
X306309Y27036D01*
X307278Y27684D01*
X308103Y28509D01*
X308751Y29479D01*
X309198Y30556D01*
X309425Y31700D01*
Y31784D01*
D02*
G37*
G36*
X303004D02*
X297583D01*
Y31700D01*
X297810Y30556D01*
X298257Y29479D01*
X298905Y28509D01*
X299729Y27684D01*
X300699Y27036D01*
X301777Y26590D01*
X302921Y26362D01*
X303004D01*
Y31784D01*
D02*
G37*
%LPD*%
G36*
X520472Y337744D02*
X507072D01*
Y337844D01*
Y350744D01*
X520472D01*
Y337744D01*
D02*
G37*
G36*
X553543Y337595D02*
X540143D01*
Y337695D01*
Y350594D01*
X553543D01*
Y337595D01*
D02*
G37*
G36*
X487416D02*
X474016D01*
Y337695D01*
Y350594D01*
X487416D01*
Y337595D01*
D02*
G37*
G36*
X453937D02*
X440537D01*
Y337695D01*
Y350594D01*
X453937D01*
Y337595D01*
D02*
G37*
G36*
X420880D02*
X407480D01*
Y337695D01*
Y350594D01*
X420880D01*
Y337595D01*
D02*
G37*
G36*
X387402Y337350D02*
X374002D01*
Y337450D01*
Y350350D01*
X387402D01*
Y337350D01*
D02*
G37*
G36*
X353951Y337201D02*
X340551D01*
Y337301D01*
Y350201D01*
X353951D01*
Y337201D01*
D02*
G37*
%LPC*%
G36*
X361780Y296654D02*
X361054D01*
X360354Y296466D01*
X359725Y296103D01*
X359212Y295590D01*
X358849Y294961D01*
X358661Y294261D01*
Y293535D01*
X358849Y292834D01*
X359212Y292206D01*
X359725Y291692D01*
X360354Y291330D01*
X361054Y291142D01*
X361780D01*
X362481Y291330D01*
X363109Y291692D01*
X363623Y292206D01*
X363985Y292834D01*
X364173Y293535D01*
Y294261D01*
X363985Y294961D01*
X363623Y295590D01*
X363109Y296103D01*
X362481Y296466D01*
X361780Y296654D01*
D02*
G37*
G36*
X353906D02*
X353181D01*
X352480Y296466D01*
X351851Y296103D01*
X351338Y295590D01*
X350975Y294961D01*
X350787Y294261D01*
Y293535D01*
X350975Y292834D01*
X351338Y292206D01*
X351851Y291692D01*
X352480Y291330D01*
X353181Y291142D01*
X353906D01*
X354607Y291330D01*
X355236Y291692D01*
X355749Y292206D01*
X356111Y292834D01*
X356299Y293535D01*
Y294261D01*
X356111Y294961D01*
X355749Y295590D01*
X355236Y296103D01*
X354607Y296466D01*
X353906Y296654D01*
D02*
G37*
G36*
X346032D02*
X345306D01*
X344605Y296466D01*
X343977Y296103D01*
X343464Y295590D01*
X343101Y294961D01*
X342913Y294261D01*
Y293535D01*
X343101Y292834D01*
X343464Y292206D01*
X343977Y291692D01*
X344605Y291330D01*
X345306Y291142D01*
X346032D01*
X346733Y291330D01*
X347361Y291692D01*
X347875Y292206D01*
X348237Y292834D01*
X348425Y293535D01*
Y294261D01*
X348237Y294961D01*
X347875Y295590D01*
X347361Y296103D01*
X346733Y296466D01*
X346032Y296654D01*
D02*
G37*
G36*
X338158D02*
X337433D01*
X336732Y296466D01*
X336103Y296103D01*
X335590Y295590D01*
X335227Y294961D01*
X335039Y294261D01*
Y293535D01*
X335227Y292834D01*
X335590Y292206D01*
X336103Y291692D01*
X336732Y291330D01*
X337433Y291142D01*
X338158D01*
X338859Y291330D01*
X339487Y291692D01*
X340001Y292206D01*
X340363Y292834D01*
X340551Y293535D01*
Y294261D01*
X340363Y294961D01*
X340001Y295590D01*
X339487Y296103D01*
X338859Y296466D01*
X338158Y296654D01*
D02*
G37*
G36*
X330284D02*
X329558D01*
X328857Y296466D01*
X328229Y296103D01*
X327716Y295590D01*
X327353Y294961D01*
X327165Y294261D01*
Y293535D01*
X327353Y292834D01*
X327716Y292206D01*
X328229Y291692D01*
X328857Y291330D01*
X329558Y291142D01*
X330284D01*
X330985Y291330D01*
X331613Y291692D01*
X332126Y292206D01*
X332489Y292834D01*
X332677Y293535D01*
Y294261D01*
X332489Y294961D01*
X332126Y295590D01*
X331613Y296103D01*
X330985Y296466D01*
X330284Y296654D01*
D02*
G37*
G36*
X361780Y288779D02*
X361054D01*
X360354Y288592D01*
X359725Y288229D01*
X359212Y287716D01*
X358849Y287087D01*
X358661Y286386D01*
Y285661D01*
X358849Y284960D01*
X359212Y284331D01*
X359725Y283818D01*
X360354Y283455D01*
X361054Y283268D01*
X361780D01*
X362481Y283455D01*
X363109Y283818D01*
X363623Y284331D01*
X363985Y284960D01*
X364173Y285661D01*
Y286386D01*
X363985Y287087D01*
X363623Y287716D01*
X363109Y288229D01*
X362481Y288592D01*
X361780Y288779D01*
D02*
G37*
G36*
X353906D02*
X353181D01*
X352480Y288592D01*
X351851Y288229D01*
X351338Y287716D01*
X350975Y287087D01*
X350787Y286386D01*
Y285661D01*
X350975Y284960D01*
X351338Y284331D01*
X351851Y283818D01*
X352480Y283455D01*
X353181Y283268D01*
X353906D01*
X354607Y283455D01*
X355236Y283818D01*
X355749Y284331D01*
X356111Y284960D01*
X356299Y285661D01*
Y286386D01*
X356111Y287087D01*
X355749Y287716D01*
X355236Y288229D01*
X354607Y288592D01*
X353906Y288779D01*
D02*
G37*
G36*
X346032D02*
X345306D01*
X344605Y288592D01*
X343977Y288229D01*
X343464Y287716D01*
X343101Y287087D01*
X342913Y286386D01*
Y285661D01*
X343101Y284960D01*
X343464Y284331D01*
X343977Y283818D01*
X344605Y283455D01*
X345306Y283268D01*
X346032D01*
X346733Y283455D01*
X347361Y283818D01*
X347875Y284331D01*
X348237Y284960D01*
X348425Y285661D01*
Y286386D01*
X348237Y287087D01*
X347875Y287716D01*
X347361Y288229D01*
X346733Y288592D01*
X346032Y288779D01*
D02*
G37*
G36*
X338158D02*
X337433D01*
X336732Y288592D01*
X336103Y288229D01*
X335590Y287716D01*
X335227Y287087D01*
X335039Y286386D01*
Y285661D01*
X335227Y284960D01*
X335590Y284331D01*
X336103Y283818D01*
X336732Y283455D01*
X337433Y283268D01*
X338158D01*
X338859Y283455D01*
X339487Y283818D01*
X340001Y284331D01*
X340363Y284960D01*
X340551Y285661D01*
Y286386D01*
X340363Y287087D01*
X340001Y287716D01*
X339487Y288229D01*
X338859Y288592D01*
X338158Y288779D01*
D02*
G37*
G36*
X330284D02*
X329558D01*
X328857Y288592D01*
X328229Y288229D01*
X327716Y287716D01*
X327353Y287087D01*
X327165Y286386D01*
Y285661D01*
X327353Y284960D01*
X327716Y284331D01*
X328229Y283818D01*
X328857Y283455D01*
X329558Y283268D01*
X330284D01*
X330985Y283455D01*
X331613Y283818D01*
X332126Y284331D01*
X332489Y284960D01*
X332677Y285661D01*
Y286386D01*
X332489Y287087D01*
X332126Y287716D01*
X331613Y288229D01*
X330985Y288592D01*
X330284Y288779D01*
D02*
G37*
G36*
X620229Y290354D02*
X619141D01*
X618089Y290073D01*
X617147Y289528D01*
X616377Y288759D01*
X615833Y287816D01*
X615551Y286765D01*
Y285676D01*
X615833Y284625D01*
X616377Y283682D01*
X617147Y282913D01*
X618089Y282368D01*
X619141Y282087D01*
X620229D01*
X621281Y282368D01*
X622223Y282913D01*
X622993Y283682D01*
X623537Y284625D01*
X623819Y285676D01*
Y286765D01*
X623537Y287816D01*
X622993Y288759D01*
X622223Y289528D01*
X621281Y290073D01*
X620229Y290354D01*
D02*
G37*
G36*
X576627D02*
X575538D01*
X574487Y290073D01*
X573544Y289528D01*
X572775Y288759D01*
X572230Y287816D01*
X571949Y286765D01*
Y285676D01*
X572230Y284625D01*
X572775Y283682D01*
X573544Y282913D01*
X574487Y282368D01*
X575538Y282087D01*
X576627D01*
X577678Y282368D01*
X578621Y282913D01*
X579391Y283682D01*
X579935Y284625D01*
X580217Y285676D01*
Y286765D01*
X579935Y287816D01*
X579391Y288759D01*
X578621Y289528D01*
X577678Y290073D01*
X576627Y290354D01*
D02*
G37*
G36*
X533025D02*
X531936D01*
X530885Y290073D01*
X529942Y289528D01*
X529172Y288759D01*
X528628Y287816D01*
X528346Y286765D01*
Y285676D01*
X528628Y284625D01*
X529172Y283682D01*
X529942Y282913D01*
X530885Y282368D01*
X531936Y282087D01*
X533025D01*
X534076Y282368D01*
X535018Y282913D01*
X535788Y283682D01*
X536332Y284625D01*
X536614Y285676D01*
Y286765D01*
X536332Y287816D01*
X535788Y288759D01*
X535018Y289528D01*
X534076Y290073D01*
X533025Y290354D01*
D02*
G37*
G36*
X489422D02*
X488334D01*
X487282Y290073D01*
X486340Y289528D01*
X485570Y288759D01*
X485026Y287816D01*
X484744Y286765D01*
Y285676D01*
X485026Y284625D01*
X485570Y283682D01*
X486340Y282913D01*
X487282Y282368D01*
X488334Y282087D01*
X489422D01*
X490474Y282368D01*
X491416Y282913D01*
X492186Y283682D01*
X492730Y284625D01*
X493012Y285676D01*
Y286765D01*
X492730Y287816D01*
X492186Y288759D01*
X491416Y289528D01*
X490474Y290073D01*
X489422Y290354D01*
D02*
G37*
G36*
X445820D02*
X444731D01*
X443680Y290073D01*
X442737Y289528D01*
X441968Y288759D01*
X441424Y287816D01*
X441142Y286765D01*
Y285676D01*
X441424Y284625D01*
X441968Y283682D01*
X442737Y282913D01*
X443680Y282368D01*
X444731Y282087D01*
X445820D01*
X446871Y282368D01*
X447814Y282913D01*
X448584Y283682D01*
X449128Y284625D01*
X449409Y285676D01*
Y286765D01*
X449128Y287816D01*
X448584Y288759D01*
X447814Y289528D01*
X446871Y290073D01*
X445820Y290354D01*
D02*
G37*
G36*
X400560Y283071D02*
X399834D01*
X399133Y282883D01*
X398505Y282520D01*
X397992Y282007D01*
X397629Y281379D01*
X397441Y280678D01*
Y279952D01*
X397629Y279251D01*
X397992Y278623D01*
X398505Y278110D01*
X399133Y277747D01*
X399834Y277559D01*
X400560D01*
X401261Y277747D01*
X401889Y278110D01*
X402402Y278623D01*
X402765Y279251D01*
X402953Y279952D01*
Y280678D01*
X402765Y281379D01*
X402402Y282007D01*
X401889Y282520D01*
X401261Y282883D01*
X400560Y283071D01*
D02*
G37*
G36*
X361780Y280906D02*
X361054D01*
X360354Y280718D01*
X359725Y280355D01*
X359212Y279842D01*
X358849Y279213D01*
X358661Y278512D01*
Y277787D01*
X358849Y277086D01*
X359212Y276458D01*
X359725Y275944D01*
X360354Y275582D01*
X361054Y275394D01*
X361780D01*
X362481Y275582D01*
X363109Y275944D01*
X363623Y276458D01*
X363985Y277086D01*
X364173Y277787D01*
Y278512D01*
X363985Y279213D01*
X363623Y279842D01*
X363109Y280355D01*
X362481Y280718D01*
X361780Y280906D01*
D02*
G37*
G36*
X353906D02*
X353181D01*
X352480Y280718D01*
X351851Y280355D01*
X351338Y279842D01*
X350975Y279213D01*
X350787Y278512D01*
Y277787D01*
X350975Y277086D01*
X351338Y276458D01*
X351851Y275944D01*
X352480Y275582D01*
X353181Y275394D01*
X353906D01*
X354607Y275582D01*
X355236Y275944D01*
X355749Y276458D01*
X356111Y277086D01*
X356299Y277787D01*
Y278512D01*
X356111Y279213D01*
X355749Y279842D01*
X355236Y280355D01*
X354607Y280718D01*
X353906Y280906D01*
D02*
G37*
G36*
X346032D02*
X345306D01*
X344605Y280718D01*
X343977Y280355D01*
X343464Y279842D01*
X343101Y279213D01*
X342913Y278512D01*
Y277787D01*
X343101Y277086D01*
X343464Y276458D01*
X343977Y275944D01*
X344605Y275582D01*
X345306Y275394D01*
X346032D01*
X346733Y275582D01*
X347361Y275944D01*
X347875Y276458D01*
X348237Y277086D01*
X348425Y277787D01*
Y278512D01*
X348237Y279213D01*
X347875Y279842D01*
X347361Y280355D01*
X346733Y280718D01*
X346032Y280906D01*
D02*
G37*
G36*
X338158D02*
X337433D01*
X336732Y280718D01*
X336103Y280355D01*
X335590Y279842D01*
X335227Y279213D01*
X335039Y278512D01*
Y277787D01*
X335227Y277086D01*
X335590Y276458D01*
X336103Y275944D01*
X336732Y275582D01*
X337433Y275394D01*
X338158D01*
X338859Y275582D01*
X339487Y275944D01*
X340001Y276458D01*
X340363Y277086D01*
X340551Y277787D01*
Y278512D01*
X340363Y279213D01*
X340001Y279842D01*
X339487Y280355D01*
X338859Y280718D01*
X338158Y280906D01*
D02*
G37*
G36*
X330284D02*
X329558D01*
X328857Y280718D01*
X328229Y280355D01*
X327716Y279842D01*
X327353Y279213D01*
X327165Y278512D01*
Y277787D01*
X327353Y277086D01*
X327716Y276458D01*
X328229Y275944D01*
X328857Y275582D01*
X329558Y275394D01*
X330284D01*
X330985Y275582D01*
X331613Y275944D01*
X332126Y276458D01*
X332489Y277086D01*
X332677Y277787D01*
Y278512D01*
X332489Y279213D01*
X332126Y279842D01*
X331613Y280355D01*
X330985Y280718D01*
X330284Y280906D01*
D02*
G37*
G36*
X361780Y273031D02*
X361054D01*
X360354Y272844D01*
X359725Y272481D01*
X359212Y271968D01*
X358849Y271339D01*
X358661Y270638D01*
Y269913D01*
X358849Y269212D01*
X359212Y268583D01*
X359725Y268070D01*
X360354Y267707D01*
X361054Y267520D01*
X361780D01*
X362481Y267707D01*
X363109Y268070D01*
X363623Y268583D01*
X363985Y269212D01*
X364173Y269913D01*
Y270638D01*
X363985Y271339D01*
X363623Y271968D01*
X363109Y272481D01*
X362481Y272844D01*
X361780Y273031D01*
D02*
G37*
G36*
X353906D02*
X353181D01*
X352480Y272844D01*
X351851Y272481D01*
X351338Y271968D01*
X350975Y271339D01*
X350787Y270638D01*
Y269913D01*
X350975Y269212D01*
X351338Y268583D01*
X351851Y268070D01*
X352480Y267707D01*
X353181Y267520D01*
X353906D01*
X354607Y267707D01*
X355236Y268070D01*
X355749Y268583D01*
X356111Y269212D01*
X356299Y269913D01*
Y270638D01*
X356111Y271339D01*
X355749Y271968D01*
X355236Y272481D01*
X354607Y272844D01*
X353906Y273031D01*
D02*
G37*
G36*
X346032D02*
X345306D01*
X344605Y272844D01*
X343977Y272481D01*
X343464Y271968D01*
X343101Y271339D01*
X342913Y270638D01*
Y269913D01*
X343101Y269212D01*
X343464Y268583D01*
X343977Y268070D01*
X344605Y267707D01*
X345306Y267520D01*
X346032D01*
X346733Y267707D01*
X347361Y268070D01*
X347875Y268583D01*
X348237Y269212D01*
X348425Y269913D01*
Y270638D01*
X348237Y271339D01*
X347875Y271968D01*
X347361Y272481D01*
X346733Y272844D01*
X346032Y273031D01*
D02*
G37*
G36*
X338158D02*
X337433D01*
X336732Y272844D01*
X336103Y272481D01*
X335590Y271968D01*
X335227Y271339D01*
X335039Y270638D01*
Y269913D01*
X335227Y269212D01*
X335590Y268583D01*
X336103Y268070D01*
X336732Y267707D01*
X337433Y267520D01*
X338158D01*
X338859Y267707D01*
X339487Y268070D01*
X340001Y268583D01*
X340363Y269212D01*
X340551Y269913D01*
Y270638D01*
X340363Y271339D01*
X340001Y271968D01*
X339487Y272481D01*
X338859Y272844D01*
X338158Y273031D01*
D02*
G37*
G36*
X330284D02*
X329558D01*
X328857Y272844D01*
X328229Y272481D01*
X327716Y271968D01*
X327353Y271339D01*
X327165Y270638D01*
Y269913D01*
X327353Y269212D01*
X327716Y268583D01*
X328229Y268070D01*
X328857Y267707D01*
X329558Y267520D01*
X330284D01*
X330985Y267707D01*
X331613Y268070D01*
X332126Y268583D01*
X332489Y269212D01*
X332677Y269913D01*
Y270638D01*
X332489Y271339D01*
X332126Y271968D01*
X331613Y272481D01*
X330985Y272844D01*
X330284Y273031D01*
D02*
G37*
G36*
X361780Y265158D02*
X361054D01*
X360354Y264970D01*
X359725Y264607D01*
X359212Y264094D01*
X358849Y263465D01*
X358661Y262764D01*
Y262039D01*
X358849Y261338D01*
X359212Y260709D01*
X359725Y260196D01*
X360354Y259834D01*
X361054Y259646D01*
X361780D01*
X362481Y259834D01*
X363109Y260196D01*
X363623Y260709D01*
X363985Y261338D01*
X364173Y262039D01*
Y262764D01*
X363985Y263465D01*
X363623Y264094D01*
X363109Y264607D01*
X362481Y264970D01*
X361780Y265158D01*
D02*
G37*
G36*
X353906D02*
X353181D01*
X352480Y264970D01*
X351851Y264607D01*
X351338Y264094D01*
X350975Y263465D01*
X350787Y262764D01*
Y262039D01*
X350975Y261338D01*
X351338Y260709D01*
X351851Y260196D01*
X352480Y259834D01*
X353181Y259646D01*
X353906D01*
X354607Y259834D01*
X355236Y260196D01*
X355749Y260709D01*
X356111Y261338D01*
X356299Y262039D01*
Y262764D01*
X356111Y263465D01*
X355749Y264094D01*
X355236Y264607D01*
X354607Y264970D01*
X353906Y265158D01*
D02*
G37*
G36*
X346032D02*
X345306D01*
X344605Y264970D01*
X343977Y264607D01*
X343464Y264094D01*
X343101Y263465D01*
X342913Y262764D01*
Y262039D01*
X343101Y261338D01*
X343464Y260709D01*
X343977Y260196D01*
X344605Y259834D01*
X345306Y259646D01*
X346032D01*
X346733Y259834D01*
X347361Y260196D01*
X347875Y260709D01*
X348237Y261338D01*
X348425Y262039D01*
Y262764D01*
X348237Y263465D01*
X347875Y264094D01*
X347361Y264607D01*
X346733Y264970D01*
X346032Y265158D01*
D02*
G37*
G36*
X338158D02*
X337433D01*
X336732Y264970D01*
X336103Y264607D01*
X335590Y264094D01*
X335227Y263465D01*
X335039Y262764D01*
Y262039D01*
X335227Y261338D01*
X335590Y260709D01*
X336103Y260196D01*
X336732Y259834D01*
X337433Y259646D01*
X338158D01*
X338859Y259834D01*
X339487Y260196D01*
X340001Y260709D01*
X340363Y261338D01*
X340551Y262039D01*
Y262764D01*
X340363Y263465D01*
X340001Y264094D01*
X339487Y264607D01*
X338859Y264970D01*
X338158Y265158D01*
D02*
G37*
G36*
X330284D02*
X329558D01*
X328857Y264970D01*
X328229Y264607D01*
X327716Y264094D01*
X327353Y263465D01*
X327165Y262764D01*
Y262039D01*
X327353Y261338D01*
X327716Y260709D01*
X328229Y260196D01*
X328857Y259834D01*
X329558Y259646D01*
X330284D01*
X330985Y259834D01*
X331613Y260196D01*
X332126Y260709D01*
X332489Y261338D01*
X332677Y262039D01*
Y262764D01*
X332489Y263465D01*
X332126Y264094D01*
X331613Y264607D01*
X330985Y264970D01*
X330284Y265158D01*
D02*
G37*
G36*
X437174Y259646D02*
X436448D01*
X435747Y259458D01*
X435119Y259095D01*
X434606Y258582D01*
X434243Y257954D01*
X434055Y257253D01*
Y256527D01*
X434243Y255826D01*
X434606Y255198D01*
X435119Y254684D01*
X435747Y254322D01*
X436448Y254134D01*
X437174D01*
X437875Y254322D01*
X438503Y254684D01*
X439016Y255198D01*
X439379Y255826D01*
X439567Y256527D01*
Y257253D01*
X439379Y257954D01*
X439016Y258582D01*
X438503Y259095D01*
X437875Y259458D01*
X437174Y259646D01*
D02*
G37*
G36*
X415127D02*
X414401D01*
X413700Y259458D01*
X413072Y259095D01*
X412559Y258582D01*
X412196Y257954D01*
X412008Y257253D01*
Y256527D01*
X412196Y255826D01*
X412559Y255198D01*
X413072Y254684D01*
X413700Y254322D01*
X414401Y254134D01*
X415127D01*
X415828Y254322D01*
X416456Y254684D01*
X416969Y255198D01*
X417332Y255826D01*
X417520Y256527D01*
Y257253D01*
X417332Y257954D01*
X416969Y258582D01*
X416456Y259095D01*
X415828Y259458D01*
X415127Y259646D01*
D02*
G37*
G36*
X475658Y253937D02*
X474932D01*
X474231Y253749D01*
X473603Y253386D01*
X473090Y252873D01*
X472727Y252245D01*
X472539Y251544D01*
Y250818D01*
X472727Y250117D01*
X473090Y249489D01*
X473603Y248976D01*
X474231Y248613D01*
X474932Y248425D01*
X475658D01*
X476359Y248613D01*
X476987Y248976D01*
X477500Y249489D01*
X477863Y250117D01*
X478051Y250818D01*
Y251544D01*
X477863Y252245D01*
X477500Y252873D01*
X476987Y253386D01*
X476359Y253749D01*
X475658Y253937D01*
D02*
G37*
G36*
X502922Y253937D02*
X502196D01*
X501495Y253749D01*
X500867Y253386D01*
X500354Y252873D01*
X499991Y252245D01*
X499803Y251544D01*
Y250818D01*
X499991Y250117D01*
X500354Y249489D01*
X500867Y248976D01*
X501495Y248613D01*
X502196Y248425D01*
X502922D01*
X503623Y248613D01*
X504251Y248976D01*
X504764Y249489D01*
X505127Y250117D01*
X505315Y250818D01*
Y251544D01*
X505127Y252245D01*
X504764Y252873D01*
X504251Y253386D01*
X503623Y253749D01*
X502922Y253937D01*
D02*
G37*
G36*
X574575Y249606D02*
X573850D01*
X573149Y249418D01*
X572520Y249056D01*
X572007Y248542D01*
X571644Y247914D01*
X571457Y247213D01*
Y246488D01*
X571644Y245787D01*
X572007Y245158D01*
X572520Y244645D01*
X573149Y244282D01*
X573850Y244094D01*
X574575D01*
X575276Y244282D01*
X575905Y244645D01*
X576418Y245158D01*
X576781Y245787D01*
X576968Y246488D01*
Y247213D01*
X576781Y247914D01*
X576418Y248542D01*
X575905Y249056D01*
X575276Y249418D01*
X574575Y249606D01*
D02*
G37*
G36*
X601150Y249409D02*
X600425D01*
X599724Y249222D01*
X599095Y248859D01*
X598582Y248346D01*
X598219Y247717D01*
X598032Y247016D01*
Y246291D01*
X598219Y245590D01*
X598582Y244961D01*
X599095Y244448D01*
X599724Y244085D01*
X600425Y243898D01*
X601150D01*
X601851Y244085D01*
X602480Y244448D01*
X602993Y244961D01*
X603356Y245590D01*
X603543Y246291D01*
Y247016D01*
X603356Y247717D01*
X602993Y248346D01*
X602480Y248859D01*
X601851Y249222D01*
X601150Y249409D01*
D02*
G37*
G36*
X544261Y249016D02*
X543535D01*
X542834Y248828D01*
X542205Y248465D01*
X541692Y247952D01*
X541330Y247324D01*
X541142Y246623D01*
Y245897D01*
X541330Y245196D01*
X541692Y244568D01*
X542205Y244055D01*
X542834Y243692D01*
X543535Y243504D01*
X544261D01*
X544961Y243692D01*
X545590Y244055D01*
X546103Y244568D01*
X546466Y245196D01*
X546654Y245897D01*
Y246623D01*
X546466Y247324D01*
X546103Y247952D01*
X545590Y248465D01*
X544961Y248828D01*
X544261Y249016D01*
D02*
G37*
G36*
X610796Y245669D02*
X610070D01*
X609369Y245481D01*
X608741Y245119D01*
X608228Y244605D01*
X607865Y243977D01*
X607677Y243276D01*
Y242551D01*
X607865Y241850D01*
X608228Y241221D01*
X608741Y240708D01*
X609369Y240345D01*
X610070Y240158D01*
X610796D01*
X611497Y240345D01*
X612125Y240708D01*
X612638Y241221D01*
X613001Y241850D01*
X613189Y242551D01*
Y243276D01*
X613001Y243977D01*
X612638Y244605D01*
X612125Y245119D01*
X611497Y245481D01*
X610796Y245669D01*
D02*
G37*
G36*
X402135D02*
X401409D01*
X400708Y245481D01*
X400079Y245119D01*
X399566Y244605D01*
X399203Y243977D01*
X399016Y243276D01*
Y242551D01*
X399203Y241850D01*
X399566Y241221D01*
X400079Y240708D01*
X400708Y240345D01*
X401409Y240158D01*
X402135D01*
X402835Y240345D01*
X403464Y240708D01*
X403977Y241221D01*
X404340Y241850D01*
X404528Y242551D01*
Y243276D01*
X404340Y243977D01*
X403977Y244605D01*
X403464Y245119D01*
X402835Y245481D01*
X402135Y245669D01*
D02*
G37*
G36*
X481121Y242323D02*
X480395D01*
X479694Y242135D01*
X479066Y241772D01*
X478553Y241259D01*
X478190Y240631D01*
X478002Y239930D01*
Y239204D01*
X478190Y238503D01*
X478553Y237875D01*
X479066Y237362D01*
X479694Y236999D01*
X480395Y236811D01*
X481121D01*
X481822Y236999D01*
X482450Y237362D01*
X482963Y237875D01*
X483326Y238503D01*
X483514Y239204D01*
Y239930D01*
X483326Y240631D01*
X482963Y241259D01*
X482450Y241772D01*
X481822Y242135D01*
X481121Y242323D01*
D02*
G37*
G36*
X446690Y239961D02*
X445964D01*
X445263Y239773D01*
X444635Y239410D01*
X444122Y238897D01*
X443759Y238268D01*
X443571Y237567D01*
Y236842D01*
X443759Y236141D01*
X444122Y235513D01*
X444635Y234999D01*
X445263Y234637D01*
X445964Y234449D01*
X446690D01*
X447391Y234637D01*
X448019Y234999D01*
X448532Y235513D01*
X448895Y236141D01*
X449083Y236842D01*
Y237567D01*
X448895Y238268D01*
X448532Y238897D01*
X448019Y239410D01*
X447391Y239773D01*
X446690Y239961D01*
D02*
G37*
G36*
X611583Y227067D02*
X610858D01*
X610157Y226879D01*
X609528Y226516D01*
X609015Y226003D01*
X608652Y225375D01*
X608465Y224674D01*
Y223948D01*
X608652Y223247D01*
X609015Y222619D01*
X609528Y222106D01*
X610157Y221743D01*
X610858Y221555D01*
X611583D01*
X612284Y221743D01*
X612913Y222106D01*
X613426Y222619D01*
X613789Y223247D01*
X613976Y223948D01*
Y224674D01*
X613789Y225375D01*
X613426Y226003D01*
X612913Y226516D01*
X612284Y226879D01*
X611583Y227067D01*
D02*
G37*
G36*
X529694Y218898D02*
X528968D01*
X528267Y218710D01*
X527756Y218415D01*
X527245Y218710D01*
X526544Y218898D01*
X525818D01*
X525117Y218710D01*
X524489Y218347D01*
X523976Y217834D01*
X523613Y217206D01*
X523425Y216505D01*
Y215779D01*
X523613Y215078D01*
X523976Y214450D01*
X524489Y213936D01*
X525117Y213574D01*
X525818Y213386D01*
X526544D01*
X527245Y213574D01*
X527756Y213869D01*
X528267Y213574D01*
X528968Y213386D01*
X529694D01*
X530394Y213574D01*
X531023Y213936D01*
X531536Y214450D01*
X531899Y215078D01*
X532087Y215779D01*
Y216505D01*
X531899Y217206D01*
X531536Y217834D01*
X531023Y218347D01*
X530394Y218710D01*
X529694Y218898D01*
D02*
G37*
G36*
X492095Y223228D02*
X491369D01*
X490669Y223041D01*
X490040Y222678D01*
X489527Y222165D01*
X489164Y221536D01*
X488976Y220835D01*
Y220110D01*
X489164Y219409D01*
X489527Y218780D01*
X490040Y218267D01*
X490669Y217904D01*
X491369Y217717D01*
X492095D01*
X492796Y217904D01*
X493425Y218267D01*
X493938Y218780D01*
X494300Y219409D01*
X494488Y220110D01*
Y220835D01*
X494300Y221536D01*
X493938Y222165D01*
X493425Y222678D01*
X492796Y223041D01*
X492095Y223228D01*
D02*
G37*
G36*
X574379Y215748D02*
X573653D01*
X572952Y215560D01*
X572324Y215197D01*
X571810Y214684D01*
X571448Y214056D01*
X571260Y213355D01*
Y212629D01*
X571448Y211928D01*
X571810Y211300D01*
X572324Y210787D01*
X572952Y210424D01*
X573653Y210236D01*
X574379D01*
X575079Y210424D01*
X575708Y210787D01*
X576221Y211300D01*
X576584Y211928D01*
X576772Y212629D01*
Y213355D01*
X576584Y214056D01*
X576221Y214684D01*
X575708Y215197D01*
X575079Y215560D01*
X574379Y215748D01*
D02*
G37*
G36*
X601150Y215551D02*
X600425D01*
X599724Y215363D01*
X599095Y215001D01*
X598582Y214487D01*
X598219Y213859D01*
X598032Y213158D01*
Y212433D01*
X598219Y211732D01*
X598582Y211103D01*
X599095Y210590D01*
X599724Y210227D01*
X600425Y210039D01*
X601150D01*
X601851Y210227D01*
X602480Y210590D01*
X602993Y211103D01*
X603356Y211732D01*
X603543Y212433D01*
Y213158D01*
X603356Y213859D01*
X602993Y214487D01*
X602480Y215001D01*
X601851Y215363D01*
X601150Y215551D01*
D02*
G37*
G36*
X519064Y215158D02*
X518338D01*
X517637Y214970D01*
X517009Y214607D01*
X516496Y214094D01*
X516133Y213465D01*
X515945Y212764D01*
Y212039D01*
X516133Y211338D01*
X516496Y210709D01*
X517009Y210196D01*
X517637Y209834D01*
X518338Y209646D01*
X519064D01*
X519765Y209834D01*
X520393Y210196D01*
X520906Y210709D01*
X521269Y211338D01*
X521457Y212039D01*
Y212764D01*
X521269Y213465D01*
X520906Y214094D01*
X520393Y214607D01*
X519765Y214970D01*
X519064Y215158D01*
D02*
G37*
G36*
X540323Y209646D02*
X539598D01*
X538897Y209458D01*
X538269Y209095D01*
X537755Y208582D01*
X537393Y207954D01*
X537205Y207253D01*
Y206527D01*
X537393Y205826D01*
X537755Y205198D01*
X538269Y204684D01*
X538897Y204322D01*
X539598Y204134D01*
X540323D01*
X541024Y204322D01*
X541653Y204684D01*
X542166Y205198D01*
X542529Y205826D01*
X542717Y206527D01*
Y207253D01*
X542529Y207954D01*
X542166Y208582D01*
X541653Y209095D01*
X541024Y209458D01*
X540323Y209646D01*
D02*
G37*
G36*
X507056D02*
X506330D01*
X505629Y209458D01*
X505001Y209095D01*
X504488Y208582D01*
X504125Y207954D01*
X503937Y207253D01*
Y206527D01*
X504125Y205826D01*
X504488Y205198D01*
X505001Y204684D01*
X505629Y204322D01*
X506330Y204134D01*
X507056D01*
X507757Y204322D01*
X508385Y204684D01*
X508898Y205198D01*
X509261Y205826D01*
X509449Y206527D01*
Y207253D01*
X509261Y207954D01*
X508898Y208582D01*
X508385Y209095D01*
X507757Y209458D01*
X507056Y209646D01*
D02*
G37*
G36*
X427725Y202953D02*
X426999D01*
X426299Y202765D01*
X425670Y202402D01*
X425157Y201889D01*
X424794Y201261D01*
X424606Y200560D01*
Y199834D01*
X424794Y199133D01*
X425157Y198505D01*
X425670Y197992D01*
X426299Y197629D01*
X426999Y197441D01*
X427725D01*
X428426Y197629D01*
X429054Y197992D01*
X429567Y198505D01*
X429930Y199133D01*
X430118Y199834D01*
Y200560D01*
X429930Y201261D01*
X429567Y201889D01*
X429054Y202402D01*
X428426Y202765D01*
X427725Y202953D01*
D02*
G37*
G36*
X370245Y196063D02*
X369519D01*
X368818Y195875D01*
X368190Y195512D01*
X367677Y194999D01*
X367314Y194371D01*
X367126Y193670D01*
Y192944D01*
X367314Y192243D01*
X367677Y191615D01*
X368190Y191102D01*
X368818Y190739D01*
X369519Y190551D01*
X370245D01*
X370946Y190739D01*
X371574Y191102D01*
X372087Y191615D01*
X372450Y192243D01*
X372638Y192944D01*
Y193670D01*
X372450Y194371D01*
X372087Y194999D01*
X371574Y195512D01*
X370946Y195875D01*
X370245Y196063D01*
D02*
G37*
G36*
X358630Y182480D02*
X357905D01*
X357204Y182292D01*
X356576Y181930D01*
X356062Y181417D01*
X355788Y180942D01*
X355709Y180915D01*
X355315D01*
X355235Y180942D01*
X354961Y181417D01*
X354448Y181930D01*
X353820Y182292D01*
X353119Y182480D01*
X352393D01*
X351692Y182292D01*
X351064Y181930D01*
X350551Y181417D01*
X350188Y180788D01*
X350000Y180087D01*
Y179362D01*
X350188Y178661D01*
X350551Y178032D01*
X351064Y177519D01*
X351538Y177245D01*
X351565Y177165D01*
Y176771D01*
X351538Y176692D01*
X351064Y176418D01*
X350551Y175905D01*
X350188Y175276D01*
X350000Y174575D01*
Y173850D01*
X350188Y173149D01*
X350551Y172520D01*
X351064Y172007D01*
X351692Y171644D01*
X352393Y171457D01*
X353119D01*
X353820Y171644D01*
X354448Y172007D01*
X354961Y172520D01*
X355235Y172995D01*
X355315Y173021D01*
X355709D01*
X355788Y172995D01*
X356062Y172520D01*
X356576Y172007D01*
X357204Y171644D01*
X357905Y171457D01*
X358630D01*
X359331Y171644D01*
X359960Y172007D01*
X360473Y172520D01*
X360836Y173149D01*
X361024Y173850D01*
Y174575D01*
X360836Y175276D01*
X360473Y175905D01*
X359960Y176418D01*
X359485Y176692D01*
X359459Y176771D01*
Y177165D01*
X359485Y177245D01*
X359960Y177519D01*
X360473Y178032D01*
X360836Y178661D01*
X361024Y179362D01*
Y180087D01*
X360836Y180788D01*
X360473Y181417D01*
X359960Y181930D01*
X359331Y182292D01*
X358630Y182480D01*
D02*
G37*
G36*
X381662Y183268D02*
X380936D01*
X380236Y183080D01*
X379607Y182717D01*
X379094Y182204D01*
X378731Y181576D01*
X378543Y180875D01*
Y180149D01*
X378731Y179448D01*
X379094Y178820D01*
X379607Y178306D01*
X380236Y177944D01*
X380936Y177756D01*
X381662D01*
X382363Y177944D01*
X382991Y178306D01*
X383505Y178820D01*
X383867Y179448D01*
X384055Y180149D01*
Y180875D01*
X383867Y181576D01*
X383505Y182204D01*
X382991Y182717D01*
X382363Y183080D01*
X381662Y183268D01*
D02*
G37*
G36*
X390914Y180315D02*
X390188D01*
X389487Y180127D01*
X388859Y179764D01*
X388346Y179251D01*
X387983Y178623D01*
X387795Y177922D01*
Y177196D01*
X387983Y176495D01*
X388346Y175867D01*
X388859Y175354D01*
X389487Y174991D01*
X390188Y174803D01*
X390914D01*
X391615Y174991D01*
X392243Y175354D01*
X392756Y175867D01*
X393119Y176495D01*
X393307Y177196D01*
Y177922D01*
X393119Y178623D01*
X392756Y179251D01*
X392243Y179764D01*
X391615Y180127D01*
X390914Y180315D01*
D02*
G37*
G36*
X373985Y175394D02*
X373259D01*
X372558Y175206D01*
X371930Y174843D01*
X371417Y174330D01*
X371054Y173702D01*
X370866Y173001D01*
Y172275D01*
X371054Y171574D01*
X371417Y170946D01*
X371930Y170432D01*
X372558Y170070D01*
X373259Y169882D01*
X373985D01*
X374686Y170070D01*
X375314Y170432D01*
X375827Y170946D01*
X376190Y171574D01*
X376378Y172275D01*
Y173001D01*
X376190Y173702D01*
X375827Y174330D01*
X375314Y174843D01*
X374686Y175206D01*
X373985Y175394D01*
D02*
G37*
G36*
X536977Y175394D02*
X536251D01*
X535550Y175206D01*
X534922Y174843D01*
X534409Y174330D01*
X534046Y173702D01*
X533858Y173001D01*
Y172275D01*
X534046Y171574D01*
X534409Y170946D01*
X534922Y170432D01*
X535550Y170070D01*
X536251Y169882D01*
X536977D01*
X537678Y170070D01*
X538306Y170432D01*
X538819Y170946D01*
X539182Y171574D01*
X539370Y172275D01*
Y173001D01*
X539182Y173702D01*
X538819Y174330D01*
X538306Y174843D01*
X537678Y175206D01*
X536977Y175394D01*
D02*
G37*
G36*
X454497Y171850D02*
X453771D01*
X453070Y171663D01*
X452442Y171300D01*
X451929Y170787D01*
X451566Y170158D01*
X451486Y169859D01*
X450949Y169788D01*
X450827Y169999D01*
X450314Y170512D01*
X449686Y170875D01*
X448985Y171063D01*
X448259D01*
X447558Y170875D01*
X446930Y170512D01*
X446417Y169999D01*
X446054Y169371D01*
X445866Y168670D01*
Y167944D01*
X446054Y167243D01*
X446417Y166615D01*
X446930Y166102D01*
X447558Y165739D01*
X448259Y165551D01*
X448985D01*
X449686Y165739D01*
X450314Y166102D01*
X450827Y166615D01*
X451190Y167243D01*
X451270Y167543D01*
X451807Y167613D01*
X451929Y167402D01*
X452442Y166889D01*
X453070Y166526D01*
X453771Y166339D01*
X454497D01*
X455198Y166526D01*
X455826Y166889D01*
X456339Y167402D01*
X456702Y168031D01*
X456890Y168732D01*
Y169457D01*
X456702Y170158D01*
X456339Y170787D01*
X455826Y171300D01*
X455198Y171663D01*
X454497Y171850D01*
D02*
G37*
G36*
X543473Y171842D02*
X542747D01*
X542046Y171654D01*
X541418Y171291D01*
X540905Y170778D01*
X540542Y170150D01*
X540354Y169449D01*
Y168723D01*
X540542Y168022D01*
X540905Y167394D01*
X541418Y166881D01*
X542046Y166518D01*
X542747Y166330D01*
X543473D01*
X544174Y166518D01*
X544802Y166881D01*
X545316Y167394D01*
X545678Y168022D01*
X545866Y168723D01*
Y169449D01*
X545678Y170150D01*
X545316Y170778D01*
X544802Y171291D01*
X544174Y171654D01*
X543473Y171842D01*
D02*
G37*
G36*
X391308Y168898D02*
X390582D01*
X389881Y168710D01*
X389253Y168347D01*
X388740Y167834D01*
X388377Y167206D01*
X388189Y166505D01*
Y165779D01*
X388377Y165078D01*
X388740Y164450D01*
X389253Y163936D01*
X389881Y163574D01*
X390582Y163386D01*
X391308D01*
X392009Y163574D01*
X392637Y163936D01*
X393150Y164450D01*
X393513Y165078D01*
X393701Y165779D01*
Y166505D01*
X393513Y167206D01*
X393150Y167834D01*
X392637Y168347D01*
X392009Y168710D01*
X391308Y168898D01*
D02*
G37*
G36*
X549772Y167323D02*
X549047D01*
X548346Y167135D01*
X547717Y166772D01*
X547204Y166259D01*
X546841Y165631D01*
X546654Y164930D01*
Y164204D01*
X546841Y163503D01*
X547204Y162875D01*
X547717Y162362D01*
X548346Y161999D01*
X549047Y161811D01*
X549772D01*
X550473Y161999D01*
X551102Y162362D01*
X551615Y162875D01*
X551977Y163503D01*
X552165Y164204D01*
Y164930D01*
X551977Y165631D01*
X551615Y166259D01*
X551102Y166772D01*
X550473Y167135D01*
X549772Y167323D01*
D02*
G37*
G36*
X510402Y163583D02*
X509677D01*
X508976Y163395D01*
X508347Y163032D01*
X507834Y162519D01*
X507471Y161890D01*
X507283Y161190D01*
Y160464D01*
X507471Y159763D01*
X507834Y159135D01*
X508347Y158622D01*
X508976Y158259D01*
X509677Y158071D01*
X510402D01*
X511103Y158259D01*
X511731Y158622D01*
X512245Y159135D01*
X512607Y159763D01*
X512795Y160464D01*
Y161190D01*
X512607Y161890D01*
X512245Y162519D01*
X511731Y163032D01*
X511103Y163395D01*
X510402Y163583D01*
D02*
G37*
G36*
X455875D02*
X455149D01*
X454448Y163395D01*
X453820Y163032D01*
X453306Y162519D01*
X452944Y161890D01*
X452756Y161190D01*
Y160464D01*
X452944Y159763D01*
X453306Y159135D01*
X453820Y158622D01*
X454448Y158259D01*
X455149Y158071D01*
X455875D01*
X456576Y158259D01*
X457204Y158622D01*
X457717Y159135D01*
X458080Y159763D01*
X458268Y160464D01*
Y161190D01*
X458080Y161890D01*
X457717Y162519D01*
X457204Y163032D01*
X456576Y163395D01*
X455875Y163583D01*
D02*
G37*
G36*
X339930D02*
X339204D01*
X338503Y163395D01*
X337875Y163032D01*
X337362Y162519D01*
X336999Y161890D01*
X336811Y161190D01*
Y160464D01*
X336999Y159763D01*
X337362Y159135D01*
X337875Y158622D01*
X338503Y158259D01*
X339204Y158071D01*
X339930D01*
X340631Y158259D01*
X341259Y158622D01*
X341772Y159135D01*
X342135Y159763D01*
X342323Y160464D01*
Y161190D01*
X342135Y161890D01*
X341772Y162519D01*
X341259Y163032D01*
X340631Y163395D01*
X339930Y163583D01*
D02*
G37*
G36*
X426347Y158268D02*
X425621D01*
X424921Y158080D01*
X424292Y157717D01*
X423779Y157204D01*
X423416Y156576D01*
X423228Y155875D01*
Y155149D01*
X423416Y154448D01*
X423779Y153820D01*
X424292Y153306D01*
X424921Y152944D01*
X425621Y152756D01*
X426347D01*
X427048Y152944D01*
X427676Y153306D01*
X428190Y153820D01*
X428552Y154448D01*
X428740Y155149D01*
Y155875D01*
X428552Y156576D01*
X428190Y157204D01*
X427676Y157717D01*
X427048Y158080D01*
X426347Y158268D01*
D02*
G37*
G36*
X370638D02*
X369913D01*
X369212Y158080D01*
X368583Y157717D01*
X368070Y157204D01*
X367707Y156576D01*
X367520Y155875D01*
Y155149D01*
X367707Y154448D01*
X368070Y153820D01*
X368583Y153306D01*
X369212Y152944D01*
X369913Y152756D01*
X370638D01*
X371339Y152944D01*
X371968Y153306D01*
X372481Y153820D01*
X372844Y154448D01*
X373031Y155149D01*
Y155875D01*
X372844Y156576D01*
X372481Y157204D01*
X371968Y157717D01*
X371339Y158080D01*
X370638Y158268D01*
D02*
G37*
G36*
X439733Y156890D02*
X439007D01*
X438306Y156702D01*
X437678Y156339D01*
X437165Y155826D01*
X436802Y155198D01*
X436614Y154497D01*
Y153771D01*
X436802Y153070D01*
X437165Y152442D01*
X437678Y151929D01*
X438306Y151566D01*
X439007Y151378D01*
X439733D01*
X440434Y151566D01*
X441062Y151929D01*
X441575Y152442D01*
X441938Y153070D01*
X442126Y153771D01*
Y154497D01*
X441938Y155198D01*
X441575Y155826D01*
X441062Y156339D01*
X440434Y156702D01*
X439733Y156890D01*
D02*
G37*
G36*
X506465Y154921D02*
X505739D01*
X505039Y154733D01*
X504410Y154371D01*
X503897Y153858D01*
X503534Y153229D01*
X503346Y152528D01*
Y151803D01*
X503534Y151102D01*
X503897Y150473D01*
X504410Y149960D01*
X505039Y149597D01*
X505739Y149409D01*
X506465D01*
X507166Y149597D01*
X507795Y149960D01*
X508308Y150473D01*
X508670Y151102D01*
X508858Y151803D01*
Y152528D01*
X508670Y153229D01*
X508308Y153858D01*
X507795Y154371D01*
X507166Y154733D01*
X506465Y154921D01*
D02*
G37*
G36*
X366701Y152559D02*
X365976D01*
X365275Y152371D01*
X364646Y152008D01*
X364133Y151495D01*
X363771Y150867D01*
X363583Y150166D01*
Y149440D01*
X363771Y148739D01*
X364133Y148111D01*
X364646Y147598D01*
X365275Y147235D01*
X365976Y147047D01*
X366701D01*
X367402Y147235D01*
X368031Y147598D01*
X368544Y148111D01*
X368907Y148739D01*
X369094Y149440D01*
Y150166D01*
X368907Y150867D01*
X368544Y151495D01*
X368031Y152008D01*
X367402Y152371D01*
X366701Y152559D01*
D02*
G37*
G36*
X419654Y152559D02*
X418928D01*
X418228Y152371D01*
X417599Y152008D01*
X417086Y151495D01*
X416723Y150867D01*
X416535Y150166D01*
Y149440D01*
X416723Y148739D01*
X417086Y148111D01*
X417599Y147598D01*
X418228Y147235D01*
X418928Y147047D01*
X419654D01*
X420355Y147235D01*
X420984Y147598D01*
X421497Y148111D01*
X421859Y148739D01*
X422047Y149440D01*
Y150166D01*
X421859Y150867D01*
X421497Y151495D01*
X420984Y152008D01*
X420355Y152371D01*
X419654Y152559D01*
D02*
G37*
G36*
X563827Y150394D02*
X563102D01*
X562401Y150206D01*
X561772Y149843D01*
X561259Y149330D01*
X560896Y148702D01*
X560709Y148001D01*
Y147275D01*
X560896Y146574D01*
X561259Y145946D01*
X561772Y145432D01*
X562401Y145070D01*
X563102Y144882D01*
X563827D01*
X564528Y145070D01*
X565157Y145432D01*
X565670Y145946D01*
X566033Y146574D01*
X566221Y147275D01*
Y148001D01*
X566033Y148702D01*
X565670Y149330D01*
X565157Y149843D01*
X564528Y150206D01*
X563827Y150394D01*
D02*
G37*
G36*
X460796D02*
X460070D01*
X459369Y150206D01*
X458741Y149843D01*
X458228Y149330D01*
X457865Y148702D01*
X457677Y148001D01*
Y147275D01*
X457865Y146574D01*
X458228Y145946D01*
X458741Y145432D01*
X459369Y145070D01*
X460070Y144882D01*
X460796D01*
X461497Y145070D01*
X462125Y145432D01*
X462638Y145946D01*
X463001Y146574D01*
X463189Y147275D01*
Y148001D01*
X463001Y148702D01*
X462638Y149330D01*
X462125Y149843D01*
X461497Y150206D01*
X460796Y150394D01*
D02*
G37*
G36*
X323788Y149606D02*
X323062D01*
X322361Y149418D01*
X321733Y149056D01*
X321220Y148543D01*
X320857Y147914D01*
X320669Y147213D01*
Y146488D01*
X320857Y145787D01*
X321220Y145158D01*
X321733Y144645D01*
X322361Y144282D01*
X323062Y144095D01*
X323788D01*
X324489Y144282D01*
X325117Y144645D01*
X325630Y145158D01*
X325993Y145787D01*
X326181Y146488D01*
Y147213D01*
X325993Y147914D01*
X325630Y148543D01*
X325117Y149056D01*
X324489Y149418D01*
X323788Y149606D01*
D02*
G37*
G36*
X391111Y139764D02*
X390385D01*
X389684Y139576D01*
X389056Y139213D01*
X388543Y138700D01*
X388180Y138072D01*
X387992Y137371D01*
Y136645D01*
X388180Y135944D01*
X388543Y135316D01*
X389056Y134803D01*
X389684Y134440D01*
X390385Y134252D01*
X391111D01*
X391812Y134440D01*
X392440Y134803D01*
X392953Y135316D01*
X393316Y135944D01*
X393504Y136645D01*
Y137371D01*
X393316Y138072D01*
X392953Y138700D01*
X392440Y139213D01*
X391812Y139576D01*
X391111Y139764D01*
D02*
G37*
G36*
X479694Y137795D02*
X478968D01*
X478267Y137608D01*
X477639Y137245D01*
X477125Y136732D01*
X476763Y136103D01*
X476575Y135402D01*
Y134677D01*
X476763Y133976D01*
X477125Y133347D01*
X477639Y132834D01*
X478267Y132471D01*
X478968Y132283D01*
X479694D01*
X480394Y132471D01*
X481023Y132834D01*
X481536Y133347D01*
X481899Y133976D01*
X482087Y134677D01*
Y135402D01*
X481899Y136103D01*
X481536Y136732D01*
X481023Y137245D01*
X480394Y137608D01*
X479694Y137795D01*
D02*
G37*
G36*
X344064Y137205D02*
X343338D01*
X342637Y137017D01*
X342009Y136654D01*
X341495Y136141D01*
X341133Y135513D01*
X340945Y134812D01*
Y134086D01*
X341133Y133385D01*
X341495Y132757D01*
X342009Y132244D01*
X342637Y131881D01*
X343338Y131693D01*
X344064D01*
X344764Y131881D01*
X345393Y132244D01*
X345906Y132757D01*
X346269Y133385D01*
X346457Y134086D01*
Y134812D01*
X346269Y135513D01*
X345906Y136141D01*
X345393Y136654D01*
X344764Y137017D01*
X344064Y137205D01*
D02*
G37*
G36*
X445048Y136811D02*
X444322D01*
X443621Y136623D01*
X442993Y136260D01*
X442480Y135747D01*
X442117Y135119D01*
X441929Y134418D01*
Y133692D01*
X442117Y132991D01*
X442480Y132363D01*
X442993Y131850D01*
X443621Y131487D01*
X444322Y131299D01*
X445048D01*
X445749Y131487D01*
X446377Y131850D01*
X446890Y132363D01*
X447253Y132991D01*
X447441Y133692D01*
Y134418D01*
X447253Y135119D01*
X446890Y135747D01*
X446377Y136260D01*
X445749Y136623D01*
X445048Y136811D01*
D02*
G37*
G36*
X573827Y136417D02*
X573102D01*
X572401Y136230D01*
X571772Y135867D01*
X571259Y135354D01*
X570896Y134725D01*
X570709Y134024D01*
Y133299D01*
X570896Y132598D01*
X571259Y131969D01*
X571772Y131456D01*
X572401Y131093D01*
X573102Y130905D01*
X573827D01*
X574528Y131093D01*
X575157Y131456D01*
X575670Y131969D01*
X576033Y132598D01*
X576221Y133299D01*
Y134024D01*
X576033Y134725D01*
X575670Y135354D01*
X575157Y135867D01*
X574528Y136230D01*
X573827Y136417D01*
D02*
G37*
G36*
X358040Y131693D02*
X357314D01*
X356613Y131505D01*
X355985Y131142D01*
X355472Y130629D01*
X355109Y130001D01*
X354921Y129300D01*
Y128574D01*
X355109Y127873D01*
X355472Y127245D01*
X355985Y126732D01*
X356613Y126369D01*
X357314Y126181D01*
X358040D01*
X358741Y126369D01*
X359369Y126732D01*
X359882Y127245D01*
X360245Y127873D01*
X360433Y128574D01*
Y129300D01*
X360245Y130001D01*
X359882Y130629D01*
X359369Y131142D01*
X358741Y131505D01*
X358040Y131693D01*
D02*
G37*
G36*
X613512Y130866D02*
X612787D01*
X612086Y130678D01*
X611457Y130315D01*
X610944Y129802D01*
X610581Y129174D01*
X610394Y128473D01*
Y127747D01*
X610581Y127047D01*
X610944Y126418D01*
X611457Y125905D01*
X612086Y125542D01*
X612787Y125354D01*
X613512D01*
X614213Y125542D01*
X614842Y125905D01*
X615355Y126418D01*
X615718Y127047D01*
X615906Y127747D01*
Y128473D01*
X615718Y129174D01*
X615355Y129802D01*
X614842Y130315D01*
X614213Y130678D01*
X613512Y130866D01*
D02*
G37*
G36*
X486583Y136417D02*
X485858D01*
X485157Y136230D01*
X484528Y135867D01*
X484015Y135354D01*
X483652Y134725D01*
X483465Y134024D01*
Y133299D01*
X483652Y132598D01*
X484015Y131969D01*
X484528Y131456D01*
X485003Y131182D01*
X485029Y131103D01*
Y130709D01*
X485003Y130629D01*
X484528Y130355D01*
X484015Y129842D01*
X483652Y129213D01*
X483465Y128512D01*
Y127787D01*
X483652Y127086D01*
X484015Y126457D01*
X484250Y126223D01*
X484487Y125886D01*
X484250Y125549D01*
X484015Y125314D01*
X483652Y124686D01*
X483465Y123985D01*
Y123259D01*
X483599Y122756D01*
X483273Y122370D01*
X483215Y122341D01*
X482843Y122441D01*
X482118D01*
X481417Y122253D01*
X480788Y121890D01*
X480275Y121377D01*
X479912Y120749D01*
X479724Y120048D01*
Y119322D01*
X479912Y118621D01*
X480275Y117993D01*
X480788Y117480D01*
X481417Y117117D01*
X482118Y116929D01*
X482843D01*
X483544Y117117D01*
X483560Y117126D01*
X483989Y116797D01*
X483858Y116308D01*
Y115582D01*
X483936Y115291D01*
X483528Y114883D01*
X483237Y114961D01*
X482511D01*
X481810Y114773D01*
X481182Y114410D01*
X480669Y113897D01*
X480306Y113268D01*
X480118Y112567D01*
Y111842D01*
X480306Y111141D01*
X480669Y110513D01*
X481182Y110000D01*
X481810Y109637D01*
X482511Y109449D01*
X483237D01*
X483683Y109569D01*
X484096Y109176D01*
X484055Y109024D01*
Y108299D01*
X484243Y107598D01*
X484606Y106969D01*
X485119Y106456D01*
X485747Y106093D01*
X486448Y105905D01*
X487174D01*
X487875Y106093D01*
X488503Y106456D01*
X489016Y106969D01*
X489379Y107598D01*
X489567Y108299D01*
Y109024D01*
X489379Y109725D01*
X489016Y110354D01*
X488503Y110867D01*
X487875Y111230D01*
X487174Y111417D01*
X486448D01*
X486002Y111298D01*
X485589Y111691D01*
X485630Y111842D01*
Y112567D01*
X485552Y112859D01*
X485960Y113267D01*
X486251Y113189D01*
X486977D01*
X487678Y113377D01*
X488306Y113740D01*
X488819Y114253D01*
X489182Y114881D01*
X489370Y115582D01*
Y116308D01*
X489182Y117009D01*
X488819Y117637D01*
X488306Y118150D01*
X487678Y118513D01*
X486977Y118701D01*
X486251D01*
X485550Y118513D01*
X485535Y118504D01*
X485105Y118833D01*
X485236Y119322D01*
Y120048D01*
X485101Y120551D01*
X485428Y120937D01*
X485486Y120966D01*
X485858Y120866D01*
X486583D01*
X487284Y121054D01*
X487913Y121417D01*
X488426Y121930D01*
X488789Y122558D01*
X488976Y123259D01*
Y123985D01*
X488789Y124686D01*
X488426Y125314D01*
X488191Y125549D01*
X487954Y125886D01*
X488191Y126223D01*
X488426Y126457D01*
X488789Y127086D01*
X488976Y127787D01*
Y128512D01*
X488789Y129213D01*
X488426Y129842D01*
X487913Y130355D01*
X487438Y130629D01*
X487412Y130709D01*
Y131103D01*
X487438Y131182D01*
X487913Y131456D01*
X488426Y131969D01*
X488789Y132598D01*
X488976Y133299D01*
Y134024D01*
X488789Y134725D01*
X488426Y135354D01*
X487913Y135867D01*
X487284Y136230D01*
X486583Y136417D01*
D02*
G37*
G36*
X441111Y131496D02*
X440385D01*
X439684Y131308D01*
X439056Y130945D01*
X438543Y130432D01*
X438180Y129804D01*
X437992Y129103D01*
Y128377D01*
X438180Y127676D01*
X438543Y127048D01*
X439056Y126535D01*
X439267Y126413D01*
Y125836D01*
X439253Y125827D01*
X438740Y125314D01*
X438377Y124686D01*
X438189Y123985D01*
Y123259D01*
X438377Y122558D01*
X438740Y121930D01*
X439253Y121417D01*
X439881Y121054D01*
X440582Y120866D01*
X441308D01*
X442009Y121054D01*
X442637Y121417D01*
X443150Y121930D01*
X443513Y122558D01*
X443701Y123259D01*
Y123985D01*
X443513Y124686D01*
X443150Y125314D01*
X442637Y125827D01*
X442426Y125949D01*
Y126527D01*
X442440Y126535D01*
X442953Y127048D01*
X443316Y127676D01*
X443504Y128377D01*
Y129103D01*
X443316Y129804D01*
X442953Y130432D01*
X442440Y130945D01*
X441812Y131308D01*
X441111Y131496D01*
D02*
G37*
G36*
X623512Y126299D02*
X622787D01*
X622086Y126111D01*
X621457Y125749D01*
X620944Y125235D01*
X620581Y124607D01*
X620394Y123906D01*
Y123180D01*
X620581Y122479D01*
X620944Y121851D01*
X621457Y121338D01*
X622086Y120975D01*
X622787Y120787D01*
X623512D01*
X624213Y120975D01*
X624842Y121338D01*
X625355Y121851D01*
X625718Y122479D01*
X625906Y123180D01*
Y123906D01*
X625718Y124607D01*
X625355Y125235D01*
X624842Y125749D01*
X624213Y126111D01*
X623512Y126299D01*
D02*
G37*
G36*
X415323Y123031D02*
X414598D01*
X413897Y122844D01*
X413269Y122481D01*
X412755Y121968D01*
X412393Y121339D01*
X412205Y120638D01*
Y119913D01*
X412393Y119212D01*
X412755Y118583D01*
X413269Y118070D01*
X413897Y117708D01*
X414598Y117520D01*
X415323D01*
X416024Y117708D01*
X416653Y118070D01*
X417166Y118583D01*
X417529Y119212D01*
X417717Y119913D01*
Y120638D01*
X417529Y121339D01*
X417166Y121968D01*
X416653Y122481D01*
X416024Y122844D01*
X415323Y123031D01*
D02*
G37*
G36*
X389142Y121850D02*
X388417D01*
X387716Y121663D01*
X387087Y121300D01*
X386574Y120787D01*
X386211Y120158D01*
X386024Y119457D01*
Y118732D01*
X386211Y118031D01*
X386574Y117402D01*
X387087Y116889D01*
X387716Y116526D01*
X388417Y116339D01*
X389142D01*
X389843Y116526D01*
X390472Y116889D01*
X390985Y117402D01*
X391348Y118031D01*
X391535Y118732D01*
Y119457D01*
X391348Y120158D01*
X390985Y120787D01*
X390472Y121300D01*
X389843Y121663D01*
X389142Y121850D01*
D02*
G37*
G36*
X362764Y121759D02*
X362039D01*
X361338Y121571D01*
X360709Y121209D01*
X360196Y120695D01*
X359834Y120067D01*
X359646Y119366D01*
Y118640D01*
X359834Y117940D01*
X360196Y117311D01*
X360709Y116798D01*
X361338Y116435D01*
X362039Y116247D01*
X362764D01*
X363465Y116435D01*
X364094Y116798D01*
X364607Y117311D01*
X364970Y117940D01*
X365158Y118640D01*
Y119366D01*
X364970Y120067D01*
X364607Y120695D01*
X364094Y121209D01*
X363465Y121571D01*
X362764Y121759D01*
D02*
G37*
G36*
X427331Y103150D02*
X426606D01*
X425905Y102962D01*
X425276Y102599D01*
X424763Y102086D01*
X424400Y101457D01*
X424213Y100757D01*
Y100031D01*
X424400Y99330D01*
X424763Y98702D01*
X425276Y98188D01*
X425905Y97826D01*
X426606Y97638D01*
X427331D01*
X428032Y97826D01*
X428661Y98188D01*
X429174Y98702D01*
X429537Y99330D01*
X429724Y100031D01*
Y100757D01*
X429537Y101457D01*
X429174Y102086D01*
X428661Y102599D01*
X428032Y102962D01*
X427331Y103150D01*
D02*
G37*
G36*
X370638D02*
X369913D01*
X369212Y102962D01*
X368583Y102599D01*
X368070Y102086D01*
X367707Y101457D01*
X367520Y100757D01*
Y100031D01*
X367707Y99330D01*
X368070Y98702D01*
X368583Y98188D01*
X369212Y97826D01*
X369913Y97638D01*
X370638D01*
X371339Y97826D01*
X371968Y98188D01*
X372481Y98702D01*
X372844Y99330D01*
X373031Y100031D01*
Y100757D01*
X372844Y101457D01*
X372481Y102086D01*
X371968Y102599D01*
X371339Y102962D01*
X370638Y103150D01*
D02*
G37*
G36*
X362764Y99409D02*
X362039D01*
X361338Y99222D01*
X360709Y98859D01*
X360196Y98346D01*
X359834Y97717D01*
X359646Y97016D01*
Y96291D01*
X359834Y95590D01*
X360196Y94961D01*
X360709Y94448D01*
X361338Y94086D01*
X362039Y93898D01*
X362764D01*
X363465Y94086D01*
X364094Y94448D01*
X364607Y94961D01*
X364970Y95590D01*
X365158Y96291D01*
Y97016D01*
X364970Y97717D01*
X364607Y98346D01*
X364094Y98859D01*
X363465Y99222D01*
X362764Y99409D01*
D02*
G37*
G36*
X461780Y97835D02*
X461055D01*
X460354Y97647D01*
X459725Y97284D01*
X459212Y96771D01*
X458849Y96143D01*
X458661Y95442D01*
Y94716D01*
X458849Y94015D01*
X459212Y93387D01*
X459725Y92874D01*
X460354Y92511D01*
X461055Y92323D01*
X461780D01*
X462481Y92511D01*
X463109Y92874D01*
X463623Y93387D01*
X463985Y94015D01*
X464173Y94716D01*
Y95442D01*
X463985Y96143D01*
X463623Y96771D01*
X463109Y97284D01*
X462481Y97647D01*
X461780Y97835D01*
D02*
G37*
G36*
X416186Y98721D02*
X414916D01*
X413690Y98392D01*
X412590Y97757D01*
X411692Y96859D01*
X411057Y95759D01*
X410728Y94533D01*
Y93263D01*
X411057Y92036D01*
X411692Y90936D01*
X412590Y90038D01*
X413690Y89403D01*
X414916Y89075D01*
X416186D01*
X417413Y89403D01*
X418512Y90038D01*
X419410Y90936D01*
X420045Y92036D01*
X420374Y93263D01*
Y94533D01*
X420045Y95759D01*
X419410Y96859D01*
X418512Y97757D01*
X417413Y98392D01*
X416186Y98721D01*
D02*
G37*
G36*
X390596D02*
X389326D01*
X388099Y98392D01*
X386999Y97757D01*
X386101Y96859D01*
X385467Y95759D01*
X385138Y94533D01*
Y93263D01*
X385467Y92036D01*
X386101Y90936D01*
X386999Y90038D01*
X388099Y89403D01*
X389326Y89075D01*
X390596D01*
X391822Y89403D01*
X392922Y90038D01*
X393820Y90936D01*
X394455Y92036D01*
X394783Y93263D01*
Y94533D01*
X394455Y95759D01*
X393820Y96859D01*
X392922Y97757D01*
X391822Y98392D01*
X390596Y98721D01*
D02*
G37*
G36*
X457253Y91535D02*
X456527D01*
X455826Y91348D01*
X455198Y90985D01*
X454684Y90472D01*
X454322Y89843D01*
X454134Y89142D01*
Y88417D01*
X454322Y87716D01*
X454684Y87087D01*
X455198Y86574D01*
X455826Y86211D01*
X456527Y86024D01*
X457253D01*
X457954Y86211D01*
X458582Y86574D01*
X459095Y87087D01*
X459458Y87716D01*
X459646Y88417D01*
Y89142D01*
X459458Y89843D01*
X459095Y90472D01*
X458582Y90985D01*
X457954Y91348D01*
X457253Y91535D01*
D02*
G37*
G36*
X366701Y90158D02*
X365976D01*
X365275Y89970D01*
X364646Y89607D01*
X364133Y89094D01*
X363771Y88465D01*
X363583Y87764D01*
Y87039D01*
X363771Y86338D01*
X364133Y85709D01*
X364646Y85196D01*
X365275Y84834D01*
X365976Y84646D01*
X366701D01*
X367402Y84834D01*
X368031Y85196D01*
X368544Y85709D01*
X368907Y86338D01*
X369094Y87039D01*
Y87764D01*
X368907Y88465D01*
X368544Y89094D01*
X368031Y89607D01*
X367402Y89970D01*
X366701Y90158D01*
D02*
G37*
G36*
X462961Y87795D02*
X462236D01*
X461535Y87608D01*
X460906Y87245D01*
X460393Y86731D01*
X460030Y86103D01*
X459842Y85402D01*
Y84676D01*
X460030Y83976D01*
X460393Y83347D01*
X460906Y82834D01*
X461535Y82471D01*
X462236Y82284D01*
X462961D01*
X463662Y82471D01*
X464291Y82834D01*
X464804Y83347D01*
X465167Y83976D01*
X465354Y84676D01*
Y85402D01*
X465167Y86103D01*
X464804Y86731D01*
X464291Y87245D01*
X463662Y87608D01*
X462961Y87795D01*
D02*
G37*
G36*
X421623Y84449D02*
X420897D01*
X420196Y84261D01*
X419568Y83898D01*
X419055Y83385D01*
X418692Y82757D01*
X418504Y82056D01*
Y81330D01*
X418692Y80629D01*
X418816Y80415D01*
X418709Y80283D01*
X418425Y80091D01*
X417413Y80675D01*
X416186Y81004D01*
X414916D01*
X413690Y80675D01*
X412590Y80040D01*
X411692Y79142D01*
X411057Y78043D01*
X410728Y76816D01*
Y75546D01*
X411057Y74320D01*
X411692Y73220D01*
X412590Y72322D01*
X413690Y71687D01*
X414916Y71358D01*
X416186D01*
X417413Y71687D01*
X418512Y72322D01*
X419410Y73220D01*
X420045Y74320D01*
X420374Y75546D01*
Y76816D01*
X420045Y78043D01*
X419533Y78930D01*
X419899Y79296D01*
X420196Y79125D01*
X420897Y78937D01*
X421623D01*
X422324Y79125D01*
X422952Y79488D01*
X423465Y80001D01*
X423828Y80629D01*
X424016Y81330D01*
Y82056D01*
X423828Y82757D01*
X423465Y83385D01*
X422952Y83898D01*
X422324Y84261D01*
X421623Y84449D01*
D02*
G37*
G36*
X443079Y83661D02*
X442354D01*
X441653Y83474D01*
X441024Y83111D01*
X440511Y82598D01*
X440148Y81969D01*
X439961Y81268D01*
Y80543D01*
X440148Y79842D01*
X440511Y79213D01*
X441024Y78700D01*
X441653Y78337D01*
X442354Y78150D01*
X443079D01*
X443780Y78337D01*
X444409Y78700D01*
X444922Y79213D01*
X445285Y79842D01*
X445472Y80543D01*
Y81268D01*
X445285Y81969D01*
X444922Y82598D01*
X444409Y83111D01*
X443780Y83474D01*
X443079Y83661D01*
D02*
G37*
G36*
X495835D02*
X495110D01*
X494409Y83474D01*
X493780Y83111D01*
X493267Y82598D01*
X492904Y81969D01*
X492717Y81268D01*
Y80543D01*
X492904Y79842D01*
X493267Y79213D01*
X493780Y78700D01*
X494409Y78337D01*
X495110Y78150D01*
X495835D01*
X496536Y78337D01*
X497165Y78700D01*
X497343Y78879D01*
X497744Y78572D01*
X497432Y78032D01*
X497244Y77331D01*
Y76606D01*
X497432Y75905D01*
X497795Y75276D01*
X498308Y74763D01*
X498936Y74400D01*
X499637Y74213D01*
X500363D01*
X501064Y74400D01*
X501692Y74763D01*
X502205Y75276D01*
X502568Y75905D01*
X502756Y76606D01*
Y77331D01*
X502568Y78032D01*
X502205Y78661D01*
X501692Y79174D01*
X501064Y79537D01*
X500363Y79724D01*
X499637D01*
X498936Y79537D01*
X498308Y79174D01*
X498129Y78995D01*
X497729Y79302D01*
X498040Y79842D01*
X498228Y80543D01*
Y81268D01*
X498040Y81969D01*
X497678Y82598D01*
X497165Y83111D01*
X496536Y83474D01*
X495835Y83661D01*
D02*
G37*
G36*
X437371Y79724D02*
X436645D01*
X435944Y79537D01*
X435316Y79174D01*
X434803Y78661D01*
X434440Y78032D01*
X434252Y77331D01*
Y76606D01*
X434440Y75905D01*
X434803Y75276D01*
X435316Y74763D01*
X435944Y74400D01*
X436645Y74213D01*
X437371D01*
X438072Y74400D01*
X438700Y74763D01*
X439213Y75276D01*
X439576Y75905D01*
X439764Y76606D01*
Y77331D01*
X439576Y78032D01*
X439213Y78661D01*
X438700Y79174D01*
X438072Y79537D01*
X437371Y79724D01*
D02*
G37*
G36*
X390596Y81004D02*
X389326D01*
X388099Y80675D01*
X386999Y80040D01*
X386101Y79142D01*
X385467Y78043D01*
X385138Y76816D01*
Y75546D01*
X385467Y74320D01*
X386101Y73220D01*
X386999Y72322D01*
X388099Y71687D01*
X389326Y71358D01*
X390596D01*
X391822Y71687D01*
X392922Y72322D01*
X393820Y73220D01*
X394455Y74320D01*
X394783Y75546D01*
Y76816D01*
X394455Y78043D01*
X393820Y79142D01*
X392922Y80040D01*
X391822Y80675D01*
X390596Y81004D01*
D02*
G37*
G36*
X491111Y76181D02*
X490385D01*
X489684Y75993D01*
X489056Y75630D01*
X488543Y75117D01*
X488180Y74489D01*
X487992Y73788D01*
Y73062D01*
X488180Y72361D01*
X488543Y71733D01*
X489056Y71220D01*
X489684Y70857D01*
X490385Y70669D01*
X491111D01*
X491812Y70857D01*
X492440Y71220D01*
X492953Y71733D01*
X493316Y72361D01*
X493504Y73062D01*
Y73788D01*
X493316Y74489D01*
X492953Y75117D01*
X492440Y75630D01*
X491812Y75993D01*
X491111Y76181D01*
D02*
G37*
G36*
X431662D02*
X430936D01*
X430235Y75993D01*
X429607Y75630D01*
X429094Y75117D01*
X428731Y74489D01*
X428543Y73788D01*
Y73062D01*
X428731Y72361D01*
X429094Y71733D01*
X429607Y71220D01*
X430235Y70857D01*
X430936Y70669D01*
X431662D01*
X432363Y70857D01*
X432991Y71220D01*
X433504Y71733D01*
X433867Y72361D01*
X434055Y73062D01*
Y73788D01*
X433867Y74489D01*
X433504Y75117D01*
X432991Y75630D01*
X432363Y75993D01*
X431662Y76181D01*
D02*
G37*
G36*
X344727Y72303D02*
X344053D01*
X343402Y72129D01*
X342818Y71792D01*
X342342Y71315D01*
X342005Y70732D01*
X341893Y70312D01*
X341375D01*
X341263Y70732D01*
X340926Y71315D01*
X340449Y71792D01*
X339866Y72129D01*
X339215Y72303D01*
X338541D01*
X337890Y72129D01*
X337307Y71792D01*
X336830Y71315D01*
X336493Y70732D01*
X336319Y70081D01*
Y69407D01*
X336493Y68756D01*
X336830Y68173D01*
X337090Y67913D01*
X337250Y67579D01*
X337090Y67244D01*
X336830Y66985D01*
X336493Y66401D01*
X336319Y65750D01*
Y65077D01*
X336493Y64426D01*
X336830Y63842D01*
X337090Y63582D01*
X337250Y63248D01*
X337090Y62914D01*
X336830Y62654D01*
X336493Y62070D01*
X336319Y61420D01*
Y60746D01*
X336493Y60095D01*
X336830Y59511D01*
X337307Y59035D01*
X337890Y58698D01*
X338541Y58524D01*
X339215D01*
X339866Y58698D01*
X340449Y59035D01*
X340926Y59511D01*
X341263Y60095D01*
X341375Y60514D01*
X341893D01*
X342005Y60095D01*
X342342Y59511D01*
X342818Y59035D01*
X343402Y58698D01*
X344053Y58524D01*
X344727D01*
X345377Y58698D01*
X345961Y59035D01*
X346438Y59511D01*
X346774Y60095D01*
X346949Y60746D01*
Y61420D01*
X346774Y62070D01*
X346438Y62654D01*
X346178Y62914D01*
X346018Y63248D01*
X346178Y63582D01*
X346438Y63842D01*
X346774Y64426D01*
X346949Y65077D01*
Y65750D01*
X346774Y66401D01*
X346438Y66985D01*
X346178Y67244D01*
X346018Y67579D01*
X346178Y67913D01*
X346438Y68173D01*
X346774Y68756D01*
X346949Y69407D01*
Y70081D01*
X346774Y70732D01*
X346438Y71315D01*
X345961Y71792D01*
X345377Y72129D01*
X344727Y72303D01*
D02*
G37*
G36*
X362567Y53740D02*
X361842D01*
X361141Y53552D01*
X360513Y53189D01*
X359999Y52676D01*
X359637Y52048D01*
X359449Y51347D01*
Y50621D01*
X359637Y49920D01*
X359999Y49292D01*
X360513Y48779D01*
X361141Y48416D01*
X361842Y48228D01*
X362567D01*
X363268Y48416D01*
X363897Y48779D01*
X364410Y49292D01*
X364773Y49920D01*
X364961Y50621D01*
Y51347D01*
X364773Y52048D01*
X364410Y52676D01*
X363897Y53189D01*
X363268Y53552D01*
X362567Y53740D01*
D02*
G37*
G36*
X461583Y44488D02*
X460858D01*
X460157Y44300D01*
X459528Y43938D01*
X459015Y43424D01*
X458652Y42796D01*
X458465Y42095D01*
Y41370D01*
X458652Y40668D01*
X459015Y40040D01*
X459528Y39527D01*
X460157Y39164D01*
X460858Y38976D01*
X461583D01*
X462284Y39164D01*
X462913Y39527D01*
X463426Y40040D01*
X463789Y40668D01*
X463976Y41370D01*
Y42095D01*
X463789Y42796D01*
X463426Y43424D01*
X462913Y43938D01*
X462284Y44300D01*
X461583Y44488D01*
D02*
G37*
G36*
X587614Y31315D02*
X583964D01*
Y27665D01*
X587614D01*
Y31315D01*
D02*
G37*
G36*
X582965D02*
X579315D01*
Y27665D01*
X582965D01*
Y31315D01*
D02*
G37*
G36*
X637299Y31118D02*
X633650D01*
Y27468D01*
X637299D01*
Y31118D01*
D02*
G37*
G36*
X632650D02*
X629000D01*
Y27468D01*
X632650D01*
Y31118D01*
D02*
G37*
G36*
X344105Y38386D02*
X342903D01*
X341724Y38151D01*
X340613Y37691D01*
X339614Y37023D01*
X338764Y36173D01*
X338096Y35174D01*
X337636Y34064D01*
X337402Y32884D01*
Y31682D01*
X337636Y30503D01*
X338096Y29393D01*
X338764Y28393D01*
X339614Y27543D01*
X340613Y26876D01*
X341724Y26416D01*
X342903Y26181D01*
X344105D01*
X345284Y26416D01*
X346394Y26876D01*
X347394Y27543D01*
X348244Y28393D01*
X348912Y29393D01*
X349372Y30503D01*
X349606Y31682D01*
Y32884D01*
X349372Y34064D01*
X348912Y35174D01*
X348244Y36173D01*
X347394Y37023D01*
X346394Y37691D01*
X345284Y38151D01*
X344105Y38386D01*
D02*
G37*
G36*
X587614Y26665D02*
X583964D01*
Y23016D01*
X587614D01*
Y26665D01*
D02*
G37*
G36*
X582965D02*
X579315D01*
Y23016D01*
X582965D01*
Y26665D01*
D02*
G37*
G36*
X574035Y31496D02*
X572894D01*
X571793Y31201D01*
X570806Y30631D01*
X569999Y29825D01*
X569429Y28837D01*
X569134Y27735D01*
Y26595D01*
X569429Y25494D01*
X569999Y24506D01*
X570806Y23700D01*
X571793Y23130D01*
X572894Y22835D01*
X574035D01*
X575136Y23130D01*
X576124Y23700D01*
X576930Y24506D01*
X577500Y25494D01*
X577795Y26595D01*
Y27735D01*
X577500Y28837D01*
X576930Y29825D01*
X576124Y30631D01*
X575136Y31201D01*
X574035Y31496D01*
D02*
G37*
G36*
X564035D02*
X562894D01*
X561793Y31201D01*
X560806Y30631D01*
X559999Y29825D01*
X559429Y28837D01*
X559134Y27735D01*
Y26595D01*
X559429Y25494D01*
X559999Y24506D01*
X560806Y23700D01*
X561793Y23130D01*
X562894Y22835D01*
X564035D01*
X565136Y23130D01*
X566124Y23700D01*
X566930Y24506D01*
X567500Y25494D01*
X567795Y26595D01*
Y27735D01*
X567500Y28837D01*
X566930Y29825D01*
X566124Y30631D01*
X565136Y31201D01*
X564035Y31496D01*
D02*
G37*
G36*
X554035D02*
X552894D01*
X551793Y31201D01*
X550806Y30631D01*
X549999Y29825D01*
X549429Y28837D01*
X549134Y27735D01*
Y26595D01*
X549429Y25494D01*
X549999Y24506D01*
X550806Y23700D01*
X551793Y23130D01*
X552894Y22835D01*
X554035D01*
X555136Y23130D01*
X556124Y23700D01*
X556930Y24506D01*
X557500Y25494D01*
X557795Y26595D01*
Y27735D01*
X557500Y28837D01*
X556930Y29825D01*
X556124Y30631D01*
X555136Y31201D01*
X554035Y31496D01*
D02*
G37*
G36*
X637299Y26469D02*
X633650D01*
Y22819D01*
X637299D01*
Y26469D01*
D02*
G37*
G36*
X632650D02*
X629000D01*
Y22819D01*
X632650D01*
Y26469D01*
D02*
G37*
G36*
X623720Y31299D02*
X622579D01*
X621478Y31004D01*
X620491Y30434D01*
X619684Y29628D01*
X619114Y28640D01*
X618819Y27539D01*
Y26398D01*
X619114Y25297D01*
X619684Y24309D01*
X620491Y23503D01*
X621478Y22933D01*
X622579Y22638D01*
X623720D01*
X624821Y22933D01*
X625809Y23503D01*
X626615Y24309D01*
X627185Y25297D01*
X627480Y26398D01*
Y27539D01*
X627185Y28640D01*
X626615Y29628D01*
X625809Y30434D01*
X624821Y31004D01*
X623720Y31299D01*
D02*
G37*
G36*
X613720D02*
X612579D01*
X611478Y31004D01*
X610491Y30434D01*
X609684Y29628D01*
X609114Y28640D01*
X608819Y27539D01*
Y26398D01*
X609114Y25297D01*
X609684Y24309D01*
X610491Y23503D01*
X611478Y22933D01*
X612579Y22638D01*
X613720D01*
X614821Y22933D01*
X615809Y23503D01*
X616615Y24309D01*
X617185Y25297D01*
X617480Y26398D01*
Y27539D01*
X617185Y28640D01*
X616615Y29628D01*
X615809Y30434D01*
X614821Y31004D01*
X613720Y31299D01*
D02*
G37*
G36*
X603720D02*
X602579D01*
X601478Y31004D01*
X600491Y30434D01*
X599684Y29628D01*
X599114Y28640D01*
X598819Y27539D01*
Y26398D01*
X599114Y25297D01*
X599684Y24309D01*
X600491Y23503D01*
X601478Y22933D01*
X602579Y22638D01*
X603720D01*
X604821Y22933D01*
X605809Y23503D01*
X606615Y24309D01*
X607185Y25297D01*
X607480Y26398D01*
Y27539D01*
X607185Y28640D01*
X606615Y29628D01*
X605809Y30434D01*
X604821Y31004D01*
X603720Y31299D01*
D02*
G37*
G36*
X671032Y17520D02*
X670306D01*
X669605Y17332D01*
X668977Y16969D01*
X668464Y16456D01*
X668101Y15827D01*
X667913Y15127D01*
Y14401D01*
X668101Y13700D01*
X668464Y13072D01*
X668977Y12559D01*
X669605Y12196D01*
X670306Y12008D01*
X671032D01*
X671733Y12196D01*
X672361Y12559D01*
X672874Y13072D01*
X673237Y13700D01*
X673425Y14401D01*
Y15127D01*
X673237Y15827D01*
X672874Y16456D01*
X672361Y16969D01*
X671733Y17332D01*
X671032Y17520D01*
D02*
G37*
G36*
X409418D02*
X408692D01*
X407991Y17332D01*
X407363Y16969D01*
X406850Y16456D01*
X406487Y15827D01*
X406299Y15127D01*
Y14401D01*
X406487Y13700D01*
X406850Y13072D01*
X407363Y12559D01*
X407991Y12196D01*
X408692Y12008D01*
X409418D01*
X410119Y12196D01*
X410747Y12559D01*
X411260Y13072D01*
X411623Y13700D01*
X411811Y14401D01*
Y15127D01*
X411623Y15827D01*
X411260Y16456D01*
X410747Y16969D01*
X410119Y17332D01*
X409418Y17520D01*
D02*
G37*
G36*
X465520Y17126D02*
X464795D01*
X464094Y16938D01*
X463465Y16575D01*
X462952Y16062D01*
X462589Y15434D01*
X462402Y14733D01*
Y14007D01*
X462589Y13306D01*
X462952Y12678D01*
X463465Y12165D01*
X464094Y11802D01*
X464795Y11614D01*
X465520D01*
X466221Y11802D01*
X466850Y12165D01*
X467363Y12678D01*
X467726Y13306D01*
X467913Y14007D01*
Y14733D01*
X467726Y15434D01*
X467363Y16062D01*
X466850Y16575D01*
X466221Y16938D01*
X465520Y17126D01*
D02*
G37*
G36*
X253051Y38681D02*
X240256D01*
Y25886D01*
X253051D01*
Y38681D01*
D02*
G37*
G36*
X83434Y16929D02*
X82708D01*
X82007Y16741D01*
X81379Y16378D01*
X80866Y15865D01*
X80503Y15237D01*
X80315Y14536D01*
Y13810D01*
X80503Y13110D01*
X80866Y12481D01*
X81379Y11968D01*
X82007Y11605D01*
X82708Y11417D01*
X83434D01*
X84135Y11605D01*
X84763Y11968D01*
X85276Y12481D01*
X85639Y13110D01*
X85827Y13810D01*
Y14536D01*
X85639Y15237D01*
X85276Y15865D01*
X84763Y16378D01*
X84135Y16741D01*
X83434Y16929D01*
D02*
G37*
%LPD*%
D98*
X619685Y305906D02*
D03*
X576083D02*
D03*
X532480D02*
D03*
X488878D02*
D03*
X445276D02*
D03*
D101*
X276260Y253937D02*
D03*
X154606Y116929D02*
D03*
Y253937D02*
D03*
D102*
X221260Y303937D02*
D03*
X99606Y166929D02*
D03*
Y303937D02*
D03*
D104*
X583465Y27165D02*
D03*
X633150Y26969D02*
D03*
D106*
X303504Y32283D02*
D03*
X363504D02*
D03*
D107*
X266653D02*
D03*
D109*
X553543Y397094D02*
D03*
X540143D02*
D03*
X574002Y344094D02*
D03*
X587402D02*
D03*
X340551Y396701D02*
D03*
X353951D02*
D03*
X374002Y396850D02*
D03*
X387402D02*
D03*
X407480Y397094D02*
D03*
X420880D02*
D03*
X440537D02*
D03*
X453937D02*
D03*
X474016D02*
D03*
X487416D02*
D03*
X507072Y397244D02*
D03*
X520472D02*
D03*
D110*
X525098Y482185D02*
D03*
X449311Y476279D02*
D03*
X481791D02*
D03*
X514272D02*
D03*
X449311Y482185D02*
D03*
X481791D02*
D03*
X514272D02*
D03*
X449311Y488091D02*
D03*
X481791D02*
D03*
X514272D02*
D03*
X449311Y493996D02*
D03*
X481791D02*
D03*
X514272D02*
D03*
X449311Y499902D02*
D03*
X481791D02*
D03*
X514272D02*
D03*
X449311Y505807D02*
D03*
X481791D02*
D03*
X514272D02*
D03*
X546752Y476279D02*
D03*
X525098D02*
D03*
X535925D02*
D03*
X492618D02*
D03*
X503445D02*
D03*
X460138D02*
D03*
X470965D02*
D03*
X546752Y482185D02*
D03*
Y488091D02*
D03*
Y493996D02*
D03*
Y499902D02*
D03*
Y505807D02*
D03*
X535925Y482185D02*
D03*
X525098Y488091D02*
D03*
X535925D02*
D03*
X525098Y493996D02*
D03*
X535925D02*
D03*
X525098Y499902D02*
D03*
X535925D02*
D03*
X525098Y505807D02*
D03*
X535925D02*
D03*
X492618Y482185D02*
D03*
X503445D02*
D03*
X492618Y488091D02*
D03*
X503445D02*
D03*
X492618Y493996D02*
D03*
X503445D02*
D03*
X492618Y499902D02*
D03*
X503445D02*
D03*
X492618Y505807D02*
D03*
X503445D02*
D03*
X460138Y482185D02*
D03*
X470965D02*
D03*
X460138Y488091D02*
D03*
X470965D02*
D03*
X460138Y493996D02*
D03*
X470965D02*
D03*
X460138Y499902D02*
D03*
X470965D02*
D03*
X460138Y505807D02*
D03*
X470965D02*
D03*
X304626Y482185D02*
D03*
X293799Y476279D02*
D03*
Y482185D02*
D03*
Y488091D02*
D03*
Y493996D02*
D03*
Y499902D02*
D03*
Y505807D02*
D03*
X304626Y476279D02*
D03*
X272146D02*
D03*
X282972D02*
D03*
X304626Y488091D02*
D03*
Y493996D02*
D03*
Y499902D02*
D03*
Y505807D02*
D03*
X272146Y482185D02*
D03*
X282972D02*
D03*
X272146Y488091D02*
D03*
X282972D02*
D03*
X272146Y493996D02*
D03*
X282972D02*
D03*
X272146Y499902D02*
D03*
X282972D02*
D03*
X272146Y505807D02*
D03*
X282972D02*
D03*
D112*
X337795Y100787D02*
D03*
X334055D02*
D03*
X326575D02*
D03*
X322835D02*
D03*
X315354D02*
D03*
X311614D02*
D03*
X307874D02*
D03*
X304134D02*
D03*
X310039Y165748D02*
D03*
X285630Y70669D02*
D03*
Y64370D02*
D03*
Y67520D02*
D03*
X614173Y329724D02*
D03*
Y333005D02*
D03*
Y336286D02*
D03*
Y339567D02*
D03*
X611417D02*
D03*
Y336286D02*
D03*
Y333005D02*
D03*
Y329724D02*
D03*
X557087Y253937D02*
D03*
X171653Y366732D02*
D03*
X182677D02*
D03*
X179003D02*
D03*
X175328D02*
D03*
X94488Y366535D02*
D03*
X105512D02*
D03*
X101837D02*
D03*
X98163D02*
D03*
Y370079D02*
D03*
X101837D02*
D03*
X105512D02*
D03*
X94488D02*
D03*
X171653Y370276D02*
D03*
X182677D02*
D03*
X179003D02*
D03*
X175328D02*
D03*
X94685Y67520D02*
D03*
Y72244D02*
D03*
Y76968D02*
D03*
Y81693D02*
D03*
X339567Y125394D02*
D03*
X319488Y118898D02*
D03*
X140551Y82677D02*
D03*
X235630Y150591D02*
D03*
Y140945D02*
D03*
X467323Y94882D02*
D03*
X565158Y250295D02*
D03*
X564961Y208268D02*
D03*
X516535Y42323D02*
D03*
X511417Y255512D02*
D03*
X440551Y239961D02*
D03*
X418504D02*
D03*
X518898Y220472D02*
D03*
X496063Y229921D02*
D03*
X377165Y200591D02*
D03*
X397835Y196850D02*
D03*
X457874Y216732D02*
D03*
X427362Y192323D02*
D03*
X290945Y193504D02*
D03*
X479331Y142323D02*
D03*
X432087Y154134D02*
D03*
X660236Y42913D02*
D03*
X324803Y134449D02*
D03*
X285433Y150394D02*
D03*
Y140748D02*
D03*
X414961Y112697D02*
D03*
X99410Y81693D02*
D03*
Y76968D02*
D03*
Y72244D02*
D03*
Y67520D02*
D03*
D113*
X302953Y451811D02*
D03*
Y446732D02*
D03*
Y441653D02*
D03*
Y436575D02*
D03*
Y431496D02*
D03*
Y456890D02*
D03*
X293504Y456732D02*
D03*
Y431339D02*
D03*
Y436417D02*
D03*
Y441496D02*
D03*
Y446575D02*
D03*
Y451653D02*
D03*
X272638Y449409D02*
D03*
Y458071D02*
D03*
X281299D02*
D03*
Y449409D02*
D03*
X272638Y453740D02*
D03*
X281299D02*
D03*
X276969Y449409D02*
D03*
Y453740D02*
D03*
Y458071D02*
D03*
D115*
X52165Y365945D02*
X130118Y443898D01*
X226969D02*
X236811Y453740D01*
X130118Y443898D02*
X226969D01*
X52165Y86024D02*
Y365945D01*
Y86024D02*
X86811Y51378D01*
X236811Y453740D02*
X272638D01*
X276969D01*
X266653Y32283D02*
Y42205D01*
X257480Y51378D02*
X266653Y42205D01*
X86811Y51378D02*
X257480D01*
D116*
X266653Y32283D02*
X282008Y16929D01*
X348150D01*
X363504Y32283D01*
M02*
