G04*
G04 #@! TF.GenerationSoftware,Altium Limited,Altium Designer,21.2.2 (38)*
G04*
G04 Layer_Color=255*
%FSLAX25Y25*%
%MOIN*%
G70*
G04*
G04 #@! TF.SameCoordinates,F28A5215-CE45-4803-9B4C-17DA2ED16A0E*
G04*
G04*
G04 #@! TF.FilePolarity,Positive*
G04*
G01*
G75*
%ADD97C,0.05906*%
%ADD98R,0.05906X0.05906*%
%ADD99O,0.11024X0.12992*%
%ADD100O,0.11811X0.09843*%
%ADD101C,0.07874*%
%ADD102C,0.12992*%
%ADD103C,0.06299*%
%ADD104R,0.06299X0.06299*%
%ADD105C,0.07284*%
%ADD106C,0.09843*%
%ADD107C,0.10433*%
%ADD108R,0.10433X0.10433*%
%ADD109O,0.10000X0.13000*%
%ADD110R,0.07087X0.06299*%
%ADD111C,0.05512*%
D97*
X619685Y286221D02*
D03*
X576083D02*
D03*
X532480D02*
D03*
X488878D02*
D03*
X445276D02*
D03*
D98*
X619685Y305906D02*
D03*
X576083D02*
D03*
X532480D02*
D03*
X488878D02*
D03*
X445276D02*
D03*
D99*
X709646Y24016D02*
D03*
X729724D02*
D03*
D100*
X719685Y74724D02*
D03*
Y89724D02*
D03*
Y104724D02*
D03*
D101*
X276260Y253937D02*
D03*
X236260D02*
D03*
X114606Y116929D02*
D03*
X154606D02*
D03*
X114606Y253937D02*
D03*
X154606D02*
D03*
D102*
X221260Y303937D02*
D03*
X291260Y313937D02*
D03*
Y343937D02*
D03*
X169606Y206929D02*
D03*
Y176929D02*
D03*
X99606Y166929D02*
D03*
X169606Y343937D02*
D03*
Y313937D02*
D03*
X99606Y303937D02*
D03*
D103*
X553465Y27165D02*
D03*
X573465D02*
D03*
X563465D02*
D03*
X603150Y26969D02*
D03*
X623150D02*
D03*
X613150D02*
D03*
D104*
X583465Y27165D02*
D03*
X633150Y26969D02*
D03*
D105*
X389961Y76181D02*
D03*
Y93898D02*
D03*
X415551Y76181D02*
D03*
Y93898D02*
D03*
D106*
X303504Y32283D02*
D03*
X323504D02*
D03*
X343504D02*
D03*
X363504D02*
D03*
D107*
X266653D02*
D03*
D108*
X246654D02*
D03*
D109*
X553543Y344094D02*
D03*
X540143D02*
D03*
X553543Y397094D02*
D03*
X540143D02*
D03*
X574002Y397094D02*
D03*
X587402D02*
D03*
X574002Y344094D02*
D03*
X587402D02*
D03*
X340551Y396701D02*
D03*
X353951D02*
D03*
X340551Y343701D02*
D03*
X353951D02*
D03*
X374002Y396850D02*
D03*
X387402D02*
D03*
X374002Y343850D02*
D03*
X387402D02*
D03*
X407480Y397094D02*
D03*
X420880D02*
D03*
X407480Y344094D02*
D03*
X420880D02*
D03*
X440537Y397094D02*
D03*
X453937D02*
D03*
X440537Y344094D02*
D03*
X453937D02*
D03*
X474016Y397094D02*
D03*
X487416D02*
D03*
X474016Y344094D02*
D03*
X487416D02*
D03*
X507072Y397244D02*
D03*
X520472D02*
D03*
X507072Y344244D02*
D03*
X520472D02*
D03*
D110*
X525098Y482185D02*
D03*
X449311Y476279D02*
D03*
X481791D02*
D03*
X514272D02*
D03*
X449311Y482185D02*
D03*
X481791D02*
D03*
X514272D02*
D03*
X449311Y488091D02*
D03*
X481791D02*
D03*
X514272D02*
D03*
X449311Y493996D02*
D03*
X481791D02*
D03*
X514272D02*
D03*
X449311Y499902D02*
D03*
X481791D02*
D03*
X514272D02*
D03*
X449311Y505807D02*
D03*
X481791D02*
D03*
X514272D02*
D03*
X546752Y476279D02*
D03*
X525098D02*
D03*
X535925D02*
D03*
X492618D02*
D03*
X503445D02*
D03*
X460138D02*
D03*
X470965D02*
D03*
X546752Y482185D02*
D03*
Y488091D02*
D03*
Y493996D02*
D03*
Y499902D02*
D03*
Y505807D02*
D03*
X535925Y482185D02*
D03*
X525098Y488091D02*
D03*
X535925D02*
D03*
X525098Y493996D02*
D03*
X535925D02*
D03*
X525098Y499902D02*
D03*
X535925D02*
D03*
X525098Y505807D02*
D03*
X535925D02*
D03*
X492618Y482185D02*
D03*
X503445D02*
D03*
X492618Y488091D02*
D03*
X503445D02*
D03*
X492618Y493996D02*
D03*
X503445D02*
D03*
X492618Y499902D02*
D03*
X503445D02*
D03*
X492618Y505807D02*
D03*
X503445D02*
D03*
X460138Y482185D02*
D03*
X470965D02*
D03*
X460138Y488091D02*
D03*
X470965D02*
D03*
X460138Y493996D02*
D03*
X470965D02*
D03*
X460138Y499902D02*
D03*
X470965D02*
D03*
X460138Y505807D02*
D03*
X470965D02*
D03*
X304626Y482185D02*
D03*
X228839Y476279D02*
D03*
X261319D02*
D03*
X293799D02*
D03*
X228839Y482185D02*
D03*
X261319D02*
D03*
X293799D02*
D03*
X228839Y488091D02*
D03*
X261319D02*
D03*
X293799D02*
D03*
X228839Y493996D02*
D03*
X261319D02*
D03*
X293799D02*
D03*
X228839Y499902D02*
D03*
X261319D02*
D03*
X293799D02*
D03*
X228839Y505807D02*
D03*
X261319D02*
D03*
X293799D02*
D03*
X326279Y476279D02*
D03*
X304626D02*
D03*
X315453D02*
D03*
X272146D02*
D03*
X282972D02*
D03*
X239665D02*
D03*
X250492D02*
D03*
X326279Y482185D02*
D03*
Y488091D02*
D03*
Y493996D02*
D03*
Y499902D02*
D03*
Y505807D02*
D03*
X315453Y482185D02*
D03*
X304626Y488091D02*
D03*
X315453D02*
D03*
X304626Y493996D02*
D03*
X315453D02*
D03*
X304626Y499902D02*
D03*
X315453D02*
D03*
X304626Y505807D02*
D03*
X315453D02*
D03*
X272146Y482185D02*
D03*
X282972D02*
D03*
X272146Y488091D02*
D03*
X282972D02*
D03*
X272146Y493996D02*
D03*
X282972D02*
D03*
X272146Y499902D02*
D03*
X282972D02*
D03*
X272146Y505807D02*
D03*
X282972D02*
D03*
X239665Y482185D02*
D03*
X250492D02*
D03*
X239665Y488091D02*
D03*
X250492D02*
D03*
X239665Y493996D02*
D03*
X250492D02*
D03*
X239665Y499902D02*
D03*
X250492D02*
D03*
X239665Y505807D02*
D03*
X250492D02*
D03*
D111*
X563976D02*
D03*
Y497933D02*
D03*
Y490059D02*
D03*
Y482185D02*
D03*
Y474311D02*
D03*
X571850Y505807D02*
D03*
Y497933D02*
D03*
Y490059D02*
D03*
Y482185D02*
D03*
Y474311D02*
D03*
X579724Y505807D02*
D03*
Y497933D02*
D03*
Y490059D02*
D03*
Y482185D02*
D03*
Y474311D02*
D03*
X587598Y505807D02*
D03*
Y497933D02*
D03*
Y490059D02*
D03*
Y482185D02*
D03*
Y474311D02*
D03*
X595472Y505807D02*
D03*
Y497933D02*
D03*
Y490059D02*
D03*
Y482185D02*
D03*
Y474311D02*
D03*
X343504Y505807D02*
D03*
Y497933D02*
D03*
Y490059D02*
D03*
Y482185D02*
D03*
Y474311D02*
D03*
X351378Y505807D02*
D03*
Y497933D02*
D03*
Y490059D02*
D03*
Y482185D02*
D03*
Y474311D02*
D03*
X359252Y505807D02*
D03*
Y497933D02*
D03*
Y490059D02*
D03*
Y482185D02*
D03*
Y474311D02*
D03*
X367126Y505807D02*
D03*
Y497933D02*
D03*
Y490059D02*
D03*
Y482185D02*
D03*
Y474311D02*
D03*
X375000Y505807D02*
D03*
Y497933D02*
D03*
Y490059D02*
D03*
Y482185D02*
D03*
Y474311D02*
D03*
M02*
