G04*
G04 #@! TF.GenerationSoftware,Altium Limited,Altium Designer,21.2.2 (38)*
G04*
G04 Layer_Color=8421504*
%FSLAX25Y25*%
%MOIN*%
G70*
G04*
G04 #@! TF.SameCoordinates,F28A5215-CE45-4803-9B4C-17DA2ED16A0E*
G04*
G04*
G04 #@! TF.FilePolarity,Positive*
G04*
G01*
G75*
%ADD18R,0.06693X0.04134*%
%ADD19R,0.05118X0.03740*%
%ADD20R,0.09449X0.07874*%
%ADD21R,0.03740X0.05118*%
%ADD22R,0.06299X0.15748*%
%ADD23R,0.08661X0.01968*%
%ADD24R,0.09449X0.12205*%
%ADD25R,0.06693X0.12402*%
%ADD26O,0.02362X0.05709*%
%ADD27R,0.02362X0.05709*%
%ADD28R,0.05315X0.03937*%
%ADD29R,0.03937X0.05315*%
%ADD30R,0.02756X0.03543*%
%ADD31C,0.01968*%
%ADD32R,0.02362X0.03543*%
%ADD33R,0.03937X0.02362*%
%ADD34O,0.05709X0.02362*%
%ADD35R,0.03543X0.02362*%
%ADD36R,0.04724X0.02165*%
%ADD37O,0.02362X0.05709*%
%ADD38R,0.07008X0.13795*%
%ADD39R,0.42992X0.35512*%
%ADD40R,0.05000X0.07500*%
%ADD41O,0.01181X0.05709*%
%ADD42O,0.05709X0.01181*%
%ADD43R,0.03543X0.02756*%
%ADD44R,0.35512X0.42992*%
%ADD45R,0.13795X0.07008*%
%ADD46R,0.04331X0.12992*%
D18*
X309646Y96358D02*
D03*
Y84744D02*
D03*
X319488Y96161D02*
D03*
Y84547D02*
D03*
X287795Y74508D02*
D03*
Y86122D02*
D03*
X312008Y64272D02*
D03*
Y75886D02*
D03*
X329331Y96161D02*
D03*
Y84547D02*
D03*
X390551Y193405D02*
D03*
Y181791D02*
D03*
D19*
X362205Y62106D02*
D03*
Y54823D02*
D03*
X320866Y66831D02*
D03*
Y74114D02*
D03*
X362205Y68209D02*
D03*
Y75492D02*
D03*
X323425Y158366D02*
D03*
Y151083D02*
D03*
X301181Y88681D02*
D03*
Y95965D02*
D03*
Y82579D02*
D03*
Y75295D02*
D03*
X254921Y200295D02*
D03*
Y207579D02*
D03*
X397638Y298721D02*
D03*
Y291437D02*
D03*
X297441Y215453D02*
D03*
Y222736D02*
D03*
X610236Y408366D02*
D03*
Y401083D02*
D03*
X513779Y219488D02*
D03*
Y212205D02*
D03*
X600787Y241535D02*
D03*
Y234252D02*
D03*
X574213Y241535D02*
D03*
Y234252D02*
D03*
X574016Y217028D02*
D03*
Y224311D02*
D03*
X600591Y217028D02*
D03*
Y224311D02*
D03*
X516535Y37795D02*
D03*
Y30512D02*
D03*
X502559Y246752D02*
D03*
Y239469D02*
D03*
X475295Y246850D02*
D03*
Y239567D02*
D03*
X419882Y261910D02*
D03*
Y269193D02*
D03*
X411024Y262008D02*
D03*
Y269291D02*
D03*
X557087Y242028D02*
D03*
Y249311D02*
D03*
X457874Y204921D02*
D03*
Y212205D02*
D03*
X432087Y199705D02*
D03*
Y192421D02*
D03*
X388976Y298721D02*
D03*
Y291437D02*
D03*
X286024Y200984D02*
D03*
Y193701D02*
D03*
X660236Y38386D02*
D03*
Y31102D02*
D03*
X73032Y36614D02*
D03*
Y29331D02*
D03*
X454921Y36614D02*
D03*
Y29331D02*
D03*
X398819Y36811D02*
D03*
Y29528D02*
D03*
X319488Y130610D02*
D03*
Y123327D02*
D03*
X233858Y75689D02*
D03*
Y82972D02*
D03*
X218898Y78347D02*
D03*
Y85630D02*
D03*
X203543Y78445D02*
D03*
Y85728D02*
D03*
X419882Y119980D02*
D03*
Y112697D02*
D03*
X474606Y135039D02*
D03*
Y142323D02*
D03*
X222244Y31004D02*
D03*
Y23720D02*
D03*
X140551Y78150D02*
D03*
Y70866D02*
D03*
X222441Y44587D02*
D03*
Y37303D02*
D03*
X75590Y377264D02*
D03*
Y384547D02*
D03*
D20*
X400787Y127165D02*
D03*
Y111417D02*
D03*
D21*
X316043Y165748D02*
D03*
X323327D02*
D03*
X291831Y65158D02*
D03*
X299114D02*
D03*
X418405Y233858D02*
D03*
X411122D02*
D03*
X440453D02*
D03*
X433169D02*
D03*
X445276Y159646D02*
D03*
X437992D02*
D03*
X590650Y234252D02*
D03*
X583366D02*
D03*
X590650Y224409D02*
D03*
X583366D02*
D03*
X486221Y239567D02*
D03*
X493504D02*
D03*
X422146Y204331D02*
D03*
X414862D02*
D03*
X388878Y280315D02*
D03*
X396161D02*
D03*
X326083Y222638D02*
D03*
X333366D02*
D03*
X439370Y149213D02*
D03*
X432087D02*
D03*
X459941Y99803D02*
D03*
X467224D02*
D03*
X155315Y70866D02*
D03*
X162598D02*
D03*
X253248Y402165D02*
D03*
X245965D02*
D03*
X245866Y410039D02*
D03*
X253150D02*
D03*
X170571D02*
D03*
X163287D02*
D03*
X184350D02*
D03*
X177067D02*
D03*
X67618Y384646D02*
D03*
X60335D02*
D03*
X156496Y466142D02*
D03*
X149213D02*
D03*
X170768D02*
D03*
X163484D02*
D03*
D22*
X339961Y90748D02*
D03*
X354528D02*
D03*
D23*
X352953Y57913D02*
D03*
Y62913D02*
D03*
Y67913D02*
D03*
Y72913D02*
D03*
X330315Y57913D02*
D03*
Y62913D02*
D03*
Y67913D02*
D03*
Y72913D02*
D03*
D24*
X341634Y65413D02*
D03*
D25*
X647047Y363583D02*
D03*
X619882D02*
D03*
X646850Y334646D02*
D03*
X619685D02*
D03*
D26*
X235610Y145768D02*
D03*
X230610D02*
D03*
X225610D02*
D03*
X220610D02*
D03*
X215610D02*
D03*
X210610D02*
D03*
X205610D02*
D03*
X200610D02*
D03*
X235610Y124311D02*
D03*
X230610D02*
D03*
X225610D02*
D03*
X220610D02*
D03*
X215610D02*
D03*
X210610D02*
D03*
X205610D02*
D03*
X285413Y145571D02*
D03*
X280413D02*
D03*
X275413D02*
D03*
X270413D02*
D03*
X265413D02*
D03*
X260413D02*
D03*
X255413D02*
D03*
X250413D02*
D03*
X285413Y124114D02*
D03*
X280413D02*
D03*
X275413D02*
D03*
X270413D02*
D03*
X265413D02*
D03*
X260413D02*
D03*
X255413D02*
D03*
D27*
X200610Y124311D02*
D03*
X250413Y124114D02*
D03*
D28*
X581595Y247244D02*
D03*
X592815D02*
D03*
X581595Y211221D02*
D03*
X592815D02*
D03*
X493504Y253346D02*
D03*
X482283D02*
D03*
X341142Y222638D02*
D03*
X352362D02*
D03*
X117323Y82677D02*
D03*
X106102D02*
D03*
D29*
X565158Y234252D02*
D03*
Y245472D02*
D03*
X564961Y224311D02*
D03*
Y213090D02*
D03*
X511417Y239370D02*
D03*
Y250590D02*
D03*
X212795Y33366D02*
D03*
Y44587D02*
D03*
X269882Y424016D02*
D03*
Y435236D02*
D03*
X164567Y388090D02*
D03*
Y376870D02*
D03*
X84055Y387894D02*
D03*
Y376673D02*
D03*
X192913Y431988D02*
D03*
Y443209D02*
D03*
D30*
X516535Y14764D02*
D03*
X522047D02*
D03*
X660236D02*
D03*
X665748D02*
D03*
X398819D02*
D03*
X404331D02*
D03*
X454921Y14370D02*
D03*
X460433D02*
D03*
X394685Y137205D02*
D03*
X400197D02*
D03*
X394685Y166142D02*
D03*
X400197D02*
D03*
X73032Y14173D02*
D03*
X78543D02*
D03*
D31*
X298228Y421654D02*
D03*
Y425591D02*
D03*
X320472Y426968D02*
D03*
Y423032D02*
D03*
D32*
X411024Y244094D02*
D03*
X418504D02*
D03*
X414764Y253150D02*
D03*
X433071Y244094D02*
D03*
X440551D02*
D03*
X436811Y253150D02*
D03*
X377362Y193307D02*
D03*
X381102Y184252D02*
D03*
X373622D02*
D03*
X203543Y106102D02*
D03*
X207283Y97047D02*
D03*
X199803D02*
D03*
X233858Y106102D02*
D03*
X237598Y97047D02*
D03*
X230118D02*
D03*
X218701Y106102D02*
D03*
X222441Y97047D02*
D03*
X214961D02*
D03*
D33*
X506693Y224213D02*
D03*
Y220472D02*
D03*
Y216732D02*
D03*
X496063D02*
D03*
Y220472D02*
D03*
Y224213D02*
D03*
X328937Y130709D02*
D03*
Y134449D02*
D03*
Y138189D02*
D03*
X339567D02*
D03*
Y134449D02*
D03*
Y130709D02*
D03*
D34*
X549409Y219331D02*
D03*
Y224331D02*
D03*
Y229331D02*
D03*
Y234331D02*
D03*
Y239331D02*
D03*
Y244331D02*
D03*
Y249331D02*
D03*
X527953Y219331D02*
D03*
Y224331D02*
D03*
Y229331D02*
D03*
Y234331D02*
D03*
Y239331D02*
D03*
Y244331D02*
D03*
Y249331D02*
D03*
D35*
X390551Y204331D02*
D03*
X381496Y200591D02*
D03*
Y208071D02*
D03*
X406890Y204331D02*
D03*
X397835Y200591D02*
D03*
Y208071D02*
D03*
D36*
X450197Y204331D02*
D03*
Y200591D02*
D03*
Y196850D02*
D03*
X439567D02*
D03*
Y200591D02*
D03*
Y204331D02*
D03*
D37*
X278366Y215059D02*
D03*
X273366D02*
D03*
X268366D02*
D03*
X263366D02*
D03*
X278366Y193602D02*
D03*
X273366D02*
D03*
X268366D02*
D03*
X263366D02*
D03*
D38*
X335512Y237992D02*
D03*
X355512D02*
D03*
X105394Y70866D02*
D03*
X125394D02*
D03*
D39*
X345512Y278201D02*
D03*
X115394Y30658D02*
D03*
D40*
X400197Y145177D02*
D03*
X378197D02*
D03*
Y157677D02*
D03*
X400197D02*
D03*
D41*
X438779Y141240D02*
D03*
X440748D02*
D03*
X442717D02*
D03*
X444685D02*
D03*
X446654D02*
D03*
X448622D02*
D03*
X450591D02*
D03*
X452559D02*
D03*
X454528D02*
D03*
X456496D02*
D03*
X458465D02*
D03*
X460433D02*
D03*
Y107972D02*
D03*
X458465D02*
D03*
X456496D02*
D03*
X454528D02*
D03*
X452559D02*
D03*
X450591D02*
D03*
X448622D02*
D03*
X446654D02*
D03*
X444685D02*
D03*
X442717D02*
D03*
X440748D02*
D03*
X438779D02*
D03*
D42*
X466240Y135433D02*
D03*
Y133465D02*
D03*
Y131496D02*
D03*
Y129527D02*
D03*
Y127559D02*
D03*
Y125591D02*
D03*
Y123622D02*
D03*
Y121653D02*
D03*
Y119685D02*
D03*
Y117717D02*
D03*
Y115748D02*
D03*
Y113779D02*
D03*
X432972D02*
D03*
Y115748D02*
D03*
Y117717D02*
D03*
Y119685D02*
D03*
Y121653D02*
D03*
Y123622D02*
D03*
Y125591D02*
D03*
Y127559D02*
D03*
Y129527D02*
D03*
Y131496D02*
D03*
Y133465D02*
D03*
Y135433D02*
D03*
D43*
X388779Y114370D02*
D03*
Y108858D02*
D03*
Y123819D02*
D03*
Y129331D02*
D03*
D44*
X158807Y34488D02*
D03*
X217323Y385827D02*
D03*
X217272Y434094D02*
D03*
X140157Y385827D02*
D03*
X140106Y434094D02*
D03*
D45*
X199016Y44488D02*
D03*
Y24488D02*
D03*
X177114Y375827D02*
D03*
Y395827D02*
D03*
X257480Y444095D02*
D03*
Y424094D02*
D03*
X99949Y375827D02*
D03*
Y395827D02*
D03*
X180315Y444095D02*
D03*
Y424094D02*
D03*
D46*
X298228Y436221D02*
D03*
X322244D02*
D03*
X298228Y452362D02*
D03*
X322244D02*
D03*
M02*
