M48
;Layer_Color=9474304
;FILE_FORMAT=2:5
INCH,TZ
;TYPE=PLATED
T1F00S00C0.01575
T2F00S00C0.01968
T3F00S00C0.03150
T4F00S00C0.03543
T5F00S00C0.03937
T6F00S00C0.04000
T7F00S00C0.04724
T9F00S00C0.05512
T10F00S00C0.06500
T11F00S00C0.08268
%
T01
X670669Y14764
X660236Y42913
X623150Y123543
X613150Y128110
X573465Y133661
X486221
Y128150
Y123622
X482480Y119685
X486614Y115945
X486811Y108661
X482874Y112205
X467323Y94882
X461417Y95079
X456890Y88779
X462598Y85039
X442717Y80905
X437008Y76968
X431299Y73425
X421260Y81693
X426968Y100394
X414961Y112697
Y120276
X388779Y119095
X370276Y100394
X440945Y123622
X440748Y128740
X495472Y80905
X500000Y76968
X490748Y73425
X516535Y42323
X461221Y41732
X465158Y14370
X409055Y14764
X362205Y50984
X344390Y61083
Y65413
Y69744
X338878
Y65413
Y61083
X331102Y80315
X327165
X321457
X317520
X311614Y80512
X307677
X306102Y75984
X295472Y88386
X287795Y90158
X285630Y70669
Y67520
Y64370
X295472Y54724
X304134Y100787
X307874
X311614
X315354
X322835
X326575
X334055
X337795
X339567Y125394
X357677Y128937
X362402Y119003
X362402Y96653
X366339Y87402
X319488Y118898
X314173Y130709
X288583Y125591
Y122441
X260413Y132461
X238779Y125787
Y122638
X233268Y118504
X224213Y107480
X222441Y100787
X237598
X230118Y89370
X214961Y92913
X218898Y73425
X245276
X207283Y93110
X192717Y93701
X199803Y109449
X205512Y115157
X137992Y93701
X140551Y82677
X99410Y81693
X94685
Y76968
Y72244
Y67520
X99410
Y72244
Y76968
X73032Y41732
X83071Y14173
X36417Y139567
X114606Y154705
Y159055
X173406Y135453
X205610Y139665
X210610Y164390
X170079Y259449
X163583Y263976
X148622Y263779
X142520
X137992
X259449Y215158
X263386Y187598
X260413Y159075
X250413Y154705
Y137776
X235630Y140945
Y150591
X225610Y135453
X221083Y164390
X285433Y150394
Y140748
X306102Y137776
X320079Y138189
X324803Y134449
X323425Y146850
X339567Y160827
X352756Y174213
X358268
X355512Y176969
X358268Y179724
X352756
X366339Y149803
X343701Y134449
X310039Y165748
X306102Y206890
X290945Y200984
Y193504
X329921Y262402
X337795
X345669
X353543
X361417
Y270276
Y278150
Y286024
X353543
X345669
X337795
X329921
Y278150
Y270276
X337795
X345669
X353543
Y278150
X345669
X337795
X400197Y280315
X414764Y256890
X418504Y239961
X401772Y242913
X440551Y239961
X446327Y237205
X436811Y256890
X475295Y251181
X480758Y239567
X496063Y229921
X491732Y220472
X518898
X518701Y212402
X506693Y206890
X502559Y251181
X511417Y255512
X457874Y216732
X427362Y200197
Y192323
X397835Y196850
X377165Y200591
X369882Y193307
X381299Y180512
X390551Y177559
X390945Y166142
X373622Y172638
X370276Y155512
X390748Y137008
X419291Y149803
X425984Y155512
X432087Y154134
X439370
X455512Y160827
X454134Y169095
X448622Y168307
X460433Y147638
X479331Y142323
Y135039
X444685Y134055
X506102Y152165
X510039Y160827
X536614Y172638
X543110Y169086
X549409Y164567
X563465Y147638
X564961Y208268
X574016Y212992
X600787Y212795
X611221Y224311
X610433Y242913
X600787Y246654
X574213Y246850
X565158Y250295
X557087Y253937
X543898Y246260
X539961Y206890
X529331Y216142
X526181
X778150Y239567
X655118Y329724
X652362
Y333005
X655118
Y336286
X652362
Y339567
X655118
X655315Y358661
X652559
Y361942
X655315
Y365223
X652559
Y368504
X655315
X614370
X611614
Y365223
X614370
Y361942
X611614
Y358661
X614370
X614173Y339567
X611417
Y336286
X614173
Y333005
X611417
Y329724
X614173
X610236Y412795
X388976Y305118
X361417Y293898
X353543
X345669
X337795
X329921
X245965Y396358
X163287Y401083
X171653Y370276
Y366732
X175328
Y370276
X179003
Y366732
X182677
Y370276
X105512Y370079
Y366535
X101837
Y370079
X98163
Y366535
X94488
Y370079
X142520Y466142
X171653Y473032
T02
X293504Y431339
Y436417
Y441496
X302953Y441653
Y436575
Y431496
X317520Y431299
Y435039
Y438779
Y442520
X327165Y442717
Y438976
Y435236
Y431496
Y446457
Y450197
Y453937
Y457677
X317520Y457480
Y453740
Y450000
Y446260
X302953Y446732
Y451811
Y456890
X293504Y456732
Y451653
Y446575
X281299Y449409
Y453740
Y458071
X276969
X272638
Y453740
Y449409
X276969
Y453740
T03
X445276Y286221
X488878
X532480
X576083
X619685
Y305906
X576083
X532480
X488878
X445276
T04
X343504Y474311
Y482185
Y490059
Y497933
Y505807
X351378
Y497933
Y490059
Y482185
Y474311
X359252
Y482185
Y490059
Y497933
Y505807
X367126
Y497933
Y490059
Y482185
Y474311
X375000
Y482185
Y490059
Y497933
Y505807
X563976
Y497933
Y490059
Y482185
Y474311
X571850
Y482185
Y490059
Y497933
Y505807
X579724
Y497933
Y490059
Y482185
Y474311
X587598
Y482185
Y490059
Y497933
Y505807
X595472
Y497933
Y490059
Y482185
Y474311
T05
X389961Y76181
Y93898
X415551
Y76181
X326279Y476279
Y482185
Y488091
Y493996
Y499902
Y505807
X315453
Y499902
Y493996
Y488091
Y482185
Y476279
X304626
Y482185
Y488091
Y493996
Y499902
Y505807
X293799
Y499902
Y493996
Y488091
Y482185
Y476279
X282972
Y482185
Y488091
Y493996
Y499902
Y505807
X272146
Y499902
Y493996
Y488091
Y482185
Y476279
X261319
Y482185
Y488091
Y493996
Y499902
Y505807
X250492
Y499902
Y493996
Y488091
Y482185
Y476279
X239665
Y482185
Y488091
Y493996
Y499902
Y505807
X228839
Y499902
Y493996
Y488091
Y482185
Y476279
X449311
Y482185
Y488091
Y493996
Y499902
Y505807
X460138
Y499902
Y493996
Y488091
Y482185
Y476279
X470965
Y482185
Y488091
Y493996
Y499902
Y505807
X481791
Y499902
Y493996
Y488091
Y482185
Y476279
X492618
Y482185
Y488091
Y493996
Y499902
Y505807
X503445
Y499902
Y493996
Y488091
Y482185
Y476279
X514272
Y482185
Y488091
Y493996
Y499902
Y505807
X525098
Y499902
Y493996
Y488091
Y482185
Y476279
X535925
Y482185
Y488091
Y493996
Y499902
Y505807
X546752
Y499902
Y493996
Y488091
Y482185
Y476279
T06
X553465Y27165
X563465
X573465
X583465
X603150Y26969
X613150
X623150
X633150
T07
X114606Y116929
X154606
Y253937
X114606
X236260
X276260
T09
X246654Y32283
X266653
X303504
X323504
X343504
X363504
T10
X540143Y344094
X553543
X574002Y344094
X587402
Y397094
X574002
X553543Y397094
X540143
X520472Y397244
X507072
X487416Y397094
X474016
X453937
X440537
X420880
X407480
X387402Y396850
X374002
Y343850
X387402
X407480Y344094
X420880
X440537
X453937
X474016
X487416
X507072Y344244
X520472
X353951Y343701
X340551
Y396701
X353951
T11
X99606Y166929
X169606Y176929
Y206929
X221260Y303937
X291260Y313937
Y343937
X169606
Y313937
X99606Y303937
M30
