G04*
G04 #@! TF.GenerationSoftware,Altium Limited,Altium Designer,21.2.2 (38)*
G04*
G04 Layer_Color=8388736*
%FSLAX25Y25*%
%MOIN*%
G70*
G04*
G04 #@! TF.SameCoordinates,F28A5215-CE45-4803-9B4C-17DA2ED16A0E*
G04*
G04*
G04 #@! TF.FilePolarity,Negative*
G04*
G01*
G75*
%ADD47R,0.07493X0.04934*%
%ADD48R,0.05918X0.04540*%
%ADD49R,0.10249X0.08674*%
%ADD50R,0.04540X0.05918*%
%ADD51R,0.07099X0.16548*%
%ADD52R,0.09461X0.02769*%
%ADD53R,0.10249X0.13005*%
%ADD54R,0.07493X0.13202*%
%ADD55O,0.03162X0.06509*%
%ADD56R,0.03162X0.06509*%
%ADD57R,0.06115X0.04737*%
%ADD58R,0.04737X0.06115*%
%ADD59R,0.03556X0.04343*%
%ADD60C,0.02769*%
%ADD61R,0.03162X0.04343*%
%ADD62R,0.04737X0.03162*%
%ADD63O,0.06509X0.03162*%
%ADD64R,0.04343X0.03162*%
%ADD65R,0.05315X0.02756*%
%ADD66O,0.03162X0.06509*%
%ADD67R,0.07808X0.14595*%
%ADD68R,0.43792X0.36312*%
%ADD69R,0.05800X0.08300*%
%ADD70O,0.01981X0.06509*%
%ADD71O,0.06509X0.01981*%
%ADD72R,0.04343X0.03556*%
%ADD73R,0.36312X0.43792*%
%ADD74R,0.14595X0.07808*%
%ADD75R,0.05131X0.13792*%
%ADD76C,0.06706*%
%ADD77R,0.06706X0.06706*%
%ADD78O,0.11824X0.13792*%
%ADD79O,0.12611X0.10642*%
%ADD80C,0.08674*%
%ADD81C,0.13792*%
%ADD82C,0.07099*%
%ADD83R,0.07099X0.07099*%
%ADD84C,0.08083*%
%ADD85C,0.10642*%
%ADD86C,0.11233*%
%ADD87R,0.11233X0.11233*%
%ADD88O,0.10800X0.13800*%
%ADD89R,0.07887X0.07099*%
%ADD90C,0.00800*%
%ADD91C,0.06312*%
%ADD92C,0.03556*%
G36*
X528740Y413386D02*
X510827D01*
Y415158D01*
Y458858D01*
X528740D01*
Y413386D01*
D02*
G37*
G36*
X507087Y416535D02*
X503937Y413386D01*
X475000D01*
Y416732D01*
X488976Y430709D01*
Y458858D01*
X507087D01*
Y416535D01*
D02*
G37*
G36*
X485236Y431496D02*
X467126Y413386D01*
X442520D01*
Y416142D01*
X478346Y451968D01*
Y458661D01*
X485236D01*
Y431496D01*
D02*
G37*
G36*
X474409Y451772D02*
X436024Y413386D01*
X413976D01*
Y416142D01*
X456496Y458661D01*
X474409D01*
X474409Y451772D01*
D02*
G37*
G36*
X448228Y452559D02*
X409055Y413386D01*
X380906Y413386D01*
Y416535D01*
X423032Y458661D01*
X442126Y458661D01*
X448228Y452559D01*
D02*
G37*
G36*
X556496Y458858D02*
X561221Y454134D01*
X561221Y413189D01*
X532283D01*
Y458858D01*
X556496Y458858D01*
D02*
G37*
G36*
X420276Y459449D02*
X374016Y413189D01*
X348031D01*
Y417126D01*
X390551Y459646D01*
X406496Y459646D01*
Y479921D01*
X414370Y487795D01*
X420276D01*
Y459449D01*
D02*
G37*
G36*
X520525Y404142D02*
X520576Y404131D01*
X520626Y404114D01*
X520673Y404091D01*
X520716Y404062D01*
X520756Y404028D01*
X520790Y403988D01*
X520820Y403944D01*
X520843Y403897D01*
X520860Y403848D01*
X520870Y403796D01*
X520873Y403744D01*
Y390744D01*
X520870Y390692D01*
X520860Y390640D01*
X520843Y390591D01*
X520820Y390544D01*
X520790Y390500D01*
X520756Y390461D01*
X520716Y390426D01*
X520673Y390397D01*
X520626Y390374D01*
X520576Y390357D01*
X520525Y390347D01*
X520472Y390343D01*
X507072D01*
X507020Y390347D01*
X506969Y390357D01*
X506919Y390374D01*
X506872Y390397D01*
X506828Y390426D01*
X506789Y390461D01*
X506754Y390500D01*
X506725Y390544D01*
X506702Y390591D01*
X506685Y390640D01*
X506675Y390692D01*
X506672Y390744D01*
Y390844D01*
Y403744D01*
X506675Y403796D01*
X506685Y403848D01*
X506702Y403897D01*
X506725Y403944D01*
X506754Y403988D01*
X506789Y404028D01*
X506828Y404062D01*
X506872Y404091D01*
X506919Y404114D01*
X506969Y404131D01*
X507020Y404142D01*
X507072Y404145D01*
X520472D01*
X520525Y404142D01*
D02*
G37*
G36*
X587454Y403992D02*
X587505Y403982D01*
X587555Y403965D01*
X587602Y403942D01*
X587646Y403912D01*
X587685Y403878D01*
X587720Y403838D01*
X587749Y403795D01*
X587772Y403748D01*
X587789Y403698D01*
X587799Y403647D01*
X587802Y403594D01*
Y390595D01*
X587799Y390542D01*
X587789Y390491D01*
X587772Y390441D01*
X587749Y390394D01*
X587720Y390351D01*
X587685Y390311D01*
X587646Y390277D01*
X587602Y390247D01*
X587555Y390224D01*
X587505Y390207D01*
X587454Y390197D01*
X587402Y390194D01*
X574002D01*
X573949Y390197D01*
X573898Y390207D01*
X573848Y390224D01*
X573801Y390247D01*
X573758Y390277D01*
X573718Y390311D01*
X573684Y390351D01*
X573654Y390394D01*
X573631Y390441D01*
X573614Y390491D01*
X573604Y390542D01*
X573601Y390595D01*
Y390694D01*
Y403594D01*
X573604Y403647D01*
X573614Y403698D01*
X573631Y403748D01*
X573654Y403795D01*
X573684Y403838D01*
X573718Y403878D01*
X573758Y403912D01*
X573801Y403942D01*
X573848Y403965D01*
X573898Y403982D01*
X573949Y403992D01*
X574002Y403995D01*
X587402D01*
X587454Y403992D01*
D02*
G37*
G36*
X553596Y403992D02*
X553647Y403982D01*
X553697Y403965D01*
X553744Y403942D01*
X553787Y403912D01*
X553827Y403878D01*
X553861Y403838D01*
X553891Y403795D01*
X553914Y403748D01*
X553931Y403698D01*
X553941Y403647D01*
X553944Y403594D01*
Y390595D01*
X553941Y390542D01*
X553931Y390491D01*
X553914Y390441D01*
X553891Y390394D01*
X553861Y390351D01*
X553827Y390311D01*
X553787Y390277D01*
X553744Y390247D01*
X553697Y390224D01*
X553647Y390207D01*
X553596Y390197D01*
X553543Y390194D01*
X540143D01*
X540091Y390197D01*
X540040Y390207D01*
X539990Y390224D01*
X539943Y390247D01*
X539899Y390277D01*
X539860Y390311D01*
X539825Y390351D01*
X539796Y390394D01*
X539773Y390441D01*
X539756Y390491D01*
X539746Y390542D01*
X539743Y390595D01*
Y390694D01*
Y403594D01*
X539746Y403647D01*
X539756Y403698D01*
X539773Y403748D01*
X539796Y403795D01*
X539825Y403838D01*
X539860Y403878D01*
X539899Y403912D01*
X539943Y403942D01*
X539990Y403965D01*
X540040Y403982D01*
X540091Y403992D01*
X540143Y403995D01*
X553543D01*
X553596Y403992D01*
D02*
G37*
G36*
X487468D02*
X487520Y403982D01*
X487569Y403965D01*
X487616Y403942D01*
X487660Y403912D01*
X487699Y403878D01*
X487734Y403838D01*
X487763Y403795D01*
X487786Y403748D01*
X487803Y403698D01*
X487813Y403647D01*
X487817Y403594D01*
Y390595D01*
X487813Y390542D01*
X487803Y390491D01*
X487786Y390441D01*
X487763Y390394D01*
X487734Y390351D01*
X487699Y390311D01*
X487660Y390277D01*
X487616Y390247D01*
X487569Y390224D01*
X487520Y390207D01*
X487468Y390197D01*
X487416Y390194D01*
X474016D01*
X473963Y390197D01*
X473912Y390207D01*
X473862Y390224D01*
X473815Y390247D01*
X473772Y390277D01*
X473732Y390311D01*
X473698Y390351D01*
X473669Y390394D01*
X473645Y390441D01*
X473629Y390491D01*
X473618Y390542D01*
X473615Y390595D01*
Y390694D01*
Y403594D01*
X473618Y403647D01*
X473629Y403698D01*
X473645Y403748D01*
X473669Y403795D01*
X473698Y403838D01*
X473732Y403878D01*
X473772Y403912D01*
X473815Y403942D01*
X473862Y403965D01*
X473912Y403982D01*
X473963Y403992D01*
X474016Y403995D01*
X487416D01*
X487468Y403992D01*
D02*
G37*
G36*
X453989D02*
X454041Y403982D01*
X454090Y403965D01*
X454137Y403942D01*
X454181Y403912D01*
X454220Y403878D01*
X454255Y403838D01*
X454284Y403795D01*
X454307Y403748D01*
X454324Y403698D01*
X454334Y403647D01*
X454338Y403594D01*
Y390595D01*
X454334Y390542D01*
X454324Y390491D01*
X454307Y390441D01*
X454284Y390394D01*
X454255Y390351D01*
X454220Y390311D01*
X454181Y390277D01*
X454137Y390247D01*
X454090Y390224D01*
X454041Y390207D01*
X453989Y390197D01*
X453937Y390194D01*
X440537D01*
X440485Y390197D01*
X440433Y390207D01*
X440384Y390224D01*
X440337Y390247D01*
X440293Y390277D01*
X440254Y390311D01*
X440219Y390351D01*
X440190Y390394D01*
X440167Y390441D01*
X440150Y390491D01*
X440140Y390542D01*
X440136Y390595D01*
Y390694D01*
Y403594D01*
X440140Y403647D01*
X440150Y403698D01*
X440167Y403748D01*
X440190Y403795D01*
X440219Y403838D01*
X440254Y403878D01*
X440293Y403912D01*
X440337Y403942D01*
X440384Y403965D01*
X440433Y403982D01*
X440485Y403992D01*
X440537Y403995D01*
X453937D01*
X453989Y403992D01*
D02*
G37*
G36*
X420933D02*
X420984Y403982D01*
X421034Y403965D01*
X421081Y403942D01*
X421124Y403912D01*
X421164Y403878D01*
X421198Y403838D01*
X421228Y403795D01*
X421251Y403748D01*
X421268Y403698D01*
X421278Y403647D01*
X421281Y403594D01*
Y390595D01*
X421278Y390542D01*
X421268Y390491D01*
X421251Y390441D01*
X421228Y390394D01*
X421198Y390351D01*
X421164Y390311D01*
X421124Y390277D01*
X421081Y390247D01*
X421034Y390224D01*
X420984Y390207D01*
X420933Y390197D01*
X420880Y390194D01*
X407480D01*
X407428Y390197D01*
X407377Y390207D01*
X407327Y390224D01*
X407280Y390247D01*
X407236Y390277D01*
X407197Y390311D01*
X407162Y390351D01*
X407133Y390394D01*
X407110Y390441D01*
X407093Y390491D01*
X407083Y390542D01*
X407079Y390595D01*
Y390694D01*
Y403594D01*
X407083Y403647D01*
X407093Y403698D01*
X407110Y403748D01*
X407133Y403795D01*
X407162Y403838D01*
X407197Y403878D01*
X407236Y403912D01*
X407280Y403942D01*
X407327Y403965D01*
X407377Y403982D01*
X407428Y403992D01*
X407480Y403995D01*
X420880D01*
X420933Y403992D01*
D02*
G37*
G36*
X387454Y403748D02*
X387505Y403738D01*
X387555Y403721D01*
X387602Y403697D01*
X387646Y403668D01*
X387685Y403634D01*
X387720Y403594D01*
X387749Y403551D01*
X387772Y403504D01*
X387789Y403454D01*
X387799Y403403D01*
X387802Y403350D01*
Y390350D01*
X387799Y390298D01*
X387789Y390247D01*
X387772Y390197D01*
X387749Y390150D01*
X387720Y390106D01*
X387685Y390067D01*
X387646Y390032D01*
X387602Y390003D01*
X387555Y389980D01*
X387505Y389963D01*
X387454Y389953D01*
X387402Y389949D01*
X374002D01*
X373949Y389953D01*
X373898Y389963D01*
X373848Y389980D01*
X373801Y390003D01*
X373758Y390032D01*
X373718Y390067D01*
X373684Y390106D01*
X373654Y390150D01*
X373631Y390197D01*
X373614Y390247D01*
X373604Y390298D01*
X373601Y390350D01*
Y390450D01*
Y403350D01*
X373604Y403403D01*
X373614Y403454D01*
X373631Y403504D01*
X373654Y403551D01*
X373684Y403594D01*
X373718Y403634D01*
X373758Y403668D01*
X373801Y403697D01*
X373848Y403721D01*
X373898Y403738D01*
X373949Y403748D01*
X374002Y403751D01*
X387402D01*
X387454Y403748D01*
D02*
G37*
G36*
X354004Y403598D02*
X354055Y403588D01*
X354105Y403571D01*
X354152Y403548D01*
X354195Y403519D01*
X354235Y403484D01*
X354269Y403445D01*
X354298Y403401D01*
X354322Y403354D01*
X354338Y403304D01*
X354349Y403253D01*
X354352Y403201D01*
Y390201D01*
X354349Y390148D01*
X354338Y390097D01*
X354322Y390047D01*
X354298Y390000D01*
X354269Y389957D01*
X354235Y389917D01*
X354195Y389883D01*
X354152Y389854D01*
X354105Y389830D01*
X354055Y389814D01*
X354004Y389803D01*
X353951Y389800D01*
X340551D01*
X340499Y389803D01*
X340447Y389814D01*
X340398Y389830D01*
X340351Y389854D01*
X340307Y389883D01*
X340268Y389917D01*
X340233Y389957D01*
X340204Y390000D01*
X340181Y390047D01*
X340164Y390097D01*
X340154Y390148D01*
X340150Y390201D01*
Y390301D01*
Y403201D01*
X340154Y403253D01*
X340164Y403304D01*
X340181Y403354D01*
X340204Y403401D01*
X340233Y403445D01*
X340268Y403484D01*
X340307Y403519D01*
X340351Y403548D01*
X340398Y403571D01*
X340447Y403588D01*
X340499Y403598D01*
X340551Y403602D01*
X353951D01*
X354004Y403598D01*
D02*
G37*
G36*
X520525Y351142D02*
X520576Y351131D01*
X520626Y351114D01*
X520673Y351091D01*
X520716Y351062D01*
X520756Y351027D01*
X520790Y350988D01*
X520820Y350944D01*
X520843Y350898D01*
X520860Y350848D01*
X520870Y350796D01*
X520873Y350744D01*
Y337744D01*
X520870Y337692D01*
X520860Y337640D01*
X520843Y337591D01*
X520820Y337544D01*
X520790Y337500D01*
X520756Y337461D01*
X520716Y337426D01*
X520673Y337397D01*
X520626Y337374D01*
X520576Y337357D01*
X520525Y337347D01*
X520472Y337343D01*
X507072D01*
X507020Y337347D01*
X506969Y337357D01*
X506919Y337374D01*
X506872Y337397D01*
X506828Y337426D01*
X506789Y337461D01*
X506754Y337500D01*
X506725Y337544D01*
X506702Y337591D01*
X506685Y337640D01*
X506675Y337692D01*
X506672Y337744D01*
Y337844D01*
Y350744D01*
X506675Y350796D01*
X506685Y350848D01*
X506702Y350898D01*
X506725Y350944D01*
X506754Y350988D01*
X506789Y351027D01*
X506828Y351062D01*
X506872Y351091D01*
X506919Y351114D01*
X506969Y351131D01*
X507020Y351142D01*
X507072Y351145D01*
X520472D01*
X520525Y351142D01*
D02*
G37*
G36*
X587454Y350992D02*
X587505Y350982D01*
X587555Y350965D01*
X587602Y350942D01*
X587646Y350912D01*
X587685Y350878D01*
X587720Y350838D01*
X587749Y350795D01*
X587772Y350748D01*
X587789Y350698D01*
X587799Y350647D01*
X587802Y350594D01*
Y337595D01*
X587799Y337542D01*
X587789Y337491D01*
X587772Y337441D01*
X587749Y337394D01*
X587720Y337351D01*
X587685Y337311D01*
X587646Y337277D01*
X587602Y337247D01*
X587555Y337224D01*
X587505Y337207D01*
X587454Y337197D01*
X587402Y337194D01*
X574002D01*
X573949Y337197D01*
X573898Y337207D01*
X573848Y337224D01*
X573801Y337247D01*
X573758Y337277D01*
X573718Y337311D01*
X573684Y337351D01*
X573654Y337394D01*
X573631Y337441D01*
X573614Y337491D01*
X573604Y337542D01*
X573601Y337595D01*
Y337695D01*
Y350594D01*
X573604Y350647D01*
X573614Y350698D01*
X573631Y350748D01*
X573654Y350795D01*
X573684Y350838D01*
X573718Y350878D01*
X573758Y350912D01*
X573801Y350942D01*
X573848Y350965D01*
X573898Y350982D01*
X573949Y350992D01*
X574002Y350995D01*
X587402D01*
X587454Y350992D01*
D02*
G37*
G36*
X553596Y350992D02*
X553647Y350982D01*
X553697Y350965D01*
X553744Y350942D01*
X553787Y350912D01*
X553827Y350878D01*
X553861Y350838D01*
X553891Y350795D01*
X553914Y350748D01*
X553931Y350698D01*
X553941Y350647D01*
X553944Y350594D01*
Y337595D01*
X553941Y337542D01*
X553931Y337491D01*
X553914Y337441D01*
X553891Y337394D01*
X553861Y337351D01*
X553827Y337311D01*
X553787Y337277D01*
X553744Y337247D01*
X553697Y337224D01*
X553647Y337207D01*
X553596Y337197D01*
X553543Y337194D01*
X540143D01*
X540091Y337197D01*
X540040Y337207D01*
X539990Y337224D01*
X539943Y337247D01*
X539899Y337277D01*
X539860Y337311D01*
X539825Y337351D01*
X539796Y337394D01*
X539773Y337441D01*
X539756Y337491D01*
X539746Y337542D01*
X539743Y337595D01*
Y337695D01*
Y350594D01*
X539746Y350647D01*
X539756Y350698D01*
X539773Y350748D01*
X539796Y350795D01*
X539825Y350838D01*
X539860Y350878D01*
X539899Y350912D01*
X539943Y350942D01*
X539990Y350965D01*
X540040Y350982D01*
X540091Y350992D01*
X540143Y350995D01*
X553543D01*
X553596Y350992D01*
D02*
G37*
G36*
X487468D02*
X487520Y350982D01*
X487569Y350965D01*
X487616Y350942D01*
X487660Y350912D01*
X487699Y350878D01*
X487734Y350838D01*
X487763Y350795D01*
X487786Y350748D01*
X487803Y350698D01*
X487813Y350647D01*
X487817Y350594D01*
Y337595D01*
X487813Y337542D01*
X487803Y337491D01*
X487786Y337441D01*
X487763Y337394D01*
X487734Y337351D01*
X487699Y337311D01*
X487660Y337277D01*
X487616Y337247D01*
X487569Y337224D01*
X487520Y337207D01*
X487468Y337197D01*
X487416Y337194D01*
X474016D01*
X473963Y337197D01*
X473912Y337207D01*
X473862Y337224D01*
X473815Y337247D01*
X473772Y337277D01*
X473732Y337311D01*
X473698Y337351D01*
X473669Y337394D01*
X473645Y337441D01*
X473629Y337491D01*
X473618Y337542D01*
X473615Y337595D01*
Y337695D01*
Y350594D01*
X473618Y350647D01*
X473629Y350698D01*
X473645Y350748D01*
X473669Y350795D01*
X473698Y350838D01*
X473732Y350878D01*
X473772Y350912D01*
X473815Y350942D01*
X473862Y350965D01*
X473912Y350982D01*
X473963Y350992D01*
X474016Y350995D01*
X487416D01*
X487468Y350992D01*
D02*
G37*
G36*
X453989D02*
X454041Y350982D01*
X454090Y350965D01*
X454137Y350942D01*
X454181Y350912D01*
X454220Y350878D01*
X454255Y350838D01*
X454284Y350795D01*
X454307Y350748D01*
X454324Y350698D01*
X454334Y350647D01*
X454338Y350594D01*
Y337595D01*
X454334Y337542D01*
X454324Y337491D01*
X454307Y337441D01*
X454284Y337394D01*
X454255Y337351D01*
X454220Y337311D01*
X454181Y337277D01*
X454137Y337247D01*
X454090Y337224D01*
X454041Y337207D01*
X453989Y337197D01*
X453937Y337194D01*
X440537D01*
X440485Y337197D01*
X440433Y337207D01*
X440384Y337224D01*
X440337Y337247D01*
X440293Y337277D01*
X440254Y337311D01*
X440219Y337351D01*
X440190Y337394D01*
X440167Y337441D01*
X440150Y337491D01*
X440140Y337542D01*
X440136Y337595D01*
Y337695D01*
Y350594D01*
X440140Y350647D01*
X440150Y350698D01*
X440167Y350748D01*
X440190Y350795D01*
X440219Y350838D01*
X440254Y350878D01*
X440293Y350912D01*
X440337Y350942D01*
X440384Y350965D01*
X440433Y350982D01*
X440485Y350992D01*
X440537Y350995D01*
X453937D01*
X453989Y350992D01*
D02*
G37*
G36*
X420933D02*
X420984Y350982D01*
X421034Y350965D01*
X421081Y350942D01*
X421124Y350912D01*
X421164Y350878D01*
X421198Y350838D01*
X421228Y350795D01*
X421251Y350748D01*
X421268Y350698D01*
X421278Y350647D01*
X421281Y350594D01*
Y337595D01*
X421278Y337542D01*
X421268Y337491D01*
X421251Y337441D01*
X421228Y337394D01*
X421198Y337351D01*
X421164Y337311D01*
X421124Y337277D01*
X421081Y337247D01*
X421034Y337224D01*
X420984Y337207D01*
X420933Y337197D01*
X420880Y337194D01*
X407480D01*
X407428Y337197D01*
X407377Y337207D01*
X407327Y337224D01*
X407280Y337247D01*
X407236Y337277D01*
X407197Y337311D01*
X407162Y337351D01*
X407133Y337394D01*
X407110Y337441D01*
X407093Y337491D01*
X407083Y337542D01*
X407079Y337595D01*
Y337695D01*
Y350594D01*
X407083Y350647D01*
X407093Y350698D01*
X407110Y350748D01*
X407133Y350795D01*
X407162Y350838D01*
X407197Y350878D01*
X407236Y350912D01*
X407280Y350942D01*
X407327Y350965D01*
X407377Y350982D01*
X407428Y350992D01*
X407480Y350995D01*
X420880D01*
X420933Y350992D01*
D02*
G37*
G36*
X387454Y350748D02*
X387505Y350738D01*
X387555Y350721D01*
X387602Y350697D01*
X387646Y350668D01*
X387685Y350634D01*
X387720Y350594D01*
X387749Y350551D01*
X387772Y350504D01*
X387789Y350454D01*
X387799Y350403D01*
X387802Y350350D01*
Y337350D01*
X387799Y337298D01*
X387789Y337247D01*
X387772Y337197D01*
X387749Y337150D01*
X387720Y337106D01*
X387685Y337067D01*
X387646Y337032D01*
X387602Y337003D01*
X387555Y336980D01*
X387505Y336963D01*
X387454Y336953D01*
X387402Y336949D01*
X374002D01*
X373949Y336953D01*
X373898Y336963D01*
X373848Y336980D01*
X373801Y337003D01*
X373758Y337032D01*
X373718Y337067D01*
X373684Y337106D01*
X373654Y337150D01*
X373631Y337197D01*
X373614Y337247D01*
X373604Y337298D01*
X373601Y337350D01*
Y337450D01*
Y350350D01*
X373604Y350403D01*
X373614Y350454D01*
X373631Y350504D01*
X373654Y350551D01*
X373684Y350594D01*
X373718Y350634D01*
X373758Y350668D01*
X373801Y350697D01*
X373848Y350721D01*
X373898Y350738D01*
X373949Y350748D01*
X374002Y350751D01*
X387402D01*
X387454Y350748D01*
D02*
G37*
G36*
X354004Y350598D02*
X354055Y350588D01*
X354105Y350571D01*
X354152Y350548D01*
X354195Y350519D01*
X354235Y350484D01*
X354269Y350445D01*
X354298Y350401D01*
X354322Y350354D01*
X354338Y350305D01*
X354349Y350253D01*
X354352Y350201D01*
Y337201D01*
X354349Y337148D01*
X354338Y337097D01*
X354322Y337047D01*
X354298Y337000D01*
X354269Y336957D01*
X354235Y336917D01*
X354195Y336883D01*
X354152Y336854D01*
X354105Y336830D01*
X354055Y336814D01*
X354004Y336803D01*
X353951Y336800D01*
X340551D01*
X340499Y336803D01*
X340447Y336814D01*
X340398Y336830D01*
X340351Y336854D01*
X340307Y336883D01*
X340268Y336917D01*
X340233Y336957D01*
X340204Y337000D01*
X340181Y337047D01*
X340164Y337097D01*
X340154Y337148D01*
X340150Y337201D01*
Y337301D01*
Y350201D01*
X340154Y350253D01*
X340164Y350305D01*
X340181Y350354D01*
X340204Y350401D01*
X340233Y350445D01*
X340268Y350484D01*
X340307Y350519D01*
X340351Y350548D01*
X340398Y350571D01*
X340447Y350588D01*
X340499Y350598D01*
X340551Y350602D01*
X353951D01*
X354004Y350598D01*
D02*
G37*
D47*
X309646Y96358D02*
D03*
Y84744D02*
D03*
X319488Y96161D02*
D03*
Y84547D02*
D03*
X287795Y74508D02*
D03*
Y86122D02*
D03*
X312008Y64272D02*
D03*
Y75886D02*
D03*
X329331Y96161D02*
D03*
Y84547D02*
D03*
X390551Y193405D02*
D03*
Y181791D02*
D03*
D48*
X362205Y62106D02*
D03*
Y54823D02*
D03*
X320866Y66831D02*
D03*
Y74114D02*
D03*
X362205Y68209D02*
D03*
Y75492D02*
D03*
X323425Y158366D02*
D03*
Y151083D02*
D03*
X301181Y88681D02*
D03*
Y95965D02*
D03*
Y82579D02*
D03*
Y75295D02*
D03*
X254921Y200295D02*
D03*
Y207579D02*
D03*
X397638Y298721D02*
D03*
Y291437D02*
D03*
X297441Y215453D02*
D03*
Y222736D02*
D03*
X610236Y408366D02*
D03*
Y401083D02*
D03*
X513779Y219488D02*
D03*
Y212205D02*
D03*
X600787Y241535D02*
D03*
Y234252D02*
D03*
X574213Y241535D02*
D03*
Y234252D02*
D03*
X574016Y217028D02*
D03*
Y224311D02*
D03*
X600591Y217028D02*
D03*
Y224311D02*
D03*
X516535Y37795D02*
D03*
Y30512D02*
D03*
X502559Y246752D02*
D03*
Y239469D02*
D03*
X475295Y246850D02*
D03*
Y239567D02*
D03*
X419882Y261910D02*
D03*
Y269193D02*
D03*
X411024Y262008D02*
D03*
Y269291D02*
D03*
X557087Y242028D02*
D03*
Y249311D02*
D03*
X457874Y204921D02*
D03*
Y212205D02*
D03*
X432087Y199705D02*
D03*
Y192421D02*
D03*
X388976Y298721D02*
D03*
Y291437D02*
D03*
X286024Y200984D02*
D03*
Y193701D02*
D03*
X660236Y38386D02*
D03*
Y31102D02*
D03*
X73032Y36614D02*
D03*
Y29331D02*
D03*
X454921Y36614D02*
D03*
Y29331D02*
D03*
X398819Y36811D02*
D03*
Y29528D02*
D03*
X319488Y130610D02*
D03*
Y123327D02*
D03*
X233858Y75689D02*
D03*
Y82972D02*
D03*
X218898Y78347D02*
D03*
Y85630D02*
D03*
X203543Y78445D02*
D03*
Y85728D02*
D03*
X419882Y119980D02*
D03*
Y112697D02*
D03*
X474606Y135039D02*
D03*
Y142323D02*
D03*
X222244Y31004D02*
D03*
Y23720D02*
D03*
X140551Y78150D02*
D03*
Y70866D02*
D03*
X222441Y44587D02*
D03*
Y37303D02*
D03*
X75590Y377264D02*
D03*
Y384547D02*
D03*
D49*
X400787Y127165D02*
D03*
Y111417D02*
D03*
D50*
X316043Y165748D02*
D03*
X323327D02*
D03*
X291831Y65158D02*
D03*
X299114D02*
D03*
X418405Y233858D02*
D03*
X411122D02*
D03*
X440453D02*
D03*
X433169D02*
D03*
X445276Y159646D02*
D03*
X437992D02*
D03*
X590650Y234252D02*
D03*
X583366D02*
D03*
X590650Y224409D02*
D03*
X583366D02*
D03*
X486221Y239567D02*
D03*
X493504D02*
D03*
X422146Y204331D02*
D03*
X414862D02*
D03*
X388878Y280315D02*
D03*
X396161D02*
D03*
X326083Y222638D02*
D03*
X333366D02*
D03*
X439370Y149213D02*
D03*
X432087D02*
D03*
X459941Y99803D02*
D03*
X467224D02*
D03*
X155315Y70866D02*
D03*
X162598D02*
D03*
X253248Y402165D02*
D03*
X245965D02*
D03*
X245866Y410039D02*
D03*
X253150D02*
D03*
X170571D02*
D03*
X163287D02*
D03*
X184350D02*
D03*
X177067D02*
D03*
X67618Y384646D02*
D03*
X60335D02*
D03*
X156496Y466142D02*
D03*
X149213D02*
D03*
X170768D02*
D03*
X163484D02*
D03*
D51*
X339961Y90748D02*
D03*
X354528D02*
D03*
D52*
X352953Y57913D02*
D03*
Y62913D02*
D03*
Y67913D02*
D03*
Y72913D02*
D03*
X330315Y57913D02*
D03*
Y62913D02*
D03*
Y67913D02*
D03*
Y72913D02*
D03*
D53*
X341634Y65413D02*
D03*
D54*
X647047Y363583D02*
D03*
X619882D02*
D03*
X646850Y334646D02*
D03*
X619685D02*
D03*
D55*
X235610Y145768D02*
D03*
X230610D02*
D03*
X225610D02*
D03*
X220610D02*
D03*
X215610D02*
D03*
X210610D02*
D03*
X205610D02*
D03*
X200610D02*
D03*
X235610Y124311D02*
D03*
X230610D02*
D03*
X225610D02*
D03*
X220610D02*
D03*
X215610D02*
D03*
X210610D02*
D03*
X205610D02*
D03*
X285413Y145571D02*
D03*
X280413D02*
D03*
X275413D02*
D03*
X270413D02*
D03*
X265413D02*
D03*
X260413D02*
D03*
X255413D02*
D03*
X250413D02*
D03*
X285413Y124114D02*
D03*
X280413D02*
D03*
X275413D02*
D03*
X270413D02*
D03*
X265413D02*
D03*
X260413D02*
D03*
X255413D02*
D03*
D56*
X200610Y124311D02*
D03*
X250413Y124114D02*
D03*
D57*
X581595Y247244D02*
D03*
X592815D02*
D03*
X581595Y211221D02*
D03*
X592815D02*
D03*
X493504Y253346D02*
D03*
X482283D02*
D03*
X341142Y222638D02*
D03*
X352362D02*
D03*
X117323Y82677D02*
D03*
X106102D02*
D03*
D58*
X565158Y234252D02*
D03*
Y245472D02*
D03*
X564961Y224311D02*
D03*
Y213090D02*
D03*
X511417Y239370D02*
D03*
Y250590D02*
D03*
X212795Y33366D02*
D03*
Y44587D02*
D03*
X269882Y424016D02*
D03*
Y435236D02*
D03*
X164567Y388090D02*
D03*
Y376870D02*
D03*
X84055Y387894D02*
D03*
Y376673D02*
D03*
X192913Y431988D02*
D03*
Y443209D02*
D03*
D59*
X516535Y14764D02*
D03*
X522047D02*
D03*
X660236D02*
D03*
X665748D02*
D03*
X398819D02*
D03*
X404331D02*
D03*
X454921Y14370D02*
D03*
X460433D02*
D03*
X394685Y137205D02*
D03*
X400197D02*
D03*
X394685Y166142D02*
D03*
X400197D02*
D03*
X73032Y14173D02*
D03*
X78543D02*
D03*
D60*
X298228Y421654D02*
D03*
Y425591D02*
D03*
X320472Y426968D02*
D03*
Y423032D02*
D03*
D61*
X411024Y244094D02*
D03*
X418504D02*
D03*
X414764Y253150D02*
D03*
X433071Y244094D02*
D03*
X440551D02*
D03*
X436811Y253150D02*
D03*
X377362Y193307D02*
D03*
X381102Y184252D02*
D03*
X373622D02*
D03*
X203543Y106102D02*
D03*
X207283Y97047D02*
D03*
X199803D02*
D03*
X233858Y106102D02*
D03*
X237598Y97047D02*
D03*
X230118D02*
D03*
X218701Y106102D02*
D03*
X222441Y97047D02*
D03*
X214961D02*
D03*
D62*
X506693Y224213D02*
D03*
Y220472D02*
D03*
Y216732D02*
D03*
X496063D02*
D03*
Y220472D02*
D03*
Y224213D02*
D03*
X328937Y130709D02*
D03*
Y134449D02*
D03*
Y138189D02*
D03*
X339567D02*
D03*
Y134449D02*
D03*
Y130709D02*
D03*
D63*
X549409Y219331D02*
D03*
Y224331D02*
D03*
Y229331D02*
D03*
Y234331D02*
D03*
Y239331D02*
D03*
Y244331D02*
D03*
Y249331D02*
D03*
X527953Y219331D02*
D03*
Y224331D02*
D03*
Y229331D02*
D03*
Y234331D02*
D03*
Y239331D02*
D03*
Y244331D02*
D03*
Y249331D02*
D03*
D64*
X390551Y204331D02*
D03*
X381496Y200591D02*
D03*
Y208071D02*
D03*
X406890Y204331D02*
D03*
X397835Y200591D02*
D03*
Y208071D02*
D03*
D65*
X450197Y204331D02*
D03*
Y200591D02*
D03*
Y196850D02*
D03*
X439567D02*
D03*
Y200591D02*
D03*
Y204331D02*
D03*
D66*
X278366Y215059D02*
D03*
X273366D02*
D03*
X268366D02*
D03*
X263366D02*
D03*
X278366Y193602D02*
D03*
X273366D02*
D03*
X268366D02*
D03*
X263366D02*
D03*
D67*
X335512Y237992D02*
D03*
X355512D02*
D03*
X105394Y70866D02*
D03*
X125394D02*
D03*
D68*
X345512Y278201D02*
D03*
X115394Y30658D02*
D03*
D69*
X400197Y145177D02*
D03*
X378197D02*
D03*
Y157677D02*
D03*
X400197D02*
D03*
D70*
X438779Y141240D02*
D03*
X440748D02*
D03*
X442717D02*
D03*
X444685D02*
D03*
X446654D02*
D03*
X448622D02*
D03*
X450591D02*
D03*
X452559D02*
D03*
X454528D02*
D03*
X456496D02*
D03*
X458465D02*
D03*
X460433D02*
D03*
Y107972D02*
D03*
X458465D02*
D03*
X456496D02*
D03*
X454528D02*
D03*
X452559D02*
D03*
X450591D02*
D03*
X448622D02*
D03*
X446654D02*
D03*
X444685D02*
D03*
X442717D02*
D03*
X440748D02*
D03*
X438779D02*
D03*
D71*
X466240Y135433D02*
D03*
Y133465D02*
D03*
Y131496D02*
D03*
Y129527D02*
D03*
Y127559D02*
D03*
Y125591D02*
D03*
Y123622D02*
D03*
Y121653D02*
D03*
Y119685D02*
D03*
Y117717D02*
D03*
Y115748D02*
D03*
Y113779D02*
D03*
X432972D02*
D03*
Y115748D02*
D03*
Y117717D02*
D03*
Y119685D02*
D03*
Y121653D02*
D03*
Y123622D02*
D03*
Y125591D02*
D03*
Y127559D02*
D03*
Y129527D02*
D03*
Y131496D02*
D03*
Y133465D02*
D03*
Y135433D02*
D03*
D72*
X388779Y114370D02*
D03*
Y108858D02*
D03*
Y123819D02*
D03*
Y129331D02*
D03*
D73*
X158807Y34488D02*
D03*
X217323Y385827D02*
D03*
X217272Y434094D02*
D03*
X140157Y385827D02*
D03*
X140106Y434094D02*
D03*
D74*
X199016Y44488D02*
D03*
Y24488D02*
D03*
X177114Y375827D02*
D03*
Y395827D02*
D03*
X257480Y444095D02*
D03*
Y424094D02*
D03*
X99949Y375827D02*
D03*
Y395827D02*
D03*
X180315Y444095D02*
D03*
Y424094D02*
D03*
D75*
X298228Y436221D02*
D03*
X322244D02*
D03*
X298228Y452362D02*
D03*
X322244D02*
D03*
D76*
X619685Y286221D02*
D03*
X576083D02*
D03*
X532480D02*
D03*
X488878D02*
D03*
X445276D02*
D03*
D77*
X619685Y305906D02*
D03*
X576083D02*
D03*
X532480D02*
D03*
X488878D02*
D03*
X445276D02*
D03*
D78*
X709646Y24016D02*
D03*
X729724D02*
D03*
D79*
X719685Y74724D02*
D03*
Y89724D02*
D03*
Y104724D02*
D03*
D80*
X276260Y253937D02*
D03*
X236260D02*
D03*
X114606Y116929D02*
D03*
X154606D02*
D03*
X114606Y253937D02*
D03*
X154606D02*
D03*
D81*
X221260Y303937D02*
D03*
X291260Y313937D02*
D03*
Y343937D02*
D03*
X169606Y206929D02*
D03*
Y176929D02*
D03*
X99606Y166929D02*
D03*
X169606Y343937D02*
D03*
Y313937D02*
D03*
X99606Y303937D02*
D03*
D82*
X553465Y27165D02*
D03*
X573465D02*
D03*
X563465D02*
D03*
X603150Y26969D02*
D03*
X623150D02*
D03*
X613150D02*
D03*
D83*
X583465Y27165D02*
D03*
X633150Y26969D02*
D03*
D84*
X389961Y76181D02*
D03*
Y93898D02*
D03*
X415551Y76181D02*
D03*
Y93898D02*
D03*
D85*
X303504Y32283D02*
D03*
X323504D02*
D03*
X343504D02*
D03*
X363504D02*
D03*
D86*
X266653D02*
D03*
D87*
X246654D02*
D03*
D88*
X553543Y344094D02*
D03*
X540143D02*
D03*
X553543Y397094D02*
D03*
X540143D02*
D03*
X574002Y397094D02*
D03*
X587402D02*
D03*
X574002Y344094D02*
D03*
X587402D02*
D03*
X340551Y396701D02*
D03*
X353951D02*
D03*
X340551Y343701D02*
D03*
X353951D02*
D03*
X374002Y396850D02*
D03*
X387402D02*
D03*
X374002Y343850D02*
D03*
X387402D02*
D03*
X407480Y397094D02*
D03*
X420880D02*
D03*
X407480Y344094D02*
D03*
X420880D02*
D03*
X440537Y397094D02*
D03*
X453937D02*
D03*
X440537Y344094D02*
D03*
X453937D02*
D03*
X474016Y397094D02*
D03*
X487416D02*
D03*
X474016Y344094D02*
D03*
X487416D02*
D03*
X507072Y397244D02*
D03*
X520472D02*
D03*
X507072Y344244D02*
D03*
X520472D02*
D03*
D89*
X525098Y482185D02*
D03*
X449311Y476279D02*
D03*
X481791D02*
D03*
X514272D02*
D03*
X449311Y482185D02*
D03*
X481791D02*
D03*
X514272D02*
D03*
X449311Y488091D02*
D03*
X481791D02*
D03*
X514272D02*
D03*
X449311Y493996D02*
D03*
X481791D02*
D03*
X514272D02*
D03*
X449311Y499902D02*
D03*
X481791D02*
D03*
X514272D02*
D03*
X449311Y505807D02*
D03*
X481791D02*
D03*
X514272D02*
D03*
X546752Y476279D02*
D03*
X525098D02*
D03*
X535925D02*
D03*
X492618D02*
D03*
X503445D02*
D03*
X460138D02*
D03*
X470965D02*
D03*
X546752Y482185D02*
D03*
Y488091D02*
D03*
Y493996D02*
D03*
Y499902D02*
D03*
Y505807D02*
D03*
X535925Y482185D02*
D03*
X525098Y488091D02*
D03*
X535925D02*
D03*
X525098Y493996D02*
D03*
X535925D02*
D03*
X525098Y499902D02*
D03*
X535925D02*
D03*
X525098Y505807D02*
D03*
X535925D02*
D03*
X492618Y482185D02*
D03*
X503445D02*
D03*
X492618Y488091D02*
D03*
X503445D02*
D03*
X492618Y493996D02*
D03*
X503445D02*
D03*
X492618Y499902D02*
D03*
X503445D02*
D03*
X492618Y505807D02*
D03*
X503445D02*
D03*
X460138Y482185D02*
D03*
X470965D02*
D03*
X460138Y488091D02*
D03*
X470965D02*
D03*
X460138Y493996D02*
D03*
X470965D02*
D03*
X460138Y499902D02*
D03*
X470965D02*
D03*
X460138Y505807D02*
D03*
X470965D02*
D03*
X304626Y482185D02*
D03*
X228839Y476279D02*
D03*
X261319D02*
D03*
X293799D02*
D03*
X228839Y482185D02*
D03*
X261319D02*
D03*
X293799D02*
D03*
X228839Y488091D02*
D03*
X261319D02*
D03*
X293799D02*
D03*
X228839Y493996D02*
D03*
X261319D02*
D03*
X293799D02*
D03*
X228839Y499902D02*
D03*
X261319D02*
D03*
X293799D02*
D03*
X228839Y505807D02*
D03*
X261319D02*
D03*
X293799D02*
D03*
X326279Y476279D02*
D03*
X304626D02*
D03*
X315453D02*
D03*
X272146D02*
D03*
X282972D02*
D03*
X239665D02*
D03*
X250492D02*
D03*
X326279Y482185D02*
D03*
Y488091D02*
D03*
Y493996D02*
D03*
Y499902D02*
D03*
Y505807D02*
D03*
X315453Y482185D02*
D03*
X304626Y488091D02*
D03*
X315453D02*
D03*
X304626Y493996D02*
D03*
X315453D02*
D03*
X304626Y499902D02*
D03*
X315453D02*
D03*
X304626Y505807D02*
D03*
X315453D02*
D03*
X272146Y482185D02*
D03*
X282972D02*
D03*
X272146Y488091D02*
D03*
X282972D02*
D03*
X272146Y493996D02*
D03*
X282972D02*
D03*
X272146Y499902D02*
D03*
X282972D02*
D03*
X272146Y505807D02*
D03*
X282972D02*
D03*
X239665Y482185D02*
D03*
X250492D02*
D03*
X239665Y488091D02*
D03*
X250492D02*
D03*
X239665Y493996D02*
D03*
X250492D02*
D03*
X239665Y499902D02*
D03*
X250492D02*
D03*
X239665Y505807D02*
D03*
X250492D02*
D03*
D90*
X431890Y468602D02*
D03*
X615354D02*
D03*
X211417D02*
D03*
X394882D02*
D03*
D91*
X563976Y505807D02*
D03*
Y497933D02*
D03*
Y490059D02*
D03*
Y482185D02*
D03*
Y474311D02*
D03*
X571850Y505807D02*
D03*
Y497933D02*
D03*
Y490059D02*
D03*
Y482185D02*
D03*
Y474311D02*
D03*
X579724Y505807D02*
D03*
Y497933D02*
D03*
Y490059D02*
D03*
Y482185D02*
D03*
Y474311D02*
D03*
X587598Y505807D02*
D03*
Y497933D02*
D03*
Y490059D02*
D03*
Y482185D02*
D03*
Y474311D02*
D03*
X595472Y505807D02*
D03*
Y497933D02*
D03*
Y490059D02*
D03*
Y482185D02*
D03*
Y474311D02*
D03*
X343504Y505807D02*
D03*
Y497933D02*
D03*
Y490059D02*
D03*
Y482185D02*
D03*
Y474311D02*
D03*
X351378Y505807D02*
D03*
Y497933D02*
D03*
Y490059D02*
D03*
Y482185D02*
D03*
Y474311D02*
D03*
X359252Y505807D02*
D03*
Y497933D02*
D03*
Y490059D02*
D03*
Y482185D02*
D03*
Y474311D02*
D03*
X367126Y505807D02*
D03*
Y497933D02*
D03*
Y490059D02*
D03*
Y482185D02*
D03*
Y474311D02*
D03*
X375000Y505807D02*
D03*
Y497933D02*
D03*
Y490059D02*
D03*
Y482185D02*
D03*
Y474311D02*
D03*
D92*
X344390Y69744D02*
D03*
X338878D02*
D03*
Y65413D02*
D03*
X344390D02*
D03*
Y61083D02*
D03*
X338878D02*
D03*
M02*
