M48
;Layer_Color=9474304
;FILE_FORMAT=2:5
INCH,TZ
;TYPE=PLATED
T1F00S00C0.01575
T2F00S00C0.01968
T3F00S00C0.03150
T4F00S00C0.03543
T5F00S00C0.03937
T6F00S00C0.04000
T7F00S00C0.04724
T9F00S00C0.05512
T10F00S00C0.06500
T11F00S00C0.08268
%
T01
X6.70669Y0.14764
X6.60236Y0.42913
X6.23150Y1.23543
X6.13150Y1.28110
X5.73465Y1.33661
X4.86221
Y1.28150
Y1.23622
X4.82480Y1.19685
X4.86614Y1.15945
X4.86811Y1.08661
X4.82874Y1.12205
X4.67323Y0.94882
X4.61417Y0.95079
X4.56890Y0.88779
X4.62598Y0.85039
X4.42717Y0.80905
X4.37008Y0.76968
X4.31299Y0.73425
X4.21260Y0.81693
X4.26968Y1.00394
X4.14961Y1.12697
Y1.20276
X3.88779Y1.19095
X3.70276Y1.00394
X4.40945Y1.23622
X4.40748Y1.28740
X4.95472Y0.80905
X5.00000Y0.76968
X4.90748Y0.73425
X5.16535Y0.42323
X4.61221Y0.41732
X4.65158Y0.14370
X4.09055Y0.14764
X3.62205Y0.50984
X3.44390Y0.61083
Y0.65413
Y0.69744
X3.38878
Y0.65413
Y0.61083
X3.31102Y0.80315
X3.27165
X3.21457
X3.17520
X3.11614Y0.80512
X3.07677
X3.06102Y0.75984
X2.95472Y0.88386
X2.87795Y0.90158
X2.85630Y0.70669
Y0.67520
Y0.64370
X2.95472Y0.54724
X3.04134Y1.00787
X3.07874
X3.11614
X3.15354
X3.22835
X3.26575
X3.34055
X3.37795
X3.39567Y1.25394
X3.57677Y1.28937
X3.62402Y1.19003
X3.62402Y0.96653
X3.66339Y0.87402
X3.19488Y1.18898
X3.14173Y1.30709
X2.88583Y1.25591
Y1.22441
X2.60413Y1.32461
X2.38779Y1.25787
Y1.22638
X2.33268Y1.18504
X2.24213Y1.07480
X2.22441Y1.00787
X2.37598
X2.30118Y0.89370
X2.14961Y0.92913
X2.18898Y0.73425
X2.45276
X2.07283Y0.93110
X1.92717Y0.93701
X1.99803Y1.09449
X2.05512Y1.15157
X1.37992Y0.93701
X1.40551Y0.82677
X0.99410Y0.81693
X0.94685
Y0.76968
Y0.72244
Y0.67520
X0.99410
Y0.72244
Y0.76968
X0.73032Y0.41732
X0.83071Y0.14173
X0.36417Y1.39567
X1.14606Y1.54705
Y1.59055
X1.73406Y1.35453
X2.05610Y1.39665
X2.10610Y1.64390
X1.70079Y2.59449
X1.63583Y2.63976
X1.48622Y2.63779
X1.42520
X1.37992
X2.59449Y2.15158
X2.63386Y1.87598
X2.60413Y1.59075
X2.50413Y1.54705
Y1.37776
X2.35630Y1.40945
Y1.50591
X2.25610Y1.35453
X2.21083Y1.64390
X2.85433Y1.50394
Y1.40748
X3.06102Y1.37776
X3.20079Y1.38189
X3.24803Y1.34449
X3.23425Y1.46850
X3.39567Y1.60827
X3.52756Y1.74213
X3.58268
X3.55512Y1.76969
X3.58268Y1.79724
X3.52756
X3.66339Y1.49803
X3.43701Y1.34449
X3.10039Y1.65748
X3.06102Y2.06890
X2.90945Y2.00984
Y1.93504
X3.29921Y2.62402
X3.37795
X3.45669
X3.53543
X3.61417
Y2.70276
Y2.78150
Y2.86024
X3.53543
X3.45669
X3.37795
X3.29921
Y2.78150
Y2.70276
X3.37795
X3.45669
X3.53543
Y2.78150
X3.45669
X3.37795
X4.00197Y2.80315
X4.14764Y2.56890
X4.18504Y2.39961
X4.01772Y2.42913
X4.40551Y2.39961
X4.46327Y2.37205
X4.36811Y2.56890
X4.75295Y2.51181
X4.80758Y2.39567
X4.96063Y2.29921
X4.91732Y2.20472
X5.18898
X5.18701Y2.12402
X5.06693Y2.06890
X5.02559Y2.51181
X5.11417Y2.55512
X4.57874Y2.16732
X4.27362Y2.00197
Y1.92323
X3.97835Y1.96850
X3.77165Y2.00591
X3.69882Y1.93307
X3.81299Y1.80512
X3.90551Y1.77559
X3.90945Y1.66142
X3.73622Y1.72638
X3.70276Y1.55512
X3.90748Y1.37008
X4.19291Y1.49803
X4.25984Y1.55512
X4.32087Y1.54134
X4.39370
X4.55512Y1.60827
X4.54134Y1.69095
X4.48622Y1.68307
X4.60433Y1.47638
X4.79331Y1.42323
Y1.35039
X4.44685Y1.34055
X5.06102Y1.52165
X5.10039Y1.60827
X5.36614Y1.72638
X5.43110Y1.69086
X5.49409Y1.64567
X5.63465Y1.47638
X5.64961Y2.08268
X5.74016Y2.12992
X6.00787Y2.12795
X6.11221Y2.24311
X6.10433Y2.42913
X6.00787Y2.46654
X5.74213Y2.46850
X5.65158Y2.50295
X5.57087Y2.53937
X5.43898Y2.46260
X5.39961Y2.06890
X5.29331Y2.16142
X5.26181
X7.78150Y2.39567
X6.55118Y3.29724
X6.52362
Y3.33005
X6.55118
Y3.36286
X6.52362
Y3.39567
X6.55118
X6.55315Y3.58661
X6.52559
Y3.61942
X6.55315
Y3.65223
X6.52559
Y3.68504
X6.55315
X6.14370
X6.11614
Y3.65223
X6.14370
Y3.61942
X6.11614
Y3.58661
X6.14370
X6.14173Y3.39567
X6.11417
Y3.36286
X6.14173
Y3.33005
X6.11417
Y3.29724
X6.14173
X6.10236Y4.12795
X3.88976Y3.05118
X3.61417Y2.93898
X3.53543
X3.45669
X3.37795
X3.29921
X2.45965Y3.96358
X1.63287Y4.01083
X1.71653Y3.70276
Y3.66732
X1.75328
Y3.70276
X1.79003
Y3.66732
X1.82677
Y3.70276
X1.05512Y3.70079
Y3.66535
X1.01837
Y3.70079
X0.98163
Y3.66535
X0.94488
Y3.70079
X1.42520Y4.66142
X1.71653Y4.73032
T02
X2.93504Y4.31339
Y4.36417
Y4.41496
X3.02953Y4.41653
Y4.36575
Y4.31496
X3.17520Y4.31299
Y4.35039
Y4.38779
Y4.42520
X3.27165Y4.42717
Y4.38976
Y4.35236
Y4.31496
Y4.46457
Y4.50197
Y4.53937
Y4.57677
X3.17520Y4.57480
Y4.53740
Y4.50000
Y4.46260
X3.02953Y4.46732
Y4.51811
Y4.56890
X2.93504Y4.56732
Y4.51653
Y4.46575
X2.81299Y4.49409
Y4.53740
Y4.58071
X2.76969
X2.72638
Y4.53740
Y4.49409
X2.76969
Y4.53740
T03
X4.45276Y2.86221
X4.88878
X5.32480
X5.76083
X6.19685
Y3.05906
X5.76083
X5.32480
X4.88878
X4.45276
T04
X3.43504Y4.74311
Y4.82185
Y4.90059
Y4.97933
Y5.05807
X3.51378
Y4.97933
Y4.90059
Y4.82185
Y4.74311
X3.59252
Y4.82185
Y4.90059
Y4.97933
Y5.05807
X3.67126
Y4.97933
Y4.90059
Y4.82185
Y4.74311
X3.75000
Y4.82185
Y4.90059
Y4.97933
Y5.05807
X5.63976
Y4.97933
Y4.90059
Y4.82185
Y4.74311
X5.71850
Y4.82185
Y4.90059
Y4.97933
Y5.05807
X5.79724
Y4.97933
Y4.90059
Y4.82185
Y4.74311
X5.87598
Y4.82185
Y4.90059
Y4.97933
Y5.05807
X5.95472
Y4.97933
Y4.90059
Y4.82185
Y4.74311
T05
X3.89961Y0.76181
Y0.93898
X4.15551
Y0.76181
X3.26279Y4.76279
Y4.82185
Y4.88091
Y4.93996
Y4.99902
Y5.05807
X3.15453
Y4.99902
Y4.93996
Y4.88091
Y4.82185
Y4.76279
X3.04626
Y4.82185
Y4.88091
Y4.93996
Y4.99902
Y5.05807
X2.93799
Y4.99902
Y4.93996
Y4.88091
Y4.82185
Y4.76279
X2.82972
Y4.82185
Y4.88091
Y4.93996
Y4.99902
Y5.05807
X2.72146
Y4.99902
Y4.93996
Y4.88091
Y4.82185
Y4.76279
X2.61319
Y4.82185
Y4.88091
Y4.93996
Y4.99902
Y5.05807
X2.50492
Y4.99902
Y4.93996
Y4.88091
Y4.82185
Y4.76279
X2.39665
Y4.82185
Y4.88091
Y4.93996
Y4.99902
Y5.05807
X2.28839
Y4.99902
Y4.93996
Y4.88091
Y4.82185
Y4.76279
X4.49311
Y4.82185
Y4.88091
Y4.93996
Y4.99902
Y5.05807
X4.60138
Y4.99902
Y4.93996
Y4.88091
Y4.82185
Y4.76279
X4.70965
Y4.82185
Y4.88091
Y4.93996
Y4.99902
Y5.05807
X4.81791
Y4.99902
Y4.93996
Y4.88091
Y4.82185
Y4.76279
X4.92618
Y4.82185
Y4.88091
Y4.93996
Y4.99902
Y5.05807
X5.03445
Y4.99902
Y4.93996
Y4.88091
Y4.82185
Y4.76279
X5.14272
Y4.82185
Y4.88091
Y4.93996
Y4.99902
Y5.05807
X5.25098
Y4.99902
Y4.93996
Y4.88091
Y4.82185
Y4.76279
X5.35925
Y4.82185
Y4.88091
Y4.93996
Y4.99902
Y5.05807
X5.46752
Y4.99902
Y4.93996
Y4.88091
Y4.82185
Y4.76279
T06
X5.53465Y0.27165
X5.63465
X5.73465
X5.83465
X6.03150Y0.26969
X6.13150
X6.23150
X6.33150
T07
X1.14606Y1.16929
X1.54606
Y2.53937
X1.14606
X2.36260
X2.76260
T09
X2.46654Y0.32283
X2.66653
X3.03504
X3.23504
X3.43504
X3.63504
T10
X5.40143Y3.44094
X5.53543
X5.74002Y3.44094
X5.87402
Y3.97094
X5.74002
X5.53543Y3.97094
X5.40143
X5.20472Y3.97244
X5.07072
X4.87416Y3.97094
X4.74016
X4.53937
X4.40537
X4.20880
X4.07480
X3.87402Y3.96850
X3.74002
Y3.43850
X3.87402
X4.07480Y3.44094
X4.20880
X4.40537
X4.53937
X4.74016
X4.87416
X5.07072Y3.44244
X5.20472
X3.53951Y3.43701
X3.40551
Y3.96701
X3.53951
T11
X0.99606Y1.66929
X1.69606Y1.76929
Y2.06929
X2.21260Y3.03937
X2.91260Y3.13937
Y3.43937
X1.69606
Y3.13937
X0.99606Y3.03937
M30
