G04*
G04 #@! TF.GenerationSoftware,Altium Limited,Altium Designer,21.2.2 (38)*
G04*
G04 Layer_Physical_Order=1*
G04 Layer_Color=255*
%FSLAX25Y25*%
%MOIN*%
G70*
G04*
G04 #@! TF.SameCoordinates,F28A5215-CE45-4803-9B4C-17DA2ED16A0E*
G04*
G04*
G04 #@! TF.FilePolarity,Positive*
G04*
G01*
G75*
%ADD11C,0.00984*%
%ADD18R,0.06693X0.04134*%
%ADD19R,0.05118X0.03740*%
%ADD20R,0.09449X0.07874*%
%ADD21R,0.03740X0.05118*%
%ADD22R,0.06299X0.15748*%
%ADD23R,0.08661X0.01968*%
%ADD24R,0.09449X0.12205*%
%ADD25R,0.06693X0.12402*%
%ADD26O,0.02362X0.05709*%
%ADD27R,0.02362X0.05709*%
%ADD28R,0.05315X0.03937*%
%ADD29R,0.03937X0.05315*%
%ADD30R,0.02756X0.03543*%
%ADD31C,0.01968*%
%ADD32R,0.02362X0.03543*%
%ADD33R,0.03937X0.02362*%
%ADD34O,0.05709X0.02362*%
%ADD35R,0.03543X0.02362*%
%ADD36R,0.04724X0.02165*%
%ADD37O,0.02362X0.05709*%
%ADD38R,0.07008X0.13795*%
%ADD39R,0.42992X0.35512*%
%ADD40R,0.05000X0.07500*%
%ADD41O,0.01181X0.05709*%
%ADD42O,0.05709X0.01181*%
%ADD43R,0.03543X0.02756*%
%ADD44R,0.35512X0.42992*%
%ADD45R,0.13795X0.07008*%
%ADD46R,0.04331X0.12992*%
%ADD93C,0.01378*%
%ADD94C,0.01181*%
%ADD95C,0.01968*%
%ADD96C,0.11811*%
%ADD97C,0.05906*%
%ADD98R,0.05906X0.05906*%
%ADD99O,0.11024X0.12992*%
%ADD100O,0.11811X0.09843*%
%ADD101C,0.07874*%
%ADD102C,0.12992*%
%ADD103C,0.06299*%
%ADD104R,0.06299X0.06299*%
%ADD105C,0.07284*%
%ADD106C,0.09843*%
%ADD107C,0.10433*%
%ADD108R,0.10433X0.10433*%
%ADD109O,0.10000X0.13000*%
%ADD110R,0.07087X0.06299*%
%ADD111C,0.05512*%
%ADD112C,0.03150*%
%ADD113C,0.03543*%
%ADD114C,0.02756*%
G36*
X825367Y1405D02*
X1405D01*
Y510406D01*
X195453D01*
X195605Y509908D01*
X195605Y509906D01*
X168046Y482348D01*
X167785Y481957D01*
X167693Y481496D01*
X167693Y481496D01*
Y444882D01*
X167785Y444421D01*
X168046Y444030D01*
X172236Y439840D01*
Y439409D01*
X172914D01*
X173228Y439347D01*
X173228Y439347D01*
X194882Y439347D01*
X194998Y439370D01*
X196063D01*
Y440435D01*
X196086Y440551D01*
X196086Y464462D01*
X207192Y475567D01*
X221155D01*
X224114Y472608D01*
Y471949D01*
X224790D01*
X225130Y471722D01*
X225590Y471630D01*
X225591Y471630D01*
X243307D01*
X243768Y471722D01*
X244107Y471949D01*
X244390D01*
Y472329D01*
X244420Y472374D01*
X244511Y472835D01*
Y509055D01*
X244420Y509516D01*
X244390Y509561D01*
X244390Y510138D01*
X244779Y510406D01*
X245379D01*
X245472Y510342D01*
X245605Y509907D01*
X245344Y509516D01*
X245252Y509055D01*
Y471562D01*
X242849Y469159D01*
X242588Y468768D01*
X242496Y468307D01*
X242496Y468307D01*
X242496Y444291D01*
X242588Y443830D01*
X242849Y443440D01*
X242849Y443440D01*
X245035Y441254D01*
Y440754D01*
X244660Y440380D01*
X244290Y439826D01*
X244160Y439173D01*
Y413779D01*
X242815D01*
Y406365D01*
X242815Y406299D01*
X242913Y405840D01*
X242913Y405799D01*
Y398425D01*
X243447D01*
X243693Y397925D01*
X243557Y397748D01*
X243280Y397078D01*
X243185Y396358D01*
X243280Y395639D01*
X243557Y394968D01*
X243999Y394393D01*
X244575Y393951D01*
X245245Y393673D01*
X245965Y393579D01*
X246684Y393673D01*
X247354Y393951D01*
X247930Y394393D01*
X248372Y394968D01*
X248650Y395639D01*
X248744Y396358D01*
X248650Y397078D01*
X248372Y397748D01*
X248236Y397925D01*
X248482Y398425D01*
X249016D01*
Y405840D01*
X249016Y405905D01*
X248917Y406365D01*
X248917Y406405D01*
Y413779D01*
X247572D01*
Y438467D01*
X248452Y439347D01*
X264048Y439347D01*
X266732Y436662D01*
Y431398D01*
X273031D01*
Y437407D01*
X273493Y437599D01*
X282810Y428282D01*
X283201Y428021D01*
X283661Y427930D01*
X283662Y427930D01*
X296422D01*
Y426785D01*
X296189Y426435D01*
X296021Y425591D01*
X296189Y424746D01*
X296422Y424396D01*
Y422848D01*
X296189Y422498D01*
X296021Y421654D01*
X296189Y420809D01*
X296422Y420459D01*
Y417481D01*
X243408Y364466D01*
X243016Y363880D01*
X242879Y363189D01*
Y184252D01*
X243016Y183561D01*
X243408Y182975D01*
X255416Y170967D01*
X256002Y170575D01*
X256693Y170438D01*
X289212D01*
X291698Y167953D01*
Y120236D01*
X276479Y105017D01*
X276087Y104431D01*
X275950Y103740D01*
Y50000D01*
X276087Y49309D01*
X276479Y48723D01*
X285927Y39274D01*
X286513Y38882D01*
X287205Y38745D01*
X302060D01*
X302134Y38245D01*
X301157Y37949D01*
X300097Y37382D01*
X299168Y36619D01*
X298406Y35690D01*
X297839Y34630D01*
X297490Y33480D01*
X297372Y32283D01*
X297490Y31087D01*
X297839Y29937D01*
X298406Y28877D01*
X299168Y27948D01*
X300097Y27185D01*
X301157Y26618D01*
X302308Y26269D01*
X303504Y26152D01*
X304700Y26269D01*
X305851Y26618D01*
X306911Y27185D01*
X307840Y27948D01*
X308602Y28877D01*
X309169Y29937D01*
X309518Y31087D01*
X309636Y32283D01*
X309518Y33480D01*
X309169Y34630D01*
X308602Y35690D01*
X307840Y36619D01*
X306911Y37382D01*
X305851Y37949D01*
X304874Y38245D01*
X304948Y38745D01*
X307126D01*
X311579Y34291D01*
Y28346D01*
X311717Y27655D01*
X312108Y27069D01*
X316045Y23132D01*
X316632Y22741D01*
X317323Y22603D01*
X335630D01*
X336321Y22741D01*
X336907Y23132D01*
X340659Y26884D01*
X341157Y26618D01*
X342308Y26269D01*
X343504Y26152D01*
X344700Y26269D01*
X345850Y26618D01*
X346911Y27185D01*
X347840Y27948D01*
X348602Y28877D01*
X349169Y29937D01*
X349518Y31087D01*
X349636Y32283D01*
X349518Y33480D01*
X349169Y34630D01*
X348602Y35690D01*
X347840Y36619D01*
X346911Y37382D01*
X345850Y37949D01*
X344700Y38298D01*
X343504Y38415D01*
X342308Y38298D01*
X341157Y37949D01*
X340097Y37382D01*
X339168Y36619D01*
X338405Y35690D01*
X337839Y34630D01*
X337490Y33480D01*
X337372Y32283D01*
X337490Y31087D01*
X337839Y29937D01*
X338105Y29439D01*
X334882Y26216D01*
X326158D01*
X326033Y26716D01*
X326911Y27185D01*
X327840Y27948D01*
X328602Y28877D01*
X329169Y29937D01*
X329518Y31087D01*
X329636Y32283D01*
X329518Y33480D01*
X329169Y34630D01*
X328602Y35690D01*
X327840Y36619D01*
X326911Y37382D01*
X325851Y37949D01*
X324700Y38298D01*
X323504Y38415D01*
X322308Y38298D01*
X321157Y37949D01*
X320659Y37683D01*
X312773Y45569D01*
X312187Y45960D01*
X311496Y46098D01*
X289331D01*
X283106Y52323D01*
Y61211D01*
X283594Y61486D01*
X283606Y61484D01*
X284055Y61394D01*
X293701D01*
X293817Y61417D01*
X294882D01*
Y62482D01*
X294905Y62598D01*
Y74410D01*
X294813Y74870D01*
X294552Y75261D01*
X292323Y77491D01*
Y77756D01*
X291991D01*
X291799Y77884D01*
X291339Y77976D01*
X291338Y77976D01*
X284055Y77976D01*
X283606Y77886D01*
X283594Y77884D01*
X283127Y78132D01*
X283106Y78189D01*
Y100827D01*
X298915Y116636D01*
X299307Y117222D01*
X299444Y117913D01*
Y174606D01*
X299307Y175298D01*
X298915Y175884D01*
X294584Y180214D01*
X293998Y180606D01*
X293307Y180743D01*
X257638D01*
X251806Y186575D01*
Y197244D01*
X258661D01*
Y198589D01*
X266124D01*
X266660Y198053D01*
Y196974D01*
X266141Y196197D01*
X266121Y196097D01*
X265611D01*
X265591Y196197D01*
X265069Y196979D01*
X264288Y197501D01*
X263366Y197684D01*
X262444Y197501D01*
X261663Y196979D01*
X261141Y196197D01*
X260958Y195276D01*
Y191929D01*
X261141Y191007D01*
X261660Y190231D01*
Y189748D01*
X261420Y189564D01*
X260979Y188988D01*
X260701Y188318D01*
X260606Y187598D01*
X260701Y186879D01*
X260979Y186209D01*
X261420Y185633D01*
X261996Y185191D01*
X262666Y184914D01*
X263386Y184819D01*
X264105Y184914D01*
X264776Y185191D01*
X265351Y185633D01*
X265793Y186209D01*
X266071Y186879D01*
X266165Y187598D01*
X266071Y188318D01*
X265793Y188988D01*
X265351Y189564D01*
X265072Y189778D01*
Y190231D01*
X265591Y191007D01*
X265611Y191108D01*
X266121D01*
X266141Y191007D01*
X266663Y190226D01*
X267444Y189704D01*
X268366Y189521D01*
X269288Y189704D01*
X270069Y190226D01*
X270591Y191007D01*
X270611Y191108D01*
X271121D01*
X271141Y191007D01*
X271663Y190226D01*
X272445Y189704D01*
X273366Y189521D01*
X274288Y189704D01*
X275069Y190226D01*
X275591Y191007D01*
X275611Y191108D01*
X276121D01*
X276141Y191007D01*
X276663Y190226D01*
X277445Y189704D01*
X278366Y189521D01*
X279288Y189704D01*
X280069Y190226D01*
X280591Y191007D01*
X280659Y191345D01*
X282283D01*
Y190650D01*
X289764D01*
Y190650D01*
X290199Y190807D01*
X290264Y190814D01*
X290945Y190724D01*
X291664Y190819D01*
X292335Y191097D01*
X292910Y191538D01*
X293352Y192114D01*
X293630Y192785D01*
X293725Y193504D01*
X293630Y194223D01*
X293352Y194894D01*
X292910Y195469D01*
X292335Y195911D01*
X291664Y196189D01*
X290945Y196284D01*
X290264Y196194D01*
X290119Y196210D01*
X289764Y196448D01*
Y196752D01*
X282283D01*
Y195761D01*
X280678D01*
X280591Y196197D01*
X280069Y196979D01*
X279288Y197501D01*
X278366Y197684D01*
X277445Y197501D01*
X276663Y196979D01*
X276141Y196197D01*
X276121Y196097D01*
X275611D01*
X275591Y196197D01*
X275069Y196979D01*
X274288Y197501D01*
X273366Y197684D01*
X272445Y197501D01*
X271663Y196979D01*
X271141Y196197D01*
X271121Y196097D01*
X270611D01*
X270591Y196197D01*
X270072Y196974D01*
Y198760D01*
X269942Y199413D01*
X269572Y199966D01*
X268037Y201502D01*
X267484Y201871D01*
X266831Y202001D01*
X258661D01*
Y203346D01*
X251806D01*
Y204528D01*
X258661D01*
Y205774D01*
X270472D01*
X271125Y205904D01*
X271679Y206274D01*
X273366Y207961D01*
X274857Y206471D01*
X275410Y206101D01*
X276063Y205971D01*
X295079D01*
X295732Y206101D01*
X296285Y206471D01*
X298647Y208833D01*
X299017Y209386D01*
X299147Y210039D01*
Y212402D01*
X301181D01*
Y218504D01*
X293701D01*
Y212402D01*
X295735D01*
Y210746D01*
X294372Y209383D01*
X276770D01*
X275072Y211081D01*
Y211687D01*
X275591Y212464D01*
X275611Y212564D01*
X276121D01*
X276141Y212464D01*
X276663Y211683D01*
X277445Y211161D01*
X278366Y210977D01*
X279288Y211161D01*
X280069Y211683D01*
X280591Y212464D01*
X280775Y213386D01*
Y216732D01*
X280591Y217654D01*
X280072Y218431D01*
Y218604D01*
X282400Y220932D01*
X293701D01*
Y219685D01*
X301181D01*
Y220932D01*
X323031D01*
Y218898D01*
X329134D01*
Y226378D01*
X323031D01*
Y224344D01*
X301181D01*
Y225787D01*
X293701D01*
Y224344D01*
X281693D01*
X281040Y224214D01*
X280487Y223844D01*
X277160Y220517D01*
X276790Y219964D01*
X276660Y219311D01*
Y218431D01*
X276141Y217654D01*
X276121Y217554D01*
X275611D01*
X275591Y217654D01*
X275069Y218435D01*
X274288Y218957D01*
X273366Y219141D01*
X272445Y218957D01*
X271663Y218435D01*
X271141Y217654D01*
X271121Y217554D01*
X270611D01*
X270591Y217654D01*
X270072Y218431D01*
Y229077D01*
X289092Y248097D01*
X384449D01*
X385102Y248227D01*
X385655Y248597D01*
X390183Y253124D01*
X390552Y253678D01*
X390682Y254331D01*
Y276575D01*
X391929D01*
Y284055D01*
X390682D01*
Y288386D01*
X392717D01*
Y289633D01*
X393898D01*
Y288386D01*
X401378D01*
Y294488D01*
X393898D01*
Y293045D01*
X392717D01*
Y294488D01*
X385236D01*
Y288386D01*
X387270D01*
Y284055D01*
X385827D01*
Y276575D01*
X387270D01*
Y255037D01*
X383742Y251509D01*
X288386D01*
X287733Y251379D01*
X287179Y251009D01*
X267160Y230990D01*
X266790Y230436D01*
X266660Y229784D01*
Y218431D01*
X266141Y217654D01*
X265958Y216732D01*
Y213386D01*
X266141Y212464D01*
X266663Y211683D01*
X267444Y211161D01*
X268366Y210977D01*
X269288Y211161D01*
X270069Y211683D01*
X270591Y212464D01*
X270611Y212564D01*
X271121D01*
X271141Y212464D01*
X271660Y211687D01*
Y211081D01*
X269766Y209186D01*
X258661D01*
Y210630D01*
X251806D01*
Y351598D01*
X321171Y420963D01*
X321317Y420992D01*
X322034Y421470D01*
X322512Y422187D01*
X322680Y423032D01*
X322512Y423876D01*
X322034Y424593D01*
X321317Y425071D01*
X320472Y425239D01*
X319628Y425071D01*
X318911Y424593D01*
X318433Y423876D01*
X318298Y423198D01*
X248723Y353623D01*
X248331Y353037D01*
X248194Y352346D01*
Y185827D01*
X248331Y185135D01*
X248723Y184549D01*
X255612Y177660D01*
X256199Y177268D01*
X256890Y177131D01*
X292559D01*
X295831Y173858D01*
Y118662D01*
X295386Y118217D01*
X294998Y118535D01*
X295173Y118797D01*
X295310Y119488D01*
Y168701D01*
X295173Y169392D01*
X294781Y169978D01*
X291238Y173521D01*
X290652Y173913D01*
X289961Y174050D01*
X257441D01*
X246491Y185000D01*
Y362441D01*
X299506Y415455D01*
X299897Y416041D01*
X300035Y416732D01*
Y420459D01*
X300268Y420809D01*
X300436Y421654D01*
X300268Y422498D01*
X300035Y422848D01*
Y424396D01*
X300268Y424746D01*
X300436Y425591D01*
X300268Y426435D01*
X300035Y426785D01*
Y427930D01*
X308268D01*
X308729Y428021D01*
X309119Y428282D01*
X309380Y428673D01*
X309472Y429134D01*
Y472130D01*
X309380Y472591D01*
X309350Y472636D01*
Y477854D01*
Y483760D01*
Y489665D01*
Y495571D01*
Y501476D01*
Y509906D01*
X309350Y510138D01*
X309739Y510406D01*
X310787D01*
X310910Y509957D01*
X310910Y509906D01*
Y506307D01*
X319996D01*
Y509906D01*
X319996Y509957D01*
X320118Y510406D01*
X321614D01*
X321736Y509957D01*
X321736Y509906D01*
Y506307D01*
X330823D01*
Y509906D01*
X330823Y509957D01*
X330945Y510406D01*
X334899D01*
X335091Y509944D01*
X332652Y507506D01*
X332282Y506952D01*
X332152Y506299D01*
Y430628D01*
X313558Y412033D01*
X313188Y411480D01*
X313058Y410827D01*
Y331102D01*
X313188Y330450D01*
X313558Y329896D01*
X328518Y314935D01*
X329071Y314566D01*
X329724Y314436D01*
X389254D01*
X401446Y302243D01*
X401211Y301772D01*
X400947Y301772D01*
X393898D01*
Y300527D01*
X392717D01*
Y301772D01*
X390783D01*
Y303030D01*
X390942Y303153D01*
X391384Y303728D01*
X391661Y304399D01*
X391756Y305118D01*
X391661Y305837D01*
X391384Y306508D01*
X390942Y307084D01*
X390366Y307525D01*
X389696Y307803D01*
X388976Y307898D01*
X388257Y307803D01*
X387586Y307525D01*
X387011Y307084D01*
X386569Y306508D01*
X386291Y305837D01*
X386197Y305118D01*
X386291Y304399D01*
X386569Y303728D01*
X387011Y303153D01*
X387170Y303030D01*
Y301772D01*
X385236D01*
Y295669D01*
X392717D01*
Y296914D01*
X393898D01*
Y295669D01*
X401378D01*
Y301305D01*
X401378Y301605D01*
X401850Y301840D01*
X402822Y300868D01*
Y275904D01*
X400565Y273647D01*
X400196Y273094D01*
X400066Y272441D01*
Y245078D01*
X399806Y244879D01*
X399364Y244303D01*
X399087Y243633D01*
X398992Y242913D01*
X399087Y242194D01*
X399364Y241524D01*
X399806Y240948D01*
X400382Y240506D01*
X401052Y240228D01*
X401772Y240134D01*
X402491Y240228D01*
X403161Y240506D01*
X403737Y240948D01*
X404179Y241524D01*
X404457Y242194D01*
X404551Y242913D01*
X404457Y243633D01*
X404179Y244303D01*
X403737Y244879D01*
X403478Y245078D01*
Y271734D01*
X405734Y273991D01*
X406104Y274544D01*
X406234Y275197D01*
Y301473D01*
X406477Y301635D01*
X406719Y301695D01*
X409318Y299096D01*
Y272342D01*
X407283D01*
Y266240D01*
X414764D01*
Y272342D01*
X412730D01*
Y299803D01*
X412608Y300414D01*
X412631Y300443D01*
X413172Y300557D01*
X418176Y295553D01*
Y272244D01*
X416142D01*
Y266142D01*
X423622D01*
Y266676D01*
X424122Y266725D01*
X424211Y266276D01*
X424581Y265723D01*
X430487Y259817D01*
X431040Y259448D01*
X431693Y259318D01*
X440632D01*
X444554Y255396D01*
Y239318D01*
X444361Y239170D01*
X443920Y238595D01*
X443683Y238024D01*
X443641Y237923D01*
X443315Y237598D01*
X442821Y237598D01*
X442706Y237748D01*
X442596Y238098D01*
X442958Y238571D01*
X443236Y239241D01*
X443331Y239961D01*
X443236Y240680D01*
X442958Y241351D01*
X442913Y241409D01*
Y247047D01*
X438189D01*
Y241409D01*
X438144Y241351D01*
X437866Y240680D01*
X437772Y239961D01*
X437866Y239241D01*
X438144Y238571D01*
X438506Y238098D01*
X438396Y237748D01*
X438281Y237598D01*
X437402D01*
Y230118D01*
X443504D01*
Y235577D01*
X443518Y235585D01*
X444004Y235705D01*
X444361Y235239D01*
X444937Y234797D01*
X445608Y234520D01*
X446327Y234425D01*
X447047Y234520D01*
X447717Y234797D01*
X448293Y235239D01*
X448734Y235815D01*
X449012Y236485D01*
X449107Y237205D01*
X449012Y237924D01*
X448734Y238595D01*
X448293Y239170D01*
X447966Y239421D01*
Y256102D01*
X447836Y256755D01*
X447466Y257309D01*
X442545Y262230D01*
X441991Y262600D01*
X441339Y262730D01*
X432400D01*
X427493Y267636D01*
Y295472D01*
X427363Y296125D01*
X426994Y296679D01*
X415577Y308096D01*
X415576Y308096D01*
X396482Y327191D01*
X395929Y327560D01*
X395276Y327690D01*
X337124D01*
X329462Y335352D01*
Y408545D01*
X387624Y466707D01*
X387994Y467261D01*
X388123Y467913D01*
Y506890D01*
X387994Y507543D01*
X387624Y508096D01*
X385776Y509944D01*
X385967Y510406D01*
X444198D01*
X444587Y510138D01*
X444587Y509906D01*
Y501476D01*
Y494715D01*
X438871Y489000D01*
X414370Y489000D01*
X413909Y488908D01*
X413518Y488647D01*
X403479Y478607D01*
X403218Y478217D01*
X403126Y477756D01*
X403126Y477756D01*
X403126Y467625D01*
X400306Y464805D01*
X399935Y465141D01*
X399980Y465196D01*
X400547Y466256D01*
X400896Y467406D01*
X401014Y468602D01*
X400896Y469799D01*
X400547Y470949D01*
X399980Y472009D01*
X399218Y472938D01*
X398289Y473701D01*
X397229Y474267D01*
X396078Y474616D01*
X394882Y474734D01*
X393686Y474616D01*
X392535Y474267D01*
X391475Y473701D01*
X390546Y472938D01*
X389783Y472009D01*
X389217Y470949D01*
X388868Y469799D01*
X388750Y468602D01*
X388868Y467406D01*
X389217Y466256D01*
X389783Y465196D01*
X390546Y464266D01*
X391475Y463504D01*
X392535Y462937D01*
X393686Y462588D01*
X394882Y462470D01*
X396078Y462588D01*
X397229Y462937D01*
X398289Y463504D01*
X398343Y463549D01*
X398680Y463178D01*
X396352Y460850D01*
X390551D01*
X390551Y460850D01*
X390090Y460758D01*
X389700Y460497D01*
X334778Y405576D01*
X334517Y405185D01*
X334426Y404724D01*
X334426Y404724D01*
Y399069D01*
X334340Y398201D01*
Y395201D01*
X334459Y393989D01*
X334813Y392824D01*
X335387Y391750D01*
X336159Y390809D01*
X337101Y390037D01*
X338174Y389463D01*
X339339Y389109D01*
X340551Y388990D01*
X340620Y388997D01*
X353882D01*
X353951Y388990D01*
X355163Y389109D01*
X356328Y389463D01*
X357402Y390037D01*
X358343Y390809D01*
X359116Y391750D01*
X359689Y392824D01*
X360043Y393989D01*
X360162Y395201D01*
Y397632D01*
X367412Y404882D01*
X367722Y404780D01*
X367890Y404653D01*
Y399363D01*
X367791Y398350D01*
Y395350D01*
X367910Y394139D01*
X368263Y392973D01*
X368837Y391900D01*
X369610Y390958D01*
X370551Y390186D01*
X371625Y389612D01*
X372790Y389259D01*
X374002Y389139D01*
X374070Y389146D01*
X387333D01*
X387402Y389139D01*
X388613Y389259D01*
X389778Y389612D01*
X390852Y390186D01*
X391793Y390958D01*
X392566Y391900D01*
X393140Y392973D01*
X393493Y394139D01*
X393613Y395350D01*
Y396240D01*
X400893Y403520D01*
X401355Y403329D01*
X401355Y399463D01*
X401269Y398594D01*
Y395595D01*
X401389Y394383D01*
X401742Y393218D01*
X402316Y392144D01*
X403089Y391203D01*
X404030Y390430D01*
X405103Y389856D01*
X406269Y389503D01*
X407480Y389384D01*
X407549Y389390D01*
X420812D01*
X420880Y389384D01*
X422092Y389503D01*
X423257Y389856D01*
X424331Y390430D01*
X425272Y391203D01*
X426045Y392144D01*
X426618Y393218D01*
X426972Y394383D01*
X427091Y395595D01*
Y398594D01*
X426992Y399607D01*
X426992Y402651D01*
X433996Y409655D01*
X434457Y409409D01*
X434426Y409252D01*
X434426Y409252D01*
Y399607D01*
X434326Y398594D01*
Y395595D01*
X434445Y394383D01*
X434799Y393218D01*
X435373Y392144D01*
X436145Y391203D01*
X437086Y390430D01*
X438160Y389856D01*
X439325Y389503D01*
X440537Y389384D01*
X440606Y389390D01*
X453868D01*
X453937Y389384D01*
X455149Y389503D01*
X456314Y389856D01*
X457388Y390430D01*
X458329Y391203D01*
X459101Y392144D01*
X459675Y393218D01*
X460029Y394383D01*
X460148Y395595D01*
Y398594D01*
X460063Y399463D01*
Y404619D01*
X486088Y430645D01*
X486349Y431035D01*
X486441Y431496D01*
X486441Y431496D01*
X486441Y471949D01*
X486516D01*
Y477854D01*
Y483760D01*
Y489665D01*
Y495571D01*
Y501476D01*
Y509906D01*
X486516Y510138D01*
X486905Y510406D01*
X487505D01*
X487894Y510138D01*
X487894Y509906D01*
Y509561D01*
X487864Y509516D01*
X487772Y509055D01*
X487772Y431208D01*
X468243Y411678D01*
X467982Y411288D01*
X467890Y410827D01*
X467890Y410827D01*
Y399463D01*
X467805Y398594D01*
Y395595D01*
X467924Y394383D01*
X468278Y393218D01*
X468852Y392144D01*
X469624Y391203D01*
X470565Y390430D01*
X471639Y389856D01*
X472804Y389503D01*
X474016Y389384D01*
X474085Y389390D01*
X487347D01*
X487416Y389384D01*
X488627Y389503D01*
X489793Y389856D01*
X490866Y390430D01*
X491808Y391203D01*
X492580Y392144D01*
X493154Y393218D01*
X493507Y394383D01*
X493627Y395595D01*
Y398594D01*
X493527Y399607D01*
Y401273D01*
X507938Y415684D01*
X508199Y416075D01*
X508291Y416535D01*
X508291Y416536D01*
X508291Y509055D01*
X508199Y509516D01*
X508169Y509561D01*
X508169Y510138D01*
X508558Y510406D01*
X509158D01*
X509547Y510138D01*
X509547Y509906D01*
Y501476D01*
Y495571D01*
Y489665D01*
Y483760D01*
Y477854D01*
Y471949D01*
X509622D01*
Y415656D01*
X501314Y407348D01*
X501053Y406957D01*
X500961Y406496D01*
X500961Y406496D01*
X500961Y399756D01*
X500861Y398744D01*
Y395744D01*
X500981Y394532D01*
X501334Y393367D01*
X501908Y392293D01*
X502681Y391352D01*
X503622Y390580D01*
X504696Y390006D01*
X505861Y389652D01*
X507072Y389533D01*
X507141Y389540D01*
X520404D01*
X520472Y389533D01*
X521684Y389652D01*
X522849Y390006D01*
X523923Y390580D01*
X524864Y391352D01*
X525637Y392293D01*
X526211Y393367D01*
X526564Y394532D01*
X526683Y395744D01*
Y398744D01*
X526598Y399612D01*
Y404816D01*
X529592Y407810D01*
X529853Y408201D01*
X529944Y408661D01*
X529944Y408662D01*
X529944Y508858D01*
X529853Y509319D01*
X529823Y509364D01*
X529823Y510138D01*
X530212Y510406D01*
X530812D01*
X531201Y510138D01*
X531201Y509906D01*
Y509561D01*
X531171Y509516D01*
X531079Y509055D01*
X531079Y408465D01*
Y408071D01*
X531079Y408071D01*
X531171Y407610D01*
X531432Y407219D01*
X534032Y404619D01*
X534032Y399606D01*
X533932Y398594D01*
Y395595D01*
X534052Y394383D01*
X534405Y393218D01*
X534979Y392144D01*
X535751Y391203D01*
X536693Y390430D01*
X537767Y389856D01*
X538932Y389503D01*
X540143Y389384D01*
X540212Y389390D01*
X553475D01*
X553543Y389384D01*
X554755Y389503D01*
X555920Y389856D01*
X556994Y390430D01*
X557935Y391203D01*
X558708Y392144D01*
X559281Y393218D01*
X559635Y394383D01*
X559754Y395595D01*
Y398594D01*
X559669Y399463D01*
X559669Y404816D01*
X562072Y407219D01*
X562072Y407219D01*
X562333Y407610D01*
X562425Y408071D01*
X562425Y408071D01*
X562425Y454134D01*
X562333Y454595D01*
X562072Y454985D01*
X562072Y454985D01*
X551598Y465459D01*
Y509055D01*
X551506Y509516D01*
X551476Y509561D01*
X551476Y510138D01*
X551865Y510406D01*
X589131D01*
X589323Y509944D01*
X588906Y509527D01*
X588626Y509643D01*
X587598Y509778D01*
X586571Y509643D01*
X585613Y509246D01*
X584791Y508615D01*
X584160Y507793D01*
X583834Y507007D01*
X583301Y506987D01*
X583005Y507701D01*
X582403Y508486D01*
X581619Y509088D01*
X580705Y509466D01*
X580224Y509530D01*
Y505807D01*
X579224D01*
Y509530D01*
X578744Y509466D01*
X577830Y509088D01*
X577046Y508486D01*
X576444Y507701D01*
X576065Y506788D01*
X576040Y506593D01*
X575535D01*
X575510Y506788D01*
X575131Y507701D01*
X574529Y508486D01*
X573745Y509088D01*
X572831Y509466D01*
X572350Y509530D01*
Y505807D01*
X571350D01*
Y509530D01*
X570870Y509466D01*
X569956Y509088D01*
X569172Y508486D01*
X568570Y507701D01*
X568191Y506788D01*
X568165Y506593D01*
X567661D01*
X567636Y506788D01*
X567257Y507701D01*
X566655Y508486D01*
X565871Y509088D01*
X564957Y509466D01*
X564476Y509530D01*
Y505807D01*
X563976D01*
Y505307D01*
X560254D01*
X560317Y504827D01*
X560696Y503913D01*
X561298Y503128D01*
X562082Y502526D01*
X562996Y502148D01*
X563191Y502122D01*
Y501618D01*
X562996Y501592D01*
X562082Y501214D01*
X561298Y500612D01*
X560696Y499827D01*
X560317Y498914D01*
X560254Y498433D01*
X563976D01*
Y497433D01*
X560254D01*
X560317Y496953D01*
X560696Y496039D01*
X561298Y495254D01*
X562082Y494652D01*
X562996Y494274D01*
X563191Y494248D01*
Y493744D01*
X562996Y493718D01*
X562082Y493340D01*
X561298Y492738D01*
X560696Y491953D01*
X560317Y491040D01*
X560254Y490559D01*
X563976D01*
Y489559D01*
X560254D01*
X560317Y489079D01*
X560696Y488165D01*
X561298Y487380D01*
X562082Y486778D01*
X562796Y486483D01*
X562777Y485950D01*
X561991Y485624D01*
X561168Y484993D01*
X560537Y484170D01*
X560141Y483213D01*
X560005Y482185D01*
X560141Y481157D01*
X560537Y480200D01*
X561168Y479377D01*
X561394Y479204D01*
Y477292D01*
X561168Y477119D01*
X560537Y476297D01*
X560141Y475339D01*
X560005Y474311D01*
X560141Y473283D01*
X560537Y472326D01*
X561168Y471503D01*
X561991Y470872D01*
X562949Y470475D01*
X563976Y470340D01*
X565004Y470475D01*
X565962Y470872D01*
X566784Y471503D01*
X567184Y472024D01*
X568643D01*
X569042Y471503D01*
X569865Y470872D01*
X570823Y470475D01*
X571850Y470340D01*
X572228Y470390D01*
X572604Y470060D01*
Y450197D01*
X572740Y448808D01*
X573146Y447472D01*
X573804Y446241D01*
X574689Y445162D01*
X596539Y423311D01*
X596540Y423311D01*
X597619Y422426D01*
X598850Y421768D01*
X600186Y421362D01*
X601575Y421226D01*
X717326D01*
X756068Y382484D01*
Y98225D01*
X739688Y81845D01*
X719685D01*
X718296Y81709D01*
X716960Y81303D01*
X715729Y80645D01*
X714650Y79760D01*
X713764Y78681D01*
X713106Y77450D01*
X712701Y76114D01*
X712564Y74724D01*
X712701Y73335D01*
X713106Y71999D01*
X713764Y70768D01*
X714650Y69689D01*
X715729Y68804D01*
X716960Y68146D01*
X718296Y67740D01*
X719685Y67603D01*
X742638D01*
X744027Y67740D01*
X745363Y68146D01*
X746594Y68804D01*
X747673Y69689D01*
X768224Y90240D01*
X768224Y90240D01*
X769110Y91319D01*
X769768Y92550D01*
X770173Y93886D01*
X770310Y95276D01*
X770310Y95276D01*
Y385433D01*
X770310Y385433D01*
X770173Y386822D01*
X769768Y388158D01*
X769110Y389389D01*
X768224Y390468D01*
X725311Y433382D01*
X724232Y434267D01*
X723001Y434925D01*
X721665Y435330D01*
X720276Y435467D01*
X604524D01*
X586845Y453146D01*
Y470060D01*
X587221Y470390D01*
X587598Y470340D01*
X588626Y470475D01*
X589584Y470872D01*
X590406Y471503D01*
X590806Y472024D01*
X592265D01*
X592665Y471503D01*
X593487Y470872D01*
X594445Y470475D01*
X595472Y470340D01*
X596500Y470475D01*
X597458Y470872D01*
X598280Y471503D01*
X598911Y472326D01*
X599308Y473283D01*
X599443Y474311D01*
X599308Y475339D01*
X598911Y476297D01*
X598280Y477119D01*
X598055Y477292D01*
Y479204D01*
X598280Y479377D01*
X598911Y480200D01*
X599308Y481157D01*
X599443Y482185D01*
X599308Y483213D01*
X598911Y484170D01*
X598280Y484993D01*
X597458Y485624D01*
X596672Y485950D01*
X596653Y486483D01*
X597367Y486778D01*
X598151Y487380D01*
X598753Y488165D01*
X599132Y489079D01*
X599195Y489559D01*
X595472D01*
Y490559D01*
X599195D01*
X599132Y491040D01*
X598753Y491953D01*
X598151Y492738D01*
X597367Y493340D01*
X596453Y493718D01*
X596258Y493744D01*
Y494248D01*
X596453Y494274D01*
X597367Y494652D01*
X598151Y495254D01*
X598753Y496039D01*
X599132Y496953D01*
X599195Y497433D01*
X595472D01*
Y498433D01*
X599195D01*
X599132Y498914D01*
X598753Y499827D01*
X598151Y500612D01*
X597367Y501214D01*
X596653Y501510D01*
X596672Y502043D01*
X597458Y502368D01*
X598280Y502999D01*
X598911Y503822D01*
X599308Y504779D01*
X599443Y505807D01*
X599308Y506835D01*
X598976Y507636D01*
X599221Y508137D01*
X603230D01*
X668872Y442494D01*
X669426Y442125D01*
X670079Y441995D01*
X725868D01*
X776444Y391419D01*
X776444Y241732D01*
X776184Y241532D01*
X775742Y240957D01*
X775465Y240286D01*
X775370Y239567D01*
X775465Y238847D01*
X775742Y238177D01*
X776184Y237601D01*
X776760Y237160D01*
X777430Y236882D01*
X778150Y236787D01*
X778869Y236882D01*
X779539Y237160D01*
X780115Y237601D01*
X780557Y238177D01*
X780835Y238847D01*
X780929Y239567D01*
X780835Y240286D01*
X780557Y240957D01*
X780115Y241532D01*
X779856Y241732D01*
X779856Y392126D01*
X779726Y392779D01*
X779356Y393332D01*
X727781Y444907D01*
X727228Y445277D01*
X726575Y445407D01*
X670785D01*
X606248Y509944D01*
X606439Y510406D01*
X825367D01*
Y1405D01*
D02*
G37*
G36*
X368850Y509944D02*
X368433Y509527D01*
X368154Y509643D01*
X367126Y509778D01*
X366098Y509643D01*
X365141Y509246D01*
X364318Y508615D01*
X363687Y507793D01*
X363362Y507007D01*
X362828Y506987D01*
X362533Y507701D01*
X361931Y508486D01*
X361146Y509088D01*
X360232Y509466D01*
X359752Y509530D01*
Y505807D01*
X358752D01*
Y509530D01*
X358272Y509466D01*
X357358Y509088D01*
X356573Y508486D01*
X355971Y507701D01*
X355676Y506987D01*
X355142Y507007D01*
X354817Y507793D01*
X354186Y508615D01*
X353363Y509246D01*
X352406Y509643D01*
X351378Y509778D01*
X350350Y509643D01*
X350071Y509527D01*
X349654Y509944D01*
X349845Y510406D01*
X368659D01*
X368850Y509944D01*
D02*
G37*
G36*
X300083Y506307D02*
X304626D01*
Y505307D01*
X300083D01*
Y501657D01*
Y500402D01*
X304626D01*
Y499402D01*
X300083D01*
Y495752D01*
Y494496D01*
X304626D01*
Y493496D01*
X300083D01*
Y489847D01*
Y488590D01*
X304626D01*
Y487591D01*
X300083D01*
Y483941D01*
Y482685D01*
X304626D01*
Y481685D01*
X300083D01*
Y478035D01*
Y476780D01*
X304626D01*
Y476279D01*
X305126D01*
Y472130D01*
X308268D01*
Y429134D01*
X283661D01*
X283661Y429134D01*
X269315Y443481D01*
Y468504D01*
X269315Y468504D01*
X269223Y468965D01*
X268962Y469355D01*
X268504Y469813D01*
Y472130D01*
X271646D01*
Y476279D01*
X272146D01*
Y476780D01*
X276689D01*
Y478035D01*
Y481685D01*
X272146D01*
Y482685D01*
X276689D01*
Y483941D01*
Y487591D01*
X272146D01*
Y488590D01*
X276689D01*
Y489847D01*
Y493496D01*
X272146D01*
Y494496D01*
X276689D01*
Y495752D01*
Y499402D01*
X272146D01*
Y500402D01*
X276689D01*
Y501657D01*
Y505307D01*
X272146D01*
Y506307D01*
X276689D01*
Y509055D01*
X278429D01*
Y506307D01*
X287516D01*
Y509055D01*
X289256D01*
Y506307D01*
X298342D01*
Y509055D01*
X300083D01*
Y506307D01*
D02*
G37*
G36*
X452756Y508858D02*
Y473228D01*
X442323Y473228D01*
X439567Y475984D01*
X427559Y475984D01*
X422638Y471063D01*
Y461811D01*
X358858Y398031D01*
Y396260D01*
X353951D01*
Y390201D01*
X340551D01*
Y390301D01*
Y396260D01*
X335630D01*
Y404724D01*
X390551Y459646D01*
X396850D01*
X404331Y467126D01*
X404331Y477756D01*
X414370Y487795D01*
X439370Y487795D01*
X445866Y494291D01*
X445866Y509055D01*
X452953D01*
X452756Y508858D01*
D02*
G37*
G36*
X596850Y473228D02*
X562598D01*
Y483268D01*
X596850D01*
Y473228D01*
D02*
G37*
G36*
X243307Y509055D02*
Y472835D01*
X225590D01*
X221654Y476772D01*
X206693D01*
X194882Y464961D01*
X194882Y440551D01*
X173228Y440551D01*
X168898Y444882D01*
Y481496D01*
X196457Y509055D01*
X243307Y509055D01*
D02*
G37*
G36*
X455413Y510138D02*
X455413Y509906D01*
Y509561D01*
X455383Y509516D01*
X455292Y509055D01*
Y473530D01*
X454497Y472736D01*
X454035Y472927D01*
Y477854D01*
Y483760D01*
Y489665D01*
Y495571D01*
Y501476D01*
Y508549D01*
X454065Y508594D01*
X454157Y509055D01*
X454065Y509516D01*
X454035Y509561D01*
X454035Y510138D01*
X454424Y510406D01*
X455024D01*
X455413Y510138D01*
D02*
G37*
G36*
X267421D02*
X267421Y509906D01*
Y501476D01*
Y495571D01*
Y489665D01*
Y483760D01*
Y477854D01*
Y472636D01*
X267391Y472591D01*
X267300Y472130D01*
Y471880D01*
X266805Y471659D01*
X266559Y471854D01*
Y509055D01*
X266467Y509516D01*
X266206Y509907D01*
X266339Y510342D01*
X266432Y510406D01*
X267032D01*
X267421Y510138D01*
D02*
G37*
G36*
X381365Y502443D02*
Y470392D01*
X339003Y428030D01*
X338760Y428090D01*
X338517Y428251D01*
Y503427D01*
X339191Y504101D01*
X339949D01*
X340065Y503822D01*
X340696Y502999D01*
X341518Y502368D01*
X342304Y502043D01*
X342323Y501510D01*
X341610Y501214D01*
X340825Y500612D01*
X340223Y499827D01*
X339845Y498914D01*
X339781Y498433D01*
X343504D01*
Y497433D01*
X339781D01*
X339845Y496953D01*
X340223Y496039D01*
X340825Y495254D01*
X341610Y494652D01*
X342524Y494274D01*
X342718Y494248D01*
Y493744D01*
X342524Y493718D01*
X341610Y493340D01*
X340825Y492738D01*
X340223Y491953D01*
X339845Y491040D01*
X339781Y490559D01*
X343504D01*
Y489559D01*
X339781D01*
X339845Y489079D01*
X340223Y488165D01*
X340825Y487380D01*
X341610Y486778D01*
X342524Y486400D01*
X342718Y486374D01*
Y485870D01*
X342524Y485844D01*
X341610Y485466D01*
X340825Y484864D01*
X340223Y484079D01*
X339845Y483166D01*
X339781Y482685D01*
X343504D01*
Y481685D01*
X339781D01*
X339845Y481205D01*
X340223Y480291D01*
X340825Y479506D01*
X341610Y478904D01*
X342524Y478526D01*
X342718Y478500D01*
Y477996D01*
X342524Y477970D01*
X341610Y477592D01*
X340825Y476990D01*
X340223Y476205D01*
X339845Y475291D01*
X339781Y474811D01*
X343504D01*
Y474311D01*
X344004D01*
Y470589D01*
X344484Y470652D01*
X345398Y471030D01*
X346183Y471632D01*
X346785Y472417D01*
X347163Y473331D01*
X347189Y473525D01*
X347693D01*
X347719Y473331D01*
X348097Y472417D01*
X348699Y471632D01*
X349484Y471030D01*
X350397Y470652D01*
X350878Y470589D01*
Y474311D01*
X351878D01*
Y470589D01*
X352358Y470652D01*
X353272Y471030D01*
X354057Y471632D01*
X354659Y472417D01*
X355037Y473331D01*
X355063Y473525D01*
X355567D01*
X355593Y473331D01*
X355971Y472417D01*
X356573Y471632D01*
X357358Y471030D01*
X358272Y470652D01*
X358752Y470589D01*
Y474311D01*
X359752D01*
Y470589D01*
X360232Y470652D01*
X361146Y471030D01*
X361931Y471632D01*
X362533Y472417D01*
X362911Y473331D01*
X362937Y473525D01*
X363441D01*
X363467Y473331D01*
X363845Y472417D01*
X364447Y471632D01*
X365232Y471030D01*
X366145Y470652D01*
X366626Y470589D01*
Y474311D01*
X367626D01*
Y470589D01*
X368107Y470652D01*
X369020Y471030D01*
X369805Y471632D01*
X370407Y472417D01*
X370785Y473331D01*
X370811Y473525D01*
X371315D01*
X371341Y473331D01*
X371719Y472417D01*
X372321Y471632D01*
X373106Y471030D01*
X374020Y470652D01*
X374500Y470589D01*
Y474311D01*
X375000D01*
Y474811D01*
X378723D01*
X378659Y475291D01*
X378281Y476205D01*
X377679Y476990D01*
X376894Y477592D01*
X375980Y477970D01*
X375786Y477996D01*
Y478500D01*
X375980Y478526D01*
X376894Y478904D01*
X377679Y479506D01*
X378281Y480291D01*
X378659Y481205D01*
X378723Y481685D01*
X375000D01*
Y482685D01*
X378723D01*
X378659Y483166D01*
X378281Y484079D01*
X377679Y484864D01*
X376894Y485466D01*
X375980Y485844D01*
X375786Y485870D01*
Y486374D01*
X375980Y486400D01*
X376894Y486778D01*
X377679Y487380D01*
X378281Y488165D01*
X378659Y489079D01*
X378723Y489559D01*
X375000D01*
Y490559D01*
X378723D01*
X378659Y491040D01*
X378281Y491953D01*
X377679Y492738D01*
X376894Y493340D01*
X375980Y493718D01*
X375786Y493744D01*
Y494248D01*
X375980Y494274D01*
X376894Y494652D01*
X377679Y495254D01*
X378281Y496039D01*
X378659Y496953D01*
X378723Y497433D01*
X375000D01*
Y498433D01*
X378723D01*
X378659Y498914D01*
X378281Y499827D01*
X377679Y500612D01*
X376894Y501214D01*
X376181Y501510D01*
X376200Y502043D01*
X376986Y502368D01*
X377808Y502999D01*
X378439Y503822D01*
X378555Y504101D01*
X379707D01*
X381365Y502443D01*
D02*
G37*
G36*
X466240Y510138D02*
X466240Y509906D01*
Y509561D01*
X466210Y509516D01*
X466119Y509055D01*
X466119Y469987D01*
X465446Y469314D01*
X464984Y469506D01*
X464984Y509055D01*
X464892Y509516D01*
X464862Y509561D01*
X464862Y510138D01*
X465251Y510406D01*
X465851D01*
X466240Y510138D01*
D02*
G37*
G36*
X441471Y472377D02*
X441471Y472377D01*
X441862Y472116D01*
X442323Y472024D01*
X442323Y472024D01*
X444587D01*
Y471949D01*
X453057D01*
X453248Y471487D01*
X441627Y459866D01*
X423103D01*
X422976Y460034D01*
X422874Y460344D01*
X423489Y460959D01*
X423750Y461350D01*
X423842Y461811D01*
X423842Y461811D01*
Y470564D01*
X428058Y474780D01*
X429510D01*
X429584Y474280D01*
X429543Y474267D01*
X428483Y473701D01*
X427554Y472938D01*
X426791Y472009D01*
X426225Y470949D01*
X425876Y469799D01*
X425758Y468602D01*
X425876Y467406D01*
X426225Y466256D01*
X426791Y465196D01*
X427554Y464266D01*
X428483Y463504D01*
X429543Y462937D01*
X430693Y462588D01*
X431890Y462470D01*
X433086Y462588D01*
X434236Y462937D01*
X435296Y463504D01*
X436226Y464266D01*
X436988Y465196D01*
X437555Y466256D01*
X437904Y467406D01*
X438022Y468602D01*
X437904Y469799D01*
X437555Y470949D01*
X436988Y472009D01*
X436226Y472938D01*
X435296Y473701D01*
X434236Y474267D01*
X434195Y474280D01*
X434269Y474780D01*
X439068Y474780D01*
X441471Y472377D01*
D02*
G37*
G36*
X477067Y510138D02*
X477067Y509906D01*
Y501476D01*
Y495571D01*
Y489665D01*
Y483760D01*
Y477854D01*
Y471949D01*
X477142D01*
X477142Y452467D01*
X476043Y451368D01*
X475582Y451615D01*
X475614Y451772D01*
X475614Y451772D01*
X475614Y471949D01*
X475689D01*
Y477854D01*
Y483760D01*
Y489665D01*
Y495571D01*
Y501476D01*
Y509906D01*
X475689Y510138D01*
X476078Y510406D01*
X476678D01*
X477067Y510138D01*
D02*
G37*
G36*
X265354Y471260D02*
X268110Y468504D01*
Y443307D01*
X265354Y440551D01*
X247441Y440551D01*
X243701Y444291D01*
X243701Y468307D01*
X246457Y471063D01*
Y509055D01*
X265354D01*
Y471260D01*
D02*
G37*
G36*
X528740Y408661D02*
X525394Y405315D01*
Y396850D01*
X520472D01*
Y390744D01*
X507072D01*
Y390844D01*
Y396850D01*
X502165D01*
X502165Y406496D01*
X510827Y415158D01*
Y508858D01*
X528740D01*
X528740Y408661D01*
D02*
G37*
G36*
X550394Y464961D02*
X561221Y454134D01*
X561221Y408071D01*
X558465Y405315D01*
X558465Y397047D01*
X553543D01*
Y390595D01*
X540143D01*
Y390694D01*
Y397047D01*
X535236D01*
X535236Y405118D01*
X532283Y408071D01*
Y408465D01*
X532283Y509055D01*
X550394D01*
Y464961D01*
D02*
G37*
G36*
X507087Y416535D02*
X492323Y401772D01*
Y397047D01*
X487416D01*
Y390595D01*
X474016D01*
Y390694D01*
Y397047D01*
X469095D01*
Y410827D01*
X488976Y430709D01*
X488976Y509055D01*
X507087D01*
X507087Y416535D01*
D02*
G37*
G36*
X485236Y431496D02*
X458858Y405118D01*
Y396850D01*
X453937D01*
Y390595D01*
X440537D01*
Y390694D01*
Y396850D01*
X435630D01*
Y409252D01*
X478346Y451968D01*
X478346Y509055D01*
X485236D01*
X485236Y431496D01*
D02*
G37*
G36*
X474409Y451772D02*
X425787Y403150D01*
X425787Y396850D01*
X420880D01*
Y390595D01*
X407480D01*
Y390694D01*
Y396850D01*
X402559D01*
X402559Y404724D01*
X467323Y469488D01*
X467323Y509055D01*
X474409D01*
X474409Y451772D01*
D02*
G37*
G36*
X463780Y468110D02*
X392323Y396654D01*
X387402D01*
Y390350D01*
X374002D01*
Y390450D01*
Y396654D01*
X369094D01*
Y404724D01*
X423032Y458661D01*
X442126D01*
X456496Y473032D01*
Y509055D01*
X463779D01*
X463780Y468110D01*
D02*
G37*
G36*
X322066Y410690D02*
X322310Y410529D01*
Y332283D01*
X322431Y331673D01*
X322409Y331644D01*
X321867Y331529D01*
X320997Y332400D01*
Y409923D01*
X321824Y410750D01*
X322066Y410690D01*
D02*
G37*
G36*
X317342Y410690D02*
X317585Y410529D01*
Y331693D01*
X317658Y331328D01*
X317197Y331082D01*
X316470Y331809D01*
Y410120D01*
X317099Y410750D01*
X317342Y410690D01*
D02*
G37*
G36*
X424081Y294766D02*
Y272342D01*
X423622Y272244D01*
Y272244D01*
X421588D01*
Y296260D01*
X421515Y296625D01*
X421976Y296871D01*
X424081Y294766D01*
D02*
G37*
G36*
X293701Y74410D02*
Y62598D01*
X284055D01*
X284055Y76772D01*
X291339Y76772D01*
X293701Y74410D01*
D02*
G37*
G36*
X318105Y35128D02*
X317839Y34630D01*
X317490Y33480D01*
X317372Y32283D01*
X317490Y31087D01*
X317839Y29937D01*
X318406Y28877D01*
X319168Y27948D01*
X320097Y27185D01*
X320975Y26716D01*
X320850Y26216D01*
X318071D01*
X315192Y29095D01*
Y35039D01*
X315055Y35731D01*
X314663Y36317D01*
X309151Y41829D01*
X308917Y41985D01*
X309069Y42485D01*
X310748D01*
X318105Y35128D01*
D02*
G37*
%LPC*%
G36*
X563476Y509530D02*
X562996Y509466D01*
X562082Y509088D01*
X561298Y508486D01*
X560696Y507701D01*
X560317Y506788D01*
X560254Y506307D01*
X563476D01*
Y509530D01*
D02*
G37*
G36*
X330823Y505307D02*
X321736D01*
Y501657D01*
Y500402D01*
X330823D01*
Y501657D01*
Y505307D01*
D02*
G37*
G36*
X319996D02*
X310910D01*
Y501657D01*
Y500402D01*
X319996D01*
Y501657D01*
Y505307D01*
D02*
G37*
G36*
X330823Y499402D02*
X321736D01*
Y495752D01*
Y494496D01*
X330823D01*
Y495752D01*
Y499402D01*
D02*
G37*
G36*
X319996D02*
X310910D01*
Y495752D01*
Y494496D01*
X319996D01*
Y495752D01*
Y499402D01*
D02*
G37*
G36*
X330823Y493496D02*
X321736D01*
Y489847D01*
Y488590D01*
X330823D01*
Y489847D01*
Y493496D01*
D02*
G37*
G36*
X319996D02*
X310910D01*
Y489847D01*
Y488590D01*
X319996D01*
Y489847D01*
Y493496D01*
D02*
G37*
G36*
X330823Y487591D02*
X321736D01*
Y483941D01*
Y482685D01*
X330823D01*
Y483941D01*
Y487591D01*
D02*
G37*
G36*
X319996D02*
X310910D01*
Y483941D01*
Y482685D01*
X319996D01*
Y483941D01*
Y487591D01*
D02*
G37*
G36*
X330823Y481685D02*
X321736D01*
Y478035D01*
Y476780D01*
X330823D01*
Y478035D01*
Y481685D01*
D02*
G37*
G36*
X319996D02*
X310910D01*
Y478035D01*
Y476780D01*
X319996D01*
Y478035D01*
Y481685D01*
D02*
G37*
G36*
X330823Y475779D02*
X326780D01*
Y472130D01*
X330823D01*
Y475779D01*
D02*
G37*
G36*
X325780D02*
X321736D01*
Y472130D01*
X325780D01*
Y475779D01*
D02*
G37*
G36*
X319996D02*
X315953D01*
Y472130D01*
X319996D01*
Y475779D01*
D02*
G37*
G36*
X314953D02*
X310910D01*
Y472130D01*
X314953D01*
Y475779D01*
D02*
G37*
G36*
X166535Y469882D02*
X160433D01*
Y467848D01*
X159547D01*
Y469882D01*
X153445D01*
Y462402D01*
X159547D01*
Y464436D01*
X160433D01*
Y462402D01*
X161778D01*
Y437532D01*
X161908Y436879D01*
X162278Y436325D01*
X172236Y426367D01*
Y419410D01*
X188394D01*
Y422389D01*
X190433D01*
X191086Y422518D01*
X191639Y422888D01*
X194120Y425368D01*
X194490Y425922D01*
X194619Y426575D01*
Y428150D01*
X196063D01*
Y435827D01*
X189764D01*
Y428150D01*
X191207D01*
Y427282D01*
X189726Y425801D01*
X188394D01*
Y428780D01*
X174649D01*
X165190Y438238D01*
Y462402D01*
X166535D01*
Y469882D01*
D02*
G37*
G36*
X152264D02*
X146161D01*
Y467848D01*
X144684D01*
X144485Y468107D01*
X143910Y468549D01*
X143239Y468827D01*
X142520Y468921D01*
X141800Y468827D01*
X141130Y468549D01*
X140554Y468107D01*
X140112Y467532D01*
X139835Y466861D01*
X139740Y466142D01*
X139835Y465422D01*
X140112Y464752D01*
X140554Y464176D01*
X141130Y463734D01*
X141800Y463457D01*
X142520Y463362D01*
X143239Y463457D01*
X143910Y463734D01*
X144485Y464176D01*
X144684Y464436D01*
X146161D01*
Y462402D01*
X152264D01*
Y469882D01*
D02*
G37*
G36*
X615354Y474734D02*
X614158Y474616D01*
X613008Y474267D01*
X611948Y473701D01*
X611018Y472938D01*
X610256Y472009D01*
X609689Y470949D01*
X609340Y469799D01*
X609222Y468602D01*
X609340Y467406D01*
X609689Y466256D01*
X610256Y465196D01*
X611018Y464266D01*
X611948Y463504D01*
X613008Y462937D01*
X614158Y462588D01*
X615354Y462470D01*
X616551Y462588D01*
X617701Y462937D01*
X618761Y463504D01*
X619690Y464266D01*
X620453Y465196D01*
X621020Y466256D01*
X621368Y467406D01*
X621486Y468602D01*
X621368Y469799D01*
X621020Y470949D01*
X620453Y472009D01*
X619690Y472938D01*
X618761Y473701D01*
X617701Y474267D01*
X616551Y474616D01*
X615354Y474734D01*
D02*
G37*
G36*
X211417D02*
X210221Y474616D01*
X209071Y474267D01*
X208011Y473701D01*
X207081Y472938D01*
X206319Y472009D01*
X205752Y470949D01*
X205403Y469799D01*
X205285Y468602D01*
X205403Y467406D01*
X205752Y466256D01*
X206319Y465196D01*
X207081Y464266D01*
X208011Y463504D01*
X209071Y462937D01*
X210221Y462588D01*
X211417Y462470D01*
X212614Y462588D01*
X213764Y462937D01*
X214824Y463504D01*
X215753Y464266D01*
X216516Y465196D01*
X217083Y466256D01*
X217431Y467406D01*
X217549Y468602D01*
X217431Y469799D01*
X217083Y470949D01*
X216516Y472009D01*
X215753Y472938D01*
X214824Y473701D01*
X213764Y474267D01*
X212614Y474616D01*
X211417Y474734D01*
D02*
G37*
G36*
X265559Y428780D02*
X249402D01*
Y419410D01*
X251444D01*
Y413779D01*
X250098D01*
Y406365D01*
X250098Y406299D01*
X250098Y406299D01*
X250197Y405905D01*
X250197Y405905D01*
Y398425D01*
X256299D01*
Y405840D01*
X256299Y405905D01*
X256299Y405905D01*
X256201Y406299D01*
X256201Y406299D01*
Y413779D01*
X254856D01*
Y419410D01*
X265559D01*
Y422310D01*
X266732D01*
Y420177D01*
X273031D01*
Y427854D01*
X266732D01*
Y425722D01*
X265559D01*
Y428780D01*
D02*
G37*
G36*
X610236Y415575D02*
X609517Y415480D01*
X608846Y415203D01*
X608271Y414761D01*
X607829Y414185D01*
X607551Y413515D01*
X607456Y412795D01*
X607551Y412076D01*
X607652Y411833D01*
X607374Y411417D01*
X606496D01*
Y405315D01*
X613976D01*
Y411417D01*
X613098D01*
X612821Y411833D01*
X612921Y412076D01*
X613016Y412795D01*
X612921Y413515D01*
X612643Y414185D01*
X612202Y414761D01*
X611626Y415203D01*
X610956Y415480D01*
X610236Y415575D01*
D02*
G37*
G36*
X587402Y404806D02*
X587333Y404799D01*
X574070D01*
X574002Y404806D01*
X572790Y404686D01*
X571625Y404333D01*
X570551Y403759D01*
X569610Y402986D01*
X568837Y402045D01*
X568263Y400971D01*
X567910Y399806D01*
X567791Y398594D01*
Y395595D01*
X567910Y394383D01*
X568263Y393218D01*
X568837Y392144D01*
X569610Y391203D01*
X570551Y390430D01*
X571625Y389856D01*
X572790Y389503D01*
X574002Y389384D01*
X574070Y389390D01*
X587333D01*
X587402Y389384D01*
X588613Y389503D01*
X589778Y389856D01*
X589998Y389974D01*
X717082D01*
X737367Y369688D01*
Y106099D01*
X728113Y96845D01*
X719685D01*
X718296Y96709D01*
X716960Y96303D01*
X715729Y95645D01*
X714650Y94760D01*
X713764Y93681D01*
X713106Y92449D01*
X712701Y91114D01*
X712564Y89724D01*
X712701Y88335D01*
X713106Y86999D01*
X713764Y85768D01*
X714650Y84689D01*
X715729Y83804D01*
X716960Y83146D01*
X718296Y82740D01*
X719685Y82604D01*
X731063D01*
X732452Y82740D01*
X733788Y83146D01*
X735019Y83804D01*
X736098Y84689D01*
X749523Y98114D01*
X750409Y99193D01*
X751067Y100425D01*
X751472Y101760D01*
X751609Y103150D01*
Y372638D01*
X751472Y374027D01*
X751067Y375363D01*
X750409Y376594D01*
X749523Y377673D01*
X749523Y377673D01*
X725067Y402130D01*
X723988Y403015D01*
X722756Y403673D01*
X721421Y404079D01*
X720031Y404215D01*
X589998D01*
X589778Y404333D01*
X588613Y404686D01*
X587402Y404806D01*
D02*
G37*
G36*
X166339Y413779D02*
X160236D01*
Y406299D01*
X161581D01*
Y403247D01*
X161322Y403048D01*
X160880Y402472D01*
X160602Y401802D01*
X160508Y401083D01*
X160602Y400363D01*
X160880Y399693D01*
X161322Y399117D01*
X161898Y398675D01*
X162568Y398398D01*
X163287Y398303D01*
X164007Y398398D01*
X164677Y398675D01*
X165253Y399117D01*
X165695Y399693D01*
X165972Y400363D01*
X166067Y401083D01*
X165972Y401802D01*
X165695Y402472D01*
X165253Y403048D01*
X164993Y403247D01*
Y406299D01*
X166339D01*
Y413779D01*
D02*
G37*
G36*
X173622Y413779D02*
Y413779D01*
X173530Y413779D01*
X167520D01*
Y406299D01*
X173622D01*
Y406299D01*
X174016D01*
Y406299D01*
X175408D01*
Y400512D01*
X169035D01*
Y397533D01*
X167283D01*
X166631Y397403D01*
X166077Y397033D01*
X163361Y394317D01*
X162991Y393763D01*
X162861Y393110D01*
Y391929D01*
X161417D01*
Y384252D01*
X167717D01*
Y391929D01*
X166334D01*
X166298Y392429D01*
X167990Y394121D01*
X169035D01*
Y391142D01*
X185193D01*
Y400512D01*
X178820D01*
Y406299D01*
X180118D01*
Y413779D01*
X174108D01*
X174016Y413779D01*
Y413779D01*
X173622D01*
D02*
G37*
G36*
X614370Y371284D02*
X614365Y371283D01*
X611619D01*
X611614Y371284D01*
X611609Y371283D01*
X610039D01*
X609579Y371191D01*
X609188Y370930D01*
X608927Y370540D01*
X608835Y370079D01*
Y368509D01*
X608835Y368504D01*
X608835Y368499D01*
Y365228D01*
X608835Y365223D01*
X608835Y365218D01*
Y361947D01*
X608835Y361942D01*
X608835Y361938D01*
Y358666D01*
X608835Y358661D01*
X608835Y358657D01*
Y357087D01*
X608927Y356626D01*
X609188Y356235D01*
X609579Y355974D01*
X610039Y355882D01*
X611609D01*
X611614Y355882D01*
X611619Y355882D01*
X614365D01*
X614370Y355882D01*
X614375Y355882D01*
X623425D01*
X623886Y355974D01*
X624225Y356201D01*
X624409D01*
Y356434D01*
X624538Y356626D01*
X624629Y357087D01*
Y370079D01*
X624538Y370540D01*
X624409Y370732D01*
Y370965D01*
X624225D01*
X623886Y371191D01*
X623425Y371283D01*
X614375D01*
X614370Y371284D01*
D02*
G37*
G36*
X236209Y456772D02*
X198335D01*
Y411417D01*
X198402D01*
Y408504D01*
X198386D01*
Y368537D01*
X197924Y368346D01*
X188732Y377538D01*
X190538Y379344D01*
X191016Y380061D01*
X191184Y380906D01*
Y404724D01*
X191016Y405569D01*
X190538Y406285D01*
X187402Y409421D01*
Y413779D01*
X181299D01*
Y406299D01*
X184279D01*
X186769Y403810D01*
Y381820D01*
X185553Y380605D01*
X185500Y380640D01*
X185039Y380732D01*
X185039Y380732D01*
X159095Y380732D01*
Y408504D01*
X159078D01*
Y414567D01*
X159043Y414743D01*
Y456772D01*
X121169D01*
Y411417D01*
X121237D01*
Y408504D01*
X121221D01*
Y380732D01*
X71097Y380732D01*
X70669Y381232D01*
Y382841D01*
X71850D01*
Y381496D01*
X79331D01*
Y382841D01*
X81398D01*
X82051Y382971D01*
X82604Y383341D01*
X83318Y384055D01*
X87205D01*
Y389320D01*
X91408Y393523D01*
X91870Y393332D01*
Y391142D01*
X108028D01*
Y400512D01*
X91870D01*
Y397533D01*
X91299D01*
X90646Y397403D01*
X90093Y397033D01*
X84792Y391732D01*
X80905D01*
Y386468D01*
X80691Y386253D01*
X79331D01*
Y387598D01*
X71850D01*
Y386253D01*
X70669D01*
Y388386D01*
X64567D01*
Y381232D01*
X64567Y380906D01*
X64139Y380732D01*
X63814D01*
X63386Y381232D01*
Y388386D01*
X57284D01*
Y383318D01*
X35211Y361246D01*
X34841Y360692D01*
X34711Y360039D01*
Y141732D01*
X34452Y141533D01*
X34010Y140957D01*
X33732Y140286D01*
X33638Y139567D01*
X33732Y138847D01*
X34010Y138177D01*
X34452Y137601D01*
X35028Y137160D01*
X35698Y136882D01*
X36417Y136787D01*
X37137Y136882D01*
X37807Y137160D01*
X38383Y137601D01*
X38825Y138177D01*
X39102Y138847D01*
X39197Y139567D01*
X39102Y140286D01*
X38825Y140957D01*
X38383Y141533D01*
X38123Y141732D01*
Y359333D01*
X59696Y380906D01*
X61832D01*
X61983Y380405D01*
X61944Y380379D01*
X42062Y360497D01*
X42062Y360497D01*
X41801Y360106D01*
X41709Y359646D01*
X41709Y359646D01*
X41709Y88976D01*
X41709Y88976D01*
X41801Y88516D01*
X42062Y88125D01*
X67062Y63125D01*
X67453Y62864D01*
X67913Y62772D01*
X67913Y62772D01*
X108858Y62772D01*
X108935Y62787D01*
X110079D01*
Y78945D01*
X110063D01*
X110063Y113622D01*
X110563Y113792D01*
X110956Y113279D01*
X112025Y112459D01*
X113270Y111943D01*
X114606Y111767D01*
X115942Y111943D01*
X117187Y112459D01*
X118257Y113279D01*
X119077Y114348D01*
X119593Y115593D01*
X119769Y116929D01*
X119593Y118265D01*
X119077Y119510D01*
X118257Y120579D01*
X117187Y121400D01*
X116513Y121679D01*
Y152694D01*
X116572Y152739D01*
X117014Y153315D01*
X117291Y153985D01*
X117386Y154705D01*
X117291Y155424D01*
X117014Y156095D01*
X116674Y156537D01*
X116611Y156880D01*
X116674Y157222D01*
X117014Y157665D01*
X117291Y158336D01*
X117386Y159055D01*
X117291Y159774D01*
X117014Y160445D01*
X116572Y161021D01*
X116513Y161066D01*
Y249187D01*
X117187Y249466D01*
X118257Y250287D01*
X119077Y251356D01*
X119593Y252601D01*
X119769Y253937D01*
X119593Y255273D01*
X119077Y256518D01*
X118257Y257587D01*
X117187Y258408D01*
X115942Y258923D01*
X114606Y259099D01*
X113270Y258923D01*
X112025Y258408D01*
X110956Y257587D01*
X110563Y257074D01*
X110063Y257244D01*
Y259934D01*
X116641Y266512D01*
X136205D01*
X136375Y266012D01*
X136027Y265745D01*
X135585Y265169D01*
X135307Y264499D01*
X135212Y263779D01*
X135307Y263060D01*
X135585Y262390D01*
X136027Y261814D01*
X136286Y261615D01*
Y95865D01*
X136027Y95666D01*
X135585Y95091D01*
X135307Y94420D01*
X135212Y93701D01*
X135307Y92981D01*
X135585Y92311D01*
X136027Y91735D01*
X136602Y91294D01*
X137273Y91016D01*
X137992Y90921D01*
X138712Y91016D01*
X139382Y91294D01*
X139958Y91735D01*
X140399Y92311D01*
X140677Y92981D01*
X140772Y93701D01*
X140677Y94420D01*
X140399Y95091D01*
X139958Y95666D01*
X139698Y95865D01*
Y261615D01*
X139936Y261798D01*
X140073Y261877D01*
X140422D01*
X140814Y261574D01*
Y248819D01*
X140944Y248166D01*
X141313Y247613D01*
X198904Y190022D01*
Y149140D01*
X198385Y148363D01*
X198202Y147441D01*
Y144095D01*
X198385Y143173D01*
X198907Y142391D01*
X199688Y141869D01*
X200610Y141686D01*
X201532Y141869D01*
X202313Y142391D01*
X202835Y143173D01*
X202855Y143273D01*
X203365D01*
X203385Y143173D01*
X203904Y142396D01*
Y141830D01*
X203645Y141631D01*
X203203Y141055D01*
X202925Y140385D01*
X202831Y139665D01*
X202925Y138946D01*
X203203Y138276D01*
X203645Y137700D01*
X204220Y137258D01*
X204891Y136980D01*
X205610Y136886D01*
X206330Y136980D01*
X207000Y137258D01*
X207576Y137700D01*
X208017Y138276D01*
X208295Y138946D01*
X208390Y139665D01*
X208295Y140385D01*
X208017Y141055D01*
X207576Y141631D01*
X207316Y141830D01*
Y142396D01*
X207835Y143173D01*
X207855Y143273D01*
X208365D01*
X208385Y143173D01*
X208907Y142391D01*
X209688Y141869D01*
X210610Y141686D01*
X211532Y141869D01*
X212313Y142391D01*
X212835Y143173D01*
X212855Y143273D01*
X213365D01*
X213385Y143173D01*
X213907Y142391D01*
X214688Y141869D01*
X215610Y141686D01*
X216532Y141869D01*
X217313Y142391D01*
X217835Y143173D01*
X217855Y143273D01*
X218365D01*
X218385Y143173D01*
X218904Y142396D01*
Y133721D01*
X219034Y133068D01*
X219404Y132514D01*
X221825Y130093D01*
X222379Y129723D01*
X223031Y129593D01*
X239648D01*
X241010Y128230D01*
Y91929D01*
Y91061D01*
X238754Y88805D01*
X238385Y88251D01*
X238255Y87598D01*
Y61417D01*
X238385Y60764D01*
X238754Y60211D01*
X241510Y57455D01*
X241510Y57455D01*
X254987Y43978D01*
Y26691D01*
X253723Y25427D01*
X253149D01*
X253051Y25886D01*
X253051Y25927D01*
Y26463D01*
X253081Y26508D01*
X253173Y26969D01*
X253173Y43701D01*
X253081Y44162D01*
X252820Y44552D01*
X252820Y44552D01*
X241993Y55379D01*
X241602Y55640D01*
X241142Y55732D01*
X241142Y55732D01*
X235564D01*
Y72638D01*
X237598D01*
Y78740D01*
X230118D01*
Y72638D01*
X232152D01*
Y55732D01*
X196457Y55732D01*
X195996Y55640D01*
X195605Y55379D01*
X195605Y55379D01*
X191274Y51048D01*
X191013Y50658D01*
X190922Y50197D01*
X190922Y50197D01*
X190922Y40945D01*
X190937Y40868D01*
Y39803D01*
X191812D01*
X192126Y39741D01*
X218701D01*
Y38990D01*
X218146Y38879D01*
X217593Y38510D01*
X216399Y37316D01*
X215945Y37205D01*
Y37205D01*
X209646D01*
Y29528D01*
X211089D01*
Y27281D01*
X210514Y26706D01*
X207095D01*
Y29173D01*
X190937D01*
Y19803D01*
X207095D01*
Y23294D01*
X211221D01*
X211873Y23424D01*
X212427Y23794D01*
X214002Y25368D01*
X214371Y25922D01*
X214501Y26575D01*
Y29528D01*
X215945D01*
Y33530D01*
X216732D01*
X217385Y33660D01*
X217939Y34030D01*
X218032Y34124D01*
X218504Y33888D01*
Y27953D01*
X225984D01*
Y34055D01*
X226181Y34252D01*
X226181D01*
Y39741D01*
X237493D01*
X240134Y37100D01*
X240134Y26969D01*
X240226Y26508D01*
X240256Y26463D01*
Y25927D01*
X240256Y25886D01*
X240158Y25427D01*
X225984D01*
Y26772D01*
X218504D01*
Y20669D01*
X225984D01*
Y22015D01*
X254429D01*
X255082Y22144D01*
X255635Y22514D01*
X257899Y24778D01*
X258269Y25331D01*
X258399Y25984D01*
Y44685D01*
X258269Y45338D01*
X257899Y45891D01*
X243923Y59868D01*
X243923Y59868D01*
X241667Y62124D01*
Y86892D01*
X243108Y88333D01*
X243570Y88142D01*
Y75590D01*
X243310Y75391D01*
X242868Y74815D01*
X242591Y74145D01*
X242496Y73425D01*
X242591Y72706D01*
X242868Y72035D01*
X243310Y71460D01*
X243886Y71018D01*
X244556Y70740D01*
X245276Y70645D01*
X245995Y70740D01*
X246665Y71018D01*
X247241Y71460D01*
X247683Y72035D01*
X247961Y72706D01*
X248055Y73425D01*
X247961Y74145D01*
X247683Y74815D01*
X247241Y75391D01*
X246982Y75590D01*
Y165945D01*
X246852Y166598D01*
X246482Y167151D01*
X171785Y241848D01*
Y257284D01*
X172044Y257483D01*
X172486Y258059D01*
X172764Y258729D01*
X172858Y259449D01*
X172764Y260168D01*
X172486Y260839D01*
X172044Y261414D01*
X171469Y261856D01*
X170798Y262134D01*
X170079Y262228D01*
X169359Y262134D01*
X168689Y261856D01*
X168113Y261414D01*
X167672Y260839D01*
X167394Y260168D01*
X167299Y259449D01*
X167394Y258729D01*
X167672Y258059D01*
X168113Y257483D01*
X168373Y257284D01*
Y241142D01*
X168503Y240489D01*
X168872Y239935D01*
X243570Y165238D01*
Y131150D01*
X243108Y130958D01*
X241561Y132506D01*
X241007Y132875D01*
X240354Y133005D01*
X227769D01*
X227602Y133421D01*
X227590Y133505D01*
X228017Y134063D01*
X228295Y134733D01*
X228390Y135453D01*
X228295Y136172D01*
X228017Y136843D01*
X227576Y137418D01*
X227316Y137617D01*
Y142396D01*
X227835Y143173D01*
X227855Y143273D01*
X228365D01*
X228385Y143173D01*
X228907Y142391D01*
X229689Y141869D01*
X230610Y141686D01*
X231532Y141869D01*
X232313Y142391D01*
X232645Y142888D01*
X233263Y142955D01*
X233412Y142793D01*
Y142582D01*
X233223Y142335D01*
X232945Y141664D01*
X232850Y140945D01*
X232945Y140226D01*
X233223Y139555D01*
X233664Y138979D01*
X234240Y138538D01*
X234910Y138260D01*
X235630Y138165D01*
X236349Y138260D01*
X237020Y138538D01*
X237595Y138979D01*
X238037Y139555D01*
X238315Y140226D01*
X238410Y140945D01*
X238315Y141664D01*
X238037Y142335D01*
X237828Y142607D01*
Y143161D01*
X237835Y143173D01*
X238019Y144095D01*
Y147441D01*
X237835Y148363D01*
X237828Y148374D01*
Y148928D01*
X238037Y149201D01*
X238315Y149871D01*
X238410Y150591D01*
X238315Y151310D01*
X238037Y151980D01*
X237595Y152556D01*
X237020Y152998D01*
X236349Y153276D01*
X235630Y153370D01*
X234910Y153276D01*
X234240Y152998D01*
X233664Y152556D01*
X233223Y151980D01*
X232945Y151310D01*
X232850Y150591D01*
X232945Y149871D01*
X233223Y149201D01*
X233412Y148953D01*
Y148403D01*
X233385Y148363D01*
X233365Y148262D01*
X232855D01*
X232835Y148363D01*
X232313Y149144D01*
X231532Y149666D01*
X230610Y149849D01*
X229689Y149666D01*
X228907Y149144D01*
X228385Y148363D01*
X228365Y148262D01*
X227855D01*
X227835Y148363D01*
X227313Y149144D01*
X226532Y149666D01*
X225610Y149849D01*
X224689Y149666D01*
X223907Y149144D01*
X223385Y148363D01*
X223365Y148262D01*
X222855D01*
X222835Y148363D01*
X222313Y149144D01*
X221532Y149666D01*
X220610Y149849D01*
X219689Y149666D01*
X218907Y149144D01*
X218385Y148363D01*
X218365Y148262D01*
X217855D01*
X217835Y148363D01*
X217316Y149140D01*
Y182028D01*
X217186Y182680D01*
X216817Y183234D01*
X150328Y249722D01*
Y250327D01*
X150802Y250488D01*
X150956Y250287D01*
X152025Y249466D01*
X153270Y248951D01*
X154606Y248775D01*
X155942Y248951D01*
X157187Y249466D01*
X158257Y250287D01*
X159077Y251356D01*
X159593Y252601D01*
X159769Y253937D01*
X159593Y255273D01*
X159077Y256518D01*
X158257Y257587D01*
X157187Y258408D01*
X155942Y258923D01*
X154606Y259099D01*
X153270Y258923D01*
X152025Y258408D01*
X150956Y257587D01*
X150802Y257386D01*
X150328Y257547D01*
Y261615D01*
X150588Y261814D01*
X151029Y262390D01*
X151307Y263060D01*
X151402Y263779D01*
X151307Y264499D01*
X151029Y265169D01*
X150588Y265745D01*
X150239Y266012D01*
X150409Y266512D01*
X161539D01*
X161709Y266012D01*
X161617Y265942D01*
X161175Y265366D01*
X160898Y264696D01*
X160803Y263976D01*
X160898Y263257D01*
X161175Y262586D01*
X161617Y262011D01*
X161877Y261812D01*
Y240551D01*
X162006Y239898D01*
X162376Y239345D01*
X219377Y182344D01*
Y166554D01*
X219117Y166355D01*
X218675Y165780D01*
X218398Y165109D01*
X218303Y164390D01*
X218398Y163670D01*
X218675Y163000D01*
X219117Y162424D01*
X219693Y161983D01*
X220363Y161705D01*
X221083Y161610D01*
X221802Y161705D01*
X222473Y161983D01*
X223048Y162424D01*
X223490Y163000D01*
X223768Y163670D01*
X223862Y164390D01*
X223768Y165109D01*
X223490Y165780D01*
X223048Y166355D01*
X222789Y166554D01*
Y183051D01*
X222659Y183704D01*
X222289Y184257D01*
X165289Y241258D01*
Y261812D01*
X165548Y262011D01*
X165990Y262586D01*
X166268Y263257D01*
X166362Y263976D01*
X166268Y264696D01*
X165990Y265366D01*
X165548Y265942D01*
X165456Y266012D01*
X165626Y266512D01*
X203937D01*
X203937Y266512D01*
X204398Y266604D01*
X204788Y266865D01*
X204788Y266865D01*
X233922Y295999D01*
X234183Y296390D01*
X234275Y296850D01*
X234275Y296850D01*
X234275Y331496D01*
X234275Y331496D01*
X234183Y331957D01*
X233922Y332348D01*
X203582Y362688D01*
X203774Y363150D01*
X236260D01*
Y408504D01*
X236244D01*
Y414567D01*
X236209Y414743D01*
Y456772D01*
D02*
G37*
G36*
X520472Y351955D02*
X520404Y351948D01*
X507141D01*
X507072Y351955D01*
X505861Y351836D01*
X504696Y351482D01*
X503622Y350908D01*
X502681Y350136D01*
X501908Y349195D01*
X501334Y348121D01*
X500981Y346956D01*
X500861Y345744D01*
Y342744D01*
X500981Y341532D01*
X501334Y340367D01*
X501908Y339293D01*
X502681Y338352D01*
X503622Y337580D01*
X504696Y337006D01*
X505861Y336652D01*
X507072Y336533D01*
X507141Y336540D01*
X520404D01*
X520472Y336533D01*
X521684Y336652D01*
X522849Y337006D01*
X523923Y337580D01*
X524864Y338352D01*
X525637Y339293D01*
X526211Y340367D01*
X526564Y341532D01*
X526683Y342744D01*
Y345744D01*
X526564Y346956D01*
X526211Y348121D01*
X525637Y349195D01*
X524864Y350136D01*
X523923Y350908D01*
X522849Y351482D01*
X521684Y351836D01*
X520472Y351955D01*
D02*
G37*
G36*
X587402Y351805D02*
X587333Y351799D01*
X574070D01*
X574002Y351805D01*
X572790Y351686D01*
X571625Y351333D01*
X570551Y350759D01*
X569610Y349986D01*
X568837Y349045D01*
X568263Y347971D01*
X567910Y346806D01*
X567791Y345595D01*
Y342595D01*
X567910Y341383D01*
X568263Y340218D01*
X568837Y339144D01*
X569610Y338203D01*
X570551Y337430D01*
X571625Y336856D01*
X572790Y336503D01*
X574002Y336384D01*
X574070Y336390D01*
X587333D01*
X587402Y336384D01*
X588613Y336503D01*
X589778Y336856D01*
X590852Y337430D01*
X591793Y338203D01*
X592566Y339144D01*
X593140Y340218D01*
X593493Y341383D01*
X593613Y342595D01*
Y345595D01*
X593493Y346806D01*
X593140Y347971D01*
X592566Y349045D01*
X591793Y349986D01*
X590852Y350759D01*
X589778Y351333D01*
X588613Y351686D01*
X587402Y351805D01*
D02*
G37*
G36*
X553543Y351805D02*
X553475Y351799D01*
X540212D01*
X540143Y351805D01*
X538932Y351686D01*
X537767Y351333D01*
X536693Y350759D01*
X535751Y349986D01*
X534979Y349045D01*
X534405Y347971D01*
X534052Y346806D01*
X533932Y345595D01*
Y342595D01*
X534052Y341383D01*
X534405Y340218D01*
X534979Y339144D01*
X535751Y338203D01*
X536693Y337430D01*
X537767Y336856D01*
X538932Y336503D01*
X540143Y336384D01*
X540212Y336390D01*
X553475D01*
X553543Y336384D01*
X554755Y336503D01*
X555920Y336856D01*
X556994Y337430D01*
X557935Y338203D01*
X558708Y339144D01*
X559281Y340218D01*
X559635Y341383D01*
X559754Y342595D01*
Y345595D01*
X559635Y346806D01*
X559281Y347971D01*
X558708Y349045D01*
X557935Y349986D01*
X556994Y350759D01*
X555920Y351333D01*
X554755Y351686D01*
X553543Y351805D01*
D02*
G37*
G36*
X487416D02*
X487347Y351799D01*
X474085D01*
X474016Y351805D01*
X472804Y351686D01*
X471639Y351333D01*
X470565Y350759D01*
X469624Y349986D01*
X468852Y349045D01*
X468278Y347971D01*
X467924Y346806D01*
X467805Y345595D01*
Y342595D01*
X467924Y341383D01*
X468278Y340218D01*
X468852Y339144D01*
X469624Y338203D01*
X470565Y337430D01*
X471639Y336856D01*
X472804Y336503D01*
X474016Y336384D01*
X474085Y336390D01*
X487347D01*
X487416Y336384D01*
X488627Y336503D01*
X489793Y336856D01*
X490866Y337430D01*
X491808Y338203D01*
X492580Y339144D01*
X493154Y340218D01*
X493507Y341383D01*
X493627Y342595D01*
Y345595D01*
X493507Y346806D01*
X493154Y347971D01*
X492580Y349045D01*
X491808Y349986D01*
X490866Y350759D01*
X489793Y351333D01*
X488627Y351686D01*
X487416Y351805D01*
D02*
G37*
G36*
X453937D02*
X453868Y351799D01*
X440606D01*
X440537Y351805D01*
X439325Y351686D01*
X438160Y351333D01*
X437086Y350759D01*
X436145Y349986D01*
X435373Y349045D01*
X434799Y347971D01*
X434445Y346806D01*
X434326Y345595D01*
Y342595D01*
X434445Y341383D01*
X434799Y340218D01*
X435373Y339144D01*
X436145Y338203D01*
X437086Y337430D01*
X438160Y336856D01*
X439325Y336503D01*
X440537Y336384D01*
X440606Y336390D01*
X453868D01*
X453937Y336384D01*
X455149Y336503D01*
X456314Y336856D01*
X457388Y337430D01*
X458329Y338203D01*
X459101Y339144D01*
X459675Y340218D01*
X460029Y341383D01*
X460148Y342595D01*
Y345595D01*
X460029Y346806D01*
X459675Y347971D01*
X459101Y349045D01*
X458329Y349986D01*
X457388Y350759D01*
X456314Y351333D01*
X455149Y351686D01*
X453937Y351805D01*
D02*
G37*
G36*
X420880D02*
X420812Y351799D01*
X407549D01*
X407480Y351805D01*
X406269Y351686D01*
X405103Y351333D01*
X404030Y350759D01*
X403089Y349986D01*
X402316Y349045D01*
X401742Y347971D01*
X401389Y346806D01*
X401269Y345595D01*
Y342595D01*
X401389Y341383D01*
X401742Y340218D01*
X402316Y339144D01*
X403089Y338203D01*
X404030Y337430D01*
X405103Y336856D01*
X406269Y336503D01*
X407480Y336384D01*
X407549Y336390D01*
X420812D01*
X420880Y336384D01*
X422092Y336503D01*
X423257Y336856D01*
X424331Y337430D01*
X425272Y338203D01*
X426045Y339144D01*
X426618Y340218D01*
X426972Y341383D01*
X427091Y342595D01*
Y345595D01*
X426972Y346806D01*
X426618Y347971D01*
X426045Y349045D01*
X425272Y349986D01*
X424331Y350759D01*
X423257Y351333D01*
X422092Y351686D01*
X420880Y351805D01*
D02*
G37*
G36*
X387402Y351561D02*
X387333Y351555D01*
X374070D01*
X374002Y351561D01*
X372790Y351442D01*
X371625Y351089D01*
X370551Y350515D01*
X369610Y349742D01*
X368837Y348801D01*
X368263Y347727D01*
X367910Y346562D01*
X367791Y345350D01*
Y342350D01*
X367910Y341139D01*
X368263Y339973D01*
X368837Y338900D01*
X369610Y337959D01*
X370551Y337186D01*
X371625Y336612D01*
X372790Y336259D01*
X374002Y336139D01*
X374070Y336146D01*
X387333D01*
X387402Y336139D01*
X388613Y336259D01*
X389778Y336612D01*
X390852Y337186D01*
X391793Y337959D01*
X392566Y338900D01*
X393140Y339973D01*
X393493Y341139D01*
X393613Y342350D01*
Y345350D01*
X393493Y346562D01*
X393140Y347727D01*
X392566Y348801D01*
X391793Y349742D01*
X390852Y350515D01*
X389778Y351089D01*
X388613Y351442D01*
X387402Y351561D01*
D02*
G37*
G36*
X353951Y351412D02*
X353882Y351405D01*
X340620D01*
X340551Y351412D01*
X339339Y351292D01*
X338174Y350939D01*
X337101Y350365D01*
X336159Y349593D01*
X335387Y348651D01*
X334813Y347578D01*
X334459Y346412D01*
X334340Y345201D01*
Y342201D01*
X334459Y340989D01*
X334813Y339824D01*
X335387Y338750D01*
X336159Y337809D01*
X337101Y337036D01*
X338174Y336463D01*
X339339Y336109D01*
X340551Y335990D01*
X340620Y335997D01*
X353882D01*
X353951Y335990D01*
X355163Y336109D01*
X356328Y336463D01*
X357402Y337036D01*
X358343Y337809D01*
X359116Y338750D01*
X359689Y339824D01*
X360043Y340989D01*
X360162Y342201D01*
Y345201D01*
X360043Y346412D01*
X359689Y347578D01*
X359116Y348651D01*
X358343Y349593D01*
X357402Y350365D01*
X356328Y350939D01*
X355163Y351292D01*
X353951Y351412D01*
D02*
G37*
G36*
X614173Y342347D02*
X614169Y342346D01*
X611422D01*
X611417Y342347D01*
X611413Y342346D01*
X609842D01*
X609382Y342254D01*
X608991Y341993D01*
X608730Y341603D01*
X608638Y341142D01*
Y339572D01*
X608638Y339567D01*
X608638Y339562D01*
Y336291D01*
X608638Y336286D01*
X608638Y336281D01*
Y333010D01*
X608638Y333005D01*
X608638Y333000D01*
Y329729D01*
X608638Y329724D01*
X608638Y329720D01*
Y328150D01*
X608730Y327689D01*
X608991Y327298D01*
X609382Y327037D01*
X609842Y326945D01*
X611412D01*
X611417Y326945D01*
X611422Y326945D01*
X614168D01*
X614173Y326945D01*
X614178Y326945D01*
X623228D01*
X623689Y327037D01*
X624029Y327264D01*
X624213D01*
Y327497D01*
X624341Y327689D01*
X624433Y328150D01*
Y341142D01*
X624341Y341603D01*
X624213Y341795D01*
Y342028D01*
X624029D01*
X623689Y342254D01*
X623228Y342346D01*
X614178D01*
X614173Y342347D01*
D02*
G37*
G36*
X291260Y351651D02*
X289755Y351503D01*
X288308Y351064D01*
X286974Y350351D01*
X285805Y349392D01*
X284846Y348223D01*
X284133Y346889D01*
X283694Y345442D01*
X283545Y343937D01*
X283694Y342432D01*
X284133Y340985D01*
X284846Y339651D01*
X285805Y338482D01*
X286974Y337523D01*
X288308Y336810D01*
X289755Y336371D01*
X291260Y336223D01*
X292765Y336371D01*
X294212Y336810D01*
X295546Y337523D01*
X296715Y338482D01*
X297674Y339651D01*
X298387Y340985D01*
X298826Y342432D01*
X298974Y343937D01*
X298826Y345442D01*
X298387Y346889D01*
X297674Y348223D01*
X296715Y349392D01*
X295546Y350351D01*
X294212Y351064D01*
X292765Y351503D01*
X291260Y351651D01*
D02*
G37*
G36*
X623819Y310039D02*
X615551D01*
Y301772D01*
X623819D01*
Y310039D01*
D02*
G37*
G36*
X580217D02*
X571949D01*
Y301772D01*
X580217D01*
Y310039D01*
D02*
G37*
G36*
X536614D02*
X528346D01*
Y301772D01*
X536614D01*
Y310039D01*
D02*
G37*
G36*
X493012D02*
X484744D01*
Y301772D01*
X493012D01*
Y310039D01*
D02*
G37*
G36*
X449409D02*
X441142D01*
Y301772D01*
X449409D01*
Y310039D01*
D02*
G37*
G36*
X532980Y290142D02*
Y286720D01*
X536401D01*
X536331Y287252D01*
X535933Y288214D01*
X535299Y289040D01*
X534474Y289673D01*
X533512Y290072D01*
X532980Y290142D01*
D02*
G37*
G36*
X489378D02*
Y286720D01*
X492799D01*
X492729Y287252D01*
X492331Y288214D01*
X491697Y289040D01*
X490871Y289673D01*
X489910Y290072D01*
X489378Y290142D01*
D02*
G37*
G36*
X445776D02*
Y286720D01*
X449197D01*
X449127Y287252D01*
X448728Y288214D01*
X448095Y289040D01*
X447269Y289673D01*
X446308Y290072D01*
X445776Y290142D01*
D02*
G37*
G36*
X620185D02*
Y286720D01*
X623606D01*
X623536Y287252D01*
X623138Y288214D01*
X622504Y289040D01*
X621678Y289673D01*
X620717Y290072D01*
X620185Y290142D01*
D02*
G37*
G36*
X531980D02*
X531448Y290072D01*
X530487Y289673D01*
X529661Y289040D01*
X529028Y288214D01*
X528629Y287252D01*
X528559Y286720D01*
X531980D01*
Y290142D01*
D02*
G37*
G36*
X488378D02*
X487846Y290072D01*
X486884Y289673D01*
X486059Y289040D01*
X485425Y288214D01*
X485027Y287252D01*
X484957Y286720D01*
X488378D01*
Y290142D01*
D02*
G37*
G36*
X444776D02*
X444244Y290072D01*
X443282Y289673D01*
X442456Y289040D01*
X441823Y288214D01*
X441425Y287252D01*
X441355Y286720D01*
X444776D01*
Y290142D01*
D02*
G37*
G36*
X619185D02*
X618653Y290072D01*
X617692Y289673D01*
X616866Y289040D01*
X616232Y288214D01*
X615834Y287252D01*
X615764Y286720D01*
X619185D01*
Y290142D01*
D02*
G37*
G36*
X576583Y290142D02*
Y286720D01*
X580004D01*
X579934Y287252D01*
X579535Y288214D01*
X578902Y289040D01*
X578076Y289673D01*
X577114Y290072D01*
X576583Y290142D01*
D02*
G37*
G36*
X575583Y290142D02*
X575051Y290072D01*
X574089Y289673D01*
X573264Y289040D01*
X572630Y288214D01*
X572232Y287252D01*
X572162Y286720D01*
X575583D01*
Y290142D01*
D02*
G37*
G36*
Y285720D02*
X572162D01*
X572232Y285189D01*
X572630Y284227D01*
X573264Y283401D01*
X574089Y282768D01*
X575051Y282369D01*
X575583Y282299D01*
Y285720D01*
D02*
G37*
G36*
X623606Y285720D02*
X620185D01*
Y282299D01*
X620717Y282369D01*
X621678Y282768D01*
X622504Y283401D01*
X623138Y284227D01*
X623536Y285189D01*
X623606Y285720D01*
D02*
G37*
G36*
X536401D02*
X532980D01*
Y282299D01*
X533512Y282369D01*
X534474Y282768D01*
X535299Y283401D01*
X535933Y284227D01*
X536331Y285189D01*
X536401Y285720D01*
D02*
G37*
G36*
X492799D02*
X489378D01*
Y282299D01*
X489910Y282369D01*
X490871Y282768D01*
X491697Y283401D01*
X492331Y284227D01*
X492729Y285189D01*
X492799Y285720D01*
D02*
G37*
G36*
X449197D02*
X445776D01*
Y282299D01*
X446308Y282369D01*
X447269Y282768D01*
X448095Y283401D01*
X448728Y284227D01*
X449127Y285189D01*
X449197Y285720D01*
D02*
G37*
G36*
X619185D02*
X615764D01*
X615834Y285189D01*
X616232Y284227D01*
X616866Y283401D01*
X617692Y282768D01*
X618653Y282369D01*
X619185Y282299D01*
Y285720D01*
D02*
G37*
G36*
X531980D02*
X528559D01*
X528629Y285189D01*
X529028Y284227D01*
X529661Y283401D01*
X530487Y282768D01*
X531448Y282369D01*
X531980Y282299D01*
Y285720D01*
D02*
G37*
G36*
X488378D02*
X484957D01*
X485027Y285189D01*
X485425Y284227D01*
X486059Y283401D01*
X486884Y282768D01*
X487846Y282369D01*
X488378Y282299D01*
Y285720D01*
D02*
G37*
G36*
X444776D02*
X441355D01*
X441425Y285189D01*
X441823Y284227D01*
X442456Y283401D01*
X443282Y282768D01*
X444244Y282369D01*
X444776Y282299D01*
Y285720D01*
D02*
G37*
G36*
X580004Y285720D02*
X576583D01*
Y282299D01*
X577114Y282369D01*
X578076Y282768D01*
X578902Y283401D01*
X579535Y284227D01*
X579934Y285189D01*
X580004Y285720D01*
D02*
G37*
G36*
X291260Y321651D02*
X289755Y321503D01*
X288308Y321064D01*
X286974Y320351D01*
X285805Y319392D01*
X284846Y318223D01*
X284133Y316889D01*
X283694Y315442D01*
X283545Y313937D01*
X283694Y312432D01*
X284133Y310985D01*
X284846Y309651D01*
X285805Y308482D01*
X286974Y307523D01*
X288308Y306810D01*
X289755Y306371D01*
X291260Y306223D01*
X292539Y306349D01*
X292989Y305899D01*
Y254134D01*
X293080Y253673D01*
X293341Y253282D01*
X293732Y253021D01*
X294193Y252930D01*
X376969Y252930D01*
X377429Y253021D01*
X377820Y253282D01*
X378081Y253673D01*
X378173Y254134D01*
X378173Y311024D01*
X378081Y311484D01*
X377820Y311875D01*
X377429Y312136D01*
X376969Y312228D01*
X299318Y312228D01*
X298852Y312694D01*
X298974Y313937D01*
X298826Y315442D01*
X298387Y316889D01*
X297674Y318223D01*
X296715Y319392D01*
X295546Y320351D01*
X294212Y321064D01*
X292765Y321503D01*
X291260Y321651D01*
D02*
G37*
G36*
X557087Y256717D02*
X556367Y256622D01*
X555697Y256344D01*
X555121Y255903D01*
X554679Y255327D01*
X554402Y254656D01*
X554307Y253937D01*
X554402Y253218D01*
X554549Y252862D01*
X554215Y252362D01*
X553346D01*
Y251228D01*
X552496D01*
X552004Y251556D01*
X551083Y251739D01*
X547736D01*
X546814Y251556D01*
X546033Y251034D01*
X545511Y250252D01*
X545328Y249331D01*
X545511Y248409D01*
X546033Y247628D01*
X546814Y247106D01*
X547736Y246922D01*
X551083D01*
X552004Y247106D01*
X552466Y247414D01*
X553346D01*
Y246260D01*
X560827D01*
Y252362D01*
X559959D01*
X559624Y252862D01*
X559772Y253218D01*
X559866Y253937D01*
X559772Y254656D01*
X559494Y255327D01*
X559052Y255903D01*
X558476Y256344D01*
X557806Y256622D01*
X557087Y256717D01*
D02*
G37*
G36*
X276260Y259099D02*
X274924Y258923D01*
X273679Y258408D01*
X272610Y257587D01*
X271789Y256518D01*
X271273Y255273D01*
X271098Y253937D01*
X271273Y252601D01*
X271789Y251356D01*
X272610Y250287D01*
X273679Y249466D01*
X274924Y248951D01*
X276260Y248775D01*
X277596Y248951D01*
X278841Y249466D01*
X279910Y250287D01*
X280731Y251356D01*
X281246Y252601D01*
X281422Y253937D01*
X281246Y255273D01*
X280731Y256518D01*
X279910Y257587D01*
X278841Y258408D01*
X277596Y258923D01*
X276260Y259099D01*
D02*
G37*
G36*
X511417Y258292D02*
X510698Y258197D01*
X510028Y257919D01*
X509452Y257477D01*
X509010Y256902D01*
X508732Y256231D01*
X508638Y255512D01*
X508714Y254929D01*
X508409Y254429D01*
X508268D01*
Y246752D01*
X514567D01*
Y254429D01*
X514426D01*
X514120Y254929D01*
X514197Y255512D01*
X514102Y256231D01*
X513825Y256902D01*
X513383Y257477D01*
X512807Y257919D01*
X512137Y258197D01*
X511417Y258292D01*
D02*
G37*
G36*
X565158Y253075D02*
X564438Y252980D01*
X563768Y252702D01*
X563192Y252261D01*
X562750Y251685D01*
X562472Y251015D01*
X562378Y250295D01*
X562442Y249811D01*
X562092Y249311D01*
X562008D01*
Y241634D01*
X568307D01*
Y249311D01*
X568223D01*
X567873Y249811D01*
X567937Y250295D01*
X567842Y251015D01*
X567565Y251685D01*
X567123Y252261D01*
X566547Y252702D01*
X565877Y252980D01*
X565158Y253075D01*
D02*
G37*
G36*
X486122Y256496D02*
X478445D01*
Y250197D01*
X480578D01*
Y248228D01*
X480707Y247575D01*
X481077Y247022D01*
X484292Y243807D01*
X484085Y243307D01*
X483169D01*
Y241773D01*
X482891Y241623D01*
X482669Y241574D01*
X482148Y241974D01*
X481477Y242252D01*
X480758Y242347D01*
X480038Y242252D01*
X479535Y242044D01*
X479035Y242295D01*
Y242618D01*
X471555D01*
Y236516D01*
X479035D01*
Y236839D01*
X479535Y237090D01*
X480038Y236882D01*
X480758Y236787D01*
X481477Y236882D01*
X482148Y237160D01*
X482669Y237560D01*
X482891Y237511D01*
X483169Y237361D01*
Y235827D01*
X489272D01*
Y243307D01*
X487926D01*
Y244291D01*
X487797Y244944D01*
X487427Y245498D01*
X483989Y248935D01*
Y250197D01*
X486122D01*
Y256496D01*
D02*
G37*
G36*
X596654Y250394D02*
X588976D01*
Y244094D01*
X590810D01*
X590985Y243595D01*
X589345Y241954D01*
X588975Y241401D01*
X588845Y240748D01*
Y237992D01*
X587598D01*
Y230512D01*
X593701D01*
Y232546D01*
X597047D01*
Y231201D01*
X604528D01*
Y232546D01*
X606299D01*
X606952Y232676D01*
X607506Y233046D01*
X611639Y237179D01*
X612009Y237733D01*
X612139Y238386D01*
Y240749D01*
X612399Y240948D01*
X612840Y241524D01*
X613118Y242194D01*
X613213Y242913D01*
X613118Y243633D01*
X612840Y244303D01*
X612399Y244879D01*
X611823Y245321D01*
X611153Y245598D01*
X610433Y245693D01*
X609714Y245598D01*
X609043Y245321D01*
X608467Y244879D01*
X608026Y244303D01*
X607748Y243633D01*
X607653Y242913D01*
X607748Y242194D01*
X608026Y241524D01*
X608467Y240948D01*
X608727Y240749D01*
Y239092D01*
X605593Y235958D01*
X604528D01*
Y237303D01*
X597047D01*
Y235958D01*
X593701D01*
Y237992D01*
X592257D01*
Y240041D01*
X594021Y241806D01*
X594391Y242359D01*
X594521Y243012D01*
Y244094D01*
X596654D01*
Y250394D01*
D02*
G37*
G36*
X497342Y256496D02*
X489665D01*
Y250197D01*
X491798D01*
Y243307D01*
X490453D01*
Y235827D01*
X496555D01*
Y237861D01*
X498819D01*
Y236417D01*
X506299D01*
Y237762D01*
X508268D01*
Y235531D01*
X514567D01*
Y237625D01*
X524581D01*
X525358Y237105D01*
X525458Y237086D01*
Y236576D01*
X525358Y236556D01*
X524577Y236034D01*
X524054Y235252D01*
X523871Y234331D01*
X524054Y233409D01*
X524577Y232628D01*
X525358Y232105D01*
X525458Y232086D01*
Y231576D01*
X525358Y231556D01*
X524577Y231034D01*
X524054Y230252D01*
X523871Y229331D01*
X524054Y228409D01*
X524577Y227628D01*
X525358Y227105D01*
X525458Y227086D01*
Y226576D01*
X525358Y226556D01*
X524577Y226034D01*
X524539Y225978D01*
X509842D01*
Y226575D01*
X503543D01*
Y225919D01*
X503150D01*
X502497Y225789D01*
X501943Y225419D01*
X500762Y224238D01*
X500392Y223684D01*
X500262Y223031D01*
Y204528D01*
X500392Y203875D01*
X500762Y203321D01*
X508333Y195750D01*
Y163517D01*
X508308Y163502D01*
X507808Y163780D01*
Y194488D01*
X507679Y195141D01*
X507309Y195695D01*
X497769Y205234D01*
Y214370D01*
X499213D01*
Y219094D01*
X492913D01*
Y214370D01*
X494357D01*
Y204528D01*
X494487Y203875D01*
X494857Y203321D01*
X504396Y193782D01*
Y154330D01*
X504137Y154131D01*
X503695Y153555D01*
X503417Y152885D01*
X503323Y152165D01*
X503417Y151446D01*
X503695Y150776D01*
X504137Y150200D01*
X504712Y149758D01*
X505383Y149480D01*
X506102Y149386D01*
X506822Y149480D01*
X507492Y149758D01*
X508068Y150200D01*
X508510Y150776D01*
X508787Y151446D01*
X508882Y152165D01*
X508787Y152885D01*
X508510Y153555D01*
X508068Y154131D01*
X507808Y154330D01*
Y158435D01*
X508308Y158681D01*
X508649Y158420D01*
X509320Y158142D01*
X510039Y158047D01*
X510759Y158142D01*
X511429Y158420D01*
X512005Y158861D01*
X512447Y159437D01*
X512724Y160107D01*
X512819Y160827D01*
X512724Y161546D01*
X512447Y162217D01*
X512005Y162792D01*
X511745Y162991D01*
Y196457D01*
X511616Y197109D01*
X511246Y197663D01*
X503720Y205189D01*
X503755Y205475D01*
X504267Y205545D01*
X504286Y205500D01*
X504727Y204924D01*
X505303Y204483D01*
X505973Y204205D01*
X506693Y204110D01*
X507412Y204205D01*
X508083Y204483D01*
X508659Y204924D01*
X509100Y205500D01*
X509378Y206170D01*
X509473Y206890D01*
X509378Y207609D01*
X509100Y208280D01*
X508659Y208855D01*
X508399Y209054D01*
Y214370D01*
X509842D01*
Y216019D01*
X510039Y216437D01*
X517520D01*
Y217610D01*
X517935Y217888D01*
X518178Y217788D01*
X518898Y217693D01*
X519617Y217788D01*
X520288Y218065D01*
X520863Y218507D01*
X521305Y219083D01*
X521583Y219753D01*
X521677Y220472D01*
X521583Y221192D01*
X521305Y221862D01*
X521149Y222066D01*
X521395Y222566D01*
X524669D01*
X525358Y222106D01*
X526279Y221922D01*
X529626D01*
X530548Y222106D01*
X531329Y222628D01*
X531652Y223111D01*
X532152Y222960D01*
Y212911D01*
X521038Y201797D01*
X520668Y201243D01*
X520538Y200590D01*
Y41238D01*
X520276Y40846D01*
X520038Y40846D01*
X519448D01*
X519114Y41346D01*
X519220Y41603D01*
X519315Y42323D01*
X519220Y43042D01*
X518943Y43713D01*
X518501Y44288D01*
X517925Y44730D01*
X517255Y45008D01*
X516535Y45103D01*
X515816Y45008D01*
X515146Y44730D01*
X514570Y44288D01*
X514128Y43713D01*
X513850Y43042D01*
X513756Y42323D01*
X513850Y41603D01*
X513957Y41346D01*
X513623Y40846D01*
X512795D01*
Y34744D01*
X520038D01*
X520276Y34744D01*
X520538Y34353D01*
Y33954D01*
X520276Y33563D01*
X520038Y33563D01*
X512795D01*
Y27461D01*
X514829D01*
Y17717D01*
X513976D01*
Y11811D01*
X518988D01*
X519095Y11811D01*
X519488D01*
X519594Y11811D01*
X524606D01*
Y17717D01*
X523950D01*
Y199884D01*
X534446Y210380D01*
X534908Y210189D01*
Y174802D01*
X534649Y174603D01*
X534207Y174028D01*
X533929Y173357D01*
X533835Y172638D01*
X533929Y171918D01*
X534207Y171248D01*
X534649Y170672D01*
X535224Y170230D01*
X535895Y169953D01*
X536614Y169858D01*
X537334Y169953D01*
X538004Y170230D01*
X538580Y170672D01*
X539021Y171248D01*
X539299Y171918D01*
X539394Y172638D01*
X539299Y173357D01*
X539021Y174028D01*
X538580Y174603D01*
X538320Y174802D01*
Y204080D01*
X538820Y204379D01*
X539241Y204205D01*
X539961Y204110D01*
X540680Y204205D01*
X540904Y204298D01*
X541404Y203964D01*
Y171250D01*
X541145Y171051D01*
X540703Y170476D01*
X540425Y169805D01*
X540331Y169086D01*
X540425Y168366D01*
X540703Y167696D01*
X541145Y167120D01*
X541720Y166679D01*
X542391Y166401D01*
X543110Y166306D01*
X543830Y166401D01*
X544500Y166679D01*
X545076Y167120D01*
X545517Y167696D01*
X545795Y168366D01*
X545890Y169086D01*
X545795Y169805D01*
X545517Y170476D01*
X545076Y171051D01*
X544816Y171250D01*
Y226852D01*
X545588Y227625D01*
X546038D01*
X546814Y227105D01*
X546915Y227086D01*
Y226576D01*
X546814Y226556D01*
X546033Y226034D01*
X545511Y225252D01*
X545328Y224331D01*
X545511Y223409D01*
X546033Y222628D01*
X546814Y222106D01*
X546915Y222086D01*
Y221576D01*
X546814Y221556D01*
X546033Y221034D01*
X545511Y220252D01*
X545328Y219331D01*
X545511Y218409D01*
X546033Y217628D01*
X546814Y217106D01*
X547703Y216929D01*
Y166732D01*
X547444Y166533D01*
X547002Y165957D01*
X546725Y165286D01*
X546630Y164567D01*
X546725Y163847D01*
X547002Y163177D01*
X547444Y162601D01*
X548020Y162160D01*
X548690Y161882D01*
X549409Y161787D01*
X550129Y161882D01*
X550799Y162160D01*
X551375Y162601D01*
X551817Y163177D01*
X552094Y163847D01*
X552189Y164567D01*
X552094Y165286D01*
X551817Y165957D01*
X551375Y166533D01*
X551115Y166732D01*
Y216929D01*
X552004Y217106D01*
X552786Y217628D01*
X553308Y218409D01*
X553491Y219331D01*
X553308Y220252D01*
X552786Y221034D01*
X552004Y221556D01*
X551904Y221576D01*
Y222086D01*
X552004Y222106D01*
X552781Y222625D01*
X561811D01*
Y220472D01*
X568110D01*
Y222605D01*
X570276D01*
Y221260D01*
X577756D01*
Y222605D01*
X580315D01*
Y220669D01*
X581660D01*
Y219900D01*
X580388Y218628D01*
X580018Y218074D01*
X579888Y217421D01*
Y214370D01*
X577756D01*
Y208071D01*
X585433D01*
Y214370D01*
X583300D01*
Y216715D01*
X584573Y217987D01*
X584942Y218540D01*
X585072Y219193D01*
Y220669D01*
X586417D01*
Y228150D01*
X580315D01*
Y226017D01*
X577756D01*
Y227362D01*
X570276D01*
Y226017D01*
X568110D01*
Y228150D01*
X561811D01*
Y226037D01*
X552781D01*
X552004Y226556D01*
X551904Y226576D01*
Y227086D01*
X552004Y227105D01*
X552786Y227628D01*
X553308Y228409D01*
X553491Y229331D01*
X553308Y230252D01*
X552786Y231034D01*
X552004Y231556D01*
X551904Y231576D01*
Y232086D01*
X552004Y232105D01*
X552781Y232625D01*
X562008D01*
Y230413D01*
X568307D01*
Y232546D01*
X570472D01*
Y231201D01*
X577953D01*
Y232546D01*
X580315D01*
Y230512D01*
X586417D01*
Y237992D01*
X585072D01*
Y241240D01*
X584942Y241893D01*
X584573Y242446D01*
X583425Y243595D01*
X583600Y244094D01*
X585433D01*
Y250394D01*
X577756D01*
Y244094D01*
X579888D01*
Y243012D01*
X580018Y242359D01*
X580388Y241806D01*
X581660Y240533D01*
Y237992D01*
X580315D01*
Y235958D01*
X577953D01*
Y237303D01*
X570472D01*
Y235958D01*
X568307D01*
Y238090D01*
X562008D01*
Y236037D01*
X552781D01*
X552004Y236556D01*
X551904Y236576D01*
Y237086D01*
X552004Y237105D01*
X552786Y237628D01*
X553308Y238409D01*
X553491Y239331D01*
X553308Y240252D01*
X552786Y241034D01*
X552004Y241556D01*
X551083Y241739D01*
X547736D01*
X546814Y241556D01*
X546033Y241034D01*
X545511Y240252D01*
X545328Y239331D01*
X545511Y238409D01*
X546033Y237628D01*
X546814Y237105D01*
X546915Y237086D01*
Y236576D01*
X546814Y236556D01*
X546033Y236034D01*
X545511Y235252D01*
X545328Y234331D01*
X545511Y233409D01*
X546033Y232628D01*
X546814Y232105D01*
X546915Y232086D01*
Y231576D01*
X546814Y231556D01*
X546038Y231037D01*
X544882D01*
X544229Y230907D01*
X543676Y230537D01*
X542167Y229028D01*
X541667Y229235D01*
Y243307D01*
X541537Y243960D01*
X541167Y244513D01*
X535143Y250537D01*
X534590Y250907D01*
X533937Y251037D01*
X531325D01*
X530548Y251556D01*
X529626Y251739D01*
X526279D01*
X525358Y251556D01*
X524577Y251034D01*
X524054Y250252D01*
X523871Y249331D01*
X524054Y248409D01*
X524577Y247628D01*
X525358Y247106D01*
X525458Y247086D01*
Y246576D01*
X525358Y246556D01*
X524577Y246034D01*
X524054Y245252D01*
X523871Y244331D01*
X524054Y243409D01*
X524577Y242628D01*
X525358Y242106D01*
X525458Y242086D01*
Y241576D01*
X525358Y241556D01*
X524581Y241037D01*
X514567D01*
Y243209D01*
X508268D01*
Y241175D01*
X506299D01*
Y242520D01*
X498819D01*
Y241273D01*
X496555D01*
Y243307D01*
X495210D01*
Y250197D01*
X497342D01*
Y256496D01*
D02*
G37*
G36*
X420866Y247047D02*
X416142D01*
Y241409D01*
X416097Y241351D01*
X415819Y240680D01*
X415724Y239961D01*
X415819Y239241D01*
X416097Y238571D01*
X416459Y238098D01*
X416349Y237748D01*
X416234Y237598D01*
X415354D01*
Y230118D01*
X421457D01*
Y237598D01*
X420774D01*
X420659Y237748D01*
X420549Y238098D01*
X420911Y238571D01*
X421189Y239241D01*
X421284Y239961D01*
X421189Y240680D01*
X420911Y241351D01*
X420866Y241409D01*
Y247047D01*
D02*
G37*
G36*
X496063Y232701D02*
X495344Y232606D01*
X494673Y232329D01*
X494098Y231887D01*
X493656Y231311D01*
X493378Y230641D01*
X493283Y229921D01*
X493378Y229202D01*
X493656Y228531D01*
X494098Y227956D01*
X494156Y227911D01*
Y226575D01*
X492913D01*
Y221850D01*
X499213D01*
Y226575D01*
X497970D01*
Y227911D01*
X498029Y227956D01*
X498470Y228531D01*
X498748Y229202D01*
X498843Y229921D01*
X498748Y230641D01*
X498470Y231311D01*
X498029Y231887D01*
X497453Y232329D01*
X496782Y232606D01*
X496063Y232701D01*
D02*
G37*
G36*
X593701Y228150D02*
X587598D01*
Y220669D01*
X588944D01*
Y219390D01*
X589074Y218737D01*
X589443Y218183D01*
X591109Y216518D01*
Y214370D01*
X588976D01*
Y208071D01*
X596654D01*
Y214370D01*
X594521D01*
Y217224D01*
X594391Y217877D01*
X594021Y218431D01*
X592356Y220096D01*
Y220669D01*
X593701D01*
Y222605D01*
X596850D01*
Y221260D01*
X604331D01*
Y222605D01*
X609056D01*
X609255Y222345D01*
X609831Y221904D01*
X610501Y221626D01*
X611221Y221531D01*
X611940Y221626D01*
X612610Y221904D01*
X613186Y222345D01*
X613628Y222921D01*
X613905Y223592D01*
X614000Y224311D01*
X613905Y225030D01*
X613628Y225701D01*
X613186Y226276D01*
X612610Y226718D01*
X611940Y226996D01*
X611221Y227091D01*
X610501Y226996D01*
X609831Y226718D01*
X609255Y226276D01*
X609056Y226017D01*
X604331D01*
Y227362D01*
X596850D01*
Y226017D01*
X593701D01*
Y228150D01*
D02*
G37*
G36*
X340197Y246071D02*
X330827D01*
Y229913D01*
X333290D01*
X333497Y229413D01*
X332160Y228076D01*
X331790Y227523D01*
X331660Y226870D01*
Y226378D01*
X330315D01*
Y218898D01*
X336417D01*
Y220932D01*
X337303D01*
Y219488D01*
X344980D01*
Y225787D01*
X337303D01*
Y224344D01*
X336417D01*
Y226378D01*
X335940D01*
X335749Y226840D01*
X336718Y227809D01*
X337088Y228363D01*
X337218Y229016D01*
Y229913D01*
X340197D01*
Y246071D01*
D02*
G37*
G36*
X400787Y210433D02*
X394882D01*
Y209777D01*
X384449D01*
Y210433D01*
X378543D01*
Y205709D01*
X384449D01*
Y206365D01*
X387598D01*
Y201969D01*
X388845D01*
Y196653D01*
X386024D01*
Y195112D01*
X379724D01*
Y196260D01*
X375000D01*
Y195013D01*
X372047D01*
X371847Y195273D01*
X371272Y195714D01*
X370601Y195992D01*
X369882Y196087D01*
X369163Y195992D01*
X368492Y195714D01*
X367916Y195273D01*
X367475Y194697D01*
X367197Y194027D01*
X367102Y193307D01*
X367197Y192588D01*
X367475Y191917D01*
X367916Y191342D01*
X368492Y190900D01*
X369163Y190622D01*
X369882Y190527D01*
X370601Y190622D01*
X371272Y190900D01*
X371847Y191342D01*
X372047Y191601D01*
X375000D01*
Y190354D01*
X379724D01*
Y191700D01*
X386024D01*
Y190157D01*
X395079D01*
Y195094D01*
X395579Y195263D01*
X395869Y194885D01*
X396445Y194443D01*
X397115Y194165D01*
X397835Y194071D01*
X398554Y194165D01*
X399224Y194443D01*
X399800Y194885D01*
X400242Y195460D01*
X400520Y196131D01*
X400614Y196850D01*
X400520Y197570D01*
X400419Y197813D01*
X400697Y198228D01*
X400787D01*
Y202953D01*
X394882D01*
Y198228D01*
X394972D01*
X395250Y197813D01*
X395150Y197570D01*
X395094Y197147D01*
X395055Y196850D01*
X394577Y196653D01*
X392257D01*
Y201969D01*
X393504D01*
Y206365D01*
X394882D01*
Y205709D01*
X400787D01*
Y206365D01*
X401852D01*
X403937Y204280D01*
Y201969D01*
X409842D01*
Y202625D01*
X411811D01*
Y200591D01*
X417913D01*
Y208071D01*
X411811D01*
Y206037D01*
X409842D01*
Y206693D01*
X406350D01*
X403765Y209277D01*
X403212Y209647D01*
X402559Y209777D01*
X400787D01*
Y210433D01*
D02*
G37*
G36*
X568110Y216929D02*
X561811D01*
Y209252D01*
X561895D01*
X562245Y208752D01*
X562181Y208268D01*
X562276Y207548D01*
X562553Y206878D01*
X562995Y206302D01*
X563571Y205860D01*
X564241Y205583D01*
X564961Y205488D01*
X565680Y205583D01*
X566351Y205860D01*
X566926Y206302D01*
X567368Y206878D01*
X567646Y207548D01*
X567740Y208268D01*
X567677Y208752D01*
X568026Y209252D01*
X568110D01*
Y216929D01*
D02*
G37*
G36*
X425197Y208071D02*
X419095D01*
Y200591D01*
X425197D01*
Y202625D01*
X436024D01*
Y202067D01*
X443110D01*
Y206594D01*
X436024D01*
Y206037D01*
X425197D01*
Y208071D01*
D02*
G37*
G36*
X169606Y214643D02*
X168101Y214495D01*
X166654Y214056D01*
X165321Y213343D01*
X164152Y212384D01*
X163192Y211215D01*
X162479Y209881D01*
X162040Y208434D01*
X161892Y206929D01*
X162040Y205424D01*
X162479Y203977D01*
X163192Y202643D01*
X164152Y201474D01*
X165321Y200515D01*
X166654Y199802D01*
X168101Y199363D01*
X169606Y199215D01*
X171111Y199363D01*
X172558Y199802D01*
X173892Y200515D01*
X175061Y201474D01*
X176021Y202643D01*
X176733Y203977D01*
X177172Y205424D01*
X177321Y206929D01*
X177172Y208434D01*
X176733Y209881D01*
X176021Y211215D01*
X175061Y212384D01*
X173892Y213343D01*
X172558Y214056D01*
X171111Y214495D01*
X169606Y214643D01*
D02*
G37*
G36*
X377165Y203370D02*
X376446Y203275D01*
X375776Y202998D01*
X375200Y202556D01*
X374758Y201980D01*
X374480Y201310D01*
X374386Y200591D01*
X374480Y199871D01*
X374758Y199201D01*
X375200Y198625D01*
X375776Y198183D01*
X376446Y197906D01*
X377165Y197811D01*
X377885Y197906D01*
X378555Y198183D01*
X378614Y198228D01*
X384449D01*
Y202953D01*
X378614D01*
X378555Y202998D01*
X377885Y203275D01*
X377165Y203370D01*
D02*
G37*
G36*
X375984Y187205D02*
X371260D01*
Y181299D01*
X371916D01*
Y174802D01*
X371656Y174603D01*
X371215Y174028D01*
X370937Y173357D01*
X370842Y172638D01*
X370937Y171918D01*
X371215Y171248D01*
X371656Y170672D01*
X372232Y170230D01*
X372903Y169953D01*
X373622Y169858D01*
X374342Y169953D01*
X375012Y170230D01*
X375588Y170672D01*
X376029Y171248D01*
X376307Y171918D01*
X376402Y172638D01*
X376307Y173357D01*
X376029Y174028D01*
X375588Y174603D01*
X375328Y174802D01*
Y181299D01*
X375984D01*
Y187205D01*
D02*
G37*
G36*
X360197Y246071D02*
X350827D01*
Y243315D01*
X350477Y243027D01*
X349591Y241948D01*
X348933Y240717D01*
X348528Y239381D01*
X348391Y237992D01*
Y176969D01*
X348528Y175579D01*
X348933Y174243D01*
X349591Y173012D01*
X350477Y171933D01*
X351556Y171048D01*
X352787Y170390D01*
X354123Y169984D01*
X355512Y169848D01*
X356901Y169984D01*
X358237Y170390D01*
X359468Y171048D01*
X360547Y171933D01*
X361433Y173012D01*
X362091Y174243D01*
X362496Y175579D01*
X362633Y176969D01*
Y237992D01*
X362496Y239381D01*
X362091Y240717D01*
X361433Y241948D01*
X360547Y243027D01*
X360197Y243315D01*
Y246071D01*
D02*
G37*
G36*
X169606Y184643D02*
X168101Y184495D01*
X166654Y184056D01*
X165321Y183343D01*
X164152Y182384D01*
X163192Y181215D01*
X162479Y179881D01*
X162040Y178434D01*
X161892Y176929D01*
X162040Y175424D01*
X162479Y173977D01*
X163192Y172643D01*
X164152Y171474D01*
X165321Y170515D01*
X166654Y169802D01*
X168101Y169363D01*
X169606Y169215D01*
X171111Y169363D01*
X172558Y169802D01*
X173892Y170515D01*
X175061Y171474D01*
X176021Y172643D01*
X176733Y173977D01*
X177172Y175424D01*
X177321Y176929D01*
X177172Y178434D01*
X176733Y179881D01*
X176021Y181215D01*
X175061Y182384D01*
X173892Y183343D01*
X172558Y184056D01*
X171111Y184495D01*
X169606Y184643D01*
D02*
G37*
G36*
X306102Y209669D02*
X305383Y209575D01*
X304713Y209297D01*
X304137Y208855D01*
X303695Y208280D01*
X303417Y207609D01*
X303323Y206890D01*
X303417Y206170D01*
X303695Y205500D01*
X304137Y204924D01*
X304396Y204725D01*
Y139940D01*
X304137Y139741D01*
X303695Y139165D01*
X303417Y138495D01*
X303323Y137776D01*
X303417Y137056D01*
X303695Y136386D01*
X304137Y135810D01*
X304713Y135368D01*
X305383Y135091D01*
X306102Y134996D01*
X306822Y135091D01*
X307492Y135368D01*
X308068Y135810D01*
X308510Y136386D01*
X308787Y137056D01*
X308882Y137776D01*
X308787Y138495D01*
X308510Y139165D01*
X308068Y139741D01*
X307808Y139940D01*
Y163356D01*
X308308Y163602D01*
X308649Y163341D01*
X309320Y163063D01*
X310039Y162968D01*
X310759Y163063D01*
X311429Y163341D01*
X311689Y163540D01*
X312992D01*
Y162008D01*
X319094D01*
Y169488D01*
X312992D01*
Y167956D01*
X311689D01*
X311429Y168155D01*
X310759Y168433D01*
X310039Y168528D01*
X309320Y168433D01*
X308649Y168155D01*
X308308Y167894D01*
X307808Y168140D01*
Y204725D01*
X308068Y204924D01*
X308510Y205500D01*
X308787Y206170D01*
X308882Y206890D01*
X308787Y207609D01*
X308510Y208280D01*
X308068Y208855D01*
X307492Y209297D01*
X306822Y209575D01*
X306102Y209669D01*
D02*
G37*
G36*
X236260Y259099D02*
X234924Y258923D01*
X233679Y258408D01*
X232610Y257587D01*
X231789Y256518D01*
X231274Y255273D01*
X231098Y253937D01*
X231274Y252601D01*
X231789Y251356D01*
X232610Y250287D01*
X233679Y249466D01*
X234353Y249187D01*
Y183622D01*
X234498Y182892D01*
X234912Y182274D01*
X253507Y163679D01*
Y155745D01*
X253007Y155646D01*
X252821Y156095D01*
X252379Y156670D01*
X251803Y157112D01*
X251133Y157390D01*
X250413Y157484D01*
X249694Y157390D01*
X249024Y157112D01*
X248448Y156670D01*
X248006Y156095D01*
X247728Y155424D01*
X247634Y154705D01*
X247728Y153985D01*
X248006Y153315D01*
X248448Y152739D01*
X248507Y152694D01*
Y148642D01*
X248188Y148166D01*
X248005Y147244D01*
Y143898D01*
X248188Y142976D01*
X248710Y142195D01*
X249492Y141673D01*
X250413Y141489D01*
X251335Y141673D01*
X252116Y142195D01*
X252639Y142976D01*
X252659Y143076D01*
X253168D01*
X253188Y142976D01*
X253710Y142195D01*
X254492Y141673D01*
X255413Y141489D01*
X256335Y141673D01*
X257116Y142195D01*
X257639Y142976D01*
X257659Y143076D01*
X258168D01*
X258188Y142976D01*
X258710Y142195D01*
X259492Y141673D01*
X260413Y141489D01*
X261335Y141673D01*
X262116Y142195D01*
X262638Y142976D01*
X262659Y143076D01*
X263168D01*
X263188Y142976D01*
X263710Y142195D01*
X264492Y141673D01*
X265413Y141489D01*
X266335Y141673D01*
X267116Y142195D01*
X267638Y142976D01*
X267658Y143076D01*
X268168D01*
X268188Y142976D01*
X268710Y142195D01*
X269492Y141673D01*
X270413Y141489D01*
X271335Y141673D01*
X272116Y142195D01*
X272639Y142976D01*
X272658Y143076D01*
X273168D01*
X273188Y142976D01*
X273710Y142195D01*
X274492Y141673D01*
X275413Y141489D01*
X276335Y141673D01*
X277116Y142195D01*
X277639Y142976D01*
X277659Y143076D01*
X278168D01*
X278188Y142976D01*
X278710Y142195D01*
X279492Y141673D01*
X280413Y141489D01*
X281335Y141673D01*
X282116Y142195D01*
X282448Y142692D01*
X283066Y142758D01*
X283215Y142596D01*
Y142385D01*
X283026Y142138D01*
X282748Y141467D01*
X282653Y140748D01*
X282748Y140029D01*
X283026Y139358D01*
X283468Y138783D01*
X284043Y138341D01*
X284714Y138063D01*
X285433Y137968D01*
X286153Y138063D01*
X286823Y138341D01*
X287399Y138783D01*
X287840Y139358D01*
X288118Y140029D01*
X288213Y140748D01*
X288118Y141467D01*
X287840Y142138D01*
X287631Y142411D01*
Y142965D01*
X287638Y142976D01*
X287822Y143898D01*
Y147244D01*
X287638Y148166D01*
X287631Y148177D01*
Y148731D01*
X287840Y149004D01*
X288118Y149674D01*
X288213Y150394D01*
X288118Y151113D01*
X287840Y151784D01*
X287399Y152359D01*
X286823Y152801D01*
X286153Y153079D01*
X285433Y153173D01*
X284714Y153079D01*
X284043Y152801D01*
X283468Y152359D01*
X283026Y151784D01*
X282748Y151113D01*
X282653Y150394D01*
X282748Y149674D01*
X283026Y149004D01*
X283215Y148757D01*
Y148206D01*
X283188Y148166D01*
X283168Y148065D01*
X282659D01*
X282639Y148166D01*
X282116Y148947D01*
X281335Y149469D01*
X280413Y149653D01*
X279492Y149469D01*
X278710Y148947D01*
X278188Y148166D01*
X278168Y148065D01*
X277659D01*
X277639Y148166D01*
X277116Y148947D01*
X276335Y149469D01*
X275413Y149653D01*
X274492Y149469D01*
X273710Y148947D01*
X273188Y148166D01*
X273168Y148065D01*
X272658D01*
X272639Y148166D01*
X272116Y148947D01*
X271335Y149469D01*
X270413Y149653D01*
X269492Y149469D01*
X268710Y148947D01*
X268188Y148166D01*
X268168Y148065D01*
X267658D01*
X267638Y148166D01*
X267116Y148947D01*
X266335Y149469D01*
X265413Y149653D01*
X264492Y149469D01*
X263710Y148947D01*
X263188Y148166D01*
X263168Y148065D01*
X262659D01*
X262638Y148166D01*
X262320Y148642D01*
Y157064D01*
X262379Y157109D01*
X262821Y157685D01*
X263098Y158355D01*
X263193Y159075D01*
X263098Y159794D01*
X262821Y160465D01*
X262379Y161040D01*
X261803Y161482D01*
X261133Y161760D01*
X260413Y161855D01*
X259694Y161760D01*
X259023Y161482D01*
X258448Y161040D01*
X258006Y160465D01*
X257820Y160016D01*
X257320Y160115D01*
Y164469D01*
X257175Y165198D01*
X256762Y165817D01*
X238167Y184412D01*
Y249187D01*
X238841Y249466D01*
X239910Y250287D01*
X240731Y251356D01*
X241246Y252601D01*
X241422Y253937D01*
X241246Y255273D01*
X240731Y256518D01*
X239910Y257587D01*
X238841Y258408D01*
X237596Y258923D01*
X236260Y259099D01*
D02*
G37*
G36*
X381878Y162608D02*
X374516D01*
Y152746D01*
X381878D01*
Y162608D01*
D02*
G37*
G36*
X370276Y158291D02*
X369556Y158197D01*
X368886Y157919D01*
X368310Y157477D01*
X367868Y156902D01*
X367591Y156231D01*
X367496Y155512D01*
X367591Y154792D01*
X367868Y154122D01*
X368310Y153546D01*
X368570Y153347D01*
Y152195D01*
X368070Y151949D01*
X367728Y152210D01*
X367058Y152488D01*
X366339Y152583D01*
X365619Y152488D01*
X364949Y152210D01*
X364373Y151769D01*
X363931Y151193D01*
X363654Y150523D01*
X363559Y149803D01*
X363654Y149084D01*
X363931Y148413D01*
X364373Y147838D01*
X364633Y147638D01*
Y121395D01*
X364133Y121149D01*
X363791Y121411D01*
X363121Y121688D01*
X362402Y121783D01*
X361682Y121688D01*
X361012Y121411D01*
X360436Y120969D01*
X359994Y120393D01*
X359717Y119723D01*
X359622Y119003D01*
X359717Y118284D01*
X359994Y117613D01*
X360436Y117038D01*
X360696Y116839D01*
Y98818D01*
X360436Y98619D01*
X359994Y98043D01*
X359717Y97373D01*
X359622Y96653D01*
X359717Y95934D01*
X359994Y95264D01*
X360436Y94688D01*
X361012Y94246D01*
X361682Y93969D01*
X362402Y93874D01*
X363121Y93969D01*
X363791Y94246D01*
X364133Y94508D01*
X364633Y94261D01*
Y89566D01*
X364373Y89367D01*
X363931Y88791D01*
X363654Y88121D01*
X363559Y87402D01*
X363654Y86682D01*
X363931Y86012D01*
X364373Y85436D01*
X364949Y84994D01*
X365619Y84717D01*
X366339Y84622D01*
X367058Y84717D01*
X367728Y84994D01*
X368304Y85436D01*
X368746Y86012D01*
X369023Y86682D01*
X369118Y87402D01*
X369023Y88121D01*
X368746Y88791D01*
X368304Y89367D01*
X368045Y89566D01*
Y98002D01*
X368545Y98248D01*
X368886Y97986D01*
X369556Y97709D01*
X370276Y97614D01*
X370995Y97709D01*
X371665Y97986D01*
X372241Y98428D01*
X372683Y99004D01*
X372961Y99674D01*
X373055Y100394D01*
X372961Y101113D01*
X372683Y101784D01*
X372241Y102359D01*
X371982Y102558D01*
Y153347D01*
X372241Y153546D01*
X372683Y154122D01*
X372961Y154792D01*
X373055Y155512D01*
X372961Y156231D01*
X372683Y156902D01*
X372241Y157477D01*
X371665Y157919D01*
X370995Y158197D01*
X370276Y158291D01*
D02*
G37*
G36*
X381878Y150108D02*
X374516D01*
Y140246D01*
X381878D01*
Y150108D01*
D02*
G37*
G36*
X320079Y140969D02*
X319359Y140874D01*
X318689Y140596D01*
X318113Y140155D01*
X317671Y139579D01*
X317394Y138908D01*
X317299Y138189D01*
X317394Y137470D01*
X317671Y136799D01*
X318113Y136223D01*
X318689Y135782D01*
X319359Y135504D01*
X320079Y135409D01*
X320798Y135504D01*
X321469Y135782D01*
X321889Y136105D01*
X321986Y136095D01*
X322002Y136085D01*
X322282Y135563D01*
X322118Y135168D01*
X322024Y134449D01*
X322061Y134161D01*
X321624Y133661D01*
X315748D01*
Y133581D01*
X315248Y133246D01*
X314893Y133394D01*
X314173Y133488D01*
X313454Y133394D01*
X312783Y133116D01*
X312208Y132674D01*
X311766Y132098D01*
X311488Y131428D01*
X311394Y130709D01*
X311488Y129989D01*
X311766Y129319D01*
X312208Y128743D01*
X312783Y128301D01*
X313454Y128024D01*
X314173Y127929D01*
X314893Y128024D01*
X315248Y128171D01*
X315748Y127837D01*
Y127559D01*
X323228D01*
Y129003D01*
X325787D01*
Y128347D01*
X332087D01*
Y132087D01*
Y135827D01*
Y140551D01*
X325787D01*
Y139895D01*
X322243D01*
X322044Y140155D01*
X321469Y140596D01*
X320798Y140874D01*
X320079Y140969D01*
D02*
G37*
G36*
X230610Y128393D02*
X229689Y128209D01*
X228907Y127687D01*
X228385Y126906D01*
X228365Y126806D01*
X227855D01*
X227835Y126906D01*
X227313Y127687D01*
X226532Y128209D01*
X225610Y128393D01*
X224689Y128209D01*
X223907Y127687D01*
X223385Y126906D01*
X223365Y126806D01*
X222855D01*
X222835Y126906D01*
X222313Y127687D01*
X221532Y128209D01*
X220610Y128393D01*
X219689Y128209D01*
X218907Y127687D01*
X218385Y126906D01*
X218365Y126806D01*
X217855D01*
X217835Y126906D01*
X217313Y127687D01*
X216532Y128209D01*
X215610Y128393D01*
X214688Y128209D01*
X213907Y127687D01*
X213385Y126906D01*
X213365Y126806D01*
X212855D01*
X212835Y126906D01*
X212313Y127687D01*
X211532Y128209D01*
X210610Y128393D01*
X209688Y128209D01*
X208907Y127687D01*
X208385Y126906D01*
X208365Y126806D01*
X207855D01*
X207835Y126906D01*
X207313Y127687D01*
X206532Y128209D01*
X205610Y128393D01*
X204689Y128209D01*
X203907Y127687D01*
X203472Y127037D01*
X202972Y127188D01*
Y128347D01*
X198248D01*
Y120276D01*
X198904D01*
Y114547D01*
X199034Y113894D01*
X199404Y113341D01*
X200044Y112701D01*
X199810Y112228D01*
X199803Y112229D01*
X199084Y112134D01*
X198413Y111856D01*
X197838Y111414D01*
X197396Y110839D01*
X197118Y110168D01*
X197023Y109449D01*
X197118Y108729D01*
X197396Y108059D01*
X197838Y107483D01*
X198097Y107284D01*
Y100000D01*
X197441D01*
Y94095D01*
X201837D01*
Y88779D01*
X199803D01*
Y82677D01*
X207283D01*
Y88779D01*
X205249D01*
Y103150D01*
X205906D01*
Y109055D01*
X205249D01*
Y111614D01*
X205189Y111916D01*
X205437Y112271D01*
X205594Y112389D01*
X206231Y112472D01*
X206902Y112750D01*
X207477Y113192D01*
X207919Y113768D01*
X208197Y114438D01*
X208292Y115157D01*
X208197Y115877D01*
X207919Y116547D01*
X207477Y117123D01*
X207267Y117284D01*
Y120904D01*
X207313Y120935D01*
X207835Y121716D01*
X207855Y121816D01*
X208365D01*
X208385Y121716D01*
X208904Y120939D01*
Y117933D01*
X209034Y117280D01*
X209404Y116727D01*
X216576Y109555D01*
X216368Y109055D01*
X216339D01*
Y103150D01*
X216995D01*
Y100000D01*
X212598D01*
Y94362D01*
X212553Y94303D01*
X212276Y93633D01*
X212181Y92913D01*
X212276Y92194D01*
X212553Y91524D01*
X212995Y90948D01*
X213571Y90506D01*
X214241Y90228D01*
X214961Y90134D01*
X215680Y90228D01*
X216351Y90506D01*
X216495Y90617D01*
X216995Y90370D01*
Y88681D01*
X215158D01*
Y82579D01*
X222638D01*
Y88681D01*
X220407D01*
Y103150D01*
X221063D01*
Y106642D01*
X221528Y106761D01*
X221805Y106090D01*
X222247Y105515D01*
X222823Y105073D01*
X223493Y104795D01*
X224213Y104701D01*
X224932Y104795D01*
X225602Y105073D01*
X226178Y105515D01*
X226620Y106090D01*
X226898Y106761D01*
X226992Y107480D01*
X226898Y108200D01*
X226620Y108870D01*
X226178Y109446D01*
X225919Y109645D01*
Y110776D01*
X225789Y111428D01*
X225419Y111982D01*
X224646Y112755D01*
X224853Y113255D01*
X230789D01*
X232152Y111892D01*
Y109055D01*
X231496D01*
Y103150D01*
X232152D01*
Y100000D01*
X227756D01*
Y94095D01*
X228412D01*
Y91535D01*
X228153Y91336D01*
X227711Y90760D01*
X227433Y90089D01*
X227338Y89370D01*
X227433Y88651D01*
X227711Y87980D01*
X228153Y87405D01*
X228728Y86963D01*
X229399Y86685D01*
X230118Y86590D01*
X230837Y86685D01*
X231508Y86963D01*
X231652Y87074D01*
X232152Y86827D01*
Y86024D01*
X230118D01*
Y79921D01*
X237598D01*
Y86024D01*
X235564D01*
Y103150D01*
X236221D01*
Y109055D01*
X235564D01*
Y112598D01*
X235434Y113251D01*
X235065Y113805D01*
X233605Y115264D01*
X233784Y115792D01*
X233987Y115819D01*
X234658Y116097D01*
X235233Y116538D01*
X235675Y117114D01*
X235953Y117785D01*
X236047Y118504D01*
X235953Y119223D01*
X235675Y119894D01*
X235233Y120469D01*
X234658Y120911D01*
X233987Y121189D01*
X233268Y121284D01*
X233136Y121266D01*
X232835Y121716D01*
X233019Y122638D01*
Y125984D01*
X232835Y126906D01*
X232313Y127687D01*
X231532Y128209D01*
X230610Y128393D01*
D02*
G37*
G36*
X326378Y169488D02*
X320276D01*
Y162008D01*
X321719D01*
Y161417D01*
X319685D01*
Y155315D01*
X327165D01*
Y161417D01*
X325131D01*
Y162008D01*
X326378D01*
Y164042D01*
X339045D01*
X339078Y163542D01*
X338847Y163512D01*
X338177Y163234D01*
X337601Y162792D01*
X337160Y162217D01*
X336882Y161546D01*
X336787Y160827D01*
X336882Y160107D01*
X337160Y159437D01*
X337601Y158861D01*
X337861Y158662D01*
Y140551D01*
X336417D01*
Y135827D01*
X342717D01*
Y140551D01*
X341273D01*
Y158662D01*
X341532Y158861D01*
X341974Y159437D01*
X342252Y160107D01*
X342347Y160827D01*
X342252Y161546D01*
X341974Y162217D01*
X341532Y162792D01*
X340957Y163234D01*
X340286Y163512D01*
X340056Y163542D01*
X340089Y164042D01*
X348703D01*
X355971Y156774D01*
Y131102D01*
X355712Y130903D01*
X355270Y130327D01*
X354992Y129656D01*
X354897Y128937D01*
X354992Y128218D01*
X355270Y127547D01*
X355712Y126971D01*
X356287Y126530D01*
X356958Y126252D01*
X357677Y126157D01*
X358397Y126252D01*
X359067Y126530D01*
X359643Y126971D01*
X360084Y127547D01*
X360362Y128218D01*
X360457Y128937D01*
X360362Y129656D01*
X360084Y130327D01*
X359643Y130903D01*
X359383Y131102D01*
Y157480D01*
X359253Y158133D01*
X358884Y158687D01*
X350616Y166954D01*
X350062Y167324D01*
X349410Y167454D01*
X326378D01*
Y169488D01*
D02*
G37*
G36*
X342717Y133071D02*
X336417D01*
Y128347D01*
X337660D01*
Y127404D01*
X337601Y127359D01*
X337160Y126784D01*
X336882Y126113D01*
X336787Y125394D01*
X336882Y124674D01*
X337160Y124004D01*
X337601Y123428D01*
X338177Y122986D01*
X338847Y122709D01*
X339567Y122614D01*
X340286Y122709D01*
X340957Y122986D01*
X341532Y123428D01*
X341974Y124004D01*
X342252Y124674D01*
X342347Y125394D01*
X342252Y126113D01*
X341974Y126784D01*
X341532Y127359D01*
X341474Y127404D01*
Y128347D01*
X342717D01*
Y133071D01*
D02*
G37*
G36*
X250413Y140555D02*
X249694Y140461D01*
X249024Y140183D01*
X248448Y139741D01*
X248006Y139165D01*
X247728Y138495D01*
X247634Y137776D01*
X247728Y137056D01*
X248006Y136386D01*
X248448Y135810D01*
X248707Y135611D01*
Y128150D01*
X248051D01*
Y120079D01*
X252776D01*
Y121237D01*
X253276Y121388D01*
X253710Y120738D01*
X254492Y120216D01*
X255413Y120033D01*
X256335Y120216D01*
X257116Y120738D01*
X257639Y121519D01*
X257659Y121620D01*
X258168D01*
X258188Y121519D01*
X258710Y120738D01*
X259492Y120216D01*
X260413Y120033D01*
X261335Y120216D01*
X262116Y120738D01*
X262638Y121519D01*
X262659Y121620D01*
X263168D01*
X263188Y121519D01*
X263710Y120738D01*
X264492Y120216D01*
X265413Y120033D01*
X266335Y120216D01*
X267116Y120738D01*
X267638Y121519D01*
X267658Y121620D01*
X268168D01*
X268188Y121519D01*
X268710Y120738D01*
X269492Y120216D01*
X270413Y120033D01*
X271335Y120216D01*
X272116Y120738D01*
X272639Y121519D01*
X272658Y121620D01*
X273168D01*
X273188Y121519D01*
X273710Y120738D01*
X274492Y120216D01*
X275413Y120033D01*
X276335Y120216D01*
X277116Y120738D01*
X277639Y121519D01*
X277659Y121620D01*
X278168D01*
X278188Y121519D01*
X278710Y120738D01*
X279492Y120216D01*
X280413Y120033D01*
X281335Y120216D01*
X282116Y120738D01*
X282639Y121519D01*
X282822Y122441D01*
Y125787D01*
X282639Y126709D01*
X282116Y127490D01*
X281335Y128013D01*
X280413Y128196D01*
X279492Y128013D01*
X278710Y127490D01*
X278188Y126709D01*
X278168Y126609D01*
X277659D01*
X277639Y126709D01*
X277116Y127490D01*
X276335Y128013D01*
X275413Y128196D01*
X274492Y128013D01*
X273710Y127490D01*
X273188Y126709D01*
X273168Y126609D01*
X272658D01*
X272639Y126709D01*
X272116Y127490D01*
X271335Y128013D01*
X270413Y128196D01*
X269492Y128013D01*
X268710Y127490D01*
X268188Y126709D01*
X268168Y126609D01*
X267658D01*
X267638Y126709D01*
X267116Y127490D01*
X266335Y128013D01*
X265413Y128196D01*
X264492Y128013D01*
X263710Y127490D01*
X263188Y126709D01*
X263168Y126609D01*
X262659D01*
X262638Y126709D01*
X262119Y127486D01*
Y130296D01*
X262379Y130495D01*
X262821Y131071D01*
X263098Y131741D01*
X263193Y132461D01*
X263098Y133180D01*
X262821Y133851D01*
X262379Y134426D01*
X261803Y134868D01*
X261133Y135146D01*
X260413Y135240D01*
X259694Y135146D01*
X259023Y134868D01*
X258448Y134426D01*
X258006Y133851D01*
X257728Y133180D01*
X257634Y132461D01*
X257728Y131741D01*
X258006Y131071D01*
X258448Y130495D01*
X258707Y130296D01*
Y127486D01*
X258188Y126709D01*
X258168Y126609D01*
X257659D01*
X257639Y126709D01*
X257116Y127490D01*
X256335Y128013D01*
X255413Y128196D01*
X254492Y128013D01*
X253710Y127490D01*
X253276Y126840D01*
X252776Y126991D01*
Y128150D01*
X252119D01*
Y135611D01*
X252379Y135810D01*
X252821Y136386D01*
X253098Y137056D01*
X253193Y137776D01*
X253098Y138495D01*
X252821Y139165D01*
X252379Y139741D01*
X251803Y140183D01*
X251133Y140461D01*
X250413Y140555D01*
D02*
G37*
G36*
X323228Y126378D02*
X315748D01*
Y120276D01*
X316626D01*
X316904Y119860D01*
X316803Y119617D01*
X316708Y118898D01*
X316803Y118178D01*
X317081Y117508D01*
X317523Y116932D01*
X318098Y116490D01*
X318769Y116213D01*
X319488Y116118D01*
X320208Y116213D01*
X320878Y116490D01*
X321454Y116932D01*
X321896Y117508D01*
X322173Y118178D01*
X322268Y118898D01*
X322173Y119617D01*
X322073Y119860D01*
X322350Y120276D01*
X323228D01*
Y126378D01*
D02*
G37*
G36*
X154606Y122091D02*
X153270Y121915D01*
X152025Y121400D01*
X150956Y120579D01*
X150136Y119510D01*
X149620Y118265D01*
X149444Y116929D01*
X149620Y115593D01*
X150136Y114348D01*
X150956Y113279D01*
X152025Y112459D01*
X153270Y111943D01*
X154606Y111767D01*
X155942Y111943D01*
X157187Y112459D01*
X158257Y113279D01*
X159077Y114348D01*
X159593Y115593D01*
X159769Y116929D01*
X159593Y118265D01*
X159077Y119510D01*
X158257Y120579D01*
X157187Y121400D01*
X155942Y121915D01*
X154606Y122091D01*
D02*
G37*
G36*
X339567Y104551D02*
X339567Y104551D01*
X298622Y104551D01*
X298161Y104459D01*
X297771Y104198D01*
X297509Y103807D01*
X297418Y103347D01*
X297418Y94095D01*
X297441Y93978D01*
Y92913D01*
X298506D01*
X298622Y92890D01*
X304226D01*
X304884Y92232D01*
X304677Y91732D01*
X304523Y91732D01*
X297441D01*
Y90979D01*
X296941Y90733D01*
X296862Y90793D01*
X296192Y91071D01*
X295472Y91166D01*
X294753Y91071D01*
X294083Y90793D01*
X293507Y90351D01*
X293065Y89776D01*
X292788Y89105D01*
X292693Y88386D01*
X292788Y87666D01*
X293065Y86996D01*
X293507Y86420D01*
X294083Y85979D01*
X294753Y85701D01*
X295472Y85606D01*
X296192Y85701D01*
X296862Y85979D01*
X296941Y86039D01*
X297441Y85792D01*
Y79528D01*
X304921D01*
Y85630D01*
Y91324D01*
X304921Y91487D01*
X305421Y91695D01*
X307219Y89897D01*
X307219Y89897D01*
X307610Y89635D01*
X308071Y89544D01*
X308071Y89544D01*
X332769Y89544D01*
X335410Y86903D01*
Y82677D01*
X335502Y82216D01*
X335630Y82024D01*
Y81693D01*
X335961D01*
X336153Y81565D01*
X336614Y81473D01*
X343307D01*
X343768Y81565D01*
X343960Y81693D01*
X344291D01*
Y82024D01*
X344420Y82216D01*
X344511Y82677D01*
Y99606D01*
X344420Y100067D01*
X344159Y100458D01*
X340418Y104198D01*
X340418Y104198D01*
X340028Y104459D01*
X339936Y104477D01*
X339567Y104551D01*
D02*
G37*
G36*
X720669Y110856D02*
X718701D01*
X717505Y110739D01*
X716354Y110389D01*
X715294Y109823D01*
X714365Y109060D01*
X713602Y108131D01*
X713036Y107071D01*
X712687Y105921D01*
X712569Y104724D01*
X712687Y103528D01*
X713036Y102378D01*
X713602Y101318D01*
X714365Y100389D01*
X715294Y99626D01*
X716354Y99059D01*
X717505Y98710D01*
X718701Y98593D01*
X720669D01*
X721866Y98710D01*
X723016Y99059D01*
X724076Y99626D01*
X725005Y100389D01*
X725768Y101318D01*
X726334Y102378D01*
X726683Y103528D01*
X726801Y104724D01*
X726683Y105921D01*
X726334Y107071D01*
X725768Y108131D01*
X725005Y109060D01*
X724076Y109823D01*
X723016Y110389D01*
X721866Y110739D01*
X720669Y110856D01*
D02*
G37*
G36*
X414764Y265059D02*
X407283D01*
Y258957D01*
X409318D01*
Y247047D01*
X408661D01*
Y241142D01*
X409318D01*
Y237598D01*
X408071D01*
Y230118D01*
X409318D01*
Y226378D01*
X409447Y225725D01*
X409817Y225172D01*
X414739Y220250D01*
X415292Y219881D01*
X415945Y219751D01*
X456653D01*
X456752Y219251D01*
X456484Y219140D01*
X455908Y218698D01*
X455467Y218122D01*
X455189Y217452D01*
X455094Y216732D01*
X455189Y216013D01*
X455296Y215756D01*
X454961Y215256D01*
X454134D01*
Y209154D01*
X461614D01*
Y215256D01*
X460787D01*
X460453Y215756D01*
X460559Y216013D01*
X460654Y216732D01*
X460559Y217452D01*
X460281Y218122D01*
X459839Y218698D01*
X459264Y219140D01*
X458996Y219251D01*
X459095Y219751D01*
X462679D01*
X493766Y188663D01*
Y83070D01*
X493507Y82871D01*
X493065Y82295D01*
X492954Y82027D01*
X492454Y82126D01*
Y185630D01*
X492324Y186283D01*
X491954Y186836D01*
X472663Y206128D01*
X472110Y206497D01*
X471457Y206627D01*
X461614D01*
Y207972D01*
X454134D01*
Y206851D01*
X453740Y206594D01*
X446654D01*
Y202297D01*
X446063D01*
X445410Y202167D01*
X444857Y201797D01*
X443676Y200616D01*
X443306Y200062D01*
X443209Y199574D01*
X443173Y199407D01*
X442786Y199114D01*
X436024D01*
Y195891D01*
X435827Y195472D01*
X428346D01*
Y195388D01*
X427846Y195039D01*
X427362Y195103D01*
X426643Y195008D01*
X425972Y194730D01*
X425397Y194288D01*
X424955Y193713D01*
X424677Y193042D01*
X424582Y192323D01*
X424677Y191603D01*
X424955Y190933D01*
X425397Y190357D01*
X425972Y189916D01*
X426643Y189638D01*
X427362Y189543D01*
X427846Y189607D01*
X428346Y189370D01*
Y189370D01*
X435827D01*
Y190515D01*
X437894D01*
X438623Y190660D01*
X439242Y191073D01*
X440915Y192746D01*
X440915Y192746D01*
X441328Y193365D01*
X441474Y194095D01*
Y194587D01*
X443110Y194587D01*
X443176Y194114D01*
Y190077D01*
X418085Y164986D01*
X417715Y164432D01*
X417585Y163779D01*
Y151968D01*
X417326Y151769D01*
X416884Y151193D01*
X416606Y150523D01*
X416512Y149803D01*
X416606Y149084D01*
X416884Y148413D01*
X417326Y147838D01*
X417902Y147396D01*
X418572Y147118D01*
X419291Y147023D01*
X420011Y147118D01*
X420681Y147396D01*
X421257Y147838D01*
X421699Y148413D01*
X421976Y149084D01*
X422071Y149803D01*
X421976Y150523D01*
X421699Y151193D01*
X421257Y151769D01*
X420997Y151968D01*
Y163073D01*
X446088Y188164D01*
X446458Y188717D01*
X446588Y189370D01*
Y194114D01*
X446654Y194587D01*
X448491D01*
Y188502D01*
X424778Y164789D01*
X424408Y164235D01*
X424278Y163583D01*
Y157676D01*
X424019Y157477D01*
X423577Y156902D01*
X423299Y156231D01*
X423205Y155512D01*
X423299Y154792D01*
X423577Y154122D01*
X424019Y153546D01*
X424594Y153104D01*
X425265Y152827D01*
X425984Y152732D01*
X426704Y152827D01*
X427374Y153104D01*
X427950Y153546D01*
X428392Y154122D01*
X428414Y154176D01*
X428914Y154077D01*
Y135491D01*
X428902Y135433D01*
X429040Y134742D01*
X429236Y134449D01*
X429040Y134156D01*
X428902Y133465D01*
X428687Y133202D01*
X417439D01*
X412533Y138108D01*
Y153347D01*
X412403Y153999D01*
X412033Y154553D01*
X407702Y158884D01*
X407149Y159253D01*
X406496Y159383D01*
X403878D01*
Y162608D01*
X401903D01*
Y163189D01*
X402756D01*
Y169095D01*
X397638D01*
Y163189D01*
X398491D01*
Y162608D01*
X396516D01*
Y152746D01*
X403878D01*
Y155971D01*
X405789D01*
X409121Y152640D01*
Y144393D01*
X408621Y144186D01*
X406423Y146384D01*
X405869Y146753D01*
X405217Y146883D01*
X403878D01*
Y150108D01*
X396516D01*
Y140246D01*
X397175D01*
X397638Y140157D01*
Y134252D01*
X402756D01*
Y140157D01*
X403219Y140246D01*
X403878D01*
Y143471D01*
X404510D01*
X406168Y141813D01*
Y136024D01*
X406298Y135371D01*
X406668Y134817D01*
X411758Y129727D01*
X411567Y129265D01*
X406693D01*
Y132283D01*
X394882D01*
Y129695D01*
X394382Y129487D01*
X393332Y130537D01*
X392779Y130907D01*
X392126Y131037D01*
X391732D01*
Y131890D01*
X385827D01*
Y126772D01*
X391732D01*
Y126772D01*
X392114Y126930D01*
X392888Y126156D01*
X393442Y125786D01*
X394094Y125656D01*
X394882D01*
Y122047D01*
X406693D01*
Y125853D01*
X409598D01*
X409790Y125391D01*
X408046Y123647D01*
X407676Y123094D01*
X407546Y122441D01*
Y113896D01*
X407155Y113505D01*
X406693Y113696D01*
Y116535D01*
X394882D01*
Y112926D01*
X394291D01*
X393638Y112797D01*
X393085Y112427D01*
X392204Y111546D01*
X391732Y111417D01*
Y111417D01*
X391732Y111417D01*
X385827D01*
Y106299D01*
X391732D01*
Y107152D01*
X391929D01*
X392582Y107282D01*
X393135Y107652D01*
X394420Y108936D01*
X394882Y108745D01*
Y106299D01*
X406693D01*
Y109514D01*
X407283D01*
X407936Y109644D01*
X408490Y110014D01*
X409643Y111167D01*
X410105Y110976D01*
Y107677D01*
X410235Y107024D01*
X410605Y106471D01*
X413845Y103230D01*
Y98411D01*
X413119Y98110D01*
X412112Y97337D01*
X411339Y96330D01*
X411038Y95604D01*
X394474D01*
X394173Y96330D01*
X393400Y97337D01*
X392393Y98110D01*
X391220Y98596D01*
X389961Y98762D01*
X388702Y98596D01*
X387528Y98110D01*
X386521Y97337D01*
X385748Y96330D01*
X385262Y95157D01*
X385096Y93898D01*
X385262Y92639D01*
X385748Y91465D01*
X386521Y90458D01*
X387528Y89685D01*
X388702Y89199D01*
X389961Y89033D01*
X391220Y89199D01*
X392393Y89685D01*
X393400Y90458D01*
X394173Y91465D01*
X394474Y92192D01*
X411038D01*
X411339Y91465D01*
X412112Y90458D01*
X413119Y89685D01*
X414292Y89199D01*
X415551Y89033D01*
X416810Y89199D01*
X417983Y89685D01*
X418991Y90458D01*
X419080Y90575D01*
X419554Y90414D01*
Y83858D01*
X419294Y83658D01*
X418853Y83083D01*
X418575Y82412D01*
X418480Y81693D01*
X418575Y80974D01*
X418853Y80303D01*
X419228Y79813D01*
X418862Y79492D01*
X418567Y79718D01*
X417892Y80236D01*
X416763Y80703D01*
X416051Y80797D01*
Y76681D01*
X420167D01*
X420073Y77393D01*
X419606Y78522D01*
X419159Y79105D01*
X418928Y79406D01*
X419294Y79727D01*
X419870Y79286D01*
X420540Y79008D01*
X421260Y78913D01*
X421979Y79008D01*
X422650Y79286D01*
X423225Y79727D01*
X423667Y80303D01*
X423945Y80974D01*
X424040Y81693D01*
X423945Y82412D01*
X423667Y83083D01*
X423225Y83658D01*
X422966Y83858D01*
Y101656D01*
X424801Y103490D01*
X425262Y103299D01*
Y102558D01*
X425003Y102359D01*
X424561Y101784D01*
X424284Y101113D01*
X424189Y100394D01*
X424284Y99674D01*
X424561Y99004D01*
X425003Y98428D01*
X425579Y97986D01*
X426249Y97709D01*
X426968Y97614D01*
X427688Y97709D01*
X428358Y97986D01*
X428934Y98428D01*
X429376Y99004D01*
X429654Y99674D01*
X429748Y100394D01*
X429654Y101113D01*
X429376Y101784D01*
X428934Y102359D01*
X428675Y102558D01*
Y110711D01*
X430037Y112074D01*
X430204D01*
X430709Y111973D01*
X435236D01*
X435927Y112111D01*
X436514Y112502D01*
X436905Y113088D01*
X437043Y113779D01*
X436905Y114471D01*
X436709Y114764D01*
X436905Y115057D01*
X437043Y115748D01*
X437258Y116010D01*
X437598D01*
X438251Y116140D01*
X438805Y116510D01*
X442151Y119857D01*
X442521Y120410D01*
X442651Y121063D01*
Y121457D01*
X442910Y121657D01*
X443352Y122232D01*
X443630Y122903D01*
X443725Y123622D01*
X443630Y124341D01*
X443352Y125012D01*
X442910Y125588D01*
X442449Y125942D01*
X442381Y126355D01*
X442408Y126540D01*
X442714Y126775D01*
X443155Y127350D01*
X443433Y128021D01*
X443528Y128740D01*
X443433Y129460D01*
X443155Y130130D01*
X442714Y130706D01*
X442454Y130905D01*
Y131663D01*
X442954Y131910D01*
X443295Y131648D01*
X443966Y131370D01*
X444685Y131275D01*
X445404Y131370D01*
X446075Y131648D01*
X446651Y132090D01*
X447092Y132665D01*
X447370Y133336D01*
X447465Y134055D01*
X447370Y134774D01*
X447092Y135445D01*
X446651Y136021D01*
X446391Y136220D01*
Y136955D01*
X446654Y137170D01*
X447345Y137308D01*
X447638Y137503D01*
X447931Y137308D01*
X448622Y137170D01*
X449313Y137308D01*
X449606Y137503D01*
X449899Y137308D01*
X450591Y137170D01*
X451282Y137308D01*
X451575Y137503D01*
X451868Y137308D01*
X452559Y137170D01*
X453250Y137308D01*
X453543Y137503D01*
X453836Y137308D01*
X454528Y137170D01*
X455219Y137308D01*
X455512Y137503D01*
X455805Y137308D01*
X456496Y137170D01*
X457187Y137308D01*
X457480Y137503D01*
X457773Y137308D01*
X458465Y137170D01*
X459156Y137308D01*
X459449Y137503D01*
X459742Y137308D01*
X460433Y137170D01*
X461124Y137308D01*
X461682Y137680D01*
X461838Y137646D01*
X462182Y137504D01*
Y135491D01*
X462170Y135433D01*
X462308Y134742D01*
X462699Y134156D01*
X463285Y133764D01*
X463510Y133720D01*
Y133210D01*
X463285Y133165D01*
X462699Y132773D01*
X462308Y132187D01*
X462170Y131496D01*
X462308Y130805D01*
X462503Y130512D01*
X462308Y130219D01*
X462170Y129527D01*
X462308Y128836D01*
X462503Y128543D01*
X462308Y128250D01*
X462170Y127559D01*
X462308Y126868D01*
X462503Y126575D01*
X462308Y126282D01*
X462170Y125591D01*
X462308Y124899D01*
X462503Y124606D01*
X462308Y124313D01*
X462170Y123622D01*
X462308Y122931D01*
X462503Y122638D01*
X462308Y122345D01*
X462170Y121653D01*
X462308Y120962D01*
X462503Y120669D01*
X462308Y120376D01*
X462170Y119685D01*
X462308Y118994D01*
X462503Y118701D01*
X462308Y118408D01*
X462170Y117717D01*
X462308Y117025D01*
X462503Y116732D01*
X462308Y116439D01*
X462170Y115748D01*
X462308Y115057D01*
X462503Y114764D01*
X462308Y114471D01*
X462170Y113779D01*
X462308Y113088D01*
X462680Y112531D01*
X462646Y112375D01*
X462504Y112031D01*
X460491D01*
X460433Y112043D01*
X459742Y111905D01*
X459156Y111513D01*
X458764Y110927D01*
X458719Y110703D01*
X458210D01*
X458165Y110927D01*
X457773Y111513D01*
X457187Y111905D01*
X456496Y112043D01*
X455805Y111905D01*
X455512Y111709D01*
X455219Y111905D01*
X454528Y112043D01*
X453836Y111905D01*
X453543Y111709D01*
X453250Y111905D01*
X452559Y112043D01*
X451868Y111905D01*
X451575Y111709D01*
X451282Y111905D01*
X450591Y112043D01*
X449899Y111905D01*
X449606Y111709D01*
X449313Y111905D01*
X448622Y112043D01*
X447931Y111905D01*
X447638Y111709D01*
X447345Y111905D01*
X446654Y112043D01*
X445962Y111905D01*
X445669Y111709D01*
X445376Y111905D01*
X444685Y112043D01*
X443994Y111905D01*
X443701Y111709D01*
X443408Y111905D01*
X442717Y112043D01*
X442025Y111905D01*
X441732Y111709D01*
X441439Y111905D01*
X440748Y112043D01*
X440057Y111905D01*
X439764Y111709D01*
X439471Y111905D01*
X438779Y112043D01*
X438088Y111905D01*
X437502Y111513D01*
X437111Y110927D01*
X436973Y110236D01*
Y105709D01*
X437074Y105204D01*
Y101297D01*
X430093Y94317D01*
X429723Y93763D01*
X429593Y93110D01*
Y75590D01*
X429334Y75391D01*
X428892Y74815D01*
X428614Y74145D01*
X428519Y73425D01*
X428614Y72706D01*
X428892Y72035D01*
X429334Y71460D01*
X429909Y71018D01*
X430580Y70740D01*
X431299Y70645D01*
X432019Y70740D01*
X432689Y71018D01*
X433265Y71460D01*
X433707Y72035D01*
X433984Y72706D01*
X434079Y73425D01*
X433984Y74145D01*
X433707Y74815D01*
X433265Y75391D01*
X433005Y75590D01*
Y92404D01*
X435372Y94770D01*
X435760Y94451D01*
X435432Y93960D01*
X435302Y93307D01*
Y79133D01*
X435042Y78934D01*
X434601Y78358D01*
X434323Y77688D01*
X434228Y76968D01*
X434323Y76249D01*
X434601Y75579D01*
X435042Y75003D01*
X435618Y74561D01*
X436288Y74283D01*
X437008Y74189D01*
X437727Y74283D01*
X438398Y74561D01*
X438973Y75003D01*
X439415Y75579D01*
X439693Y76249D01*
X439788Y76968D01*
X439693Y77688D01*
X439415Y78358D01*
X438973Y78934D01*
X438714Y79133D01*
Y92600D01*
X440549Y94435D01*
X441011Y94244D01*
Y83070D01*
X440751Y82871D01*
X440309Y82295D01*
X440032Y81625D01*
X439937Y80905D01*
X440032Y80186D01*
X440309Y79516D01*
X440751Y78940D01*
X441327Y78498D01*
X441997Y78221D01*
X442717Y78126D01*
X443436Y78221D01*
X444106Y78498D01*
X444682Y78940D01*
X445124Y79516D01*
X445401Y80186D01*
X445496Y80905D01*
X445401Y81625D01*
X445124Y82295D01*
X444682Y82871D01*
X444422Y83070D01*
Y103687D01*
X444685Y103902D01*
X445376Y104040D01*
X445669Y104236D01*
X445962Y104040D01*
X446654Y103902D01*
X446916Y103687D01*
Y53463D01*
X431971Y38517D01*
X402559D01*
Y39862D01*
X395079D01*
Y33760D01*
X402559D01*
Y35105D01*
X432677D01*
X433330Y35235D01*
X433883Y35605D01*
X449828Y51550D01*
X450198Y52103D01*
X450328Y52756D01*
Y81842D01*
X450790Y82034D01*
X453215Y79608D01*
Y39665D01*
X451181D01*
Y33563D01*
X458661D01*
Y39665D01*
X456627D01*
Y80017D01*
X457127Y80224D01*
X459515Y77837D01*
Y43897D01*
X459255Y43698D01*
X458813Y43122D01*
X458535Y42452D01*
X458441Y41732D01*
X458535Y41013D01*
X458813Y40342D01*
X459255Y39767D01*
X459831Y39325D01*
X460501Y39047D01*
X461221Y38953D01*
X461940Y39047D01*
X462610Y39325D01*
X463186Y39767D01*
X463628Y40342D01*
X463905Y41013D01*
X464000Y41732D01*
X463905Y42452D01*
X463628Y43122D01*
X463186Y43698D01*
X462926Y43897D01*
Y78543D01*
X462797Y79196D01*
X462427Y79750D01*
X456649Y85527D01*
X456883Y86001D01*
X456890Y86000D01*
X457609Y86095D01*
X458280Y86372D01*
X458855Y86814D01*
X459297Y87390D01*
X459575Y88060D01*
X459669Y88779D01*
X459609Y89240D01*
X460082Y89473D01*
X460802Y88754D01*
Y87134D01*
X460633Y87005D01*
X460191Y86429D01*
X459913Y85759D01*
X459819Y85039D01*
X459913Y84320D01*
X460191Y83649D01*
X460633Y83074D01*
X461209Y82632D01*
X461879Y82354D01*
X462598Y82260D01*
X463318Y82354D01*
X463988Y82632D01*
X464564Y83074D01*
X465006Y83649D01*
X465283Y84320D01*
X465378Y85039D01*
X465283Y85759D01*
X465006Y86429D01*
X464564Y87005D01*
X464214Y87274D01*
Y89461D01*
X464084Y90114D01*
X463714Y90667D01*
X458202Y96179D01*
Y105204D01*
X458210Y105242D01*
X458719D01*
X458764Y105017D01*
X459156Y104431D01*
X459742Y104040D01*
X460433Y103902D01*
X460491Y103914D01*
X463084D01*
X464150Y102848D01*
Y92913D01*
X464242Y92453D01*
X464503Y92062D01*
X464893Y91801D01*
X465354Y91709D01*
X469291D01*
X469752Y91801D01*
X470143Y92062D01*
X470404Y92453D01*
X470496Y92913D01*
Y105709D01*
X470404Y106169D01*
X470143Y106560D01*
X465230Y111473D01*
X465437Y111973D01*
X468504D01*
X469008Y112074D01*
X470750D01*
X475368Y107455D01*
X475922Y107085D01*
X476575Y106955D01*
X484646D01*
X484845Y106696D01*
X485421Y106254D01*
X486092Y105976D01*
X486811Y105882D01*
X487531Y105976D01*
X488201Y106254D01*
X488542Y106516D01*
X489042Y106269D01*
Y75590D01*
X488783Y75391D01*
X488341Y74815D01*
X488063Y74145D01*
X487968Y73425D01*
X488063Y72706D01*
X488341Y72035D01*
X488783Y71460D01*
X489358Y71018D01*
X490029Y70740D01*
X490748Y70645D01*
X491468Y70740D01*
X492138Y71018D01*
X492714Y71460D01*
X493155Y72035D01*
X493433Y72706D01*
X493528Y73425D01*
X493433Y74145D01*
X493155Y74815D01*
X492714Y75391D01*
X492454Y75590D01*
Y79685D01*
X492954Y79784D01*
X493065Y79516D01*
X493507Y78940D01*
X494083Y78498D01*
X494753Y78221D01*
X495472Y78126D01*
X496192Y78221D01*
X496862Y78498D01*
X497367Y78886D01*
X497724Y78529D01*
X497593Y78358D01*
X497315Y77688D01*
X497220Y76968D01*
X497315Y76249D01*
X497593Y75579D01*
X498034Y75003D01*
X498610Y74561D01*
X499281Y74283D01*
X500000Y74189D01*
X500719Y74283D01*
X501390Y74561D01*
X501966Y75003D01*
X502407Y75579D01*
X502685Y76249D01*
X502780Y76968D01*
X502685Y77688D01*
X502407Y78358D01*
X501966Y78934D01*
X501706Y79133D01*
X501706Y192717D01*
X501576Y193369D01*
X501206Y193923D01*
X468332Y226797D01*
X467779Y227167D01*
X467126Y227296D01*
X435549D01*
X434777Y228069D01*
Y230118D01*
X436221D01*
Y237598D01*
X434777D01*
Y241142D01*
X435433D01*
Y247047D01*
X434777D01*
Y249213D01*
X434647Y249866D01*
X434277Y250419D01*
X423622Y261074D01*
Y264961D01*
X416142D01*
Y258858D01*
X421013D01*
X431365Y248506D01*
Y247047D01*
X430709D01*
Y241142D01*
X431365D01*
Y237598D01*
X430118D01*
Y230118D01*
X431365D01*
Y227362D01*
X431495Y226709D01*
X431865Y226156D01*
X433636Y224384D01*
X434190Y224014D01*
X434842Y223885D01*
X466419D01*
X498294Y192010D01*
X498294Y82534D01*
X498293Y82534D01*
X497794Y82407D01*
X497438Y82871D01*
X497178Y83070D01*
Y189370D01*
X497049Y190023D01*
X496679Y190576D01*
X464592Y222663D01*
X464039Y223033D01*
X463386Y223163D01*
X416651D01*
X412730Y227085D01*
Y230118D01*
X414173D01*
Y237598D01*
X412730D01*
Y241142D01*
X413386D01*
Y247047D01*
X412730D01*
Y258957D01*
X414764D01*
Y265059D01*
D02*
G37*
G36*
X390461Y80797D02*
Y76681D01*
X394577D01*
X394483Y77393D01*
X394015Y78522D01*
X393271Y79492D01*
X392302Y80236D01*
X391172Y80703D01*
X390461Y80797D01*
D02*
G37*
G36*
X415051D02*
X414339Y80703D01*
X413210Y80236D01*
X412241Y79492D01*
X411497Y78522D01*
X411029Y77393D01*
X410935Y76681D01*
X415051D01*
Y80797D01*
D02*
G37*
G36*
X389461D02*
X388749Y80703D01*
X387620Y80236D01*
X386650Y79492D01*
X385906Y78522D01*
X385438Y77393D01*
X385345Y76681D01*
X389461D01*
Y80797D01*
D02*
G37*
G36*
X192717Y96481D02*
X191997Y96386D01*
X191327Y96108D01*
X190751Y95666D01*
X190309Y95091D01*
X190032Y94420D01*
X189937Y93701D01*
X190032Y92981D01*
X190309Y92311D01*
X190751Y91735D01*
X191010Y91536D01*
Y83661D01*
X191140Y83009D01*
X191510Y82455D01*
X196727Y77239D01*
X197280Y76869D01*
X197933Y76739D01*
X199803D01*
Y75394D01*
X207283D01*
Y81496D01*
X199803D01*
Y80151D01*
X198640D01*
X194422Y84368D01*
Y91536D01*
X194682Y91735D01*
X195124Y92311D01*
X195402Y92981D01*
X195496Y93701D01*
X195402Y94420D01*
X195124Y95091D01*
X194682Y95666D01*
X194106Y96108D01*
X193436Y96386D01*
X192717Y96481D01*
D02*
G37*
G36*
X140551Y85457D02*
X139832Y85362D01*
X139161Y85084D01*
X138586Y84643D01*
X138144Y84067D01*
X137866Y83397D01*
X137771Y82677D01*
X137866Y81958D01*
X137973Y81701D01*
X137639Y81201D01*
X136811D01*
Y75098D01*
X144291D01*
Y81201D01*
X143464D01*
X143130Y81701D01*
X143236Y81958D01*
X143331Y82677D01*
X143236Y83397D01*
X142958Y84067D01*
X142517Y84643D01*
X141941Y85084D01*
X141271Y85362D01*
X140551Y85457D01*
D02*
G37*
G36*
X420167Y75681D02*
X416051D01*
Y71565D01*
X416763Y71659D01*
X417892Y72127D01*
X418862Y72871D01*
X419606Y73840D01*
X420073Y74969D01*
X420167Y75681D01*
D02*
G37*
G36*
X394577D02*
X390461D01*
Y71565D01*
X391172Y71659D01*
X392302Y72127D01*
X393271Y72871D01*
X394015Y73840D01*
X394483Y74969D01*
X394577Y75681D01*
D02*
G37*
G36*
X415051D02*
X410935D01*
X411029Y74969D01*
X411497Y73840D01*
X412241Y72871D01*
X413210Y72127D01*
X414339Y71659D01*
X415051Y71565D01*
Y75681D01*
D02*
G37*
G36*
X389461D02*
X385345D01*
X385438Y74969D01*
X385906Y73840D01*
X386650Y72871D01*
X387620Y72127D01*
X388749Y71659D01*
X389461Y71565D01*
Y75681D01*
D02*
G37*
G36*
X222638Y81398D02*
X215158D01*
Y75295D01*
X216294D01*
X216515Y74847D01*
X216490Y74815D01*
X216213Y74145D01*
X216118Y73425D01*
X216213Y72706D01*
X216490Y72035D01*
X216932Y71460D01*
X217508Y71018D01*
X218178Y70740D01*
X218898Y70645D01*
X219617Y70740D01*
X220287Y71018D01*
X220863Y71460D01*
X221305Y72035D01*
X221583Y72706D01*
X221677Y73425D01*
X221583Y74145D01*
X221305Y74815D01*
X221281Y74847D01*
X221502Y75295D01*
X222638D01*
Y81398D01*
D02*
G37*
G36*
X173406Y138232D02*
X172686Y138138D01*
X172016Y137860D01*
X171440Y137418D01*
X170998Y136843D01*
X170721Y136172D01*
X170626Y135453D01*
X170721Y134733D01*
X170998Y134063D01*
X171440Y133487D01*
X171700Y133288D01*
Y93207D01*
X161392Y82899D01*
X161022Y82346D01*
X160892Y81693D01*
Y74606D01*
X159547D01*
Y67126D01*
X165650D01*
Y74606D01*
X164304D01*
Y80986D01*
X174612Y91294D01*
X174982Y91847D01*
X175111Y92500D01*
Y133288D01*
X175371Y133487D01*
X175813Y134063D01*
X176091Y134733D01*
X176185Y135453D01*
X176091Y136172D01*
X175813Y136843D01*
X175371Y137418D01*
X174795Y137860D01*
X174125Y138138D01*
X173406Y138232D01*
D02*
G37*
G36*
X121161Y85827D02*
X113484D01*
Y79528D01*
X121161D01*
Y79527D01*
X121548Y79688D01*
X121835Y79401D01*
X121646Y78945D01*
X120709D01*
Y62787D01*
X130079D01*
Y69160D01*
X136811D01*
Y67815D01*
X144291D01*
Y69160D01*
X152264D01*
Y67126D01*
X158366D01*
Y74606D01*
X152264D01*
Y72572D01*
X144291D01*
Y73917D01*
X136811D01*
Y72572D01*
X130079D01*
Y78945D01*
X126116D01*
Y79331D01*
X125986Y79984D01*
X125616Y80537D01*
X122269Y83884D01*
X121716Y84253D01*
X121161Y84364D01*
Y85827D01*
D02*
G37*
G36*
X334646Y70102D02*
X297047Y70102D01*
X296586Y70010D01*
X296196Y69749D01*
X295935Y69358D01*
X295843Y68898D01*
X295843Y62008D01*
X295935Y61547D01*
X296196Y61156D01*
X296586Y60895D01*
X297047Y60804D01*
X324803Y60804D01*
Y60748D01*
X335827D01*
Y61892D01*
X335850Y62008D01*
X335850Y68898D01*
X335827Y69014D01*
Y70079D01*
X334762D01*
X334646Y70102D01*
D02*
G37*
G36*
X357677Y99826D02*
X351378D01*
X351262Y99803D01*
X350197D01*
Y98738D01*
X350174Y98622D01*
Y79436D01*
X347771Y77033D01*
X347510Y76642D01*
X347418Y76181D01*
X347418Y76181D01*
Y71850D01*
X347441Y71734D01*
Y70748D01*
X348146D01*
X348161Y70738D01*
X348622Y70646D01*
X357677D01*
X357677Y70646D01*
X358069Y70218D01*
X358031Y70079D01*
X347441D01*
Y65748D01*
X358102D01*
X358195Y65619D01*
X358014Y65125D01*
X357970Y65079D01*
X347441D01*
Y60748D01*
X358008D01*
X358219Y60413D01*
X358008Y60079D01*
X347441D01*
Y58121D01*
X345750Y56430D01*
X335827D01*
Y60079D01*
X324803D01*
Y56430D01*
X297637D01*
X297438Y56690D01*
X296862Y57132D01*
X296192Y57409D01*
X295472Y57504D01*
X294753Y57409D01*
X294083Y57132D01*
X293507Y56690D01*
X293065Y56114D01*
X292788Y55444D01*
X292693Y54724D01*
X292788Y54005D01*
X293065Y53335D01*
X293507Y52759D01*
X294083Y52317D01*
X294753Y52039D01*
X295472Y51945D01*
X296192Y52039D01*
X296862Y52317D01*
X297438Y52759D01*
X297637Y53018D01*
X346457D01*
X347110Y53148D01*
X347663Y53518D01*
X349893Y55748D01*
X358465D01*
Y58555D01*
X358465Y59055D01*
X358965Y59055D01*
X365945D01*
X365945Y65074D01*
X365945Y65658D01*
Y71260D01*
X359443D01*
X359252Y71722D01*
X359751Y72221D01*
X364764D01*
X365225Y72313D01*
X365417Y72441D01*
X365945D01*
Y73309D01*
X365968Y73425D01*
Y77559D01*
X365968Y77559D01*
X365945Y77675D01*
Y78543D01*
X365483D01*
X358881Y85145D01*
Y98622D01*
X358858Y98738D01*
Y99803D01*
X357793D01*
X357677Y99826D01*
D02*
G37*
G36*
X660236Y45693D02*
X659517Y45598D01*
X658846Y45321D01*
X658271Y44879D01*
X657829Y44303D01*
X657551Y43633D01*
X657456Y42913D01*
X657551Y42194D01*
X657658Y41937D01*
X657324Y41437D01*
X656496D01*
Y35335D01*
X663976D01*
Y41437D01*
X663149D01*
X662815Y41937D01*
X662921Y42194D01*
X663016Y42913D01*
X662921Y43633D01*
X662643Y44303D01*
X662202Y44879D01*
X661626Y45321D01*
X660956Y45598D01*
X660236Y45693D01*
D02*
G37*
G36*
X73032Y44512D02*
X72312Y44417D01*
X71642Y44140D01*
X71066Y43698D01*
X70624Y43122D01*
X70346Y42452D01*
X70252Y41732D01*
X70346Y41013D01*
X70624Y40342D01*
X70760Y40165D01*
X70513Y39665D01*
X69291D01*
Y33563D01*
X76772D01*
Y39665D01*
X75550D01*
X75303Y40165D01*
X75439Y40342D01*
X75717Y41013D01*
X75811Y41732D01*
X75717Y42452D01*
X75439Y43122D01*
X74997Y43698D01*
X74421Y44140D01*
X73751Y44417D01*
X73032Y44512D01*
D02*
G37*
G36*
X553965Y31285D02*
Y27665D01*
X557584D01*
X557507Y28249D01*
X557089Y29258D01*
X556424Y30125D01*
X555557Y30790D01*
X554548Y31208D01*
X553965Y31285D01*
D02*
G37*
G36*
X552964Y31285D02*
X552381Y31208D01*
X551372Y30790D01*
X550505Y30125D01*
X549840Y29258D01*
X549422Y28249D01*
X549345Y27665D01*
X552964D01*
Y31285D01*
D02*
G37*
G36*
X603650Y31088D02*
Y27468D01*
X607269D01*
X607192Y28052D01*
X606774Y29061D01*
X606109Y29928D01*
X605242Y30593D01*
X604233Y31011D01*
X603650Y31088D01*
D02*
G37*
G36*
X602650Y31088D02*
X602066Y31011D01*
X601057Y30593D01*
X600190Y29928D01*
X599525Y29061D01*
X599107Y28052D01*
X599030Y27468D01*
X602650D01*
Y31088D01*
D02*
G37*
G36*
X363504Y38415D02*
X362308Y38298D01*
X361157Y37949D01*
X360097Y37382D01*
X359168Y36619D01*
X358405Y35690D01*
X357839Y34630D01*
X357490Y33480D01*
X357372Y32283D01*
X357490Y31087D01*
X357839Y29937D01*
X358405Y28877D01*
X359168Y27948D01*
X360097Y27185D01*
X361157Y26618D01*
X362308Y26269D01*
X363504Y26152D01*
X364700Y26269D01*
X365850Y26618D01*
X366911Y27185D01*
X367840Y27948D01*
X368602Y28877D01*
X369169Y29937D01*
X369518Y31087D01*
X369636Y32283D01*
X369518Y33480D01*
X369169Y34630D01*
X368602Y35690D01*
X367840Y36619D01*
X366911Y37382D01*
X365850Y37949D01*
X364700Y38298D01*
X363504Y38415D01*
D02*
G37*
G36*
X266653Y38712D02*
X265399Y38589D01*
X264193Y38223D01*
X263082Y37629D01*
X262108Y36829D01*
X261308Y35855D01*
X260714Y34744D01*
X260349Y33538D01*
X260225Y32283D01*
X260349Y31029D01*
X260714Y29823D01*
X261308Y28712D01*
X262108Y27738D01*
X263082Y26938D01*
X264193Y26344D01*
X265399Y25978D01*
X266653Y25855D01*
X267908Y25978D01*
X269114Y26344D01*
X270225Y26938D01*
X271199Y27738D01*
X271999Y28712D01*
X272593Y29823D01*
X272959Y31029D01*
X273082Y32283D01*
X272959Y33538D01*
X272593Y34744D01*
X271999Y35855D01*
X271199Y36829D01*
X270225Y37629D01*
X269114Y38223D01*
X267908Y38589D01*
X266653Y38712D01*
D02*
G37*
G36*
X552964Y26665D02*
X549345D01*
X549422Y26082D01*
X549840Y25073D01*
X550505Y24206D01*
X551372Y23541D01*
X552381Y23123D01*
X552964Y23046D01*
Y26665D01*
D02*
G37*
G36*
X557584D02*
X553965D01*
Y23046D01*
X554548Y23123D01*
X555557Y23541D01*
X556424Y24206D01*
X557089Y25073D01*
X557507Y26082D01*
X557584Y26665D01*
D02*
G37*
G36*
X607269Y26469D02*
X603650D01*
Y22849D01*
X604233Y22926D01*
X605242Y23344D01*
X606109Y24009D01*
X606774Y24876D01*
X607192Y25885D01*
X607269Y26469D01*
D02*
G37*
G36*
X602650D02*
X599030D01*
X599107Y25885D01*
X599525Y24876D01*
X600190Y24009D01*
X601057Y23344D01*
X602066Y22926D01*
X602650Y22849D01*
Y26469D01*
D02*
G37*
G36*
X587795Y31496D02*
X579134D01*
Y22835D01*
X587795D01*
Y31496D01*
D02*
G37*
G36*
X573465Y136441D02*
X572745Y136346D01*
X572075Y136069D01*
X571499Y135627D01*
X571057Y135051D01*
X570780Y134381D01*
X570685Y133661D01*
X570780Y132942D01*
X571057Y132272D01*
X571499Y131696D01*
X571759Y131497D01*
Y31146D01*
X571280Y30948D01*
X570376Y30254D01*
X569682Y29349D01*
X569245Y28296D01*
X569097Y27165D01*
X569245Y26035D01*
X569682Y24981D01*
X570376Y24077D01*
X571280Y23382D01*
X572334Y22946D01*
X573465Y22797D01*
X574595Y22946D01*
X575649Y23382D01*
X576553Y24077D01*
X577247Y24981D01*
X577684Y26035D01*
X577833Y27165D01*
X577684Y28296D01*
X577247Y29349D01*
X576553Y30254D01*
X575649Y30948D01*
X575171Y31146D01*
Y131497D01*
X575430Y131696D01*
X575872Y132272D01*
X576150Y132942D01*
X576244Y133661D01*
X576150Y134381D01*
X575872Y135051D01*
X575430Y135627D01*
X574854Y136069D01*
X574184Y136346D01*
X573465Y136441D01*
D02*
G37*
G36*
X563465Y150417D02*
X562745Y150323D01*
X562075Y150045D01*
X561499Y149603D01*
X561057Y149028D01*
X560780Y148357D01*
X560685Y147638D01*
X560780Y146918D01*
X561057Y146248D01*
X561499Y145672D01*
X561759Y145473D01*
X561759Y31146D01*
X561280Y30948D01*
X560376Y30254D01*
X559682Y29349D01*
X559245Y28296D01*
X559096Y27165D01*
X559245Y26035D01*
X559682Y24981D01*
X560376Y24077D01*
X561280Y23382D01*
X562334Y22946D01*
X563465Y22797D01*
X564595Y22946D01*
X565649Y23382D01*
X566553Y24077D01*
X567247Y24981D01*
X567684Y26035D01*
X567833Y27165D01*
X567684Y28296D01*
X567247Y29349D01*
X566553Y30254D01*
X565649Y30948D01*
X565171Y31146D01*
X565171Y145473D01*
X565430Y145672D01*
X565872Y146248D01*
X566150Y146918D01*
X566244Y147638D01*
X566150Y148357D01*
X565872Y149028D01*
X565430Y149603D01*
X564854Y150045D01*
X564184Y150323D01*
X563465Y150417D01*
D02*
G37*
G36*
X637480Y31299D02*
X628819D01*
Y22638D01*
X637480D01*
Y31299D01*
D02*
G37*
G36*
X623150Y126323D02*
X622430Y126228D01*
X621760Y125951D01*
X621184Y125509D01*
X620742Y124933D01*
X620465Y124263D01*
X620370Y123543D01*
X620465Y122824D01*
X620742Y122153D01*
X621184Y121578D01*
X621444Y121379D01*
Y30949D01*
X620966Y30751D01*
X620061Y30057D01*
X619367Y29153D01*
X618930Y28099D01*
X618782Y26969D01*
X618930Y25838D01*
X619367Y24784D01*
X620061Y23880D01*
X620966Y23186D01*
X622019Y22749D01*
X623150Y22600D01*
X624280Y22749D01*
X625334Y23186D01*
X626238Y23880D01*
X626932Y24784D01*
X627369Y25838D01*
X627518Y26969D01*
X627369Y28099D01*
X626932Y29153D01*
X626238Y30057D01*
X625334Y30751D01*
X624856Y30949D01*
Y121379D01*
X625115Y121578D01*
X625557Y122153D01*
X625835Y122824D01*
X625929Y123543D01*
X625835Y124263D01*
X625557Y124933D01*
X625115Y125509D01*
X624539Y125951D01*
X623869Y126228D01*
X623150Y126323D01*
D02*
G37*
G36*
X613150Y130890D02*
X612430Y130795D01*
X611760Y130517D01*
X611184Y130076D01*
X610742Y129500D01*
X610465Y128830D01*
X610370Y128110D01*
X610465Y127391D01*
X610742Y126720D01*
X611184Y126145D01*
X611444Y125946D01*
Y30949D01*
X610966Y30751D01*
X610061Y30057D01*
X609367Y29153D01*
X608930Y28099D01*
X608781Y26969D01*
X608930Y25838D01*
X609367Y24784D01*
X610061Y23880D01*
X610966Y23186D01*
X612019Y22749D01*
X613150Y22600D01*
X614280Y22749D01*
X615334Y23186D01*
X616238Y23880D01*
X616932Y24784D01*
X617369Y25838D01*
X617518Y26969D01*
X617369Y28099D01*
X616932Y29153D01*
X616238Y30057D01*
X615334Y30751D01*
X614856Y30949D01*
Y125946D01*
X615115Y126145D01*
X615557Y126720D01*
X615835Y127391D01*
X615929Y128110D01*
X615835Y128830D01*
X615557Y129500D01*
X615115Y130076D01*
X614539Y130517D01*
X613869Y130795D01*
X613150Y130890D01*
D02*
G37*
G36*
X729724Y31725D02*
X728412Y31596D01*
X727151Y31213D01*
X725988Y30592D01*
X724969Y29755D01*
X724132Y28736D01*
X723511Y27574D01*
X723128Y26312D01*
X722999Y25000D01*
Y23031D01*
X723128Y21720D01*
X723511Y20458D01*
X724132Y19295D01*
X724969Y18276D01*
X725988Y17440D01*
X727151Y16818D01*
X728412Y16435D01*
X729724Y16306D01*
X731036Y16435D01*
X732298Y16818D01*
X733461Y17440D01*
X734480Y18276D01*
X735316Y19295D01*
X735938Y20458D01*
X736320Y21720D01*
X736450Y23031D01*
Y25000D01*
X736320Y26312D01*
X735938Y27574D01*
X735316Y28736D01*
X734480Y29755D01*
X733461Y30592D01*
X732298Y31213D01*
X731036Y31596D01*
X729724Y31725D01*
D02*
G37*
G36*
X709646D02*
X708334Y31596D01*
X707072Y31213D01*
X705909Y30592D01*
X704890Y29755D01*
X704054Y28736D01*
X703432Y27574D01*
X703050Y26312D01*
X702920Y25000D01*
Y23031D01*
X703050Y21720D01*
X703432Y20458D01*
X704054Y19295D01*
X704890Y18276D01*
X705909Y17440D01*
X707072Y16818D01*
X708334Y16435D01*
X709646Y16306D01*
X710958Y16435D01*
X712219Y16818D01*
X713382Y17440D01*
X714401Y18276D01*
X715238Y19295D01*
X715859Y20458D01*
X716242Y21720D01*
X716371Y23031D01*
Y25000D01*
X716242Y26312D01*
X715859Y27574D01*
X715238Y28736D01*
X714401Y29755D01*
X713382Y30592D01*
X712219Y31213D01*
X710958Y31596D01*
X709646Y31725D01*
D02*
G37*
G36*
X663976Y34154D02*
X656496D01*
Y28051D01*
X658530D01*
Y17717D01*
X657677D01*
Y11811D01*
X662795D01*
Y17717D01*
X661942D01*
Y28051D01*
X663976D01*
Y34154D01*
D02*
G37*
G36*
X402559Y32579D02*
X395079D01*
Y26476D01*
X397113D01*
Y17717D01*
X396260D01*
Y11811D01*
X401378D01*
Y17717D01*
X400525D01*
Y26476D01*
X402559D01*
Y32579D01*
D02*
G37*
G36*
X177744Y57165D02*
X139870D01*
Y57110D01*
X93898Y57110D01*
X93437Y57018D01*
X93046Y56757D01*
X92785Y56366D01*
X92693Y55905D01*
X92693Y12992D01*
X92716Y12876D01*
Y11721D01*
X138071D01*
Y11788D01*
X141535D01*
X141652Y11811D01*
X177744D01*
Y57165D01*
D02*
G37*
G36*
X458661Y32382D02*
X451181D01*
Y26280D01*
X453215D01*
Y17323D01*
X452362D01*
Y11417D01*
X457480D01*
Y17323D01*
X456627D01*
Y26280D01*
X458661D01*
Y32382D01*
D02*
G37*
G36*
X76772D02*
X69291D01*
Y26280D01*
X71325D01*
Y17126D01*
X70473D01*
Y11220D01*
X75590D01*
Y17126D01*
X74738D01*
Y26280D01*
X76772D01*
Y32382D01*
D02*
G37*
%LPD*%
G36*
X587402Y390595D02*
X574002D01*
Y390694D01*
Y403594D01*
X587402D01*
Y390595D01*
D02*
G37*
G36*
X623425Y357087D02*
X610039D01*
Y370079D01*
X623425D01*
Y357087D01*
D02*
G37*
G36*
X235039Y405512D02*
X199606D01*
Y414567D01*
X235039D01*
Y405512D01*
D02*
G37*
G36*
X157874D02*
X122441D01*
Y414567D01*
X157874D01*
Y405512D01*
D02*
G37*
G36*
X198386Y366181D02*
Y363150D01*
X201417D01*
X233071Y331496D01*
X233071Y296850D01*
X203937Y267717D01*
X116142D01*
X108858Y260433D01*
X108858Y63976D01*
X67913Y63976D01*
X42913Y88976D01*
X42913Y359646D01*
X62795Y379527D01*
X121221Y379527D01*
Y363150D01*
X159095D01*
Y379528D01*
X185039Y379528D01*
X198386Y366181D01*
D02*
G37*
G36*
X147005Y266012D02*
X146657Y265745D01*
X146215Y265169D01*
X145937Y264499D01*
X145842Y263779D01*
X145937Y263060D01*
X146215Y262390D01*
X146657Y261814D01*
X146916Y261615D01*
Y249016D01*
X147046Y248363D01*
X147416Y247809D01*
X213904Y181321D01*
Y149140D01*
X213385Y148363D01*
X213365Y148262D01*
X212855D01*
X212835Y148363D01*
X212316Y149140D01*
Y162225D01*
X212576Y162424D01*
X213018Y163000D01*
X213295Y163670D01*
X213390Y164390D01*
X213295Y165109D01*
X213018Y165780D01*
X212576Y166355D01*
X212000Y166797D01*
X211330Y167075D01*
X210610Y167169D01*
X209891Y167075D01*
X209220Y166797D01*
X208645Y166355D01*
X208203Y165780D01*
X207925Y165109D01*
X207831Y164390D01*
X207925Y163670D01*
X208203Y163000D01*
X208645Y162424D01*
X208904Y162225D01*
Y149140D01*
X208385Y148363D01*
X208365Y148262D01*
X207855D01*
X207835Y148363D01*
X207313Y149144D01*
X206532Y149666D01*
X205610Y149849D01*
X204689Y149666D01*
X203907Y149144D01*
X203385Y148363D01*
X203365Y148262D01*
X202855D01*
X202835Y148363D01*
X202316Y149140D01*
Y190728D01*
X202186Y191381D01*
X201817Y191935D01*
X144226Y249526D01*
Y261615D01*
X144485Y261814D01*
X144927Y262390D01*
X145205Y263060D01*
X145299Y263779D01*
X145205Y264499D01*
X144927Y265169D01*
X144485Y265745D01*
X144137Y266012D01*
X144307Y266512D01*
X146835D01*
X147005Y266012D01*
D02*
G37*
G36*
X110956Y250287D02*
X112025Y249466D01*
X112700Y249187D01*
Y161066D01*
X112641Y161021D01*
X112199Y160445D01*
X111921Y159774D01*
X111827Y159055D01*
X111921Y158336D01*
X112199Y157665D01*
X112539Y157222D01*
X112602Y156880D01*
X112539Y156537D01*
X112199Y156095D01*
X111921Y155424D01*
X111827Y154705D01*
X111921Y153985D01*
X112199Y153315D01*
X112641Y152739D01*
X112700Y152694D01*
Y121679D01*
X112025Y121400D01*
X110956Y120579D01*
X110563Y120067D01*
X110063Y120236D01*
X110063Y250630D01*
X110563Y250800D01*
X110956Y250287D01*
D02*
G37*
G36*
X251969Y43701D02*
X251969Y26969D01*
X241339D01*
X241339Y37598D01*
X237992Y40945D01*
X192126D01*
X192126Y50197D01*
X196457Y54527D01*
X241142Y54528D01*
X251969Y43701D01*
D02*
G37*
%LPC*%
G36*
X169606Y351651D02*
X168101Y351503D01*
X166654Y351064D01*
X165321Y350351D01*
X164152Y349392D01*
X163192Y348223D01*
X162479Y346889D01*
X162040Y345442D01*
X161892Y343937D01*
X162040Y342432D01*
X162479Y340985D01*
X163192Y339651D01*
X164152Y338482D01*
X165321Y337523D01*
X166654Y336810D01*
X168101Y336371D01*
X169606Y336223D01*
X171111Y336371D01*
X172558Y336810D01*
X173892Y337523D01*
X175061Y338482D01*
X176021Y339651D01*
X176733Y340985D01*
X177172Y342432D01*
X177321Y343937D01*
X177172Y345442D01*
X176733Y346889D01*
X176021Y348223D01*
X175061Y349392D01*
X173892Y350351D01*
X172558Y351064D01*
X171111Y351503D01*
X169606Y351651D01*
D02*
G37*
G36*
Y321651D02*
X168101Y321503D01*
X166654Y321064D01*
X165321Y320351D01*
X164152Y319392D01*
X163192Y318223D01*
X162479Y316889D01*
X162040Y315442D01*
X161892Y313937D01*
X162040Y312432D01*
X162479Y310985D01*
X163192Y309651D01*
X164152Y308482D01*
X165321Y307523D01*
X166654Y306810D01*
X168101Y306371D01*
X169606Y306223D01*
X171111Y306371D01*
X172558Y306810D01*
X173892Y307523D01*
X175061Y308482D01*
X176021Y309651D01*
X176733Y310985D01*
X177172Y312432D01*
X177321Y313937D01*
X177172Y315442D01*
X176733Y316889D01*
X176021Y318223D01*
X175061Y319392D01*
X173892Y320351D01*
X172558Y321064D01*
X171111Y321503D01*
X169606Y321651D01*
D02*
G37*
G36*
X100106Y311420D02*
Y304437D01*
X107089D01*
X106994Y305406D01*
X106565Y306820D01*
X105869Y308122D01*
X104932Y309263D01*
X103791Y310200D01*
X102489Y310896D01*
X101076Y311325D01*
X100106Y311420D01*
D02*
G37*
G36*
X221760Y311420D02*
Y304437D01*
X228743D01*
X228647Y305406D01*
X228219Y306820D01*
X227523Y308122D01*
X226586Y309263D01*
X225445Y310200D01*
X224142Y310896D01*
X222729Y311325D01*
X221760Y311420D01*
D02*
G37*
G36*
X220760Y311420D02*
X219790Y311325D01*
X218377Y310896D01*
X217075Y310200D01*
X215934Y309263D01*
X214997Y308122D01*
X214301Y306820D01*
X213872Y305406D01*
X213777Y304437D01*
X220760D01*
Y311420D01*
D02*
G37*
G36*
X99106D02*
X98137Y311325D01*
X96724Y310896D01*
X95422Y310200D01*
X94280Y309263D01*
X93343Y308122D01*
X92647Y306820D01*
X92219Y305406D01*
X92123Y304437D01*
X99106D01*
Y311420D01*
D02*
G37*
G36*
X220760Y303437D02*
X213777D01*
X213872Y302467D01*
X214301Y301055D01*
X214997Y299752D01*
X215934Y298611D01*
X217075Y297674D01*
X218377Y296978D01*
X219790Y296549D01*
X220760Y296454D01*
Y303437D01*
D02*
G37*
G36*
X107089D02*
X100106D01*
Y296454D01*
X101076Y296549D01*
X102489Y296978D01*
X103791Y297674D01*
X104932Y298611D01*
X105869Y299752D01*
X106565Y301055D01*
X106994Y302467D01*
X107089Y303437D01*
D02*
G37*
G36*
X99106D02*
X92123D01*
X92219Y302467D01*
X92647Y301055D01*
X93343Y299752D01*
X94280Y298611D01*
X95422Y297674D01*
X96724Y296978D01*
X98137Y296549D01*
X99106Y296454D01*
Y303437D01*
D02*
G37*
G36*
X228743D02*
X221760D01*
Y296454D01*
X222729Y296549D01*
X224142Y296978D01*
X225445Y297674D01*
X226586Y298611D01*
X227523Y299752D01*
X228219Y301055D01*
X228647Y302467D01*
X228743Y303437D01*
D02*
G37*
G36*
X100106Y174412D02*
Y167429D01*
X107089D01*
X106994Y168399D01*
X106565Y169812D01*
X105869Y171114D01*
X104932Y172255D01*
X103791Y173192D01*
X102489Y173888D01*
X101076Y174317D01*
X100106Y174412D01*
D02*
G37*
G36*
X99106D02*
X98137Y174317D01*
X96724Y173888D01*
X95422Y173192D01*
X94280Y172255D01*
X93343Y171114D01*
X92647Y169812D01*
X92219Y168399D01*
X92123Y167429D01*
X99106D01*
Y174412D01*
D02*
G37*
G36*
X107089Y166429D02*
X100106D01*
Y159446D01*
X101076Y159541D01*
X102489Y159970D01*
X103791Y160666D01*
X104932Y161603D01*
X105869Y162744D01*
X106565Y164047D01*
X106994Y165460D01*
X107089Y166429D01*
D02*
G37*
G36*
X99106D02*
X92123D01*
X92219Y165460D01*
X92647Y164047D01*
X93343Y162744D01*
X94280Y161603D01*
X95422Y160666D01*
X96724Y159970D01*
X98137Y159541D01*
X99106Y159446D01*
Y166429D01*
D02*
G37*
%LPD*%
G36*
X520472Y337744D02*
X507072D01*
Y337844D01*
Y350744D01*
X520472D01*
Y337744D01*
D02*
G37*
G36*
X587402Y337595D02*
X574002D01*
Y337695D01*
Y350594D01*
X587402D01*
Y337595D01*
D02*
G37*
G36*
X553543Y337595D02*
X540143D01*
Y337695D01*
Y350594D01*
X553543D01*
Y337595D01*
D02*
G37*
G36*
X487416D02*
X474016D01*
Y337695D01*
Y350594D01*
X487416D01*
Y337595D01*
D02*
G37*
G36*
X453937D02*
X440537D01*
Y337695D01*
Y350594D01*
X453937D01*
Y337595D01*
D02*
G37*
G36*
X420880D02*
X407480D01*
Y337695D01*
Y350594D01*
X420880D01*
Y337595D01*
D02*
G37*
G36*
X387402Y337350D02*
X374002D01*
Y337450D01*
Y350350D01*
X387402D01*
Y337350D01*
D02*
G37*
G36*
X353951Y337201D02*
X340551D01*
Y337301D01*
Y350201D01*
X353951D01*
Y337201D01*
D02*
G37*
G36*
X623228Y328150D02*
X609842D01*
Y341142D01*
X623228D01*
Y328150D01*
D02*
G37*
G36*
X298819Y311024D02*
X376969Y311024D01*
X376969Y254134D01*
X294193Y254134D01*
Y306398D01*
X288976Y311614D01*
X293602Y316240D01*
X298819Y311024D01*
D02*
G37*
G36*
X339567Y103346D02*
X343307Y99606D01*
Y82677D01*
X336614D01*
Y87402D01*
X333268Y90748D01*
X308071Y90748D01*
X304724Y94095D01*
X298622D01*
X298622Y103347D01*
X339567Y103346D01*
D02*
G37*
G36*
X440899Y138128D02*
X441011Y138013D01*
Y137715D01*
X439542Y136246D01*
X439172Y135692D01*
X439042Y135039D01*
Y130905D01*
X438783Y130706D01*
X438341Y130130D01*
X438063Y129460D01*
X437968Y128740D01*
X438063Y128021D01*
X438341Y127350D01*
X438783Y126775D01*
X439244Y126421D01*
X439311Y126007D01*
X439285Y125822D01*
X438979Y125588D01*
X438538Y125012D01*
X438260Y124341D01*
X438165Y123622D01*
X438260Y122903D01*
X438538Y122232D01*
X438979Y121657D01*
X438988Y121519D01*
X437486Y120017D01*
X436944Y120182D01*
X436905Y120376D01*
X436514Y120962D01*
X435927Y121354D01*
X435703Y121399D01*
Y121908D01*
X435927Y121953D01*
X436514Y122345D01*
X436905Y122931D01*
X437043Y123622D01*
X436905Y124313D01*
X436709Y124606D01*
X436905Y124899D01*
X437043Y125591D01*
X436905Y126282D01*
X436709Y126575D01*
X436905Y126868D01*
X437043Y127559D01*
X436905Y128250D01*
X436709Y128543D01*
X436905Y128836D01*
X437043Y129527D01*
X436905Y130219D01*
X436709Y130512D01*
X436905Y130805D01*
X437043Y131496D01*
X436905Y132187D01*
X436709Y132480D01*
X436905Y132773D01*
X437043Y133465D01*
X436905Y134156D01*
X436709Y134449D01*
X436905Y134742D01*
X437043Y135433D01*
X437031Y135491D01*
X437031Y136312D01*
X437900Y137182D01*
X438721Y137182D01*
X438779Y137170D01*
X439471Y137308D01*
X440057Y137699D01*
X440285Y138041D01*
X440878Y138135D01*
X440899Y138128D01*
D02*
G37*
G36*
X481299Y140354D02*
X470866D01*
X469095Y138583D01*
Y135433D01*
X463386D01*
Y139173D01*
X468504Y144291D01*
X481299D01*
Y140354D01*
D02*
G37*
G36*
X434055Y146260D02*
X436221Y144095D01*
X438779D01*
Y138386D01*
X437402Y138386D01*
X435827Y136811D01*
X435827Y135433D01*
X430118D01*
Y156102D01*
X434055D01*
Y146260D01*
D02*
G37*
G36*
X489042Y184923D02*
Y135290D01*
X489041Y135290D01*
X488542Y135163D01*
X488186Y135627D01*
X487610Y136069D01*
X486940Y136346D01*
X486221Y136441D01*
X485501Y136346D01*
X484831Y136069D01*
X484255Y135627D01*
X484056Y135367D01*
X483465D01*
X482812Y135238D01*
X482258Y134868D01*
X480593Y133202D01*
X469008D01*
X468970Y133210D01*
Y133720D01*
X469195Y133764D01*
X469781Y134156D01*
X470173Y134742D01*
X470310Y135433D01*
X470299Y135491D01*
Y138084D01*
X471365Y139150D01*
X481299D01*
X481760Y139242D01*
X482151Y139503D01*
X482412Y139893D01*
X482503Y140354D01*
Y144291D01*
X482412Y144752D01*
X482151Y145143D01*
X481760Y145404D01*
X481299Y145496D01*
X468504D01*
X468043Y145404D01*
X467652Y145143D01*
X462739Y140230D01*
X462239Y140437D01*
Y143504D01*
X462139Y144009D01*
Y145473D01*
X462399Y145672D01*
X462840Y146248D01*
X463118Y146918D01*
X463213Y147638D01*
X463118Y148357D01*
X462840Y149028D01*
X462399Y149603D01*
X461823Y150045D01*
X461153Y150323D01*
X460433Y150417D01*
X459714Y150323D01*
X459043Y150045D01*
X458468Y149603D01*
X458026Y149028D01*
X457748Y148357D01*
X457653Y147638D01*
X457748Y146918D01*
X458026Y146248D01*
X458369Y145800D01*
X458272Y145379D01*
X458189Y145255D01*
X457773Y145173D01*
X457480Y144977D01*
X457187Y145173D01*
X456496Y145310D01*
X455805Y145173D01*
X455512Y144977D01*
X455219Y145173D01*
X454528Y145310D01*
X454265Y145526D01*
Y153624D01*
X456718Y156077D01*
X457088Y156631D01*
X457218Y157283D01*
Y158662D01*
X457477Y158861D01*
X457919Y159437D01*
X458197Y160107D01*
X458291Y160827D01*
X458197Y161546D01*
X457919Y162217D01*
X457477Y162792D01*
X456902Y163234D01*
X456231Y163512D01*
X455512Y163606D01*
X455505Y163605D01*
X455271Y164079D01*
X455340Y164148D01*
X455710Y164701D01*
X455840Y165354D01*
Y166930D01*
X456099Y167129D01*
X456541Y167705D01*
X456819Y168375D01*
X456914Y169095D01*
X456819Y169814D01*
X456541Y170484D01*
X456099Y171060D01*
X455524Y171502D01*
X454853Y171779D01*
X454134Y171874D01*
X453414Y171779D01*
X452744Y171502D01*
X452168Y171060D01*
X451727Y170484D01*
X451483Y169896D01*
X451312Y169821D01*
X451268Y169812D01*
X450944Y169808D01*
X450588Y170273D01*
X450012Y170714D01*
X449341Y170992D01*
X448622Y171087D01*
X447903Y170992D01*
X447232Y170714D01*
X446657Y170273D01*
X446215Y169697D01*
X445937Y169027D01*
X445842Y168307D01*
X445937Y167588D01*
X446215Y166917D01*
X446657Y166342D01*
X446916Y166142D01*
Y163386D01*
X442224D01*
Y155905D01*
X443570D01*
Y152953D01*
X443699Y152300D01*
X444069Y151746D01*
X444947Y150868D01*
Y145526D01*
X444685Y145310D01*
X443994Y145173D01*
X443701Y144977D01*
X443408Y145173D01*
X442717Y145310D01*
X442025Y145173D01*
X441439Y144781D01*
X441048Y144195D01*
X441003Y143970D01*
X440493D01*
X440448Y144195D01*
X440057Y144781D01*
X439471Y145173D01*
X438779Y145310D01*
X438721Y145299D01*
X436719D01*
X435259Y146759D01*
Y156102D01*
X435168Y156563D01*
X434907Y156954D01*
X434516Y157215D01*
X434055Y157307D01*
X430118D01*
X429657Y157215D01*
X429267Y156954D01*
X429047Y156625D01*
X428776Y156590D01*
X428507Y156622D01*
X428392Y156902D01*
X427950Y157477D01*
X427690Y157676D01*
Y162876D01*
X451403Y186589D01*
X451773Y187142D01*
X451903Y187795D01*
Y194587D01*
X453740D01*
Y198327D01*
Y201613D01*
X454134Y201870D01*
X461614D01*
Y203215D01*
X470750D01*
X489042Y184923D01*
D02*
G37*
G36*
X484255Y131696D02*
X484831Y131254D01*
X485019Y131176D01*
Y130635D01*
X484831Y130557D01*
X484255Y130115D01*
X484056Y129856D01*
X483268D01*
X482615Y129726D01*
X482061Y129356D01*
X480002Y127296D01*
X470526D01*
X470310Y127559D01*
X470173Y128250D01*
X469977Y128543D01*
X470173Y128836D01*
X470310Y129527D01*
X470526Y129790D01*
X481299D01*
X481952Y129920D01*
X482506Y130290D01*
X483933Y131717D01*
X484255Y131696D01*
D02*
G37*
G36*
X429771Y121416D02*
X429745Y121391D01*
X428543D01*
X427890Y121261D01*
X427337Y120891D01*
X422226Y115781D01*
X420965D01*
X420800Y115748D01*
X416142D01*
Y115641D01*
X415787Y115403D01*
X415642Y115387D01*
X414961Y115477D01*
X414241Y115382D01*
X414017Y115289D01*
X413517Y115623D01*
Y121341D01*
X414092Y121916D01*
X429568D01*
X429771Y121416D01*
D02*
G37*
G36*
X414241Y110012D02*
X414961Y109917D01*
X415642Y110007D01*
X415787Y109990D01*
X416142Y109753D01*
Y109646D01*
X423097D01*
Y106612D01*
X420053Y103568D01*
X419684Y103015D01*
X419554Y102362D01*
Y97381D01*
X419080Y97221D01*
X418991Y97337D01*
X417983Y98110D01*
X417257Y98411D01*
Y103937D01*
X417127Y104590D01*
X416757Y105143D01*
X413517Y108384D01*
Y109771D01*
X414017Y110105D01*
X414241Y110012D01*
D02*
G37*
G36*
X469291Y105709D02*
Y92913D01*
X465354D01*
Y103347D01*
X463583Y105118D01*
X460433D01*
Y110827D01*
X464173D01*
X469291Y105709D01*
D02*
G37*
G36*
X334646Y62008D02*
X297047Y62008D01*
X297047Y68898D01*
X334646Y68898D01*
X334646Y62008D01*
D02*
G37*
G36*
X357677Y84646D02*
X364764Y77559D01*
Y73425D01*
X359252D01*
X357677Y71850D01*
X348622D01*
Y76181D01*
X351378Y78937D01*
Y98622D01*
X357677D01*
Y84646D01*
D02*
G37*
G36*
X141535Y12992D02*
X93898D01*
X93898Y55905D01*
X141535Y55905D01*
Y12992D01*
D02*
G37*
%LPC*%
G36*
X298342Y505307D02*
X289256D01*
Y501657D01*
Y500402D01*
X298342D01*
Y501657D01*
Y505307D01*
D02*
G37*
G36*
X287516D02*
X278429D01*
Y501657D01*
Y500402D01*
X287516D01*
Y501657D01*
Y505307D01*
D02*
G37*
G36*
X298342Y499402D02*
X289256D01*
Y495752D01*
Y494496D01*
X298342D01*
Y495752D01*
Y499402D01*
D02*
G37*
G36*
X287516D02*
X278429D01*
Y495752D01*
Y494496D01*
X287516D01*
Y495752D01*
Y499402D01*
D02*
G37*
G36*
X298342Y493496D02*
X289256D01*
Y489847D01*
Y488590D01*
X298342D01*
Y489847D01*
Y493496D01*
D02*
G37*
G36*
X287516D02*
X278429D01*
Y489847D01*
Y488590D01*
X287516D01*
Y489847D01*
Y493496D01*
D02*
G37*
G36*
X298342Y487591D02*
X289256D01*
Y483941D01*
Y482685D01*
X298342D01*
Y483941D01*
Y487591D01*
D02*
G37*
G36*
X287516D02*
X278429D01*
Y483941D01*
Y482685D01*
X287516D01*
Y483941D01*
Y487591D01*
D02*
G37*
G36*
X298342Y481685D02*
X289256D01*
Y478035D01*
Y476780D01*
X298342D01*
Y478035D01*
Y481685D01*
D02*
G37*
G36*
X287516D02*
X278429D01*
Y478035D01*
Y476780D01*
X287516D01*
Y478035D01*
Y481685D01*
D02*
G37*
G36*
X304126Y475779D02*
X300083D01*
Y472130D01*
X304126D01*
Y475779D01*
D02*
G37*
G36*
X298342D02*
X294299D01*
Y472130D01*
X298342D01*
Y475779D01*
D02*
G37*
G36*
X293299D02*
X289256D01*
Y472130D01*
X293299D01*
Y475779D01*
D02*
G37*
G36*
X287516D02*
X283472D01*
Y472130D01*
X287516D01*
Y475779D01*
D02*
G37*
G36*
X282472D02*
X278429D01*
Y472130D01*
X282472D01*
Y475779D01*
D02*
G37*
G36*
X276689D02*
X272646D01*
Y472130D01*
X276689D01*
Y475779D01*
D02*
G37*
G36*
X378723Y473811D02*
X375500D01*
Y470589D01*
X375980Y470652D01*
X376894Y471030D01*
X377679Y471632D01*
X378281Y472417D01*
X378659Y473331D01*
X378723Y473811D01*
D02*
G37*
G36*
X343004D02*
X339781D01*
X339845Y473331D01*
X340223Y472417D01*
X340825Y471632D01*
X341610Y471030D01*
X342524Y470652D01*
X343004Y470589D01*
Y473811D01*
D02*
G37*
%LPD*%
D11*
X349114Y57421D02*
X349606Y57913D01*
X346457Y54724D02*
X349114Y57382D01*
X295472Y54724D02*
X346457D01*
X349606Y57913D02*
X349646D01*
X349114Y57382D02*
Y57421D01*
X295472Y88386D02*
X295620Y88534D01*
X301033D01*
X301181Y82579D02*
Y88681D01*
X419882Y119980D02*
X425098D01*
X426772Y121653D01*
X432972D01*
X323327Y165748D02*
X349410D01*
X357677Y128937D02*
Y157480D01*
X349410Y165748D02*
X357677Y157480D01*
X323425Y158366D02*
Y165650D01*
X323327Y165748D02*
X323425Y165650D01*
X440945Y121063D02*
Y123622D01*
X437598Y117717D02*
X440945Y121063D01*
X432972Y117717D02*
X437598D01*
X422933Y114075D02*
X428543Y119685D01*
X432972D01*
X420965Y114075D02*
X422933D01*
X419882Y112992D02*
X420965Y114075D01*
X428150Y115748D02*
X432972D01*
X424803Y105905D02*
Y112402D01*
X428150Y115748D01*
X426968Y100394D02*
Y111417D01*
X429331Y113779D02*
X432972D01*
X426968Y111417D02*
X429331Y113779D01*
X389961Y93898D02*
X415551D01*
Y103937D01*
X411811Y107677D02*
X415551Y103937D01*
X411811Y107677D02*
Y122047D01*
X362402Y96653D02*
X362402Y96653D01*
Y119003D01*
X370276Y100394D02*
Y155512D01*
X411024Y226378D02*
X415945Y221457D01*
X463386D01*
X411024Y226378D02*
Y233858D01*
X463386Y221457D02*
X495472Y189370D01*
X433071Y227362D02*
X434842Y225590D01*
X433071Y227362D02*
Y234842D01*
X434842Y225590D02*
X467126D01*
X433071Y234842D02*
Y244094D01*
X467126Y225590D02*
X500000Y192717D01*
X411024Y233858D02*
Y244094D01*
X446260Y237205D02*
Y256102D01*
X414370Y306890D02*
X425787Y295472D01*
X441339Y261024D02*
X446260Y256102D01*
X425787Y266929D02*
X431693Y261024D01*
X441339D01*
X425787Y266929D02*
Y295472D01*
X433071Y244094D02*
Y249213D01*
X419882Y261910D02*
X420571D01*
X421949Y260531D01*
Y260335D02*
Y260531D01*
Y260335D02*
X433071Y249213D01*
X393504Y322638D02*
X419882Y296260D01*
Y268492D02*
Y296260D01*
X411024Y269291D02*
Y299803D01*
X391535Y319291D02*
X411024Y299803D01*
X414370Y306890D02*
Y306890D01*
X395276Y325984D02*
X414370Y306890D01*
X401772Y242913D02*
Y272441D01*
X404528Y275197D01*
Y301575D01*
X389961Y316142D02*
X404528Y301575D01*
X297441Y210039D02*
Y215453D01*
X276063Y207677D02*
X295079D01*
X297441Y210039D01*
X273366Y210374D02*
X276063Y207677D01*
X254921Y207579D02*
X255020Y207480D01*
X270472D02*
X273366Y210374D01*
X255020Y207480D02*
X270472D01*
X295866Y222638D02*
X326083D01*
X266831Y200295D02*
X268366Y198760D01*
Y193602D02*
Y198760D01*
X254921Y200295D02*
X266831D01*
X273366Y210374D02*
Y215059D01*
X388976Y291437D02*
X389075Y291339D01*
X397539D02*
X397638Y291437D01*
X389075Y291339D02*
X397539D01*
X388976Y280413D02*
Y291437D01*
X432677Y36811D02*
X448622Y52756D01*
Y107972D01*
X398819Y36811D02*
X432677D01*
X536614Y172592D02*
Y240158D01*
X532441Y244331D02*
X536614Y240158D01*
X539961Y206890D02*
Y243307D01*
X522244Y200590D02*
X533858Y212205D01*
X522244Y14961D02*
Y200590D01*
X533858Y212205D02*
Y232480D01*
X336417Y325984D02*
X395276D01*
X333661Y322638D02*
X393504D01*
X331693Y319291D02*
X391535D01*
X329724Y316142D02*
X389961D01*
X73032Y14173D02*
Y29331D01*
X36417Y139567D02*
Y360039D01*
X60335Y383957D01*
Y384646D01*
X256376Y442990D02*
X257480Y444095D01*
X245866Y439173D02*
X249683Y442990D01*
X245866Y410039D02*
Y439173D01*
X249683Y442990D02*
X256376D01*
X579724Y497933D02*
Y505807D01*
X571850Y497933D02*
Y505807D01*
X563976Y497933D02*
Y505807D01*
Y490059D02*
Y497933D01*
X571850Y490059D02*
Y497933D01*
X579724Y490059D02*
Y497933D01*
X587598Y490059D02*
Y497933D01*
X595472Y490059D02*
Y497933D01*
X571850Y505807D02*
X579724D01*
X563976D02*
X571850D01*
X587598Y497933D02*
X595472D01*
X579724D02*
X587598D01*
X571850D02*
X579724D01*
X563976D02*
X571850D01*
X587598Y490059D02*
X595472D01*
X579724D02*
X587598D01*
X571850D02*
X579724D01*
X563976D02*
X571850D01*
X343504D02*
Y497933D01*
Y482185D02*
Y490059D01*
Y474311D02*
Y482185D01*
X351378Y490059D02*
Y497933D01*
Y482185D02*
Y490059D01*
Y474311D02*
Y482185D01*
X359252Y490059D02*
Y497933D01*
Y482185D02*
Y490059D01*
Y474311D02*
Y482185D01*
X367126Y490059D02*
Y497933D01*
Y482185D02*
Y490059D01*
Y474311D02*
Y482185D01*
X375000Y490059D02*
Y497933D01*
Y482185D02*
Y490059D01*
Y474311D02*
Y482185D01*
X367126Y474311D02*
X375000D01*
X359252D02*
X367126D01*
X351378D02*
X359252D01*
X343504D02*
X351378D01*
X367126Y482185D02*
X375000D01*
X359252D02*
X367126D01*
X351378D02*
X359252D01*
X343504D02*
X351378D01*
X367126Y490059D02*
X375000D01*
X359252D02*
X367126D01*
X351378D02*
X359252D01*
X343504D02*
X351378D01*
X367126Y497933D02*
X375000D01*
X359252D02*
X367126D01*
X351378D02*
X359252D01*
X343504D02*
X351378D01*
X359252D02*
Y505807D01*
X320079Y138189D02*
X328937D01*
X320079Y138189D02*
X320079Y138189D01*
X328937D02*
X328937Y138189D01*
X260413Y132461D02*
X260433Y132480D01*
X260413Y124114D02*
Y132461D01*
X255413Y124114D02*
X260413D01*
X319488Y130709D02*
X328937D01*
X314173Y130709D02*
X319390D01*
X306102Y137776D02*
Y206890D01*
X281693Y222638D02*
X295866D01*
X278366Y219311D02*
X281693Y222638D01*
X250413Y124114D02*
Y137776D01*
X366339Y87402D02*
Y149803D01*
X421260Y81693D02*
Y102362D01*
X450197Y187795D02*
Y196850D01*
X425984Y155512D02*
Y163583D01*
X450197Y187795D01*
X419291Y149803D02*
Y163779D01*
X444882Y189370D02*
Y199409D01*
X419291Y163779D02*
X444882Y189370D01*
X446063Y200591D02*
X450197D01*
X444882Y199409D02*
X446063Y200591D01*
X421260Y102362D02*
X424803Y105905D01*
X452559Y87205D02*
Y107972D01*
Y87205D02*
X461221Y78543D01*
Y41732D02*
Y78543D01*
X456890Y88779D02*
Y91535D01*
X454528Y93898D02*
Y107972D01*
Y93898D02*
X456890Y91535D01*
X456496Y95472D02*
X462508Y89461D01*
Y85130D02*
Y89461D01*
X456496Y95472D02*
Y107972D01*
X500000Y76968D02*
X500000Y192717D01*
X495472Y80905D02*
Y189370D01*
X411024Y244094D02*
Y262008D01*
X457874Y204921D02*
X471457D01*
X490748Y73425D02*
Y185630D01*
X471457Y204921D02*
X490748Y185630D01*
X496063Y204528D02*
X506102Y194488D01*
Y152165D02*
Y194488D01*
X496063Y204528D02*
Y216732D01*
X510039Y160827D02*
Y196457D01*
X501968Y204528D02*
X510039Y196457D01*
X431299Y73425D02*
Y93110D01*
X438779Y100591D01*
Y107972D01*
X437008Y76968D02*
Y93307D01*
X440748Y97047D02*
Y107972D01*
X437008Y93307D02*
X440748Y97047D01*
X442717Y80905D02*
Y107972D01*
X398819Y14764D02*
Y29528D01*
X398819Y29528D02*
X398819Y29528D01*
X454921Y14370D02*
Y29331D01*
Y36614D02*
Y80315D01*
X450591Y84646D02*
X454921Y80315D01*
X450591Y84646D02*
Y107972D01*
X462508Y85130D02*
X462598Y85039D01*
X73032Y36614D02*
Y41732D01*
X245276Y73425D02*
Y165945D01*
X242717Y90354D02*
Y128937D01*
Y90354D02*
Y91929D01*
X240354Y131299D02*
X242717Y128937D01*
X239961Y87598D02*
X242717Y90354D01*
X170079Y241142D02*
X245276Y165945D01*
X226772Y118504D02*
X233268D01*
X225610Y119665D02*
X226772Y118504D01*
X225610Y119665D02*
Y124311D01*
X230118Y89370D02*
Y97047D01*
X214961Y92913D02*
Y97047D01*
X199803D02*
Y109449D01*
X200610Y114547D02*
Y124311D01*
Y114547D02*
X203543Y111614D01*
Y106102D02*
Y111614D01*
X224213Y107480D02*
Y110776D01*
X215610Y119378D02*
Y124311D01*
Y119378D02*
X224213Y110776D01*
X205561Y115207D02*
Y124262D01*
X205610Y124311D01*
X205512Y115157D02*
X205561Y115207D01*
X476575Y108661D02*
X486811D01*
X471457Y113779D02*
X476575Y108661D01*
X466240Y113779D02*
X471457D01*
X477165Y112205D02*
X482874D01*
X473622Y115748D02*
X477165Y112205D01*
X466240Y115748D02*
X473622D01*
X477756Y115945D02*
X486614D01*
X475984Y117717D02*
X477756Y115945D01*
X466240Y117717D02*
X475984D01*
X466240Y119685D02*
X482480D01*
X482480Y119685D01*
X496063Y216732D02*
X496063Y216732D01*
X319390Y130709D02*
X319488Y130610D01*
X440748Y128740D02*
Y135039D01*
X442717Y137008D02*
Y141240D01*
X440748Y135039D02*
X442717Y137008D01*
X444685Y134055D02*
X444685Y134055D01*
Y141240D01*
X339567Y138189D02*
Y160827D01*
X455512Y157283D02*
Y160827D01*
X452559Y154331D02*
X455512Y157283D01*
X452559Y141240D02*
Y154331D01*
X454134Y165354D02*
Y169095D01*
X450591Y141240D02*
Y161811D01*
X454134Y165354D01*
X448622Y168307D02*
X448622Y168307D01*
Y141240D02*
Y168307D01*
X501968Y204528D02*
Y223031D01*
X503150Y224213D01*
X506693D01*
X549409Y164567D02*
Y219331D01*
X543110Y227559D02*
X544882Y229331D01*
X543110Y169086D02*
Y227559D01*
X544882Y229331D02*
X549409D01*
X446654Y141240D02*
Y151575D01*
X445276Y152953D02*
X446654Y151575D01*
X445276Y152953D02*
Y159646D01*
X532008Y234331D02*
X533858Y232480D01*
X527953Y234331D02*
X532008D01*
X527953Y244331D02*
X532441D01*
X373622Y172638D02*
X373622Y172638D01*
X373622Y172638D02*
Y184252D01*
X457283Y204331D02*
X457874Y204921D01*
X450197Y204331D02*
X457283D01*
X422146D02*
X439567D01*
X406890D02*
X414862D01*
X406299D02*
X406890D01*
X397835Y208071D02*
X402559D01*
X406299Y204331D01*
X381496Y208071D02*
X397835D01*
X369882Y193307D02*
X377362D01*
X377461Y193405D02*
X390551D01*
X377362Y193307D02*
X377461Y193405D01*
X390551D02*
Y204331D01*
X533937Y249331D02*
X539961Y243307D01*
X527953Y249331D02*
X533937D01*
X506693Y206890D02*
Y216732D01*
X527953Y229331D02*
Y234331D01*
X527894Y224272D02*
X527953Y224331D01*
X506752Y224272D02*
X527894D01*
X506693Y224213D02*
X506752Y224272D01*
X516535Y14764D02*
Y30512D01*
X522047Y14764D02*
X522244Y14961D01*
X480758Y239567D02*
X486221D01*
X475295D02*
X480758D01*
X486221D02*
X486221Y239567D01*
X482283Y248228D02*
Y253346D01*
Y248228D02*
X486221Y244291D01*
Y239567D02*
Y244291D01*
X493504Y239567D02*
X493504Y239567D01*
X493504Y239567D02*
Y253346D01*
X511457Y239331D02*
X527953D01*
X511417Y239370D02*
X511457Y239331D01*
X502559Y239469D02*
X511319D01*
X511417Y239370D01*
X493504Y239567D02*
X502461D01*
X502559Y239469D01*
X590650Y219390D02*
X592815Y217224D01*
Y211221D02*
Y217224D01*
X590650Y219390D02*
Y224409D01*
X581595Y211221D02*
Y217421D01*
X583366Y219193D02*
Y224409D01*
X581595Y217421D02*
X583366Y219193D01*
X583268Y224311D02*
X583366Y224409D01*
X574016Y224311D02*
X583268D01*
X564961D02*
X574016D01*
X564941Y224331D02*
X564961Y224311D01*
X549409Y224331D02*
X564941D01*
X549409Y234331D02*
X565079D01*
X565158Y234252D01*
X574213D01*
X574213Y234252D01*
X574213Y234252D01*
X583366D01*
X581595Y243012D02*
X583366Y241240D01*
Y234252D02*
Y241240D01*
X581595Y243012D02*
Y247244D01*
X590551Y234350D02*
X590650Y234252D01*
X590551Y234350D02*
Y240748D01*
X592815Y243012D02*
Y247244D01*
X590551Y240748D02*
X592815Y243012D01*
X590650Y234252D02*
X590650Y234252D01*
X600787D01*
X606299D01*
X610433Y238386D01*
Y242913D01*
X314764Y331102D02*
X329724Y316142D01*
X327756Y334646D02*
X336417Y325984D01*
X314764Y331102D02*
Y410827D01*
X319291Y331693D02*
Y410630D01*
Y331693D02*
X331693Y319291D01*
X324016Y332283D02*
Y410630D01*
Y332283D02*
X333661Y322638D01*
X327756Y334646D02*
Y409252D01*
X314764Y410827D02*
X333858Y429921D01*
X327756Y409252D02*
X386417Y467913D01*
X324016Y410630D02*
X383071Y469685D01*
X590650Y224409D02*
X590748Y224311D01*
X600591D01*
X611221D01*
X319291Y410630D02*
X336811Y428150D01*
X383465Y509842D02*
X386417Y506890D01*
Y467913D02*
Y506890D01*
X383071Y469685D02*
Y503150D01*
X336811Y428150D02*
Y504134D01*
X333858Y429921D02*
Y506299D01*
X263366Y187618D02*
X263386Y187598D01*
X263366Y187618D02*
Y193602D01*
X268366D02*
X273366D01*
X333366Y226870D02*
X335512Y229016D01*
Y237992D01*
X333366Y222638D02*
Y226870D01*
Y222638D02*
X341142D01*
X278366Y215059D02*
Y219311D01*
X268366Y229784D02*
X288386Y249803D01*
X384449D02*
X388976Y254331D01*
X288386Y249803D02*
X384449D01*
X268366Y215059D02*
Y229784D01*
X388976Y254331D02*
Y280413D01*
X170571Y410039D02*
X177067D01*
X177114Y409992D01*
Y395827D02*
Y409992D01*
X164567Y393110D02*
X167283Y395827D01*
X177114D01*
X164567Y388090D02*
Y393110D01*
X156496Y466142D02*
X163484D01*
Y437532D02*
X176921Y424094D01*
X180315D01*
X163484Y437532D02*
Y466142D01*
X190433Y424094D02*
X192913Y426575D01*
X180315Y424094D02*
X190433D01*
X192913Y426575D02*
Y431988D01*
X253248Y402165D02*
Y409941D01*
X253150Y410039D02*
X253248Y409941D01*
X253150Y410039D02*
Y421083D01*
X256161Y424094D01*
X257480D01*
X257559Y424016D02*
X269882D01*
X257480Y424094D02*
X257559Y424016D01*
X264724Y441083D02*
X269882Y435925D01*
X260492Y441083D02*
X264724D01*
X257480Y444095D02*
X260492Y441083D01*
X269882Y435236D02*
Y435925D01*
X222441Y44587D02*
X229429D01*
X233858Y49016D02*
Y75689D01*
X229429Y44587D02*
X233858Y49016D01*
Y82972D02*
Y106102D01*
X218701Y85827D02*
Y106102D01*
Y85827D02*
X218898Y85630D01*
Y73425D02*
Y78347D01*
X239961Y61417D02*
X242717Y58661D01*
X239961Y61417D02*
Y87598D01*
X242717Y58661D02*
X256693Y44685D01*
X170079Y241142D02*
Y259449D01*
X254429Y23720D02*
X256693Y25984D01*
X222244Y23720D02*
X254429D01*
X256693Y25984D02*
Y44685D01*
X199528Y25000D02*
X211221D01*
X199016Y24488D02*
X199528Y25000D01*
X211221D02*
X212795Y26575D01*
Y33366D01*
Y33760D02*
X214272Y35236D01*
X212795Y33366D02*
Y33760D01*
X214272Y35236D02*
X216732D01*
X218799Y37303D01*
X222441D01*
X222244Y31004D02*
X222441Y31201D01*
Y37303D01*
X212697Y44488D02*
X212795Y44587D01*
X212795Y44587D01*
X223031Y131299D02*
X240354D01*
X220610Y133721D02*
X223031Y131299D01*
X220610Y133721D02*
Y145768D01*
X231496Y114961D02*
X233858Y112598D01*
X224606Y114961D02*
X231496D01*
X220610Y118957D02*
X224606Y114961D01*
X233858Y106102D02*
Y112598D01*
X220610Y118957D02*
Y124311D01*
X218701Y106102D02*
Y109843D01*
X210610Y117933D02*
X218701Y109843D01*
X210610Y117933D02*
Y124311D01*
X203543Y85728D02*
Y106102D01*
X192717Y83661D02*
X197933Y78445D01*
X203543D01*
X192717Y83661D02*
Y93701D01*
X137992D02*
Y263779D01*
X124409Y71850D02*
X125394Y70866D01*
X124409Y71850D02*
Y79331D01*
X121063Y82677D02*
X124409Y79331D01*
X117323Y82677D02*
X121063D01*
X125394Y70866D02*
X140551D01*
X155315D01*
X162598D02*
Y81693D01*
X173406Y92500D01*
Y135453D01*
X210610Y145768D02*
Y164390D01*
X205610Y139665D02*
Y145768D01*
X225610Y135453D02*
Y145768D01*
X163583Y240551D02*
X221083Y183051D01*
Y164390D02*
Y183051D01*
X163583Y240551D02*
Y263976D01*
X148622Y249016D02*
X215610Y182028D01*
Y145768D02*
Y182028D01*
X148622Y249016D02*
Y263779D01*
X200610Y145768D02*
Y190728D01*
X142520Y248819D02*
Y263779D01*
Y248819D02*
X200610Y190728D01*
X245965Y396358D02*
Y402165D01*
X163287Y401083D02*
X163386Y400984D01*
X163287Y401083D02*
Y410039D01*
X142520Y466142D02*
X149213D01*
X91299Y395827D02*
X99949D01*
X84055Y387894D02*
Y388583D01*
X91299Y395827D01*
X81398Y384547D02*
X84055Y387205D01*
Y387894D01*
X75590Y384547D02*
X81398D01*
X68110D02*
X75590D01*
X338484Y505807D02*
X343504D01*
X336811Y504134D02*
X338484Y505807D01*
X333858Y506299D02*
X337402Y509842D01*
X347342D02*
X351378Y505807D01*
X337402Y509842D02*
X347342D01*
X380413Y505807D02*
X383071Y503150D01*
X375000Y505807D02*
X380413D01*
X371161Y509842D02*
X383465D01*
X367126Y505807D02*
X371161Y509842D01*
X623150Y26969D02*
Y123543D01*
X613150Y26969D02*
Y128110D01*
X573465Y27165D02*
Y133661D01*
X563465Y147638D02*
X563465Y27165D01*
X460433Y141240D02*
Y147638D01*
X460433Y147638D02*
X460433Y147638D01*
X466240Y123622D02*
X486221D01*
X480709Y125591D02*
X483268Y128150D01*
X486221D01*
X466240Y125591D02*
X480709D01*
X483465Y133661D02*
X486221D01*
X481299Y131496D02*
X483465Y133661D01*
X466240Y131496D02*
X481299D01*
X778150Y239567D02*
X778150Y392126D01*
X670079Y443701D02*
X726575D01*
X778150Y392126D01*
X587598Y505807D02*
X591634Y509842D01*
X603937D01*
X670079Y443701D01*
X516535Y37795D02*
Y42323D01*
X457874Y212205D02*
Y216732D01*
X405217Y145177D02*
X407874Y142520D01*
Y136024D02*
Y142520D01*
Y136024D02*
X414370Y129527D01*
X400197Y145177D02*
X405217D01*
X416732Y131496D02*
X432972D01*
X410827Y137402D02*
X416732Y131496D01*
X410827Y137402D02*
Y153347D01*
X400197Y157677D02*
X406496D01*
X410827Y153347D01*
X400197Y157677D02*
Y166142D01*
Y137205D02*
Y145177D01*
X414370Y129527D02*
X432972D01*
X660236Y14764D02*
Y31102D01*
Y38386D02*
Y42913D01*
X411811Y122047D02*
X413386Y123622D01*
X415158Y93504D02*
X415551Y93898D01*
X414961Y112697D02*
X419882D01*
X413386Y123622D02*
X432972D01*
X407283Y111221D02*
X409252Y113189D01*
X400787Y111221D02*
X407283D01*
X409252Y113189D02*
Y122441D01*
X412402Y125591D01*
X432972D01*
X388779Y108858D02*
X391929D01*
X394291Y111221D02*
X400787D01*
X391929Y108858D02*
X394291Y111221D01*
X392126Y129331D02*
X394094Y127362D01*
X388779Y129331D02*
X392126D01*
X394094Y127362D02*
X400787D01*
X400984Y127559D02*
X432972D01*
X400787Y127362D02*
X400984Y127559D01*
D18*
X309646Y96358D02*
D03*
Y84744D02*
D03*
X319488Y96161D02*
D03*
Y84547D02*
D03*
X287795Y74508D02*
D03*
Y86122D02*
D03*
X312008Y64272D02*
D03*
Y75886D02*
D03*
X329331Y96161D02*
D03*
Y84547D02*
D03*
X390551Y193405D02*
D03*
Y181791D02*
D03*
D19*
X362205Y62106D02*
D03*
Y54823D02*
D03*
X320866Y66831D02*
D03*
Y74114D02*
D03*
X362205Y68209D02*
D03*
Y75492D02*
D03*
X323425Y158366D02*
D03*
Y151083D02*
D03*
X301181Y88681D02*
D03*
Y95965D02*
D03*
Y82579D02*
D03*
Y75295D02*
D03*
X254921Y200295D02*
D03*
Y207579D02*
D03*
X397638Y298721D02*
D03*
Y291437D02*
D03*
X297441Y215453D02*
D03*
Y222736D02*
D03*
X610236Y408366D02*
D03*
Y401083D02*
D03*
X513779Y219488D02*
D03*
Y212205D02*
D03*
X600787Y241535D02*
D03*
Y234252D02*
D03*
X574213Y241535D02*
D03*
Y234252D02*
D03*
X574016Y217028D02*
D03*
Y224311D02*
D03*
X600591Y217028D02*
D03*
Y224311D02*
D03*
X516535Y37795D02*
D03*
Y30512D02*
D03*
X502559Y246752D02*
D03*
Y239469D02*
D03*
X475295Y246850D02*
D03*
Y239567D02*
D03*
X419882Y261910D02*
D03*
Y269193D02*
D03*
X411024Y262008D02*
D03*
Y269291D02*
D03*
X557087Y242028D02*
D03*
Y249311D02*
D03*
X457874Y204921D02*
D03*
Y212205D02*
D03*
X432087Y199705D02*
D03*
Y192421D02*
D03*
X388976Y298721D02*
D03*
Y291437D02*
D03*
X286024Y200984D02*
D03*
Y193701D02*
D03*
X660236Y38386D02*
D03*
Y31102D02*
D03*
X73032Y36614D02*
D03*
Y29331D02*
D03*
X454921Y36614D02*
D03*
Y29331D02*
D03*
X398819Y36811D02*
D03*
Y29528D02*
D03*
X319488Y130610D02*
D03*
Y123327D02*
D03*
X233858Y75689D02*
D03*
Y82972D02*
D03*
X218898Y78347D02*
D03*
Y85630D02*
D03*
X203543Y78445D02*
D03*
Y85728D02*
D03*
X419882Y119980D02*
D03*
Y112697D02*
D03*
X474606Y135039D02*
D03*
Y142323D02*
D03*
X222244Y31004D02*
D03*
Y23720D02*
D03*
X140551Y78150D02*
D03*
Y70866D02*
D03*
X222441Y44587D02*
D03*
Y37303D02*
D03*
X75590Y377264D02*
D03*
Y384547D02*
D03*
D20*
X400787Y127165D02*
D03*
Y111417D02*
D03*
D21*
X316043Y165748D02*
D03*
X323327D02*
D03*
X291831Y65158D02*
D03*
X299114D02*
D03*
X418405Y233858D02*
D03*
X411122D02*
D03*
X440453D02*
D03*
X433169D02*
D03*
X445276Y159646D02*
D03*
X437992D02*
D03*
X590650Y234252D02*
D03*
X583366D02*
D03*
X590650Y224409D02*
D03*
X583366D02*
D03*
X486221Y239567D02*
D03*
X493504D02*
D03*
X422146Y204331D02*
D03*
X414862D02*
D03*
X388878Y280315D02*
D03*
X396161D02*
D03*
X326083Y222638D02*
D03*
X333366D02*
D03*
X439370Y149213D02*
D03*
X432087D02*
D03*
X459941Y99803D02*
D03*
X467224D02*
D03*
X155315Y70866D02*
D03*
X162598D02*
D03*
X253248Y402165D02*
D03*
X245965D02*
D03*
X245866Y410039D02*
D03*
X253150D02*
D03*
X170571D02*
D03*
X163287D02*
D03*
X184350D02*
D03*
X177067D02*
D03*
X67618Y384646D02*
D03*
X60335D02*
D03*
X156496Y466142D02*
D03*
X149213D02*
D03*
X170768D02*
D03*
X163484D02*
D03*
D22*
X339961Y90748D02*
D03*
X354528D02*
D03*
D23*
X352953Y57913D02*
D03*
Y62913D02*
D03*
Y67913D02*
D03*
Y72913D02*
D03*
X330315Y57913D02*
D03*
Y62913D02*
D03*
Y67913D02*
D03*
Y72913D02*
D03*
D24*
X341634Y65413D02*
D03*
D25*
X647047Y363583D02*
D03*
X619882D02*
D03*
X646850Y334646D02*
D03*
X619685D02*
D03*
D26*
X235610Y145768D02*
D03*
X230610D02*
D03*
X225610D02*
D03*
X220610D02*
D03*
X215610D02*
D03*
X210610D02*
D03*
X205610D02*
D03*
X200610D02*
D03*
X235610Y124311D02*
D03*
X230610D02*
D03*
X225610D02*
D03*
X220610D02*
D03*
X215610D02*
D03*
X210610D02*
D03*
X205610D02*
D03*
X285413Y145571D02*
D03*
X280413D02*
D03*
X275413D02*
D03*
X270413D02*
D03*
X265413D02*
D03*
X260413D02*
D03*
X255413D02*
D03*
X250413D02*
D03*
X285413Y124114D02*
D03*
X280413D02*
D03*
X275413D02*
D03*
X270413D02*
D03*
X265413D02*
D03*
X260413D02*
D03*
X255413D02*
D03*
D27*
X200610Y124311D02*
D03*
X250413Y124114D02*
D03*
D28*
X581595Y247244D02*
D03*
X592815D02*
D03*
X581595Y211221D02*
D03*
X592815D02*
D03*
X493504Y253346D02*
D03*
X482283D02*
D03*
X341142Y222638D02*
D03*
X352362D02*
D03*
X117323Y82677D02*
D03*
X106102D02*
D03*
D29*
X565158Y234252D02*
D03*
Y245472D02*
D03*
X564961Y224311D02*
D03*
Y213090D02*
D03*
X511417Y239370D02*
D03*
Y250590D02*
D03*
X212795Y33366D02*
D03*
Y44587D02*
D03*
X269882Y424016D02*
D03*
Y435236D02*
D03*
X164567Y388090D02*
D03*
Y376870D02*
D03*
X84055Y387894D02*
D03*
Y376673D02*
D03*
X192913Y431988D02*
D03*
Y443209D02*
D03*
D30*
X516535Y14764D02*
D03*
X522047D02*
D03*
X660236D02*
D03*
X665748D02*
D03*
X398819D02*
D03*
X404331D02*
D03*
X454921Y14370D02*
D03*
X460433D02*
D03*
X394685Y137205D02*
D03*
X400197D02*
D03*
X394685Y166142D02*
D03*
X400197D02*
D03*
X73032Y14173D02*
D03*
X78543D02*
D03*
D31*
X298228Y421654D02*
D03*
Y425591D02*
D03*
X320472Y426968D02*
D03*
Y423032D02*
D03*
D32*
X411024Y244094D02*
D03*
X418504D02*
D03*
X414764Y253150D02*
D03*
X433071Y244094D02*
D03*
X440551D02*
D03*
X436811Y253150D02*
D03*
X377362Y193307D02*
D03*
X381102Y184252D02*
D03*
X373622D02*
D03*
X203543Y106102D02*
D03*
X207283Y97047D02*
D03*
X199803D02*
D03*
X233858Y106102D02*
D03*
X237598Y97047D02*
D03*
X230118D02*
D03*
X218701Y106102D02*
D03*
X222441Y97047D02*
D03*
X214961D02*
D03*
D33*
X506693Y224213D02*
D03*
Y220472D02*
D03*
Y216732D02*
D03*
X496063D02*
D03*
Y220472D02*
D03*
Y224213D02*
D03*
X328937Y130709D02*
D03*
Y134449D02*
D03*
Y138189D02*
D03*
X339567D02*
D03*
Y134449D02*
D03*
Y130709D02*
D03*
D34*
X549409Y219331D02*
D03*
Y224331D02*
D03*
Y229331D02*
D03*
Y234331D02*
D03*
Y239331D02*
D03*
Y244331D02*
D03*
Y249331D02*
D03*
X527953Y219331D02*
D03*
Y224331D02*
D03*
Y229331D02*
D03*
Y234331D02*
D03*
Y239331D02*
D03*
Y244331D02*
D03*
Y249331D02*
D03*
D35*
X390551Y204331D02*
D03*
X381496Y200591D02*
D03*
Y208071D02*
D03*
X406890Y204331D02*
D03*
X397835Y200591D02*
D03*
Y208071D02*
D03*
D36*
X450197Y204331D02*
D03*
Y200591D02*
D03*
Y196850D02*
D03*
X439567D02*
D03*
Y200591D02*
D03*
Y204331D02*
D03*
D37*
X278366Y215059D02*
D03*
X273366D02*
D03*
X268366D02*
D03*
X263366D02*
D03*
X278366Y193602D02*
D03*
X273366D02*
D03*
X268366D02*
D03*
X263366D02*
D03*
D38*
X335512Y237992D02*
D03*
X355512D02*
D03*
X105394Y70866D02*
D03*
X125394D02*
D03*
D39*
X345512Y278201D02*
D03*
X115394Y30658D02*
D03*
D40*
X400197Y145177D02*
D03*
X378197D02*
D03*
Y157677D02*
D03*
X400197D02*
D03*
D41*
X438779Y141240D02*
D03*
X440748D02*
D03*
X442717D02*
D03*
X444685D02*
D03*
X446654D02*
D03*
X448622D02*
D03*
X450591D02*
D03*
X452559D02*
D03*
X454528D02*
D03*
X456496D02*
D03*
X458465D02*
D03*
X460433D02*
D03*
Y107972D02*
D03*
X458465D02*
D03*
X456496D02*
D03*
X454528D02*
D03*
X452559D02*
D03*
X450591D02*
D03*
X448622D02*
D03*
X446654D02*
D03*
X444685D02*
D03*
X442717D02*
D03*
X440748D02*
D03*
X438779D02*
D03*
D42*
X466240Y135433D02*
D03*
Y133465D02*
D03*
Y131496D02*
D03*
Y129527D02*
D03*
Y127559D02*
D03*
Y125591D02*
D03*
Y123622D02*
D03*
Y121653D02*
D03*
Y119685D02*
D03*
Y117717D02*
D03*
Y115748D02*
D03*
Y113779D02*
D03*
X432972D02*
D03*
Y115748D02*
D03*
Y117717D02*
D03*
Y119685D02*
D03*
Y121653D02*
D03*
Y123622D02*
D03*
Y125591D02*
D03*
Y127559D02*
D03*
Y129527D02*
D03*
Y131496D02*
D03*
Y133465D02*
D03*
Y135433D02*
D03*
D43*
X388779Y114370D02*
D03*
Y108858D02*
D03*
Y123819D02*
D03*
Y129331D02*
D03*
D44*
X158807Y34488D02*
D03*
X217323Y385827D02*
D03*
X217272Y434094D02*
D03*
X140157Y385827D02*
D03*
X140106Y434094D02*
D03*
D45*
X199016Y44488D02*
D03*
Y24488D02*
D03*
X177114Y375827D02*
D03*
Y395827D02*
D03*
X257480Y444095D02*
D03*
Y424094D02*
D03*
X99949Y375827D02*
D03*
Y395827D02*
D03*
X180315Y444095D02*
D03*
Y424094D02*
D03*
D46*
X298228Y436221D02*
D03*
X322244D02*
D03*
X298228Y452362D02*
D03*
X322244D02*
D03*
D93*
X349606Y57913D02*
X352953D01*
X294882Y88386D02*
X295472D01*
X301033Y88534D02*
X301181Y88681D01*
X353100Y68061D02*
X362057D01*
X352953Y67913D02*
X353100Y68061D01*
X362057D02*
X362205Y68209D01*
X440502Y239911D02*
X440551Y239961D01*
X440453Y233858D02*
X440502Y233908D01*
Y239911D01*
X418405Y233858D02*
X418455Y233908D01*
Y239911D01*
X418504Y239961D01*
X549419Y249321D02*
X557077D01*
X557087Y249311D01*
X549409Y249331D02*
X549419Y249321D01*
X557087Y249311D02*
Y253937D01*
X339567Y125394D02*
Y130709D01*
X319488Y118898D02*
Y123327D01*
X511417Y250590D02*
Y255512D01*
X319488Y123327D02*
X319488Y123327D01*
X324803Y134449D02*
X328937D01*
X114606Y116929D02*
Y154705D01*
Y159055D02*
Y253937D01*
X260413Y145571D02*
Y159075D01*
X236260Y183622D02*
X255413Y164469D01*
X236260Y183622D02*
Y253937D01*
X255413Y145571D02*
Y164469D01*
X250394Y154724D02*
X250413Y154705D01*
Y145571D02*
Y154705D01*
X506693Y220472D02*
X518898D01*
X565158Y245472D02*
Y250295D01*
X564961Y208268D02*
Y213090D01*
X418504Y239961D02*
X418504Y239961D01*
X418504Y239961D02*
Y244094D01*
X440551Y239961D02*
X440551Y239961D01*
X440551Y239961D02*
Y244094D01*
X496063Y224213D02*
Y229921D01*
X397835Y196850D02*
Y200591D01*
X377165Y200591D02*
X377165Y200591D01*
X381496D01*
X439567Y194095D02*
Y196850D01*
X437894Y192421D02*
X439567Y194095D01*
X432087Y192421D02*
X437894D01*
X432037Y192372D02*
X432087Y192421D01*
X427411Y192372D02*
X432037D01*
X427362Y192323D02*
X427411Y192372D01*
D94*
X361398Y62913D02*
X362205Y62106D01*
X352953Y62913D02*
X361398D01*
X281299Y101575D02*
X297638Y117913D01*
X281299Y51575D02*
Y101575D01*
Y51575D02*
X288583Y44291D01*
X277756Y103740D02*
X293504Y119488D01*
X277756Y50000D02*
Y103740D01*
Y50000D02*
X287205Y40551D01*
X307874D01*
X313386Y28346D02*
Y35039D01*
X307874Y40551D02*
X313386Y35039D01*
X311496Y44291D02*
X323504Y32283D01*
X288583Y44291D02*
X311496D01*
X293504Y119488D02*
Y168701D01*
X313386Y28346D02*
X317323Y24409D01*
X297638Y117913D02*
Y174606D01*
X293307Y178937D02*
X297638Y174606D01*
X289961Y172244D02*
X293504Y168701D01*
X388976Y298721D02*
X397638D01*
X298228Y436221D02*
X298228Y436221D01*
Y425591D02*
Y436221D01*
Y416732D02*
Y421654D01*
X244685Y184252D02*
Y363189D01*
X298228Y416732D01*
X320472Y426968D02*
Y430118D01*
X322244Y431890D01*
Y436221D01*
X250000Y352346D02*
X320472Y422818D01*
X250000Y185827D02*
Y352346D01*
X320472Y422818D02*
Y423032D01*
X388779Y280413D02*
X388878Y280315D01*
X388976Y298721D02*
Y305118D01*
X250000Y185827D02*
X256890Y178937D01*
X293307D01*
X317323Y24409D02*
X335630D01*
X343504Y32283D01*
X256693Y172244D02*
X289961D01*
X244685Y184252D02*
X256693Y172244D01*
X298228Y421654D02*
Y425591D01*
X320472Y423032D02*
Y426968D01*
D95*
X310039Y165748D02*
X316043D01*
X610236Y408366D02*
Y412795D01*
X278415Y193553D02*
X290896D01*
X278366Y193602D02*
X278415Y193553D01*
X290896D02*
X290945Y193504D01*
X184843Y376772D02*
X188976Y380906D01*
Y404724D01*
X184350Y409350D02*
Y410039D01*
Y409350D02*
X188976Y404724D01*
X140551Y78150D02*
Y82677D01*
X235610Y145768D02*
X235620Y145778D01*
Y150581D01*
Y140955D02*
Y145758D01*
Y150581D02*
X235630Y150591D01*
X235610Y145768D02*
X235620Y145758D01*
Y140955D02*
X235630Y140945D01*
X660236Y14764D02*
X660236Y14764D01*
X285413Y145571D02*
X285423Y145561D01*
Y140758D02*
Y145561D01*
Y140758D02*
X285433Y140748D01*
X285423Y145581D02*
Y150384D01*
X285413Y145571D02*
X285423Y145581D01*
Y150384D02*
X285433Y150394D01*
D96*
X610236Y397094D02*
X720031D01*
X291260Y313937D02*
X291486Y313711D01*
X603543Y397094D02*
X610236D01*
X579724Y450197D02*
Y474311D01*
Y450197D02*
X601575Y428346D01*
X720276D01*
X763189Y385433D01*
Y95276D02*
Y385433D01*
X742638Y74724D02*
X763189Y95276D01*
X719685Y74724D02*
X742638D01*
X587402Y397094D02*
X603543D01*
X719685Y89724D02*
X731063D01*
X744488Y103150D01*
Y372638D01*
X720031Y397094D02*
X744488Y372638D01*
X355512Y176969D02*
Y237992D01*
X341772Y278201D02*
X345512D01*
D97*
X619685Y286221D02*
D03*
X576083D02*
D03*
X532480D02*
D03*
X488878D02*
D03*
X445276D02*
D03*
D98*
X619685Y305906D02*
D03*
X576083D02*
D03*
X532480D02*
D03*
X488878D02*
D03*
X445276D02*
D03*
D99*
X709646Y24016D02*
D03*
X729724D02*
D03*
D100*
X719685Y74724D02*
D03*
Y89724D02*
D03*
Y104724D02*
D03*
D101*
X276260Y253937D02*
D03*
X236260D02*
D03*
X114606Y116929D02*
D03*
X154606D02*
D03*
X114606Y253937D02*
D03*
X154606D02*
D03*
D102*
X221260Y303937D02*
D03*
X291260Y313937D02*
D03*
Y343937D02*
D03*
X169606Y206929D02*
D03*
Y176929D02*
D03*
X99606Y166929D02*
D03*
X169606Y343937D02*
D03*
Y313937D02*
D03*
X99606Y303937D02*
D03*
D103*
X553465Y27165D02*
D03*
X573465D02*
D03*
X563465D02*
D03*
X603150Y26969D02*
D03*
X623150D02*
D03*
X613150D02*
D03*
D104*
X583465Y27165D02*
D03*
X633150Y26969D02*
D03*
D105*
X389961Y76181D02*
D03*
Y93898D02*
D03*
X415551Y76181D02*
D03*
Y93898D02*
D03*
D106*
X303504Y32283D02*
D03*
X323504D02*
D03*
X343504D02*
D03*
X363504D02*
D03*
D107*
X266653D02*
D03*
D108*
X246654D02*
D03*
D109*
X553543Y344094D02*
D03*
X540143D02*
D03*
X553543Y397094D02*
D03*
X540143D02*
D03*
X574002Y397094D02*
D03*
X587402D02*
D03*
X574002Y344094D02*
D03*
X587402D02*
D03*
X340551Y396701D02*
D03*
X353951D02*
D03*
X340551Y343701D02*
D03*
X353951D02*
D03*
X374002Y396850D02*
D03*
X387402D02*
D03*
X374002Y343850D02*
D03*
X387402D02*
D03*
X407480Y397094D02*
D03*
X420880D02*
D03*
X407480Y344094D02*
D03*
X420880D02*
D03*
X440537Y397094D02*
D03*
X453937D02*
D03*
X440537Y344094D02*
D03*
X453937D02*
D03*
X474016Y397094D02*
D03*
X487416D02*
D03*
X474016Y344094D02*
D03*
X487416D02*
D03*
X507072Y397244D02*
D03*
X520472D02*
D03*
X507072Y344244D02*
D03*
X520472D02*
D03*
D110*
X525098Y482185D02*
D03*
X449311Y476279D02*
D03*
X481791D02*
D03*
X514272D02*
D03*
X449311Y482185D02*
D03*
X481791D02*
D03*
X514272D02*
D03*
X449311Y488091D02*
D03*
X481791D02*
D03*
X514272D02*
D03*
X449311Y493996D02*
D03*
X481791D02*
D03*
X514272D02*
D03*
X449311Y499902D02*
D03*
X481791D02*
D03*
X514272D02*
D03*
X449311Y505807D02*
D03*
X481791D02*
D03*
X514272D02*
D03*
X546752Y476279D02*
D03*
X525098D02*
D03*
X535925D02*
D03*
X492618D02*
D03*
X503445D02*
D03*
X460138D02*
D03*
X470965D02*
D03*
X546752Y482185D02*
D03*
Y488091D02*
D03*
Y493996D02*
D03*
Y499902D02*
D03*
Y505807D02*
D03*
X535925Y482185D02*
D03*
X525098Y488091D02*
D03*
X535925D02*
D03*
X525098Y493996D02*
D03*
X535925D02*
D03*
X525098Y499902D02*
D03*
X535925D02*
D03*
X525098Y505807D02*
D03*
X535925D02*
D03*
X492618Y482185D02*
D03*
X503445D02*
D03*
X492618Y488091D02*
D03*
X503445D02*
D03*
X492618Y493996D02*
D03*
X503445D02*
D03*
X492618Y499902D02*
D03*
X503445D02*
D03*
X492618Y505807D02*
D03*
X503445D02*
D03*
X460138Y482185D02*
D03*
X470965D02*
D03*
X460138Y488091D02*
D03*
X470965D02*
D03*
X460138Y493996D02*
D03*
X470965D02*
D03*
X460138Y499902D02*
D03*
X470965D02*
D03*
X460138Y505807D02*
D03*
X470965D02*
D03*
X304626Y482185D02*
D03*
X228839Y476279D02*
D03*
X261319D02*
D03*
X293799D02*
D03*
X228839Y482185D02*
D03*
X261319D02*
D03*
X293799D02*
D03*
X228839Y488091D02*
D03*
X261319D02*
D03*
X293799D02*
D03*
X228839Y493996D02*
D03*
X261319D02*
D03*
X293799D02*
D03*
X228839Y499902D02*
D03*
X261319D02*
D03*
X293799D02*
D03*
X228839Y505807D02*
D03*
X261319D02*
D03*
X293799D02*
D03*
X326279Y476279D02*
D03*
X304626D02*
D03*
X315453D02*
D03*
X272146D02*
D03*
X282972D02*
D03*
X239665D02*
D03*
X250492D02*
D03*
X326279Y482185D02*
D03*
Y488091D02*
D03*
Y493996D02*
D03*
Y499902D02*
D03*
Y505807D02*
D03*
X315453Y482185D02*
D03*
X304626Y488091D02*
D03*
X315453D02*
D03*
X304626Y493996D02*
D03*
X315453D02*
D03*
X304626Y499902D02*
D03*
X315453D02*
D03*
X304626Y505807D02*
D03*
X315453D02*
D03*
X272146Y482185D02*
D03*
X282972D02*
D03*
X272146Y488091D02*
D03*
X282972D02*
D03*
X272146Y493996D02*
D03*
X282972D02*
D03*
X272146Y499902D02*
D03*
X282972D02*
D03*
X272146Y505807D02*
D03*
X282972D02*
D03*
X239665Y482185D02*
D03*
X250492D02*
D03*
X239665Y488091D02*
D03*
X250492D02*
D03*
X239665Y493996D02*
D03*
X250492D02*
D03*
X239665Y499902D02*
D03*
X250492D02*
D03*
X239665Y505807D02*
D03*
X250492D02*
D03*
D111*
X563976D02*
D03*
Y497933D02*
D03*
Y490059D02*
D03*
Y482185D02*
D03*
Y474311D02*
D03*
X571850Y505807D02*
D03*
Y497933D02*
D03*
Y490059D02*
D03*
Y482185D02*
D03*
Y474311D02*
D03*
X579724Y505807D02*
D03*
Y497933D02*
D03*
Y490059D02*
D03*
Y482185D02*
D03*
Y474311D02*
D03*
X587598Y505807D02*
D03*
Y497933D02*
D03*
Y490059D02*
D03*
Y482185D02*
D03*
Y474311D02*
D03*
X595472Y505807D02*
D03*
Y497933D02*
D03*
Y490059D02*
D03*
Y482185D02*
D03*
Y474311D02*
D03*
X343504Y505807D02*
D03*
Y497933D02*
D03*
Y490059D02*
D03*
Y482185D02*
D03*
Y474311D02*
D03*
X351378Y505807D02*
D03*
Y497933D02*
D03*
Y490059D02*
D03*
Y482185D02*
D03*
Y474311D02*
D03*
X359252Y505807D02*
D03*
Y497933D02*
D03*
Y490059D02*
D03*
Y482185D02*
D03*
Y474311D02*
D03*
X367126Y505807D02*
D03*
Y497933D02*
D03*
Y490059D02*
D03*
Y482185D02*
D03*
Y474311D02*
D03*
X375000Y505807D02*
D03*
Y497933D02*
D03*
Y490059D02*
D03*
Y482185D02*
D03*
Y474311D02*
D03*
D112*
X295472Y88386D02*
D03*
Y54724D02*
D03*
X306102Y75984D02*
D03*
X362205Y50984D02*
D03*
X337795Y100787D02*
D03*
X334055D02*
D03*
X326575D02*
D03*
X322835D02*
D03*
X315354D02*
D03*
X311614D02*
D03*
X307874D02*
D03*
X304134D02*
D03*
X287795Y90158D02*
D03*
X307677Y80512D02*
D03*
X311614D02*
D03*
X317520Y80315D02*
D03*
X321457D02*
D03*
X331102D02*
D03*
X327165D02*
D03*
X357677Y128937D02*
D03*
X323425Y146850D02*
D03*
X310039Y165748D02*
D03*
X440945Y123622D02*
D03*
X414961Y120276D02*
D03*
X366339Y87402D02*
D03*
X362402Y96653D02*
D03*
X426968Y100394D02*
D03*
X370276D02*
D03*
X285630Y70669D02*
D03*
Y64370D02*
D03*
Y67520D02*
D03*
X652559Y368504D02*
D03*
Y365223D02*
D03*
Y361942D02*
D03*
Y358661D02*
D03*
X655315D02*
D03*
Y361942D02*
D03*
Y365223D02*
D03*
Y368504D02*
D03*
X611614Y358661D02*
D03*
Y361942D02*
D03*
Y365223D02*
D03*
Y368504D02*
D03*
X614370D02*
D03*
Y365223D02*
D03*
Y361942D02*
D03*
Y358661D02*
D03*
X614173Y329724D02*
D03*
Y333005D02*
D03*
Y336286D02*
D03*
Y339567D02*
D03*
X611417D02*
D03*
Y336286D02*
D03*
Y333005D02*
D03*
Y329724D02*
D03*
X655118Y339567D02*
D03*
Y336286D02*
D03*
Y333005D02*
D03*
Y329724D02*
D03*
X652362D02*
D03*
Y333005D02*
D03*
Y336286D02*
D03*
Y339567D02*
D03*
X557087Y253937D02*
D03*
X539961Y206890D02*
D03*
X446327Y237205D02*
D03*
X611221Y224311D02*
D03*
X401772Y242913D02*
D03*
X600787Y246654D02*
D03*
X610433Y242913D02*
D03*
X36417Y139567D02*
D03*
X171653Y366732D02*
D03*
X182677D02*
D03*
X179003D02*
D03*
X175328D02*
D03*
X94488Y366535D02*
D03*
X105512D02*
D03*
X101837D02*
D03*
X98163D02*
D03*
Y370079D02*
D03*
X101837D02*
D03*
X105512D02*
D03*
X94488D02*
D03*
X171653Y370276D02*
D03*
X182677D02*
D03*
X179003D02*
D03*
X175328D02*
D03*
X345669Y293898D02*
D03*
X353543D02*
D03*
X337795D02*
D03*
X329921D02*
D03*
X361417D02*
D03*
X345669Y262402D02*
D03*
X337795D02*
D03*
X353543D02*
D03*
X361417D02*
D03*
X329921D02*
D03*
Y278150D02*
D03*
Y286024D02*
D03*
Y270276D02*
D03*
X361417Y278150D02*
D03*
Y270276D02*
D03*
Y286024D02*
D03*
X353543D02*
D03*
Y270276D02*
D03*
X337795D02*
D03*
Y286024D02*
D03*
X345669Y270276D02*
D03*
X337795Y278150D02*
D03*
X345669Y286024D02*
D03*
X353543Y278150D02*
D03*
X345669D02*
D03*
X94685Y67520D02*
D03*
Y72244D02*
D03*
Y76968D02*
D03*
Y81693D02*
D03*
X320079Y138189D02*
D03*
X260413Y132461D02*
D03*
X306102Y206890D02*
D03*
Y137776D02*
D03*
X250413D02*
D03*
X370276Y155512D02*
D03*
X366339Y149803D02*
D03*
X421260Y81693D02*
D03*
X419291Y149803D02*
D03*
X425984Y155512D02*
D03*
X500000Y76968D02*
D03*
X495472Y80905D02*
D03*
X490748Y73425D02*
D03*
X431299D02*
D03*
X437008Y76968D02*
D03*
X442717Y80905D02*
D03*
X461221Y41732D02*
D03*
X73032D02*
D03*
X362402Y119003D02*
D03*
X339567Y125394D02*
D03*
X462598Y85039D02*
D03*
X233268Y118504D02*
D03*
X456890Y88779D02*
D03*
X230118Y89370D02*
D03*
X207283Y93110D02*
D03*
X214961Y92913D02*
D03*
X199803Y109449D02*
D03*
X205512Y115157D02*
D03*
X224213Y107480D02*
D03*
X319488Y118898D02*
D03*
X486811Y108661D02*
D03*
X482874Y112205D02*
D03*
X486614Y115945D02*
D03*
X482480Y119685D02*
D03*
X506102Y152165D02*
D03*
X314173Y130709D02*
D03*
X444685Y134055D02*
D03*
X440748Y128740D02*
D03*
X339567Y160827D02*
D03*
X510039D02*
D03*
X455512D02*
D03*
X454134Y169095D02*
D03*
X448622Y168307D02*
D03*
X549409Y164567D02*
D03*
X543110Y169086D02*
D03*
X536614Y172638D02*
D03*
X373622Y172638D02*
D03*
X369882Y193307D02*
D03*
X506693Y206890D02*
D03*
X778150Y239567D02*
D03*
X480758Y239567D02*
D03*
X414764Y256890D02*
D03*
X263386Y187598D02*
D03*
X218898Y73425D02*
D03*
X245276D02*
D03*
X170079Y259449D02*
D03*
X192717Y93701D02*
D03*
X137992D02*
D03*
Y263779D02*
D03*
X171653Y473032D02*
D03*
X140551Y82677D02*
D03*
X173406Y135453D02*
D03*
X225610D02*
D03*
X205610Y139665D02*
D03*
X235630Y150591D02*
D03*
X210610Y164390D02*
D03*
X235630Y140945D02*
D03*
X221083Y164390D02*
D03*
X163583Y263976D02*
D03*
X245965Y396358D02*
D03*
X148622Y263779D02*
D03*
X163287Y401083D02*
D03*
X142520Y263779D02*
D03*
X142520Y466142D02*
D03*
X114606Y154705D02*
D03*
Y159055D02*
D03*
X260413Y159075D02*
D03*
X250413Y154705D02*
D03*
X623150Y123543D02*
D03*
X613150Y128110D02*
D03*
X573465Y133661D02*
D03*
X563465Y147638D02*
D03*
X460433D02*
D03*
X486221Y123622D02*
D03*
Y128150D02*
D03*
Y133661D02*
D03*
X467323Y94882D02*
D03*
X610236Y412795D02*
D03*
X518701Y212402D02*
D03*
X543898Y246260D02*
D03*
X574213Y246850D02*
D03*
X565158Y250295D02*
D03*
X564961Y208268D02*
D03*
X574016Y212992D02*
D03*
X600787Y212795D02*
D03*
X516535Y42323D02*
D03*
X475295Y251181D02*
D03*
X502559Y251181D02*
D03*
X511417Y255512D02*
D03*
X440551Y239961D02*
D03*
X418504D02*
D03*
X436811Y256890D02*
D03*
X518898Y220472D02*
D03*
X491732D02*
D03*
X496063Y229921D02*
D03*
X352756Y174213D02*
D03*
X358268D02*
D03*
Y179724D02*
D03*
X352756D02*
D03*
X355512Y176969D02*
D03*
X526181Y216142D02*
D03*
X529331D02*
D03*
X377165Y200591D02*
D03*
X397835Y196850D02*
D03*
X381299Y180512D02*
D03*
X390551Y177559D02*
D03*
X457874Y216732D02*
D03*
X427362Y200197D02*
D03*
Y192323D02*
D03*
X400197Y280315D02*
D03*
X388976Y305118D02*
D03*
X290945Y200984D02*
D03*
Y193504D02*
D03*
X259449Y215158D02*
D03*
X479331Y142323D02*
D03*
Y135039D02*
D03*
X461417Y95079D02*
D03*
X432087Y154134D02*
D03*
X439370D02*
D03*
X83071Y14173D02*
D03*
X465158Y14370D02*
D03*
X409055Y14764D02*
D03*
X660236Y42913D02*
D03*
X670669Y14764D02*
D03*
X324803Y134449D02*
D03*
X343701D02*
D03*
X222441Y100787D02*
D03*
X237598D02*
D03*
X238779Y122638D02*
D03*
Y125787D02*
D03*
X288583Y125591D02*
D03*
Y122441D02*
D03*
X285433Y150394D02*
D03*
Y140748D02*
D03*
X414961Y112697D02*
D03*
X390748Y137008D02*
D03*
X390945Y166142D02*
D03*
X388779Y119095D02*
D03*
X99410Y81693D02*
D03*
Y76968D02*
D03*
Y72244D02*
D03*
Y67520D02*
D03*
D113*
X327165Y431496D02*
D03*
X317520Y435039D02*
D03*
X327165Y435236D02*
D03*
X317520Y438779D02*
D03*
X327165Y438976D02*
D03*
X317520Y442520D02*
D03*
X327165Y442717D02*
D03*
X317520Y446260D02*
D03*
X327165Y446457D02*
D03*
X317520Y450000D02*
D03*
X327165Y450197D02*
D03*
X317520Y453740D02*
D03*
X327165Y453937D02*
D03*
X317520Y457480D02*
D03*
X327165Y457677D02*
D03*
X317520Y431299D02*
D03*
X302953Y451811D02*
D03*
Y446732D02*
D03*
Y441653D02*
D03*
Y436575D02*
D03*
Y431496D02*
D03*
Y456890D02*
D03*
X293504Y456732D02*
D03*
Y431339D02*
D03*
Y436417D02*
D03*
Y441496D02*
D03*
Y446575D02*
D03*
Y451653D02*
D03*
X272638Y449409D02*
D03*
Y458071D02*
D03*
X281299D02*
D03*
Y449409D02*
D03*
X272638Y453740D02*
D03*
X281299D02*
D03*
X276969Y449409D02*
D03*
Y453740D02*
D03*
Y458071D02*
D03*
D114*
X344390Y69744D02*
D03*
X338878D02*
D03*
Y65413D02*
D03*
X344390D02*
D03*
Y61083D02*
D03*
X338878D02*
D03*
M02*
